<svg id="_0277_alien" xmlns="http://www.w3.org/2000/svg" viewBox="0 0 500 500" data-imageid="alien-24" imageName="Alien" class="illustrations_image" style="width: 188px;"><defs><style>.cls-1_alien-24{opacity:.45;}.cls-1_alien-24,.cls-2_alien-24{fill:none;}.cls-3_alien-24{fill:#fff;}.cls-4_alien-24{fill:#a5a5a5;}.cls-5_alien-24{fill:#e6e6e6;}.cls-2_alien-24{opacity:.09;}.cls-6_alien-24{fill:#24285b;}.cls-7_alien-24{fill:#000001;}.cls-8_alien-24{fill:#ffd200;}.cls-9_alien-24{fill:#68e1fd;}</style></defs><g id="bg_alien-24"><g class="cls-1_alien-24"><ellipse class="cls-5_alien-24" cx="240.81" cy="459.89" rx="156.06" ry="21.11"/></g><path class="cls-6_alien-24" d="m169.88,70.09c-75.57,6.21-138.82,61.5-153.14,135.96-4.9,25.51-4.03,53.01,7.38,80.62,43.24,104.64,349.39,128.26,422.9,44.24s41.77-245.74-82.46-260.44c-66.2-7.83-140.09-4.86-194.67-.38Z"/><circle class="cls-3_alien-24" cx="67.15" cy="156.27" r="2.74"/><circle class="cls-3_alien-24" cx="146.43" cy="95.3" r="2.74"/><circle class="cls-3_alien-24" cx="344.62" cy="166.64" r="2.74"/><circle class="cls-3_alien-24" cx="392.88" cy="108.57" r="2.74"/><circle class="cls-3_alien-24" cx="453.01" cy="220.59" r="2.74"/><circle class="cls-3_alien-24" cx="395.62" cy="315.54" r="2.74"/><circle class="cls-3_alien-24" cx="114.72" cy="330.66" r="2.74"/><circle class="cls-3_alien-24" cx="48.27" cy="265.21" r="2.74"/><circle class="cls-3_alien-24" cx="151.47" cy="166.64" r="2.74"/></g><g id="alien_alien-24"><path class="cls-8_alien-24" d="m106.2,232.32s-8.34,28.66,0,29.85c8.34,1.19,8.8-5.06,8.34-12.01s5.33-31.97,5.33-31.97c0,0-12.74-6.49-13.67,14.13Z"/><g class="cls-2_alien-24"><path class="cls-7_alien-24" d="m106.2,232.32s-8.34,28.66,0,29.85c8.34,1.19,8.8-5.06,8.34-12.01s5.33-31.97,5.33-31.97c0,0-12.74-6.49-13.67,14.13Z"/></g><path class="cls-8_alien-24" d="m203.21,199.78s-37.4-23.29-71.37-7.23c-33.98,16.06-23.47,32.12-39.54,50.04s-7.87,21.72,0,19.58c12.97-3.52,17.91-38.03,25.95-39.31,8.03-1.27,21,1.81,13.59,23.43s11.11,17,11.28,9.88c.23-9.24-3.25-40.46,15.9-44.17,19.15-3.71,35.4-6.86,48.18,25.57l12.81-13.03-16.8-24.77Z"/><g class="cls-2_alien-24"><path class="cls-7_alien-24" d="m192.16,194.3l4.53,24.76,7.74,10.56,6.72-3.99s.88-11.07-7.93-25.84l-11.05-5.48Z"/></g><path class="cls-8_alien-24" d="m383.28,234.64s8.34,28.66,0,29.85-8.8-5.06-8.34-12.01c.46-6.95-5.33-31.97-5.33-31.97,0,0,12.74-6.49,13.67,14.13Z"/><g class="cls-2_alien-24"><path class="cls-7_alien-24" d="m383.28,234.64s8.34,28.66,0,29.85-8.8-5.06-8.34-12.01c.46-6.95-5.33-31.97-5.33-31.97,0,0,12.74-6.49,13.67,14.13Z"/></g><path class="cls-8_alien-24" d="m286.27,202.1s37.4-23.29,71.37-7.23c33.98,16.06,23.47,32.12,39.54,50.04,16.06,17.91,7.87,21.72,0,19.58-12.97-3.52-17.91-38.03-25.95-39.31s-21,1.81-13.59,23.43c7.41,21.62-11.11,17-11.28,9.88-.23-9.24,3.25-40.46-15.9-44.17s-35.4-6.86-48.18,25.57l-12.81-13.03,16.8-24.77Z"/><g class="cls-2_alien-24"><path class="cls-7_alien-24" d="m297.32,196.62l-4.53,24.76-7.74,10.56-6.72-3.99s-.88-11.07,7.93-25.84l11.05-5.48Z"/></g><path class="cls-9_alien-24 targetColor" d="m331.72,112.18c-15.25-33.36-52.37-14.16-52.37-14.16l-34.26,9.72-34.26-9.72s-37.12-19.19-52.37,14.16c-15.25,33.36,59.66,72.89,52.37,125.4h68.51c-7.29-52.51,67.61-92.04,52.37-125.4Z" style="fill: rgb(104, 225, 253);"/><g class="cls-2_alien-24"><path class="cls-7_alien-24" d="m248.57,163.23s7.74,12.74,4.96,33.39,1.85,39.54,1.85,39.54l24.01-6.54s-1.9-25.19,26.12-58c0,0,21.25-25.51,25.71-38.12,0,0,9.06-16.94-7.14-32.53,0,0-10.24-12.98-34.99-6.56,0,0-43.64,40.43-40.53,68.83Z"/></g><path class="cls-3_alien-24" d="m225.43,149.31s-7.34,35.21,15.32,38.3c22.66,3.09,29.59-18.45,25.13-42.62-4.46-24.17-41.59-22.3-40.46,4.32Z"/><path class="cls-8_alien-24" d="m213.61,141.49c.45-7.95-1.23-15.85-4.95-22.89-9.92-18.78-24.02-53.77-2.43-70.44,30.32-23.4,87.86-17.55,90.47,12.23,2.61,29.79-22.39,48.93-20.79,71.81,1.6,22.87-22.49,34.2-40.96,31.38-18.6-2.84-21.81-13.71-21.34-22.09Z"/><ellipse class="cls-6_alien-24" cx="224.27" cy="120.82" rx="9.18" ry="16.16" transform="translate(35.71 292.11) rotate(-70.56)"/><ellipse class="cls-6_alien-24" cx="261.43" cy="120.82" rx="16.16" ry="9.18" transform="translate(-25.31 93.88) rotate(-19.44)"/><g class="cls-2_alien-24"><path class="cls-7_alien-24" d="m268.22,35.41s19.78,24.39,3.42,38.95c-16.36,14.56-8.27,34.29-10.22,46.46-1.95,12.18,2.36,34.75-12.86,42.41,0,0,22.35-2.65,27-24.12,0,0,.83-6.26.4-11.91-.44-5.65,5.92-18.71,5.92-18.71,0,0,11.73-20.5,13.81-32.8,0,0,11.59-31.96-27.48-40.28Z"/></g></g><g id="globe_alien-24"><circle class="cls-5_alien-24" cx="240.48" cy="337.87" r="115"/><path class="cls-4_alien-24" d="m155.49,262.59s1.01,16.59,12.39,11.61c11.38-4.98,26.73-10.37,25.07,7.88-1.66,18.25,7.46,20.73,20.32,16.17,12.85-4.56,6.63-5.81,7.46-22.39.83-16.59-20.73-17.42-17.42-29.03,3.32-11.61,29.23,2.23,20.21-22.73,0,0-45.38,3.75-68.04,38.48Z"/><path class="cls-4_alien-24" d="m251.22,305.81c-2.41.03-4.81.49-6.99,1.52-4.54,2.17-10.02,7.4-6.91,19.88,4.98,19.97,13.27,5.13,24.05,7.58,10.78,2.44,35.25,4.93,23.22,26.91-12.03,21.98,1.66,26.54,13.27,21.15,11.61-5.39,3.73-26.95,15.76-17.42,12.03,9.54-1.79,39.6,27.51,28.09,0,0,33.73-51.06,0-111.31,0,0-15.29-29.25-27.31-18.88-12.03,10.37,4.53,10.95,6.18,22.86,1.66,11.9-5.35,26.43-14.95,13.06-9.6-13.36-6.36-12.18-21.7-13.84-12.25-1.32-20.8.15-21,10.56-.1,5.41-4.49,9.76-9.9,9.84l-1.22.02Z"/><path class="cls-4_alien-24" d="m248.19,241.03s-11.94-3.32-11.77,11.2c.16,14.51,8.04,13.67,16.75,9.95,8.71-3.73,1.24,8.3,17.83,4.98,16.59-3.32,17.83-7.2,14.1-12.93-3.73-5.73-9.95-27.71-36.91-13.19Z"/><path class="cls-4_alien-24" d="m125.48,337.87s14.03-22.94,29.35-7.43c15.32,15.51-14.82,13.02.66,27.95,15.48,14.93,26.25-19.75,34.97-6.56,8.71,13.19,25.79,22.16,5.77,33.77-20.02,11.61-8.04,27.74,1.18,24.32,9.22-3.42,25.61,19.93,0,34.38,0,0-75.14-27.41-71.94-106.42Z"/><path class="cls-5_alien-24" d="m245.71,364.19s-15.75,0-15.8,14.93c-.05,14.93,29.43.81,22.57,16.99-6.86,16.18,9.26,20.54,18.2,13.8,8.94-6.74-6.49-27.02-4.99-41.35,1.49-14.33-18.22-11.01-19.98-4.37Z"/><path class="cls-4_alien-24" d="m240.48,452.87s-10.17-10.72,12-13.21c22.17-2.49,22.65-14.1,29.87-19.07,7.22-4.98,22.51,12.59,22.51,12.59,0,0-28.38,25.44-64.38,19.7Z"/></g></svg>