<?xml version="1.0" encoding="UTF-8"?>
<svg viewBox="0 0 500 500" xmlns="http://www.w3.org/2000/svg">
 <g fill="#ff7f00" fill-rule="evenodd">
  <path d="m218.79 195.45c-10.575-15.011-9.5864-36.534 6.4627-51.966s42.987-15.09 59.526 7.2461c16.803 22.698 16.01 61.866-8.9891 85.954-25.009 24.098-66.527 22.463-90.752-12.808-23.638-34.419-20.837-91.33 15.403-126.17 36.201-34.801 97.342-34.82 135.85 15.236 39.971 51.947 39.53 143.63-19.065 200.15-37.454 36.142-205.57 77.964-300.99-0.71481l-0.0392-1.1065c101.57 80.079 259.45 22.688 293.37-10.027 53.073-51.183 53.69-134.25 17.586-181.5-34.908-45.68-90.566-45.787-123.56-14.071-33.019 31.746-35.496 83.604-13.934 114.9 22.052 32 59.761 33.43 82.458 11.564 22.688-21.866 23.452-57.42 8.2155-78.062-15.011-20.338-39.511-20.681-54.111-6.639-14.6 14.052-15.501 33.303-5.8654 46.953 9.7235 13.787 9.1164 16.235-1.5765 1.0575z"/>
  <path d="m323.75 387.77c-1.4982 9.1458 4.5239 20.328 15.217 23.755 10.683 3.4174 22.815-2.6928 25.41-16.441 2.6341-13.973-6.3256-31.53-22.982-36.955-16.715-5.4346-35.3 4.4847-38.532 25.88-3.1432 20.857 10.752 46.013 34.918 53.69 24.059 7.6476 51.692-5.8948 58.155-36.926 6.6977-32.235-13.523-73.665-52.554-86.522-25.077-8.2644-44.759-4.0539-63.335 11.878l5.0625 5.8948c16.872-14.365 34.693-18.154 57.401-10.683 35.359 11.623 53.797 49.107 47.814 78.375-5.7871 28.289-30.923 40.666-52.857 33.684-22.022-7.0013-34.654-29.944-31.756-48.921 2.967-19.427 19.848-28.407 35.016-23.471 15.119 4.9156 23.276 20.847 20.906 33.547-2.3403 12.504-13.376 18.076-23.09 14.962-9.7431-3.1139-15.217-13.298-13.846-21.621 1.3807-8.4006 0.55814-9.3798-0.94983-0.12735z"/>
  <path d="m193.79 380.79c-5.9829 0.82254-11.819 6.7467-11.936 14.11-0.1273 7.3538 5.9731 13.787 15.021 12.769 9.1947-1.0379 18.458-10.047 18.693-21.533 0.24478-11.515-9.4199-21.258-23.354-19.163-13.601 2.0367-26.654 15.599-26.889 32.226-0.23502 16.558 13.386 31.266 33.939 29.337 21.347-1.9976 43.349-22.659 44.015-49.596 0.43086-17.312-5.885-28.838-19.31-37.415l-2.7124 4.3085c12.122 7.8141 17.831 18.252 17.449 33.92-0.59734 24.412-20.475 43.192-39.844 45.073-18.703 1.8213-31.139-11.554-30.923-26.654 0.2252-15.148 12.142-27.486 24.509-29.327 12.661-1.8801 21.425 6.9719 21.21 17.43-0.21542 10.428-8.6072 18.615-16.97 19.564-8.2253 0.94986-13.777-4.896-13.67-11.594 0.11751-6.6978 5.4346-12.093 10.869-12.837 5.4933-0.75497 5.9526-1.4502-0.097931-0.61691z"/>
  <path d="m149.82 321.82c2.497-3.388 2.3599-9.1653-1.2828-12.759-3.6328-3.5839-9.8214-3.6132-13.709 1.41-3.9462 5.1114-3.9266 14.071 1.7234 19.711 5.6696 5.65 15.256 5.4737 20.974-2.5263 5.5814-7.7944 5.1212-20.847-3.1139-28.945-8.1959-8.0588-22.208-8.2841-31.227 2.9474-9.3612 11.662-9.6843 32.607 3.5153 45.876 8.4799 8.519 17.342 10.879 28.162 8.2645l-0.8421-3.437c-9.8116 2.3403-17.831 0.18607-25.508-7.5203-11.966-12.005-11.731-30.982-3.2607-41.596 8.1763-10.262 20.935-10.076 28.407-2.7222 7.5007 7.3734 7.9022 19.271 2.8103 26.36-5.2094 7.2461-13.914 7.3929-19.055 2.2717-5.131-5.1114-5.1604-13.249-1.5765-17.9 3.5251-4.5827 9.1556-4.5631 12.465-1.2926 3.3097 3.2706 3.437 8.5289 1.1652 11.613-2.2913 3.1139-2.164 3.6818 0.35249 0.24478z"/>
  <path d="m252.75 226.08c5.5325-5.885 13.317-26.096 12.818-37.523-0.754-17.234-9.7724-19.085-18.546-18.83-11.75 0.33293-14.551 3.3195-14.12 12.005 0.72363 14.403 28.014 32.685 19.848 44.348z"/>
  <path d="m313.24 235.63c4.1518 11.339-9.7136 42.037-20.72 54.365-16.304 18.252-30.59 16.01-39.472 7.7945-11.77-10.898-12.074-16.637-4.1616-25.743 13.307-15.324 62.406-15.502 64.353-36.416z"/>
  <path d="m315.47 102.7c-6.8152-4.2204-19.535-21.621-22.022-32.637-3.7112-16.421 3.2901-23.814 11.515-25.773 10.948-2.5949 23.276 3.1236 16.216 7.6182-14.032 8.9303-16.568 41.674-5.7087 50.791z"/>
  <path d="m337.08 115.19c-4.8764-3.0453-13.963-15.589-15.746-23.54-2.6439-11.838 2.3599-17.175 8.235-18.585 7.8238-1.8703 16.637 2.2522 11.584 5.4933-10.026 6.4422-11.838 30.062-4.0735 36.632z"/>
  <path d="m395.37 386.91c-1.1946 3.4664-0.56796 13.415 1.8605 18.154 3.6426 7.1286 8.4603 7.7455 12.025 5.9829 4.7296-2.3207 7.3636-8.0491 3.4859-7.5986-7.7552 0.90964-18.556-10.165-17.371-16.539z"/>
  <path d="m133.91 295.53c2.2424-0.33292 7.4517-3.3489 9.2828-5.7968 2.6438-3.5545 1.694-6.0221-0.097931-7.3235-2.3795-1.7234-5.9829-1.6744-4.7589 0.088135 2.4578 3.5624-0.57773 11.896-4.426 13.032z"/>
  <path d="m372.3 251.18c16.108 2.8691 59.026-6.1102 77.768-19.3 27.917-19.633 27.476-40.245 17.792-54.346-12.935-18.83-20.818-20.318-34.811-10.644-23.471 16.226-31.863 85.26-60.75 84.29z"/>
  <path d="m346.48 294.84c9.7039 9.1359 43.183 22.091 62.052 21.356 28.172-1.0967 37.131-15.579 36.73-29.67-0.52875-18.742-5.317-23.256-19.31-22.786-23.413 0.80295-60.172 44.622-79.472 31.099z"/>
  <path d="m349.25 124.42c0-3.0747 2.4872-5.5619 5.5521-5.5619s5.552 2.4872 5.552 5.5619-2.4872 5.5619-5.552 5.5619c-3.0649 0-5.5521-2.4862-5.5521-5.5619z"/>
  <path d="m359.18 139.79c0-3.0747 2.4872-5.5619 5.552-5.5619 3.0649 0 5.5521 2.4872 5.5521 5.5619s-2.4872 5.5619-5.5521 5.5619c-3.0648 0-5.552-2.4862-5.552-5.5619z"/>
  <path d="m361.64 158.83c0-3.0747 2.4872-5.5619 5.5521-5.5619s5.5521 2.4872 5.5521 5.5619-2.4872 5.5619-5.5521 5.5619-5.5521-2.4881-5.5521-5.5619z"/>
  <path d="m217.77 430.04c1.6352 1.7332 1.5569 4.4652-0.16647 6.0906s-4.4456 1.5471-6.0808-0.19586c-1.6352-1.7332-1.5667-4.4554 0.15668-6.0808 1.7332-1.6352 4.4554-1.5471 6.0906 0.18607z"/>
  <path d="m202.95 436.53c1.6352 1.7332 1.5569 4.4652-0.16647 6.0906-1.7234 1.6255-4.4456 1.5374-6.0808-0.1958s-1.5667-4.4554 0.16647-6.0906c1.7234-1.6245 4.4456-1.5374 6.0808 0.1958z"/>
  <path d="m188.07 433.37c1.6353 1.7332 1.5667 4.4554-0.15666 6.0808-1.7342 1.6353-4.4554 1.5472-6.0906-0.18604s-1.5569-4.4652 0.16647-6.0906c1.7244-1.6245 4.4455-1.5462 6.0808 0.1958z"/>
  <path d="m433.68 319.14c1.6352 1.7332 1.5569 4.4652-0.1665 6.0906-1.7234 1.6255-4.4455 1.5471-6.0808-0.19586-1.6352-1.7332-1.5667-4.4554 0.15668-6.0808 1.7332-1.6352 4.4554-1.5471 6.0906 0.18607z"/>
  <path d="m418.86 325.63c1.6353 1.7332 1.557 4.4652-0.16644 6.0906-1.7234 1.6255-4.4456 1.5373-6.0808-0.19586-1.6353-1.7332-1.5667-4.4554 0.1665-6.0906 1.7234-1.6245 4.4456-1.5373 6.0808 0.19586z"/>
  <path d="m403.99 322.47c1.6352 1.7332 1.5667 4.4554-0.15671 6.0808-1.7341 1.6353-4.4554 1.5472-6.0906-0.18604s-1.5569-4.4652 0.1665-6.0906c1.7243-1.6245 4.4456-1.5461 6.0808 0.19583z"/>
  <path d="m109.94 323.85c-1.9486 0.66586-4.0441-0.31332-4.6806-2.1934-0.63648-1.8801 0.42106-3.9364 2.3697-4.6023 1.9388-0.66586 4.0343 0.32315 4.6708 2.2032 0.64627 1.8693-0.41126 3.9256-2.3599 4.5924z"/>
  <path d="m110.29 310.28c-1.9486 0.65607-4.0441-0.32315-4.6806-2.2032-0.63648-1.8703 0.42107-3.9364 2.3697-4.5925 1.9388-0.66583 4.0343 0.31335 4.6708 2.1934 0.64529 1.8703-0.41225 3.9364-2.3599 4.6022z"/>
  <path d="m118.18 299.95c-1.9486 0.66586-4.0441-0.32315-4.6806-2.1934-0.63648-1.8801 0.42107-3.9364 2.3697-4.6023 1.9388-0.66586 4.0343 0.31335 4.6708 2.1934 0.64627 1.8811-0.41126 3.9364-2.3599 4.6023z"/>
  <path d="m473.89 218.28c2.2228 0.58751 3.623 2.8788 3.153 5.1408-0.47983 2.2718-2.683 3.672-4.9254 3.1041-2.262-0.55814-3.6916-2.8886-3.1922-5.18 0.51016-2.2816 2.732-3.6524 4.9645-3.0649z"/>
  <path d="m465.47 231.75c2.3011 0.54836 3.7503 2.8886 3.2412 5.2289-0.50922 2.3599-2.8005 3.8483-5.131 3.3293-2.3403-0.52878-3.8189-2.9082-3.2803-5.2877 0.5386-2.3706 2.8593-3.8287 5.1702-3.2705z"/>
  <path d="m451.08 237.55c2.4088 0.53856 3.907 2.9376 3.3489 5.3562-0.55817 2.4382-2.9768 4.0049-5.4248 3.486-2.4578-0.52878-3.9854-2.9572-3.3979-5.415 0.58756-2.448 3.0453-3.9844 5.4737-3.4272z"/>
  <path d="m398.66 422.5c2.262 0.81271 3.4762 3.2803 2.7124 5.5031-0.77359 2.2228-3.2314 3.3684-5.4933 2.5459-2.262-0.81278-3.4761-3.2706-2.7124-5.5031 0.76376-2.2228 3.2216-3.3586 5.4933-2.5459z"/>
  <path d="m387.81 434.92c2.2619 0.81274 3.4761 3.2803 2.7124 5.5031-0.77359 2.2228-3.2216 3.3586-5.4933 2.5459-2.2619-0.81271-3.4762-3.2803-2.7124-5.5031 0.76379-2.2228 3.2215-3.3685 5.4933-2.5459z"/>
  <path d="m372.39 441.68c2.262 0.82257 3.4761 3.2804 2.7124 5.5129-0.76376 2.2228-3.2216 3.3586-5.4933 2.5459-2.262-0.81274-3.4762-3.2803-2.7124-5.5031 0.77359-2.2228 3.2314-3.3684 5.4934-2.5557z"/>
 </g>
</svg>
