<svg id="_0288_startup_2" xmlns="http://www.w3.org/2000/svg" xmlns:xlink="http://www.w3.org/1999/xlink" viewBox="0 0 500 500" data-imageid="startup-2-67" imageName="Startup 2" class="illustrations_image" style="width: 188px;"><defs><style>.cls-1_startup-2-67{fill:url(#linear-gradient);}.cls-1_startup-2-67,.cls-2_startup-2-67,.cls-3_startup-2-67,.cls-4_startup-2-67,.cls-5_startup-2-67,.cls-6_startup-2-67,.cls-7_startup-2-67,.cls-8_startup-2-67,.cls-9_startup-2-67,.cls-10_startup-2-67,.cls-11_startup-2-67,.cls-12_startup-2-67,.cls-13_startup-2-67,.cls-14_startup-2-67,.cls-15_startup-2-67,.cls-16_startup-2-67,.cls-17_startup-2-67,.cls-18_startup-2-67{stroke-width:0px;}.cls-2_startup-2-67{fill:url(#linear-gradient-10-startup-2-67);}.cls-19_startup-2-67{stroke-width:3.79px;}.cls-19_startup-2-67,.cls-20_startup-2-67{fill:none;stroke:#fff;stroke-miterlimit:10;}.cls-20_startup-2-67{stroke-width:5.65px;}.cls-3_startup-2-67{fill:url(#linear-gradient-4-startup-2-67);}.cls-4_startup-2-67{fill:url(#linear-gradient-2-startup-2-67);}.cls-5_startup-2-67{fill:url(#linear-gradient-3-startup-2-67);}.cls-6_startup-2-67{fill:url(#linear-gradient-8-startup-2-67);}.cls-7_startup-2-67{fill:url(#linear-gradient-9-startup-2-67);}.cls-8_startup-2-67{fill:url(#linear-gradient-7-startup-2-67);}.cls-9_startup-2-67{fill:url(#linear-gradient-5-startup-2-67);}.cls-10_startup-2-67{fill:url(#linear-gradient-6-startup-2-67);}.cls-11_startup-2-67{isolation:isolate;opacity:.24;}.cls-11_startup-2-67,.cls-18_startup-2-67{fill:#68e1fd;}.cls-12_startup-2-67{fill:#f2fbff;}.cls-13_startup-2-67{fill:#292f67;}.cls-14_startup-2-67{fill:#231f20;}.cls-15_startup-2-67{fill:#d2e8ec;}.cls-16_startup-2-67{fill:#b58b81;}.cls-17_startup-2-67{fill:#ffaa71;}</style><linearGradient id="linear-gradient-startup-2-67" x1="701.41" y1="2711.49" x2="587.34" y2="2830.46" gradientTransform="translate(-483.95 3053.67) scale(1 -1)" gradientUnits="userSpaceOnUse"><stop offset="0" stop-color="#231f20" stop-opacity="0"/><stop offset="1" stop-color="#231f20"/></linearGradient><linearGradient id="linear-gradient-2-startup-2-67" x1="685.39" y1="2722.06" x2="569.35" y2="2761.73" xlink:href="#linear-gradient-startup-2-67"/><linearGradient id="linear-gradient-3-startup-2-67" x1="664.36" y1="2838.36" x2="650.66" y2="2662.11" xlink:href="#linear-gradient-startup-2-67"/><linearGradient id="linear-gradient-4-startup-2-67" x1="693.92" y1="2866.68" x2="699.14" y2="2720.77" xlink:href="#linear-gradient-startup-2-67"/><linearGradient id="linear-gradient-5-startup-2-67" x1="769.36" y1="2856.19" x2="749.48" y2="2660.59" gradientTransform="translate(-471 3073.02) scale(1 -1)" xlink:href="#linear-gradient-startup-2-67"/><linearGradient id="linear-gradient-6-startup-2-67" x1="857.36" y1="2847.26" x2="837.48" y2="2651.65" gradientTransform="translate(-471 3073.02) scale(1 -1)" xlink:href="#linear-gradient-startup-2-67"/><linearGradient id="linear-gradient-7-startup-2-67" x1="770.38" y1="2866.01" x2="847.12" y2="2869.99" gradientTransform="translate(-483.95 3053.67) scale(1 -1)" gradientUnits="userSpaceOnUse"><stop offset="0" stop-color="#fff" stop-opacity="0"/><stop offset=".95" stop-color="#fff"/></linearGradient><linearGradient id="linear-gradient-8-startup-2-67" x1="819.43" y1="2722.48" x2="824.21" y2="2882.29" xlink:href="#linear-gradient-startup-2-67"/><linearGradient id="linear-gradient-9-startup-2-67" x1="820.15" y1="2746.07" x2="823.06" y2="2843.55" xlink:href="#linear-gradient-startup-2-67"/><linearGradient id="linear-gradient-10-startup-2-67" x1="826.15" y1="2943.44" x2="789.58" y2="2949.8" xlink:href="#linear-gradient-startup-2-67"/></defs><g id="background_startup-2-67"><path class="cls-11_startup-2-67 targetColor" d="M165.91,57.38c-33.54,13.29-53,47.45-78.39,73.11-14.56,14.75-31.44,26.92-46.41,41.25-14.97,14.32-28.21,31.48-32.76,51.68-8.65,38.29,15.47,75.69,21.78,114.43,2.01,12.37,2.22,25.14,6.23,37.01,3.18,9.39,8.64,17.88,14.95,25.48,25.58,30.99,66.51,48.65,106.61,46,26.45-1.76,51.86-11.72,78.39-12.82,39.97-1.67,80.32,16.9,119.09,7.06,17.88-4.55,33.71-14.79,48.93-25.21,30.19-20.7,61.62-46.09,68.63-82.02,5.15-26.39-4.02-54.2,2.37-80.31,3.71-15.15,12.44-28.61,17.04-43.51,9.78-31.6-.66-67.55-22.95-92-22.28-24.45-54.99-37.95-87.94-40.82-21.61-1.88-43.36.49-65.05.07-52.94-.96-95.61-41.16-150.54-19.39Z" style="fill: rgb(104, 225, 253);"/></g><g id="character_startup-2-67"><path class="cls-11_startup-2-67 targetColor" d="M120.66,372.35c-2.26.45-4.66,1.05-6.18,2.73-2.14,2.44-1.66,6.37.3,8.96s5,4.07,8.03,5.22c14.23,5.46,29.86,5.5,45.1,5.52,30.75,0,62.66-.18,90.5-13.24-22.5-8.69-43.46-8.26-66.88-9.92-24.37-1.65-46.49-4.27-70.86.72Z" style="fill: rgb(104, 225, 253);"/><path class="cls-14_startup-2-67" d="M196.27,369.07c-.58,2.03.31,4.18,2.15,5.21.89.4,1.82.68,2.78.86,2.93.72,5.65,2.14,7.92,4.14.75.49,1.19,1.34,1.16,2.24-.21,1.01-1.39,1.44-2.39,1.67-2.1.57-4.25.96-6.42,1.17-4.41.3-8.78-.91-13.04-2.14-1.62-.46-4.06-1.16-4.43-3.05-.08-1.3-.01-2.6.18-3.89l.28-6.55"/><path class="cls-14_startup-2-67" d="M171.13,376.89c-.4,1.02-.15,2.18.62,2.96.77.75,1.64,1.38,2.59,1.87,2.52,1.53,4.74,3.5,6.55,5.81.84,1.06,1.62,2.46,1.09,3.7-.28.58-.73,1.06-1.28,1.38-1.82,1.06-3.91,1.54-6.01,1.38-5.29-.14-13.1-3.44-14.63-9.16-.48-1.77.05-4.2.12-6.03l.19-4.41"/><path class="cls-14_startup-2-67" d="M201.09,267.87l-4.11,102.82c-1.59,1.17-3.49,1.82-5.46,1.88-3.79.22-4.48.49-7.21-1.99l-11.92-107.83,28.7-.6v5.72Z"/><path class="cls-1_startup-2-67" d="M201.09,267.87l-4.11,102.82c-1.59,1.17-3.49,1.82-5.46,1.88-3.79.22-4.48.49-7.21-1.99l-11.92-107.83,28.7-.6v5.72Z"/><path class="cls-14_startup-2-67" d="M184.88,277.1l-11.83,100s-1.71,1.76-6.37,1.82c-5.29.06-5.77-.66-6.95-3.33l-2.34-114.7,27.16,4.63.33,11.58Z"/><path class="cls-4_startup-2-67" d="M184.88,277.1l-11.83,100s-1.71,1.76-6.37,1.82c-5.29.06-5.77-.66-6.95-3.33l-2.34-114.7,27.16,4.63.33,11.58Z"/><path class="cls-12_startup-2-67" d="M188.56,267.09c-3.71,1.25-7.52,2.15-11.4,2.68-5.14.53-10.53-1.96-14.56-2.17-5.38-.27-5.52-.45-5.52-3.95,0-1.77,44.71-6,44.71-6,0,0-.21,3.23-.2,6.21,0,2.24-.96,2.11-5.02,2.35-4.07.24-4.85-1-8.01.87Z"/><path class="cls-18_startup-2-67 targetColor" d="M170.92,188.15s-7.5,1.95-12.85,5.84c-3.3,2.4-1.02,69.66-1.02,69.66.33-.05,14.7,5.77,28.59,3.38,11.83-2.04,16.1-7.59,16.1-7.59,0,0,1.06-64.54-1.24-67.19-1.02-1.18-12.27-5.34-12.27-5.34,0,0-4.91,7.39-17.31,1.24Z" style="fill: rgb(104, 225, 253);"/><path class="cls-5_startup-2-67" d="M170.92,188.15s-7.5,1.95-12.85,5.84c-3.3,2.4-1.02,69.66-1.02,69.66.33-.05,14.7,5.77,28.59,3.38,11.83-2.04,16.1-7.59,16.1-7.59,0,0,1.06-64.54-1.24-67.19-1.02-1.18-12.27-5.34-12.27-5.34,0,0-4.91,7.39-17.31,1.24Z"/><path class="cls-17_startup-2-67" d="M173.38,173.21l-2.46,14.94s5.46,8.04,12.44,6.84c6.98-1.2,5.22-4.44,5.22-4.44l-.91-12.62s-6.27,1.1-14.29-4.72Z"/><path class="cls-16_startup-2-67" d="M172.51,178.45l.91-5.24c8.03,5.82,12.19,3.35,12.19,3.35l1.94,6.78c-1.09,1.14-2.56,1.85-4.13,1.98-3.89.27-7.79-2.78-10.91-6.87Z"/><path class="cls-12_startup-2-67" d="M171.23,186.35l-7.28,3.42s11.46,12.12,14.96,11.88c0,0,3.3-6.13,6.37-7.1l-14.05-8.21Z"/><path class="cls-12_startup-2-67" d="M188.09,188.43c-.6,2.17-1.54,4.24-2.78,6.11.68.26,5.13,3.37,5.2,5.46,0,0,4.42-10.01,2.59-11.58-1.53-.78-3.1-1.47-4.7-2.08l-.31,2.09Z"/><path class="cls-18_startup-2-67 targetColor" d="M161.03,192.22s-11.26,3.64-12.53,21.61c-1.16,16.38-4.09,28.27-1.71,33.12,3.1,6.32,24.8,7.37,24.8,7.37.52-3.15.39-6.37-.39-9.46l-11.89-4.75s1.91-45.09,1.72-47.89Z" style="fill: rgb(104, 225, 253);"/><path class="cls-17_startup-2-67" d="M167.09,162.32c.59,8.29,9.1,22.94,17.38,22.35,8.28-.59,10.69-17.74,10.1-26.03-.59-8.29-5.24-12.99-13.54-12.4-8.29.59-14.53,7.79-13.94,16.08,0,0,0,0,0,0Z"/><path class="cls-16_startup-2-67" d="M186.61,253.02c-.2-1.58.55-3.1.76-5.8.22-2.69-1.53-3.39-4.09-3.64-.7-.08-1.25-.16-1.71-.24-2.38.57-.48,3.47-.35,5.46s-.32,4.85.37,5.46c.29.26,2.48.15,5.02-.18.04-.35.04-.71,0-1.06Z"/><path class="cls-17_startup-2-67" d="M188.18,176.11s-.23-.21-1.97-.08c-2.06.11-4.13-.04-6.16-.44-1.34-.34-1.97-.13-1.82,1.67.15,1.79,1.56,3.38,5.07,3.58,3.94.21,5.6-1.27,5.91-3.05.22-1.28-.59-1.71-1.03-1.67Z"/><path class="cls-17_startup-2-67" d="M173.05,245.14c1.48-.31,2.93-.72,4.36-1.22,1.87-.71,2.47-.29,5.21,0s4.63.99,4.39,3.75c-.24,2.76-1.03,4.3-.82,5.91.21,1.61-.29,2.99-2.73,3.05-2.44.05-10.42-2.4-10.42-2.4"/><path class="cls-12_startup-2-67" d="M170.39,244.42h4.18s1.82,6.02-.55,10.2l-4.61-.19s1.57-5.86.98-10.01Z"/><ellipse class="cls-15_startup-2-67" cx="172.5" cy="246.36" rx=".92" ry=".97"/><path class="cls-13_startup-2-67" d="M188.78,166.24h0c-.28-1.06-.12-2.19.45-3.14.55-.95,1.46-1.64,2.53-1.9,2.19-.67,4.5.55,5.18,2.74s-.55,4.5-2.74,5.18c-.12.04-.24.07-.36.09h-.15c-2.17.49-4.33-.82-4.9-2.97ZM192,162.16c-1.68.44-2.69,2.15-2.26,3.83h0c.43,1.68,2.15,2.7,3.83,2.26,1.68-.43,2.7-2.15,2.26-3.83-.42-1.64-2.07-2.66-3.73-2.29l-.11.03Z"/><path class="cls-13_startup-2-67" d="M180.33,169.27c-1.08-.63-1.86-1.67-2.17-2.88h0c-.64-2.51.87-5.07,3.38-5.72s5.07.87,5.72,3.38c.64,2.5-.86,5.06-3.36,5.71h-.17c-1.15.27-2.37.09-3.39-.5ZM181.79,161.63c-1.98.5-3.17,2.51-2.67,4.49,0,.02.01.04.02.06.51,1.98,2.54,3.17,4.52,2.65,1.98-.51,3.17-2.54,2.65-4.52-.5-1.93-2.43-3.11-4.38-2.69h-.14Z"/><path class="cls-13_startup-2-67" d="M188.67,165.25l.96-.28c-.12-.39-.42-.7-.8-.85-.85-.23-1.77-.08-2.49.43l.47.91c.97-.53,1.45-.47,1.64-.39.1.03.18.09.23.18Z"/><polygon class="cls-13_startup-2-67" points="178.56 164.99 178.52 164 172.84 164.16 172.89 165.15 178.56 164.99"/><path class="cls-18_startup-2-67 targetColor" d="M200.5,192.25s6.29,17.52,10.2,31.73,15.47.25,15.47.25c0,0,6.37-.25,6.61,3.64s-3.64,16.38-14.69,16.65c-11.05.27-22.75-14.2-22.75-14.2l5.16-38.06Z" style="fill: rgb(104, 225, 253);"/><path class="cls-18_startup-2-67 targetColor" d="M217.42,253.14l-22.47-.33c-2.05.12-3.81-1.45-3.93-3.51-.02-.37.01-.75.1-1.11l8.58-39.72c.69-2.63,3.06-4.47,5.78-4.48l22.47.33c2.05-.12,3.81,1.44,3.93,3.48.02.38-.01.76-.11,1.13l-8.57,39.72c-.69,2.63-3.07,4.47-5.79,4.48Z" style="fill: rgb(104, 225, 253);"/><path class="cls-3_startup-2-67" d="M217.42,253.14l-22.47-.33c-2.05.12-3.81-1.45-3.93-3.51-.02-.37.01-.75.1-1.11l8.58-39.72c.69-2.63,3.06-4.47,5.78-4.48l22.47.33c2.05-.12,3.81,1.44,3.93,3.48.02.38-.01.76-.11,1.13l-8.57,39.72c-.69,2.63-3.07,4.47-5.79,4.48Z"/><path class="cls-18_startup-2-67 targetColor" d="M217.57,253.38l-21.49-.32c-1.97.1-3.64-1.42-3.74-3.38-.02-.35.02-.7.1-1.04l8.19-38.01c.67-2.52,2.94-4.27,5.54-4.29l21.5.32c1.96-.1,3.64,1.4,3.74,3.36.02.36-.02.71-.1,1.06l-8.19,38.01c-.67,2.52-2.94,4.28-5.55,4.29Z" style="fill: rgb(104, 225, 253);"/><path class="cls-17_startup-2-67" d="M232.05,226.06c-.02-.88-.21-1.75-.56-2.56-.24-.82-.72-1.55-1.38-2.09-.73-.41-1.56-.61-2.4-.58h-2.55c-.93-.02-1.86.15-2.73.49-1.24.68-2.21,1.77-2.73,3.08-1.16,2.48-1.41,5.64.25,7.82.74.86,1.6,1.61,2.57,2.2,1.05.72,2.27,1.47,3.5,1.14.58-.21,1.12-.53,1.57-.96l1.82-1.51c.62-.46,1.15-1.04,1.55-1.7.33-.85.49-1.77.47-2.68.25-.87.46-1.75.62-2.64Z"/><path class="cls-14_startup-2-67" d="M193.46,147.89c-1.17-2.77-2.87-5.28-5.02-7.38l-.17,1.67c-3.41-1.56-7.09-2.44-10.84-2.58l.33,1.16c-1.36-.34-2.67-.87-3.89-1.57l-1.17,2.09c-.8-.63-1.67-1.16-2.6-1.57l-1.52,5.46c-.43-.23-.83-.51-1.18-.85-.4-.27-1.05-.35-1.3.05-.1.2-.14.42-.12.64v2.35l-2.24-.8c-.19-.09-.42-.09-.61,0-.15.12-.24.31-.25.5-1.63,8.13,1.82,18.72,7.18,25.04.21-.97.1-1.99-.29-2.9-.45-1.16-1.82-1.82-1.58-3.05.13-1.29,1.21-2.27,2.5-2.27,1.74.2,1.09.84,2.33,2.07.44-2.41-.61-6.37.15-8.69.89-2.16,3.36-3.2,5.52-2.31.38.16.74.37,1.06.63-.05-1.55,1.77-2.54,3.31-2.48s3.3.65,4.94.85c1.39.16,2.82,1.14,4.16,1.12,3.44-.05,2.06-5.22,1.32-7.16Z"/></g><g id="rocket_startup-2-67"><polygon class="cls-18_startup-2-67 targetColor" points="305.51 230.26 291.05 238.18 270.54 288.84 313.96 265.06 305.51 230.26" style="fill: rgb(104, 225, 253);"/><polygon class="cls-18_startup-2-67 targetColor" points="367.89 230.26 382.36 238.18 402.87 288.84 359.45 265.06 367.89 230.26" style="fill: rgb(104, 225, 253);"/><polygon class="cls-9_startup-2-67" points="305.51 230.26 291.05 238.18 270.54 288.84 313.96 265.06 305.51 230.26"/><polygon class="cls-10_startup-2-67" points="367.89 230.26 382.36 238.18 402.87 288.84 359.45 265.06 367.89 230.26"/><ellipse class="cls-11_startup-2-67 targetColor" cx="335.94" cy="360.73" rx="25.05" ry="3.05" style="fill: rgb(104, 225, 253);"/><ellipse class="cls-11_startup-2-67 targetColor" cx="334.42" cy="378.72" rx="40.63" ry="4.94" style="fill: rgb(104, 225, 253);"/><ellipse class="cls-20_startup-2-67" cx="335.18" cy="340.93" rx="63.64" ry="7.74"/><path class="cls-18_startup-2-67 targetColor" d="M336.6,101.65s-68.38,40.15-28.21,165.39h55.74s41.38-99.65-27.53-165.39Z" style="fill: rgb(104, 225, 253);"/><path class="cls-8_startup-2-67" d="M336.6,101.65s-68.38,40.15-28.21,165.39h55.74s41.38-99.65-27.53-165.39Z"/><circle class="cls-18_startup-2-67 targetColor" cx="335.43" cy="183.13" r="18.72" style="fill: rgb(104, 225, 253);"/><path class="cls-18_startup-2-67 targetColor" d="M313.07,311.03l6.88-12.53c1.22,15.38,4.99,30.45,11.17,44.59,11.11-11.06,13.89-27.74,16.04-43.27,3.15,7.62,5.97,15.36,8.45,23.23,5.04-10,6.69-21.37,4.69-32.39l4.28,7.28c2.92-10.56,1.66-21.84-3.52-31.49-8.83.66-17.68,1.09-26.55,1.3-4.25.11-8.51.16-12.79.16-2.81,0-7.99-1.1-10.55.33-4.93,2.73-3.13,14.49-2.82,19.33.26,4,.78,7.97,1.57,11.89.37,1.85,3.86,10.3,3.16,11.57Z" style="fill: rgb(104, 225, 253);"/><path class="cls-6_startup-2-67" d="M313.07,311.03l6.88-12.53c1.22,15.38,4.99,30.45,11.17,44.59,11.11-11.06,13.89-27.74,16.04-43.27,3.15,7.62,5.97,15.36,8.45,23.23,5.04-10,6.69-21.37,4.69-32.39l4.28,7.28c2.92-10.56,1.66-21.84-3.52-31.49-8.83.66-17.68,1.09-26.55,1.3-4.25.11-8.51.16-12.79.16-2.81,0-7.99-1.1-10.55.33-4.93,2.73-3.13,14.49-2.82,19.33.26,4,.78,7.97,1.57,11.89.37,1.85,3.86,10.3,3.16,11.57Z"/><path class="cls-7_startup-2-67" d="M322.53,295.3l4.19-7.64c.75,9.38,3.05,18.57,6.82,27.19,6.77-6.74,8.47-16.92,9.78-26.39,1.93,4.65,3.65,9.38,5.16,14.18,3.07-6.1,4.08-13.04,2.86-19.76l2.6,4.46c1.8-6.45,1.03-13.35-2.15-19.25-5.39.4-10.78.67-16.19.8-2.6.06-5.2.09-7.81.09-1.71,0-4.87-.67-6.43.2-3.01,1.68-1.92,8.84-1.73,11.83.16,2.45.48,4.88.96,7.28.23,1.09,2.35,6.25,1.93,7.02Z"/><path class="cls-18_startup-2-67 targetColor" d="M322.62,114.44s14.18,4.78,25.7,0l-11.45-12.45c-1.05-1.14-2.83-1.22-3.97-.17-.1.09-.19.19-.28.29l-10.01,12.32Z" style="fill: rgb(104, 225, 253);"/><path class="cls-2_startup-2-67" d="M322.62,114.44s14.18,4.78,25.7,0l-11.58-12.59c-.99-1.07-2.66-1.14-3.73-.15-.09.08-.18.18-.26.27l-10.14,12.47Z"/><path class="cls-19_startup-2-67" d="M359.68,312.66c9.54.91,15.61,2.39,15.61,4.01,0,2.88-19.11,5.2-42.77,5.2s-42.77-2.33-42.77-5.2c0-2.37,13.14-4.39,31.07-5"/></g></svg>