<svg id="_0386_colosseum" xmlns="http://www.w3.org/2000/svg" xmlns:xlink="http://www.w3.org/1999/xlink" viewBox="0 0 500 500" data-imageid="colosseum-11" imageName="Colosseum" class="illustrations_image" style="width: 151px;"><defs><style>.cls-1_colosseum-11{fill:none;}.cls-1_colosseum-11,.cls-2_colosseum-11,.cls-3_colosseum-11,.cls-4_colosseum-11,.cls-5_colosseum-11,.cls-6_colosseum-11,.cls-7_colosseum-11,.cls-8_colosseum-11,.cls-9_colosseum-11,.cls-10_colosseum-11,.cls-11_colosseum-11,.cls-12_colosseum-11,.cls-13_colosseum-11,.cls-14_colosseum-11,.cls-15_colosseum-11,.cls-16_colosseum-11,.cls-17_colosseum-11,.cls-18_colosseum-11,.cls-19_colosseum-11,.cls-20_colosseum-11,.cls-21_colosseum-11,.cls-22_colosseum-11,.cls-23_colosseum-11,.cls-24_colosseum-11,.cls-25_colosseum-11,.cls-26_colosseum-11,.cls-27_colosseum-11,.cls-28_colosseum-11,.cls-29_colosseum-11,.cls-30_colosseum-11,.cls-31_colosseum-11,.cls-32_colosseum-11,.cls-33_colosseum-11,.cls-34_colosseum-11,.cls-35_colosseum-11,.cls-36_colosseum-11,.cls-37_colosseum-11,.cls-38_colosseum-11,.cls-39_colosseum-11,.cls-40_colosseum-11,.cls-41_colosseum-11,.cls-42_colosseum-11,.cls-43_colosseum-11,.cls-44_colosseum-11,.cls-45_colosseum-11,.cls-46_colosseum-11,.cls-47_colosseum-11,.cls-48_colosseum-11,.cls-49_colosseum-11,.cls-50_colosseum-11,.cls-51_colosseum-11,.cls-52_colosseum-11,.cls-53_colosseum-11,.cls-54_colosseum-11,.cls-55_colosseum-11,.cls-56_colosseum-11,.cls-57_colosseum-11,.cls-58_colosseum-11,.cls-59_colosseum-11,.cls-60_colosseum-11,.cls-61_colosseum-11,.cls-62_colosseum-11,.cls-63_colosseum-11,.cls-64_colosseum-11,.cls-65_colosseum-11,.cls-66_colosseum-11,.cls-67_colosseum-11,.cls-68_colosseum-11,.cls-69_colosseum-11,.cls-70_colosseum-11,.cls-71_colosseum-11,.cls-72_colosseum-11,.cls-73_colosseum-11,.cls-74_colosseum-11,.cls-75_colosseum-11,.cls-76_colosseum-11,.cls-77_colosseum-11,.cls-78_colosseum-11,.cls-79_colosseum-11,.cls-80_colosseum-11,.cls-81_colosseum-11,.cls-82_colosseum-11,.cls-83_colosseum-11,.cls-84_colosseum-11,.cls-85_colosseum-11,.cls-86_colosseum-11,.cls-87_colosseum-11,.cls-88_colosseum-11,.cls-89_colosseum-11,.cls-90_colosseum-11,.cls-91_colosseum-11{stroke-width:0px;}.cls-2_colosseum-11{fill:url(#linear-gradient-78-colosseum-11);opacity:.58;}.cls-2_colosseum-11,.cls-82_colosseum-11{isolation:isolate;}.cls-3_colosseum-11{fill:url(#linear-gradient);}.cls-4_colosseum-11{fill:url(#linear-gradient-38-colosseum-11);}.cls-5_colosseum-11{fill:url(#linear-gradient-33-colosseum-11);}.cls-6_colosseum-11{fill:url(#linear-gradient-29-colosseum-11);}.cls-7_colosseum-11{fill:url(#linear-gradient-32-colosseum-11);}.cls-8_colosseum-11{fill:url(#linear-gradient-30-colosseum-11);}.cls-9_colosseum-11{fill:url(#linear-gradient-31-colosseum-11);}.cls-10_colosseum-11{fill:url(#linear-gradient-36-colosseum-11);}.cls-11_colosseum-11{fill:url(#linear-gradient-39-colosseum-11);}.cls-12_colosseum-11{fill:url(#linear-gradient-34-colosseum-11);}.cls-13_colosseum-11{fill:url(#linear-gradient-37-colosseum-11);}.cls-14_colosseum-11{fill:url(#linear-gradient-35-colosseum-11);}.cls-15_colosseum-11{fill:url(#linear-gradient-28-colosseum-11);}.cls-16_colosseum-11{fill:url(#linear-gradient-25-colosseum-11);}.cls-17_colosseum-11{fill:url(#linear-gradient-11-colosseum-11);}.cls-18_colosseum-11{fill:url(#linear-gradient-12-colosseum-11);}.cls-19_colosseum-11{fill:url(#linear-gradient-13-colosseum-11);}.cls-20_colosseum-11{fill:url(#linear-gradient-10-colosseum-11);}.cls-21_colosseum-11{fill:url(#linear-gradient-17-colosseum-11);}.cls-22_colosseum-11{fill:url(#linear-gradient-16-colosseum-11);}.cls-23_colosseum-11{fill:url(#linear-gradient-19-colosseum-11);}.cls-24_colosseum-11{fill:url(#linear-gradient-15-colosseum-11);}.cls-25_colosseum-11{fill:url(#linear-gradient-23-colosseum-11);}.cls-26_colosseum-11{fill:url(#linear-gradient-21-colosseum-11);}.cls-27_colosseum-11{fill:url(#linear-gradient-18-colosseum-11);}.cls-28_colosseum-11{fill:url(#linear-gradient-14-colosseum-11);}.cls-29_colosseum-11{fill:url(#linear-gradient-22-colosseum-11);}.cls-30_colosseum-11{fill:url(#linear-gradient-20-colosseum-11);}.cls-31_colosseum-11{fill:url(#linear-gradient-27-colosseum-11);}.cls-32_colosseum-11{fill:url(#linear-gradient-24-colosseum-11);}.cls-33_colosseum-11{fill:url(#linear-gradient-26-colosseum-11);}.cls-34_colosseum-11{fill:url(#linear-gradient-45-colosseum-11);}.cls-35_colosseum-11{fill:url(#linear-gradient-46-colosseum-11);}.cls-36_colosseum-11{fill:url(#linear-gradient-44-colosseum-11);}.cls-37_colosseum-11{fill:url(#linear-gradient-48-colosseum-11);}.cls-38_colosseum-11{fill:url(#linear-gradient-49-colosseum-11);}.cls-39_colosseum-11{fill:url(#linear-gradient-47-colosseum-11);}.cls-40_colosseum-11{fill:url(#linear-gradient-42-colosseum-11);}.cls-41_colosseum-11{fill:url(#linear-gradient-43-colosseum-11);}.cls-42_colosseum-11{fill:url(#linear-gradient-40-colosseum-11);}.cls-43_colosseum-11{fill:url(#linear-gradient-41-colosseum-11);}.cls-44_colosseum-11{fill:url(#linear-gradient-59-colosseum-11);}.cls-45_colosseum-11{fill:url(#linear-gradient-57-colosseum-11);}.cls-46_colosseum-11{fill:url(#linear-gradient-58-colosseum-11);}.cls-47_colosseum-11{fill:url(#linear-gradient-55-colosseum-11);}.cls-48_colosseum-11{fill:url(#linear-gradient-56-colosseum-11);}.cls-49_colosseum-11{fill:url(#linear-gradient-53-colosseum-11);}.cls-50_colosseum-11{fill:url(#linear-gradient-51-colosseum-11);}.cls-51_colosseum-11{fill:url(#linear-gradient-52-colosseum-11);}.cls-52_colosseum-11{fill:url(#linear-gradient-50-colosseum-11);}.cls-53_colosseum-11{fill:url(#linear-gradient-54-colosseum-11);}.cls-54_colosseum-11{fill:url(#linear-gradient-60-colosseum-11);}.cls-55_colosseum-11{fill:url(#linear-gradient-61-colosseum-11);}.cls-56_colosseum-11{fill:url(#linear-gradient-62-colosseum-11);}.cls-57_colosseum-11{fill:url(#linear-gradient-65-colosseum-11);}.cls-58_colosseum-11{fill:url(#linear-gradient-79-colosseum-11);}.cls-59_colosseum-11{fill:url(#linear-gradient-77-colosseum-11);}.cls-60_colosseum-11{fill:url(#linear-gradient-75-colosseum-11);}.cls-61_colosseum-11{fill:url(#linear-gradient-76-colosseum-11);}.cls-62_colosseum-11{fill:url(#linear-gradient-74-colosseum-11);}.cls-63_colosseum-11{fill:url(#linear-gradient-67-colosseum-11);}.cls-64_colosseum-11{fill:url(#linear-gradient-68-colosseum-11);}.cls-65_colosseum-11{fill:url(#linear-gradient-66-colosseum-11);}.cls-66_colosseum-11{fill:url(#linear-gradient-63-colosseum-11);}.cls-67_colosseum-11{fill:url(#linear-gradient-69-colosseum-11);}.cls-68_colosseum-11{fill:url(#linear-gradient-64-colosseum-11);}.cls-69_colosseum-11{fill:url(#linear-gradient-71-colosseum-11);}.cls-70_colosseum-11{fill:url(#linear-gradient-72-colosseum-11);}.cls-71_colosseum-11{fill:url(#linear-gradient-70-colosseum-11);}.cls-72_colosseum-11{fill:url(#linear-gradient-73-colosseum-11);}.cls-73_colosseum-11{fill:url(#linear-gradient-84-colosseum-11);}.cls-74_colosseum-11{fill:url(#linear-gradient-85-colosseum-11);}.cls-75_colosseum-11{fill:url(#linear-gradient-82-colosseum-11);}.cls-76_colosseum-11{fill:url(#linear-gradient-83-colosseum-11);}.cls-77_colosseum-11{fill:url(#linear-gradient-88-colosseum-11);}.cls-78_colosseum-11{fill:url(#linear-gradient-86-colosseum-11);}.cls-79_colosseum-11{fill:url(#linear-gradient-87-colosseum-11);}.cls-80_colosseum-11{fill:url(#linear-gradient-80-colosseum-11);}.cls-81_colosseum-11{fill:url(#linear-gradient-81-colosseum-11);}.cls-82_colosseum-11{opacity:.42;}.cls-82_colosseum-11,.cls-91_colosseum-11{fill:#68e1fd;}.cls-83_colosseum-11{fill:url(#linear-gradient-4-colosseum-11);}.cls-84_colosseum-11{fill:url(#linear-gradient-2-colosseum-11);}.cls-85_colosseum-11{fill:url(#linear-gradient-3-colosseum-11);}.cls-86_colosseum-11{fill:url(#linear-gradient-8-colosseum-11);}.cls-87_colosseum-11{fill:url(#linear-gradient-9-colosseum-11);}.cls-88_colosseum-11{fill:url(#linear-gradient-7-colosseum-11);}.cls-89_colosseum-11{fill:url(#linear-gradient-5-colosseum-11);}.cls-90_colosseum-11{fill:url(#linear-gradient-6-colosseum-11);}</style><linearGradient id="linear-gradient-colosseum-11" x1="908.89" y1="1936.9" x2="1013.17" y2="2040.58" gradientTransform="translate(-465.13 2285.41) scale(1 -1)" gradientUnits="userSpaceOnUse"><stop offset="0" stop-color="#231f20" stop-opacity="0"/><stop offset="1" stop-color="#231f20"/></linearGradient><linearGradient id="linear-gradient-2-colosseum-11" x1="907" y1="1929.66" x2="1011.28" y2="2033.35" xlink:href="#linear-gradient-colosseum-11"/><linearGradient id="linear-gradient-3-colosseum-11" x1="541.94" y1="1969.17" x2="420.37" y2="1975.73" xlink:href="#linear-gradient-colosseum-11"/><linearGradient id="linear-gradient-4-colosseum-11" x1="554.99" y1="1969.65" x2="433.6" y2="1976.19" xlink:href="#linear-gradient-colosseum-11"/><linearGradient id="linear-gradient-5-colosseum-11" x1="723.74" y1="1992.06" x2="719.27" y2="1830.26" xlink:href="#linear-gradient-colosseum-11"/><linearGradient id="linear-gradient-6-colosseum-11" x1="859.18" y1="2057.37" x2="751.92" y2="1833.01" xlink:href="#linear-gradient-colosseum-11"/><linearGradient id="linear-gradient-7-colosseum-11" x1="929.47" y1="2078.98" x2="819.82" y2="1913.91" gradientTransform="translate(-471 2323.65) scale(1 -1)" xlink:href="#linear-gradient-colosseum-11"/><linearGradient id="linear-gradient-8-colosseum-11" x1="943.63" y1="2018.23" x2="637.32" y2="1907.68" gradientTransform="translate(-471 2323.65) scale(1 -1)" xlink:href="#linear-gradient-colosseum-11"/><linearGradient id="linear-gradient-9-colosseum-11" x1="916.4" y1="2093.65" x2="610.1" y2="1983.11" gradientTransform="translate(-471 2323.65) scale(1 -1)" xlink:href="#linear-gradient-colosseum-11"/><linearGradient id="linear-gradient-10-colosseum-11" x1="899.07" y1="2068.33" x2="828.94" y2="1999.6" gradientTransform="translate(-471 2323.65) scale(1 -1)" xlink:href="#linear-gradient-colosseum-11"/><linearGradient id="linear-gradient-11-colosseum-11" x1="910.55" y1="2056.62" x2="840.43" y2="1987.89" gradientTransform="translate(-471 2323.65) scale(1 -1)" xlink:href="#linear-gradient-colosseum-11"/><linearGradient id="linear-gradient-12-colosseum-11" x1="860.19" y1="2020.53" x2="866.45" y2="1973.3" gradientTransform="translate(-471 2323.65) scale(1 -1)" xlink:href="#linear-gradient-colosseum-11"/><linearGradient id="linear-gradient-13-colosseum-11" x1="755.72" y1="2028.17" x2="819.88" y2="2035.91" gradientTransform="translate(-471 2323.65) scale(1 -1)" xlink:href="#linear-gradient-colosseum-11"/><linearGradient id="linear-gradient-14-colosseum-11" x1="748.83" y1="2019.18" x2="1247.01" y2="2048.98" gradientTransform="translate(-471 2323.65) scale(1 -1)" xlink:href="#linear-gradient-colosseum-11"/><linearGradient id="linear-gradient-15-colosseum-11" x1="749.07" y1="2015.23" x2="1247.26" y2="2045.02" gradientTransform="translate(-471 2323.65) scale(1 -1)" xlink:href="#linear-gradient-colosseum-11"/><linearGradient id="linear-gradient-16-colosseum-11" x1="749.17" y1="2013.39" x2="1247.36" y2="2043.19" gradientTransform="translate(-471 2323.65) scale(1 -1)" xlink:href="#linear-gradient-colosseum-11"/><linearGradient id="linear-gradient-17-colosseum-11" x1="779.99" y1="2039.81" x2="708.87" y2="1966.12" gradientTransform="translate(-471 2323.65) scale(1 -1)" xlink:href="#linear-gradient-colosseum-11"/><linearGradient id="linear-gradient-18-colosseum-11" x1="871.94" y1="2031.56" x2="822.88" y2="2006.93" gradientTransform="translate(-471 2323.65) scale(1 -1)" xlink:href="#linear-gradient-colosseum-11"/><linearGradient id="linear-gradient-19-colosseum-11" x1="884.97" y1="2035.86" x2="857.37" y2="1951.44" gradientTransform="translate(-471 2323.65) scale(1 -1)" xlink:href="#linear-gradient-colosseum-11"/><linearGradient id="linear-gradient-20-colosseum-11" x1="892.57" y1="1985.02" x2="858.6" y2="1963.97" xlink:href="#linear-gradient-colosseum-11"/><linearGradient id="linear-gradient-21-colosseum-11" x1="748.42" y1="2026.07" x2="1246.61" y2="2055.86" gradientTransform="translate(-471 2323.65) scale(1 -1)" xlink:href="#linear-gradient-colosseum-11"/><linearGradient id="linear-gradient-22-colosseum-11" x1="748.56" y1="2023.76" x2="1246.75" y2="2053.55" gradientTransform="translate(-471 2323.65) scale(1 -1)" xlink:href="#linear-gradient-colosseum-11"/><linearGradient id="linear-gradient-23-colosseum-11" x1="748.67" y1="2021.87" x2="1246.86" y2="2051.67" gradientTransform="translate(-471 2323.65) scale(1 -1)" xlink:href="#linear-gradient-colosseum-11"/><linearGradient id="linear-gradient-24-colosseum-11" x1="914.38" y1="2022.4" x2="836.51" y2="2000.25" gradientTransform="translate(-471 2323.65) scale(1 -1)" xlink:href="#linear-gradient-colosseum-11"/><linearGradient id="linear-gradient-25-colosseum-11" x1="837.38" y1="1985.12" x2="830.23" y2="1889.77" gradientTransform="translate(-471 2323.65) scale(1 -1)" xlink:href="#linear-gradient-colosseum-11"/><linearGradient id="linear-gradient-26-colosseum-11" x1="858.12" y1="1982.01" x2="850.96" y2="1886.65" gradientTransform="translate(-471 2323.65) scale(1 -1)" xlink:href="#linear-gradient-colosseum-11"/><linearGradient id="linear-gradient-27-colosseum-11" x1="875.52" y1="1984.3" x2="868.37" y2="1888.96" gradientTransform="translate(-471 2323.65) scale(1 -1)" xlink:href="#linear-gradient-colosseum-11"/><linearGradient id="linear-gradient-28-colosseum-11" x1="751.87" y1="1968.3" x2="1250.06" y2="1998.1" gradientTransform="translate(-471 2323.65) scale(1 -1)" xlink:href="#linear-gradient-colosseum-11"/><linearGradient id="linear-gradient-29-colosseum-11" x1="752.01" y1="1966.12" x2="1250.2" y2="1995.91" gradientTransform="translate(-471 2323.65) scale(1 -1)" xlink:href="#linear-gradient-colosseum-11"/><linearGradient id="linear-gradient-30-colosseum-11" x1="751.87" y1="1968.3" x2="1250.06" y2="1998.1" gradientTransform="translate(-471 2323.65) scale(1 -1)" xlink:href="#linear-gradient-colosseum-11"/><linearGradient id="linear-gradient-31-colosseum-11" x1="752.01" y1="1966.12" x2="1250.2" y2="1995.91" gradientTransform="translate(-471 2323.65) scale(1 -1)" xlink:href="#linear-gradient-colosseum-11"/><linearGradient id="linear-gradient-32-colosseum-11" x1="819.02" y1="1948.89" x2="839.29" y2="2089.53" gradientTransform="translate(-471 2323.65) scale(1 -1)" xlink:href="#linear-gradient-colosseum-11"/><linearGradient id="linear-gradient-33-colosseum-11" x1="841.9" y1="1945.6" x2="862.16" y2="2086.23" gradientTransform="translate(-471 2323.65) scale(1 -1)" xlink:href="#linear-gradient-colosseum-11"/><linearGradient id="linear-gradient-34-colosseum-11" x1="851.45" y1="2050.24" x2="869.12" y2="2106.66" gradientTransform="translate(-471 2323.65) scale(1 -1)" xlink:href="#linear-gradient-colosseum-11"/><linearGradient id="linear-gradient-35-colosseum-11" x1="873.72" y1="2043.27" x2="891.41" y2="2099.68" gradientTransform="translate(-471 2323.65) scale(1 -1)" xlink:href="#linear-gradient-colosseum-11"/><linearGradient id="linear-gradient-36-colosseum-11" x1="810.9" y1="2062.96" x2="828.59" y2="2119.37" gradientTransform="translate(-471 2323.65) scale(1 -1)" xlink:href="#linear-gradient-colosseum-11"/><linearGradient id="linear-gradient-37-colosseum-11" x1="790.69" y1="2069.29" x2="808.37" y2="2125.7" gradientTransform="translate(-471 2323.65) scale(1 -1)" xlink:href="#linear-gradient-colosseum-11"/><linearGradient id="linear-gradient-38-colosseum-11" x1="713.87" y1="1939.58" x2="822.03" y2="2033.44" xlink:href="#linear-gradient-colosseum-11"/><linearGradient id="linear-gradient-39-colosseum-11" x1="773.71" y1="1980.44" x2="919.91" y2="2040.62" gradientTransform="translate(-471 2323.65) scale(1 -1)" xlink:href="#linear-gradient-colosseum-11"/><linearGradient id="linear-gradient-40-colosseum-11" x1="801.65" y1="1975.17" x2="847.74" y2="2021.26" gradientTransform="translate(-471 2323.65) scale(1 -1)" xlink:href="#linear-gradient-colosseum-11"/><linearGradient id="linear-gradient-41-colosseum-11" x1="779.67" y1="2050.48" x2="723.35" y2="1673.26" gradientTransform="translate(-471 2323.65) scale(1 -1)" xlink:href="#linear-gradient-colosseum-11"/><linearGradient id="linear-gradient-42-colosseum-11" x1="815.47" y1="2062.44" x2="759.16" y2="1685.22" gradientTransform="translate(-471 2323.65) scale(1 -1)" xlink:href="#linear-gradient-colosseum-11"/><linearGradient id="linear-gradient-43-colosseum-11" x1="776.69" y1="1981.51" x2="552.93" y2="1896.6" gradientTransform="translate(-471 2323.65) scale(1 -1)" xlink:href="#linear-gradient-colosseum-11"/><linearGradient id="linear-gradient-44-colosseum-11" x1="808.98" y1="2018.95" x2="752.67" y2="1641.73" gradientTransform="translate(-471 2323.65) scale(1 -1)" xlink:href="#linear-gradient-colosseum-11"/><linearGradient id="linear-gradient-45-colosseum-11" x1="759.99" y1="2111.86" x2="703.67" y2="1734.65" gradientTransform="translate(-471 2323.65) scale(1 -1)" xlink:href="#linear-gradient-colosseum-11"/><linearGradient id="linear-gradient-46-colosseum-11" x1="723.13" y1="2092.02" x2="666.82" y2="1714.81" gradientTransform="translate(-471 2323.65) scale(1 -1)" xlink:href="#linear-gradient-colosseum-11"/><linearGradient id="linear-gradient-47-colosseum-11" x1="502.74" y1="1927.41" x2="746.76" y2="2020.38" xlink:href="#linear-gradient-colosseum-11"/><linearGradient id="linear-gradient-48-colosseum-11" x1="511.48" y1="2075.39" x2="670.6" y2="2145.11" gradientTransform="translate(-471 2323.65) scale(1 -1)" xlink:href="#linear-gradient-colosseum-11"/><linearGradient id="linear-gradient-49-colosseum-11" x1="682.5" y1="2177.92" x2="596.09" y2="2028.94" gradientTransform="translate(-471 2323.65) scale(1 -1)" xlink:href="#linear-gradient-colosseum-11"/><linearGradient id="linear-gradient-50-colosseum-11" x1="532.25" y1="2130.7" x2="651.01" y2="2130.7" gradientTransform="translate(-471 2323.65) scale(1 -1)" xlink:href="#linear-gradient-colosseum-11"/><linearGradient id="linear-gradient-51-colosseum-11" x1="609.65" y1="2140.63" x2="626.92" y2="2022.94" gradientTransform="translate(-471 2323.65) scale(1 -1)" xlink:href="#linear-gradient-colosseum-11"/><linearGradient id="linear-gradient-52-colosseum-11" x1="572.04" y1="2135.11" x2="589.33" y2="2017.42" gradientTransform="translate(-471 2323.65) scale(1 -1)" xlink:href="#linear-gradient-colosseum-11"/><linearGradient id="linear-gradient-53-colosseum-11" x1="781.65" y1="2088.6" x2="613.01" y2="1940.81" gradientTransform="translate(-471 2323.65) scale(1 -1)" xlink:href="#linear-gradient-colosseum-11"/><linearGradient id="linear-gradient-54-colosseum-11" x1="658.64" y1="2040.56" x2="822.72" y2="1975.8" gradientTransform="translate(-471 2323.65) scale(1 -1)" xlink:href="#linear-gradient-colosseum-11"/><linearGradient id="linear-gradient-55-colosseum-11" x1="536.65" y1="2073.22" x2="844.14" y2="2013.63" gradientTransform="translate(-471 2323.65) scale(1 -1)" xlink:href="#linear-gradient-colosseum-11"/><linearGradient id="linear-gradient-56-colosseum-11" x1="534.75" y1="2063.45" x2="842.24" y2="2003.85" gradientTransform="translate(-471 2323.65) scale(1 -1)" xlink:href="#linear-gradient-colosseum-11"/><linearGradient id="linear-gradient-57-colosseum-11" x1="528.72" y1="2032.32" x2="836.21" y2="1972.72" gradientTransform="translate(-471 2323.65) scale(1 -1)" xlink:href="#linear-gradient-colosseum-11"/><linearGradient id="linear-gradient-58-colosseum-11" x1="527.4" y1="2025.47" x2="834.89" y2="1965.89" gradientTransform="translate(-471 2323.65) scale(1 -1)" xlink:href="#linear-gradient-colosseum-11"/><linearGradient id="linear-gradient-59-colosseum-11" x1="580.95" y1="2046.56" x2="663.39" y2="1978.23" gradientTransform="translate(-471 2323.65) scale(1 -1)" xlink:href="#linear-gradient-colosseum-11"/><linearGradient id="linear-gradient-60-colosseum-11" x1="568.83" y1="2033.52" x2="678.17" y2="1979.29" gradientTransform="translate(-471 2323.65) scale(1 -1)" xlink:href="#linear-gradient-colosseum-11"/><linearGradient id="linear-gradient-61-colosseum-11" x1="695.38" y1="2030.01" x2="429.6" y2="2054.63" gradientTransform="translate(-471 2323.65) scale(1 -1)" xlink:href="#linear-gradient-colosseum-11"/><linearGradient id="linear-gradient-62-colosseum-11" x1="695.02" y1="2026.13" x2="429.25" y2="2050.76" gradientTransform="translate(-471 2323.65) scale(1 -1)" xlink:href="#linear-gradient-colosseum-11"/><linearGradient id="linear-gradient-63-colosseum-11" x1="694.68" y1="2022.42" x2="428.9" y2="2047.06" gradientTransform="translate(-471 2323.65) scale(1 -1)" xlink:href="#linear-gradient-colosseum-11"/><linearGradient id="linear-gradient-64-colosseum-11" x1="694.16" y1="2016.85" x2="428.38" y2="2041.48" gradientTransform="translate(-471 2323.65) scale(1 -1)" xlink:href="#linear-gradient-colosseum-11"/><linearGradient id="linear-gradient-65-colosseum-11" x1="690.56" y1="1977.9" x2="424.78" y2="2002.54" gradientTransform="translate(-471 2323.65) scale(1 -1)" xlink:href="#linear-gradient-colosseum-11"/><linearGradient id="linear-gradient-66-colosseum-11" x1="690.09" y1="1972.88" x2="424.31" y2="1997.5" gradientTransform="translate(-471 2323.65) scale(1 -1)" xlink:href="#linear-gradient-colosseum-11"/><linearGradient id="linear-gradient-67-colosseum-11" x1="689.83" y1="1970.15" x2="424.05" y2="1994.78" gradientTransform="translate(-471 2323.65) scale(1 -1)" xlink:href="#linear-gradient-colosseum-11"/><linearGradient id="linear-gradient-68-colosseum-11" x1="689.63" y1="1968" x2="423.85" y2="1992.63" gradientTransform="translate(-471 2323.65) scale(1 -1)" xlink:href="#linear-gradient-colosseum-11"/><linearGradient id="linear-gradient-69-colosseum-11" x1="525.32" y1="1972.69" x2="673.71" y2="1962.37" gradientTransform="translate(-471 2323.65) scale(1 -1)" xlink:href="#linear-gradient-colosseum-11"/><linearGradient id="linear-gradient-70-colosseum-11" x1="819.56" y1="2067.34" x2="683.83" y2="2013.71" gradientTransform="translate(-471 2323.65) scale(1 -1)" xlink:href="#linear-gradient-colosseum-11"/><linearGradient id="linear-gradient-71-colosseum-11" x1="851.75" y1="2060.04" x2="782.32" y2="2005.96" gradientTransform="translate(-471 2323.65) scale(1 -1)" xlink:href="#linear-gradient-colosseum-11"/><linearGradient id="linear-gradient-72-colosseum-11" x1="831.51" y1="2054.01" x2="753.44" y2="2003.35" gradientTransform="translate(-471 2323.65) scale(1 -1)" xlink:href="#linear-gradient-colosseum-11"/><linearGradient id="linear-gradient-73-colosseum-11" x1="570.62" y1="2082.18" x2="789.52" y2="1858.91" gradientTransform="translate(-471 2323.65) scale(1 -1)" xlink:href="#linear-gradient-colosseum-11"/><linearGradient id="linear-gradient-74-colosseum-11" x1="598.44" y1="2109.46" x2="817.34" y2="1886.2" gradientTransform="translate(-471 2323.65) scale(1 -1)" xlink:href="#linear-gradient-colosseum-11"/><linearGradient id="linear-gradient-75-colosseum-11" x1="581.94" y1="2093.28" x2="800.84" y2="1870.01" gradientTransform="translate(-471 2323.65) scale(1 -1)" xlink:href="#linear-gradient-colosseum-11"/><linearGradient id="linear-gradient-76-colosseum-11" x1="569.28" y1="2080.87" x2="788.18" y2="1857.6" gradientTransform="translate(-471 2323.65) scale(1 -1)" xlink:href="#linear-gradient-colosseum-11"/><linearGradient id="linear-gradient-77-colosseum-11" x1="561.04" y1="1979.06" x2="768.41" y2="1925.42" gradientTransform="translate(-471 2323.65) scale(1 -1)" xlink:href="#linear-gradient-colosseum-11"/><linearGradient id="linear-gradient-78-colosseum-11" x1="559.8" y1="1974.28" x2="767.18" y2="1920.65" gradientTransform="translate(-471 2323.65) scale(1 -1)" gradientUnits="userSpaceOnUse"><stop offset="0" stop-color="#000"/><stop offset=".13" stop-color="#000" stop-opacity=".67"/><stop offset=".24" stop-color="#000" stop-opacity=".47"/><stop offset="1" stop-color="#000" stop-opacity="0"/></linearGradient><linearGradient id="linear-gradient-79-colosseum-11" x1="653.18" y1="2021.11" x2="708.3" y2="1909.52" gradientTransform="translate(-471 2323.65) scale(1 -1)" xlink:href="#linear-gradient-colosseum-11"/><linearGradient id="linear-gradient-80-colosseum-11" x1="624.96" y1="2007.17" x2="680.08" y2="1895.58" gradientTransform="translate(-471 2323.65) scale(1 -1)" xlink:href="#linear-gradient-colosseum-11"/><linearGradient id="linear-gradient-81-colosseum-11" x1="607.73" y1="1998.65" x2="662.85" y2="1887.07" gradientTransform="translate(-471 2323.65) scale(1 -1)" xlink:href="#linear-gradient-colosseum-11"/><linearGradient id="linear-gradient-82-colosseum-11" x1="593.37" y1="1991.56" x2="648.49" y2="1879.97" gradientTransform="translate(-471 2323.65) scale(1 -1)" xlink:href="#linear-gradient-colosseum-11"/><linearGradient id="linear-gradient-83-colosseum-11" x1="619.9" y1="2130.51" x2="838.81" y2="1907.24" gradientTransform="translate(-471 2323.65) scale(1 -1)" xlink:href="#linear-gradient-colosseum-11"/><linearGradient id="linear-gradient-84-colosseum-11" x1="604.77" y1="2115.67" x2="823.67" y2="1892.4" gradientTransform="translate(-471 2323.65) scale(1 -1)" xlink:href="#linear-gradient-colosseum-11"/><linearGradient id="linear-gradient-85-colosseum-11" x1="592.66" y1="2103.8" x2="811.56" y2="1880.52" gradientTransform="translate(-471 2323.65) scale(1 -1)" xlink:href="#linear-gradient-colosseum-11"/><linearGradient id="linear-gradient-86-colosseum-11" x1="581.57" y1="2092.92" x2="800.47" y2="1869.65" gradientTransform="translate(-471 2323.65) scale(1 -1)" xlink:href="#linear-gradient-colosseum-11"/><linearGradient id="linear-gradient-87-colosseum-11" x1="607.36" y1="2086.26" x2="649.47" y2="1999.26" gradientTransform="translate(-471 2323.65) scale(1 -1)" xlink:href="#linear-gradient-colosseum-11"/><linearGradient id="linear-gradient-88-colosseum-11" x1="619.47" y1="1989.47" x2="648.48" y2="1920.94" xlink:href="#linear-gradient-colosseum-11"/></defs><g id="background_colosseum-11"><path class="cls-82_colosseum-11 targetColor" d="M86.67,165.54c18.84-14.29,40.41-26.25,52.57-46.42,7.76-12.88,11.5-28.82,23.2-38.27,8.61-6.95,20.04-9.07,30.98-10.72,71.41-10.82,148.18-10.75,211.32,24.31,10.76,5.98,21.11,13,29.36,22.14,8.5,9.41,14.54,20.81,19.04,32.66,5.6,14.77,8.9,30.41,9.75,46.18.43,7.99.24,16.06,1.81,23.9,2.17,10.91,2.42,23.88,6.82,34.1,6.95,16.15,10.95,37.49,12.69,54.98,1.3,13.1,7.3,46.57-1.69,57.52-7.62,9.28-35.98-3.22-48.2-3.22H104.46c-18.82,0-37.64.03-56.46,0-9.31-.01-20.17,2.03-26.78-5.76-7.05-8.31-6.08-29.39-6.3-39.66-1.21-56.51,23.83-113.92,68.45-149.18,1.08-.86,2.18-1.7,3.29-2.54Z" style="fill: rgb(104, 225, 253);"/><path class="cls-91_colosseum-11 targetColor" d="M455.72,290.6c.59-.59,1.37-.93,2.2-.96.73.19,1.42.48,2.07.86,1.56.62,3.32-.07,4.99,0s3.46,2.03,2.34,3.28l12.96-4.11c2.76,7.06,3.54,14.69,4.32,22.25,1.59,15.96,3.18,31.98,2.73,47.99l-49.46-4.2c-.82,0-1.63-.22-2.35-.62-1.12-.79-1.35-2.33-1.47-3.69-1.11-12.64-3.07-26.79-1.34-39.46,1.31-9.64,6.85-19.52,15.2-9.46,1.65-4.52,3.96-8.72,7.8-11.88Z" style="fill: rgb(104, 225, 253);"/><path class="cls-3_colosseum-11" d="M455.72,290.6c.59-.59,1.37-.93,2.2-.96.73.19,1.42.48,2.07.86,1.56.62,3.32-.07,4.99,0s3.46,2.03,2.34,3.28l12.96-4.11c2.76,7.06,3.54,14.69,4.32,22.25,1.59,15.96,3.18,31.98,2.73,47.99l-49.46-4.2c-.82,0-1.63-.22-2.35-.62-1.12-.79-1.35-2.33-1.47-3.69-1.11-12.64-3.07-26.79-1.34-39.46,1.31-9.64,6.85-19.52,15.2-9.46,1.65-4.52,3.96-8.72,7.8-11.88Z"/><path class="cls-84_colosseum-11" d="M456.52,300.53c.59-.59,1.37-.93,2.2-.96.73.19,1.42.48,2.07.86,1.56.62,3.31-.07,4.99,0s3.46,2.03,2.34,3.28l12.96-4.11c2.76,7.06,3.54,14.69,4.32,22.26,1.58,15.95,2.38,22.05,1.94,38.05l-48.66,5.73c-.82,0-1.63-.22-2.35-.62-1.12-.78-1.35-2.33-1.47-3.69-1.11-12.64-3.07-26.79-1.34-39.46,1.31-9.64,6.85-19.52,15.2-9.46,1.65-4.52,3.94-8.74,7.8-11.88Z"/><path class="cls-91_colosseum-11 targetColor" d="M16.89,349.42c9.26-7.05,41.22,6.12,54.86,6.12h392.62c3.11,0,22.95-.35,23,0,2.51,18.13-27.58,38.85-35.92,43.66-16.03,9.24-34.11,14.12-51.4,20.71-13.25,5.05-26.1,11.12-39.46,15.87-39.69,14.12-82.61,16.19-124.72,15.35-25.9-.52-51.78-2.08-77.55-4.67-29.37-2.96-59.22-7.46-85.54-20.81-19.22-9.75-37.98-25.48-47.21-45.38-5.13-11.05-8.68-30.85-8.68-30.85Z" style="fill: rgb(104, 225, 253);"/><path class="cls-91_colosseum-11 targetColor" d="M46.94,272.82c.63-2.12-3.15-2.29-4.84-.86-3.64,3.11-5.71,7.68-5.63,12.47-1.27-1.52-3.97-.61-4.9,1.14s-.71,3.85-.61,5.83c.09,1.18,0,2.36-.22,3.52-.45,1.51-1.07,2.96-1.85,4.32-5.34,11.25-4.09,24.52,3.27,34.57-3.24,4.13-4.45,9.5-3.29,14.62,4.48-1.24,9.2-1.25,13.69-.05-2.02,3.24-4.97,5.81-8.45,7.38,3.82,1.72,7.04,4.54,9.23,8.11,7.01-3.6,15.42-1.39,23.22-.24,7.8,1.15,17.29.33,21.21-6.53,2.32-4.11,1.83-9.13,2.45-13.83.36-2.73,1.13-5.39,1.6-8.11.64-4.51.86-9.06.67-13.6-.12-10.61-.27-21.43-3.74-31.45-3.25-9.3-9.72-17.13-18.23-22.08-5.52-3.07-21.07-3.54-23.57,4.81Z" style="fill: rgb(104, 225, 253);"/><path class="cls-85_colosseum-11" d="M46.94,272.82c.63-2.12-3.15-2.29-4.84-.86-3.64,3.11-5.71,7.68-5.63,12.47-1.27-1.52-3.97-.61-4.9,1.14s-.71,3.85-.61,5.83c.09,1.18,0,2.36-.22,3.52-.45,1.51-1.07,2.96-1.85,4.32-5.34,11.25-4.09,24.52,3.27,34.57-3.24,4.13-4.45,9.5-3.29,14.62,4.48-1.24,9.2-1.25,13.69-.05-2.02,3.24-4.97,5.81-8.45,7.38,3.82,1.72,7.04,4.54,9.23,8.11,7.01-3.6,15.42-1.39,23.22-.24,7.8,1.15,17.29.33,21.21-6.53,2.32-4.11,1.83-9.13,2.45-13.83.36-2.73,1.13-5.39,1.6-8.11.64-4.51.86-9.06.67-13.6-.12-10.61-.27-21.43-3.74-31.45-3.25-9.3-9.72-17.13-18.23-22.08-5.52-3.07-21.07-3.54-23.57,4.81Z"/><path class="cls-83_colosseum-11" d="M60.05,276.85c.63-1.89-3.15-2.05-4.84-.78-3.55,2.59-5.64,6.73-5.63,11.13-1.27-1.36-3.97-.54-4.91,1.02s-.7,3.46-.61,5.19c.09,1.05,0,2.1-.22,3.13-.45,1.36-1.08,2.66-1.86,3.87-5.36,9.99-4.06,22.24,3.28,30.88-3.21,3.53-4.44,8.42-3.29,13.05,4.5-1.1,9.19-1.12,13.69-.05-2.12,2.97-5.06,5.26-8.46,6.59,3.73,1.45,6.94,3.97,9.24,7.24,7.01-3.21,15.41-1.24,23.22-.22,7.8,1.03,17.29.29,21.21-5.84,2.31-3.66,1.82-8.14,2.45-12.3.36-2.44,1.13-4.81,1.6-7.24.63-4,.85-8.05.67-12.1-.12-9.51-.27-19.13-3.74-28.07-3.49-8.56-9.97-15.57-18.23-19.72-5.52-2.82-21.07-3.23-23.57,4.22Z"/><path class="cls-89_colosseum-11" d="M52.1,363.64c-7.48.59-16.27,5.54-15.26,12.96,132.91,10.76,266.4,12.55,399.56,5.36,15.8-.86,35.18-4.48,39.89-19.58-15.64-4.25-32.06-4.49-48.26-4.71l-211.53-2.82c-28.57-.38-57.17-.76-85.74.2-27.03.92-52.36,6.51-78.65,8.58Z"/></g><g id="colosseum_colosseum-11"><polygon class="cls-91_colosseum-11 targetColor" points="241.16 250.86 242.84 261.2 259.48 260.67 258.68 249.62 247.89 249.96 241.16 250.86" style="fill: rgb(104, 225, 253);"/><path class="cls-91_colosseum-11 targetColor" d="M442.52,326.24l-2.41-19.32-.06-16.28-2.28-15.16-7.83-5.64-23.16-6.54-49.84-9.85-37.45-2.59-48.69-2.28-1.88,11.83,17.69,4.32,3.99,41.08,49.71,6.05,7.4,48.95,14.43.58,49.52.17h31.98l1.02-10.42-2.14-24.9ZM334.24,268.17l-6.79-.64.09-8.04,6.65.39.06,8.29ZM344.08,280.86l-.76-2.59.26-6.05,1.53-1.25,4.52.37,2.59,3.55.37,4.67.16,1.5-8.67-.2ZM377.66,270.94l-4.87-.34v-5.44l5.06.78-.2,5Z" style="fill: rgb(104, 225, 253);"/><path class="cls-90_colosseum-11" d="M442.52,326.24l-2.41-19.32-.06-16.28-2.28-15.16-7.83-5.64-23.16-6.54-49.84-9.85-37.45-2.59-48.69-2.28-1.88,11.83,17.69,4.32,3.99,41.08,49.71,6.05,7.4,48.95,14.43.58,49.52.17h31.98l1.02-10.42-2.14-24.9ZM334.24,268.17l-6.79-.64.09-8.04,6.65.39.06,8.29ZM344.08,280.86l-.76-2.59.26-6.05,1.53-1.25,4.52.37,2.59,3.55.37,4.67.16,1.5-8.67-.2ZM377.66,270.94l-4.87-.34v-5.44l5.06.78-.2,5Z"/><polygon class="cls-88_colosseum-11" points="387.99 295.76 388.45 361.41 411.68 361.5 443.64 361.52 444.66 351.11 442.53 326.24 440.11 306.92 440.05 290.65 437.78 275.49 429.94 269.84 406.78 263.3 386.03 259.2 387.99 295.76"/><polygon class="cls-91_colosseum-11 targetColor" points="436.37 302.2 438.24 361.52 443.64 361.52 444.66 351.11 442.53 326.24 440.11 306.92 440.05 290.65 437.78 275.49 434.88 273.41 436.37 302.2" style="fill: rgb(104, 225, 253);"/><polygon class="cls-91_colosseum-11 targetColor" points="438.02 277.13 437.78 275.49 429.94 269.84 406.78 263.3 356.94 253.45 319.5 250.82 270.8 248.54 270.44 250.82 280.34 251.01 301.09 252.44 339.43 254.69 361.09 256.43 382.39 260.6 405.96 266.1 422.27 269.39 438.02 277.13" style="fill: rgb(104, 225, 253);"/><polygon class="cls-86_colosseum-11" points="436.37 302.2 438.24 361.52 443.64 361.52 444.66 351.11 442.53 326.24 440.11 306.92 440.05 290.65 437.78 275.49 434.88 273.41 436.37 302.2"/><polygon class="cls-87_colosseum-11" points="438.02 277.13 437.78 275.49 429.94 269.84 406.78 263.3 356.94 253.45 319.5 250.82 270.8 248.54 270.44 250.82 280.34 251.01 301.09 252.44 339.43 254.69 361.09 256.43 382.39 260.6 405.96 266.1 422.27 269.39 438.02 277.13"/><polygon class="cls-20_colosseum-11" points="407.85 268.63 408.1 276.59 412.61 276.97 413.06 269.68 407.85 268.63"/><polygon class="cls-17_colosseum-11" points="425.8 274.13 426.73 282.41 430.12 282.65 430.8 275.7 425.8 274.13"/><polygon class="cls-91_colosseum-11 targetColor" points="338.88 315.66 356.89 315.78 390.95 318 410.14 319.98 429.18 324.06 440.29 326.48 443.93 327.75 446.08 324.75 443.29 321.54 428.12 319.08 410.48 316.52 386.77 313.98 367.39 313.37 352.51 312.63 336.56 313.65 338.88 315.66" style="fill: rgb(104, 225, 253);"/><polygon class="cls-18_colosseum-11" points="338.88 315.66 356.89 315.78 390.95 318 410.14 319.98 429.18 324.06 440.29 326.48 443.93 327.75 446.08 324.75 443.29 321.54 428.12 319.08 410.48 316.52 386.77 313.98 367.39 313.37 352.51 312.63 336.56 313.65 338.88 315.66"/><polygon class="cls-91_colosseum-11 targetColor" points="436.35 322.97 420.28 320.19 401.5 317.14 376.46 315.16 350.98 313.89 337.82 314.75 338.88 315.66 356.89 315.78 390.95 318 410.14 319.98 429.18 324.06 440.29 326.48 443.93 327.75 444.93 326.36 436.35 322.97" style="fill: rgb(104, 225, 253);"/><polygon class="cls-91_colosseum-11 targetColor" points="292.78 281.62 301.57 282.03 305.03 284.51 306.58 290.87 306.15 305.78 291.94 305.02 292.78 281.62" style="fill: rgb(104, 225, 253);"/><polygon class="cls-19_colosseum-11" points="292.78 281.62 301.57 282.03 305.03 284.51 306.58 290.87 306.15 305.78 291.94 305.02 292.78 281.62"/><polygon class="cls-91_colosseum-11 targetColor" points="318.03 282.9 313.84 285.63 312.01 291.75 311.78 305.77 327.56 306.84 327.56 292.46 325.97 284.89 320.96 282.97 318.03 282.9" style="fill: rgb(104, 225, 253);"/><polygon class="cls-91_colosseum-11 targetColor" points="342.58 283.34 335.65 284.94 333.83 291.23 333.43 307.35 343.59 308.24 350.56 308.19 350.65 289.31 348.49 284.88 342.58 283.34" style="fill: rgb(104, 225, 253);"/><polygon class="cls-91_colosseum-11 targetColor" points="365.12 284.18 358.62 285.08 356.02 288.63 354.61 308.06 370.16 308.61 371.14 296.64 368.8 286.84 365.12 284.18" style="fill: rgb(104, 225, 253);"/><polygon class="cls-91_colosseum-11 targetColor" points="384.51 285.13 380.74 286.98 379.31 291.69 378.36 304.37 378.95 309.02 394.75 310.43 394.05 295.39 392.71 287.99 389.49 286.18 384.51 285.13" style="fill: rgb(104, 225, 253);"/><polygon class="cls-28_colosseum-11" points="384.51 285.13 380.74 286.98 379.31 291.69 378.36 304.37 378.95 309.02 394.75 310.43 394.05 295.39 392.71 287.99 389.49 286.18 384.51 285.13"/><polygon class="cls-91_colosseum-11 targetColor" points="412.73 287.87 405.77 288.44 402.77 293.38 401.75 310.73 414.64 312.75 416.03 299.72 415.54 291.42 412.73 287.87" style="fill: rgb(104, 225, 253);"/><polygon class="cls-24_colosseum-11" points="412.73 287.87 405.77 288.44 402.77 293.38 401.75 310.73 414.64 312.75 416.03 299.72 415.54 291.42 412.73 287.87"/><polygon class="cls-91_colosseum-11 targetColor" points="424.91 288.7 420.24 290.41 419.01 301.36 418.47 313.15 428.64 314.04 428.16 298.99 426.56 291.07 424.91 288.7" style="fill: rgb(104, 225, 253);"/><polygon class="cls-22_colosseum-11" points="424.91 288.7 420.24 290.41 419.01 301.36 418.47 313.15 428.64 314.04 428.16 298.99 426.56 291.07 424.91 288.7"/><polygon class="cls-91_colosseum-11 targetColor" points="437.13 290.74 433.52 290.51 432.61 297.12 431.82 315.15 438.61 316.15 438.66 303.34 437.88 293.15 437.13 290.74" style="fill: rgb(104, 225, 253);"/><polygon class="cls-91_colosseum-11 targetColor" points="301.57 282.03 292.78 281.62 292.73 282.96 299.63 284.68 301.8 289.13 302 295.35 300.36 305.47 306.15 305.78 306.58 290.87 305.03 284.51 301.57 282.03" style="fill: rgb(104, 225, 253);"/><polygon class="cls-21_colosseum-11" points="301.57 282.03 292.78 281.62 292.73 282.96 299.63 284.68 301.8 289.13 302 295.35 300.36 305.47 306.15 305.78 306.58 290.87 305.03 284.51 301.57 282.03"/><polygon class="cls-91_colosseum-11 targetColor" points="320.96 282.97 318.03 282.9 316.2 284.08 320.59 285.41 322.29 289.33 322.18 300.08 321.81 306.45 327.56 306.84 327.56 292.46 325.97 284.89 320.96 282.97" style="fill: rgb(104, 225, 253);"/><polygon class="cls-91_colosseum-11 targetColor" points="342.58 283.34 335.65 284.94 334.87 287.63 340.67 287.03 345.25 289.65 346.12 295.51 345.31 308.22 350.56 308.19 350.65 289.31 348.49 284.88 342.58 283.34" style="fill: rgb(104, 225, 253);"/><polygon class="cls-91_colosseum-11 targetColor" points="370.16 308.61 371.14 296.64 368.8 286.84 365.12 284.18 358.62 285.08 356.71 287.7 361.84 287.4 365.51 289.53 365.95 296.28 365.32 308.44 370.16 308.61" style="fill: rgb(104, 225, 253);"/><polygon class="cls-27_colosseum-11" points="394.05 295.39 392.71 287.99 389.49 286.18 384.51 285.13 380.74 286.98 379.88 289.83 383.28 289.15 387.13 289.9 389.05 293.47 390.07 304.35 390.79 310.08 394.75 310.43 394.05 295.39"/><polygon class="cls-23_colosseum-11" points="410.53 312.1 414.64 312.75 416.03 299.72 415.54 291.42 412.73 287.87 405.77 288.44 403.93 291.48 406.76 291.18 411.33 293.46 412.11 296.9 411.64 303.49 410.53 312.1"/><path class="cls-30_colosseum-11" d="M424.91,288.7l-4.68,1.73-.47,4.17,2.02,2.2s.64,6.05.66,6.56-.33,7.21-.48,10.12l6.66.59-.48-15.05-1.6-7.92-1.65-2.39Z"/><polygon class="cls-91_colosseum-11 targetColor" points="373.26 361.37 373.31 344 373.53 336.55 369.04 330.11 364.98 329.72 359.06 334.76 357.35 344.51 358.71 361.19 362.15 361.32 373.26 361.37" style="fill: rgb(104, 225, 253);"/><polygon class="cls-91_colosseum-11 targetColor" points="392.44 358.12 393.14 337.67 391.64 333.03 386.63 330.94 383.31 332.78 380.59 339.1 379.77 349.17 378.95 361.38 392.42 361.43 392.44 358.12" style="fill: rgb(104, 225, 253);"/><polygon class="cls-91_colosseum-11 targetColor" points="409.28 342.7 408.82 334.93 403.76 331.62 398.82 331.95 398.05 336.13 397.26 346.89 395.85 361.44 409.87 361.49 409.28 342.7" style="fill: rgb(104, 225, 253);"/><polygon class="cls-91_colosseum-11 targetColor" points="426.93 361.51 426.54 354.45 426.08 340.09 422.98 334.48 419.3 332.16 415.98 333.83 414.11 338.91 413.67 346.2 413.94 361.5 426.93 361.51" style="fill: rgb(104, 225, 253);"/><polygon class="cls-91_colosseum-11 targetColor" points="441.15 361.52 440.29 341.2 438.77 335.54 433.57 334.83 431.01 339.41 430.83 347.91 430.83 361.51 441.15 361.52" style="fill: rgb(104, 225, 253);"/><polygon class="cls-91_colosseum-11 targetColor" points="364.98 329.72 361.36 332.8 365.57 334.21 367.52 338.82 367.8 361.34 373.26 361.37 373.31 344 373.53 336.55 369.04 330.11 364.98 329.72" style="fill: rgb(104, 225, 253);"/><path class="cls-91_colosseum-11 targetColor" d="M386.63,330.92l-3.33,1.84-.86,2,3.22,1.39,1.29,5.19s-.63,15.33-.43,20.09h5.89v-3.31l.71-20.45-1.5-4.63-5-2.11Z" style="fill: rgb(104, 225, 253);"/><polygon class="cls-91_colosseum-11 targetColor" points="403.76 331.62 398.82 331.95 398.13 335.65 402.98 335.63 406.03 339.69 405.77 345.4 405.85 361.48 409.87 361.49 409.28 342.7 408.82 334.93 403.76 331.62" style="fill: rgb(104, 225, 253);"/><polygon class="cls-91_colosseum-11 targetColor" points="426.93 361.51 426.54 354.45 426.08 340.09 422.98 334.48 419.3 332.16 415.98 333.83 414.99 336.52 417.64 336.55 420.64 338.88 422.12 342.81 422.61 351.45 422.93 361.51 426.93 361.51" style="fill: rgb(104, 225, 253);"/><polygon class="cls-91_colosseum-11 targetColor" points="441.15 361.52 440.29 341.2 438.77 335.54 433.57 334.83 432.06 337.55 436.15 338.04 436.84 345.64 437.13 361.52 441.15 361.52" style="fill: rgb(104, 225, 253);"/><polygon class="cls-26_colosseum-11" points="318.03 282.9 313.84 285.63 312.01 291.75 311.78 305.77 327.56 306.84 327.56 292.46 325.97 284.89 320.96 282.97 318.03 282.9"/><polygon class="cls-29_colosseum-11" points="342.58 283.34 335.65 284.94 333.83 291.23 333.43 307.35 343.59 308.24 350.56 308.19 350.65 289.31 348.49 284.88 342.58 283.34"/><polygon class="cls-25_colosseum-11" points="365.12 284.18 358.62 285.08 356.02 288.63 354.61 308.06 370.16 308.61 371.14 296.64 368.8 286.84 365.12 284.18"/><polygon class="cls-32_colosseum-11" points="437.13 290.74 433.52 290.51 432.61 297.12 431.82 315.15 438.61 316.15 438.66 303.34 437.88 293.15 437.13 290.74"/><polygon class="cls-16_colosseum-11" points="373.26 361.37 373.31 344 373.53 336.55 369.04 330.11 364.98 329.72 359.06 334.76 357.35 344.51 358.71 361.19 362.15 361.32 373.26 361.37"/><polygon class="cls-33_colosseum-11" points="392.44 358.12 393.14 337.67 391.64 333.03 386.63 330.94 383.31 332.78 380.59 339.1 379.77 349.17 378.95 361.38 392.42 361.43 392.44 358.12"/><polygon class="cls-31_colosseum-11" points="409.28 342.7 408.82 334.93 403.76 331.62 398.82 331.95 398.05 336.13 397.26 346.89 395.85 361.44 409.87 361.49 409.28 342.7"/><polygon class="cls-15_colosseum-11" points="426.93 361.51 426.54 354.45 426.08 340.09 422.98 334.48 419.3 332.16 415.98 333.83 414.11 338.91 413.67 346.2 413.94 361.5 426.93 361.51"/><polygon class="cls-6_colosseum-11" points="441.15 361.52 440.29 341.2 438.77 335.54 433.57 334.83 431.01 339.41 430.83 347.91 430.83 361.51 441.15 361.52"/><polygon class="cls-8_colosseum-11" points="426.93 361.51 426.54 354.45 426.08 340.09 422.98 334.48 419.3 332.16 415.98 333.83 414.99 336.52 417.64 336.55 420.64 338.88 422.12 342.81 422.61 351.45 422.93 361.51 426.93 361.51"/><polygon class="cls-9_colosseum-11" points="441.15 361.52 440.29 341.2 438.77 335.54 433.57 334.83 432.06 337.55 436.15 338.04 436.84 345.64 437.13 361.52 441.15 361.52"/><polygon class="cls-91_colosseum-11 targetColor" points="372.56 277.36 372.57 284.81 373.41 297.6 372.48 310.61 375.41 310.7 377.79 286.38 377.5 277.04 372.56 277.36" style="fill: rgb(104, 225, 253);"/><polygon class="cls-91_colosseum-11 targetColor" points="395.96 284.07 396.3 295.14 396.06 308.83 395.73 312.83 399.79 313.04 401.05 295.86 402.26 284.05 401.43 279.05 396 278.53 395.96 284.07" style="fill: rgb(104, 225, 253);"/><polygon class="cls-91_colosseum-11 targetColor" points="329.26 274.92 328.99 287.57 328.5 307.85 331.66 308.09 333.67 279.28 333.51 274.1 329.43 273.02 329.26 274.92" style="fill: rgb(104, 225, 253);"/><polygon class="cls-91_colosseum-11 targetColor" points="356.16 335.71 356.28 318.22 350.41 317.37 352.22 360.93 355.88 361.07 356.16 335.71" style="fill: rgb(104, 225, 253);"/><polygon class="cls-91_colosseum-11 targetColor" points="377.52 361.38 378.52 330.86 378.6 319.08 375.21 318.83 375.38 331.3 374.7 345.35 374.78 361.38 377.52 361.38" style="fill: rgb(104, 225, 253);"/><polygon class="cls-7_colosseum-11" points="356.16 335.71 356.28 318.22 350.41 317.37 352.22 360.93 355.88 361.07 356.16 335.71"/><polygon class="cls-5_colosseum-11" points="377.52 361.38 378.52 330.86 378.6 319.08 375.21 318.83 375.38 331.3 374.7 345.35 374.78 361.38 377.52 361.38"/><polygon class="cls-91_colosseum-11 targetColor" points="307.76 271.27 307.8 279.75 308.17 291.17 307.95 305.72 310.2 305.83 311.41 286.91 313.14 270.59 307.76 271.27" style="fill: rgb(104, 225, 253);"/><polygon class="cls-12_colosseum-11" points="372.56 277.36 372.57 284.81 373.41 297.6 372.48 310.61 375.41 310.7 377.79 286.38 377.5 277.04 372.56 277.36"/><polygon class="cls-14_colosseum-11" points="395.96 284.07 396.3 295.14 396.06 308.83 395.73 312.83 399.79 313.04 401.05 295.86 402.26 284.05 401.43 279.05 396 278.53 395.96 284.07"/><polygon class="cls-10_colosseum-11" points="329.26 274.92 328.99 287.57 328.5 307.85 331.66 308.09 333.67 279.28 333.51 274.1 329.43 273.02 329.26 274.92"/><polygon class="cls-13_colosseum-11" points="307.76 271.27 307.8 279.75 308.17 291.17 307.95 305.72 310.2 305.83 311.41 286.91 313.14 270.59 307.76 271.27"/><path class="cls-91_colosseum-11 targetColor" d="M351.98,338.79l-5.54-31.92-9.02-.63-24.08-2.25-16.82-.39-2.72-38.7-2.85-4.75-9.93-.86-30.31-.2-25.19.8-4.16,1.73,2.01,44.73,28.39,4.7,35.51,50.59,20.15,1.22,46.8-.56-2.25-23.49ZM244.09,305.66l-5.38-.07-2.49-11.4,5.19-7.32,7.24,1.38,3.35,1.51,2.01,1.9,1.79,13.92-11.71.08ZM280.57,304.99l-15.19-.17.22-12.01.09-1.46.16-1.41,5.57-3.09,5.71.29,3.97,1.95,3.28,15.95-3.8-.04Z" style="fill: rgb(104, 225, 253);"/><path class="cls-4_colosseum-11" d="M351.98,338.79l-5.54-31.92-9.02-.63-24.08-2.25-16.82-.39-2.72-38.7-2.85-4.75-9.93-.86-30.31-.2-25.19.8-4.16,1.73,2.01,44.73,28.39,4.7,35.51,50.59,20.15,1.22,46.8-.56-2.25-23.49ZM244.09,305.66l-5.38-.07-2.49-11.4,5.19-7.32,7.24,1.38,3.35,1.51,2.01,1.9,1.79,13.92-11.71.08ZM280.57,304.99l-15.19-.17.22-12.01.09-1.46.16-1.41,5.57-3.09,5.71.29,3.97,1.95,3.28,15.95-3.8-.04Z"/><polygon class="cls-91_colosseum-11 targetColor" points="293.59 304.62 296.52 303.25 293.83 264.9 290.97 260.15 283.34 259.5 289 263.9 290.91 286.23 293.23 302.78 293.59 304.62" style="fill: rgb(104, 225, 253);"/><polygon class="cls-91_colosseum-11 targetColor" points="349.01 362.34 354.23 362.27 351.99 338.79 346.47 306.87 343.61 306.67 349.01 362.34" style="fill: rgb(104, 225, 253);"/><polygon class="cls-91_colosseum-11 targetColor" points="223.95 266.41 256.33 265.39 281.82 264.81 287.83 265.09 286.98 266.73 223.7 267.8 223.95 266.41" style="fill: rgb(104, 225, 253);"/><polygon class="cls-91_colosseum-11 targetColor" points="223.73 269.19 224.72 271.93 262.53 271.66 274.82 271.27 285.91 270.69 285.85 268.84 223.73 269.19" style="fill: rgb(104, 225, 253);"/><polygon class="cls-91_colosseum-11 targetColor" points="290.97 260.15 281.05 259.3 250.73 259.1 225.55 259.9 221.4 261.64 221.45 262.83 234.93 262.6 253.21 261.8 270.02 261.73 292.14 262.08 290.97 260.15" style="fill: rgb(104, 225, 253);"/><polygon class="cls-91_colosseum-11 targetColor" points="307.92 340.64 306.37 329.38 297.54 325.27 292.13 325.21 286.01 330.94 284.22 340.7 285.52 359.11 287.28 361.61 307.42 362.83 309.45 362.79 307.92 340.64" style="fill: rgb(104, 225, 253);"/><polygon class="cls-91_colosseum-11 targetColor" points="342.74 340.7 339.47 332.26 333.37 328.99 326.14 328.29 320.88 332.62 318.87 344.92 320.79 362.66 342.35 362.41 342.74 340.7" style="fill: rgb(104, 225, 253);"/><polygon class="cls-11_colosseum-11" points="307.92 340.64 306.37 329.38 297.54 325.27 292.13 325.21 286.01 330.94 284.22 340.7 285.52 359.11 287.28 361.61 307.42 362.83 309.45 362.79 307.92 340.64"/><polygon class="cls-42_colosseum-11" points="342.74 340.7 339.47 332.26 333.37 328.99 326.14 328.29 320.88 332.62 318.87 344.92 320.79 362.66 342.35 362.41 342.74 340.7"/><polygon class="cls-91_colosseum-11 targetColor" points="309.45 362.79 307.92 340.64 306.37 329.38 297.54 325.27 292.13 325.21 286.01 330.94 285.32 334.69 292.37 332.82 299.07 336.08 301.98 342.45 303.67 362.59 307.42 362.83 309.45 362.79" style="fill: rgb(104, 225, 253);"/><polygon class="cls-91_colosseum-11 targetColor" points="342.35 362.41 342.74 340.7 339.47 332.26 333.37 328.99 326.14 328.29 320.88 332.62 320.37 335.71 328.71 333.53 334.59 339.11 335.7 346 335.02 362.49 342.35 362.41" style="fill: rgb(104, 225, 253);"/><polygon class="cls-91_colosseum-11 targetColor" points="283.61 283.47 278.67 279 272.67 278.95 266.48 282.62 265.85 289.93 271.41 286.85 277.13 287.13 281.09 289.08 284.37 305.03 286.99 305.06 283.61 283.47" style="fill: rgb(104, 225, 253);"/><polygon class="cls-91_colosseum-11 targetColor" points="253.01 283.97 248.37 279.5 241.14 278.57 234.34 282.01 232.51 290.38 233.28 305.59 238.72 305.59 236.23 294.19 241.4 286.87 248.65 288.25 251.99 289.77 254.01 291.68 253.01 283.97" style="fill: rgb(104, 225, 253);"/><polygon class="cls-43_colosseum-11" points="309.45 362.79 307.92 340.64 306.37 329.38 297.54 325.27 292.13 325.21 286.01 330.94 285.32 334.69 292.37 332.82 299.07 336.08 301.98 342.45 303.67 362.59 307.42 362.83 309.45 362.79"/><polygon class="cls-40_colosseum-11" points="342.35 362.41 342.74 340.7 339.47 332.26 333.37 328.99 326.14 328.29 320.88 332.62 320.37 335.71 328.71 333.53 334.59 339.11 335.7 346 335.02 362.49 342.35 362.41"/><polygon class="cls-41_colosseum-11" points="309.45 362.79 307.92 340.64 306.37 329.38 297.54 325.27 292.13 325.21 286.01 330.94 285.32 334.69 292.37 332.82 299.07 336.08 301.98 342.45 303.67 362.59 307.42 362.83 309.45 362.79"/><polygon class="cls-36_colosseum-11" points="342.35 362.41 342.74 340.7 339.47 332.26 333.37 328.99 326.14 328.29 320.88 332.62 320.37 335.71 328.71 333.53 334.59 339.11 335.7 346 335.02 362.49 342.35 362.41"/><polygon class="cls-34_colosseum-11" points="283.61 283.47 278.67 279 272.67 278.95 266.48 282.62 265.85 289.93 271.41 286.85 277.13 287.13 281.09 289.08 284.37 305.03 286.99 305.06 283.61 283.47"/><polygon class="cls-35_colosseum-11" points="253.01 283.97 248.37 279.5 241.14 278.57 234.34 282.01 232.51 290.38 233.28 305.59 238.72 305.59 236.23 294.19 241.4 286.87 248.65 288.25 251.99 289.77 254.01 291.68 253.01 283.97"/><polygon class="cls-91_colosseum-11 targetColor" points="251.4 308.95 272.39 308.52 297 308.2 318.63 309.14 341.2 310.97 340.46 315.84 316.36 313.14 280.64 312.88 256.64 313.17 253.58 311.19 251.4 308.95" style="fill: rgb(104, 225, 253);"/><polygon class="cls-91_colosseum-11 targetColor" points="257.61 315.45 279.8 314.75 306.82 315.05 328.17 316.22 341.13 318.35 341.17 319.51 307.79 317.33 282.57 316.97 258.26 317.04 257.61 315.45" style="fill: rgb(104, 225, 253);"/><path class="cls-91_colosseum-11 targetColor" d="M289.02,350.48l-20.13-29.15-5.04-17.15-12.65-1.22-6.91-10.17-4.17-16.96-2.51-13.54-1.5-9.42-10.69-5.44-.8-5.98-2.59-26.46-12.82-6.76-14.65,1.62-43.65,5.53-35.71,9.9-26.35,10.76-22.42,13.63.72,32.3,1.53,10.57,5.13,48.55,2.94,26.47,73.75-2.59,59.69-1.19,52.79-.97,32.41.13-6.4-12.45ZM135.17,258.59l-3.54.77-.26-16.81.86-2.1,1.98.29.56,4.02.4,13.84ZM146.11,256.34l-1.29-15.56.44-5.09,4.11-1.57,1.53.47.4,3.41.86,17.05-6.06,1.3ZM175.49,252.94l-8.98.86-.24-7.69-.82-6.91,2.24-5.19,4.45-1.73,2.77,2.29.59,18.37ZM202.38,239.62l.34,10.84-11.72.22-.81-17.15,1.95-4.44,5.3-3.4,4.55,1.43.4,12.5Z" style="fill: rgb(104, 225, 253);"/><path class="cls-39_colosseum-11" d="M289.02,350.48l-20.13-29.15-5.04-17.15-12.65-1.22-6.91-10.17-4.17-16.96-2.51-13.54-1.5-9.42-10.69-5.44-.8-5.98-2.59-26.46-12.82-6.76-14.65,1.62-43.65,5.53-35.71,9.9-26.35,10.76-22.42,13.63.72,32.3,1.53,10.57,5.13,48.55,2.94,26.47,73.75-2.59,59.69-1.19,52.79-.97,32.41.13-6.4-12.45ZM135.17,258.59l-3.54.77-.26-16.81.86-2.1,1.98.29.56,4.02.4,13.84ZM146.11,256.34l-1.29-15.56.44-5.09,4.11-1.57,1.53.47.4,3.41.86,17.05-6.06,1.3ZM175.49,252.94l-8.98.86-.24-7.69-.82-6.91,2.24-5.19,4.45-1.73,2.77,2.29.59,18.37ZM202.38,239.62l.34,10.84-11.72.22-.81-17.15,1.95-4.44,5.3-3.4,4.55,1.43.4,12.5Z"/><polygon class="cls-91_colosseum-11 targetColor" points="67.15 214.8 67.84 222.39 66.79 245.97 100.44 227.94 148.6 213.61 206.91 206.92 188.42 177.38 174.98 164.99 169.99 163.76 154.84 168.74 133.47 176.34 99.26 190.92 77.63 204.42 67.15 214.8" style="fill: rgb(104, 225, 253);"/><polygon class="cls-37_colosseum-11" points="67.15 214.8 67.84 222.39 66.79 245.97 100.44 227.94 148.6 213.61 206.91 206.92 188.42 177.38 174.98 164.99 169.99 163.76 154.84 168.74 133.47 176.34 99.26 190.92 77.63 204.42 67.15 214.8"/><polygon class="cls-91_colosseum-11 targetColor" points="188.42 177.38 174.98 164.99 170.12 163.79 177.85 170.44 185.09 185.8 197.22 208.03 206.91 206.92 188.42 177.38" style="fill: rgb(104, 225, 253);"/><polygon class="cls-38_colosseum-11" points="188.42 177.38 174.98 164.99 170.12 163.79 177.85 170.44 185.09 185.8 197.22 208.03 206.91 206.92 188.42 177.38"/><polygon class="cls-91_colosseum-11 targetColor" points="63.74 220.79 76.93 210.67 98.07 195.82 116.7 187.26 141.59 177.13 163.43 169.86 173.7 167.11 180.01 167.6 179.88 163.1 170.38 162.02 156.05 164.54 102.22 184.6 77.95 200.26 61.32 215.32 61 219.49 63.74 220.79" style="fill: rgb(104, 225, 253);"/><polygon class="cls-91_colosseum-11 targetColor" points="61.25 219.61 63.74 220.79 76.93 210.67 98.07 195.82 116.7 187.26 141.59 177.13 163.43 169.86 173.7 167.11 180.01 167.6 179.94 165.11 163.32 166.74 145.04 172.17 117.46 182.73 81.19 202.93 61.25 219.61" style="fill: rgb(104, 225, 253);"/><polygon class="cls-52_colosseum-11" points="61.25 219.61 63.74 220.79 76.93 210.67 98.07 195.82 116.7 187.26 141.59 177.13 163.43 169.86 173.7 167.11 180.01 167.6 179.94 165.11 163.32 166.74 145.04 172.17 117.46 182.73 81.19 202.93 61.25 219.61"/><polygon class="cls-91_colosseum-11 targetColor" points="145.2 177.24 148.48 176.68 150.67 188.84 147.08 189.42 145.2 177.24" style="fill: rgb(104, 225, 253);"/><polygon class="cls-91_colosseum-11 targetColor" points="157.11 174.09 158.12 187.22 160.51 186.92 159.76 172.63 157.11 174.09" style="fill: rgb(104, 225, 253);"/><polygon class="cls-91_colosseum-11 targetColor" points="168.4 170.51 169.76 185.24 173.03 184.22 171.67 169.71 168.4 170.51" style="fill: rgb(104, 225, 253);"/><polygon class="cls-91_colosseum-11 targetColor" points="124.75 185.27 126.24 194.69 130.7 193.4 129.79 183.5 124.75 185.27" style="fill: rgb(104, 225, 253);"/><polygon class="cls-91_colosseum-11 targetColor" points="66.33 226.83 79.22 216.96 106.63 200.85 120.57 195.34 138.39 189.7 156.58 185.88 166.73 184.18 178.71 183.34 178.47 185.19 178.21 186.59 152.83 190.62 130.2 196.41 112.4 202.98 97.93 210.36 81.17 221.51 66.49 231.9 66.33 226.83" style="fill: rgb(104, 225, 253);"/><polygon class="cls-91_colosseum-11 targetColor" points="172.77 185.61 159.94 187.85 136.09 192.76 115.59 199.41 99.33 207.32 79.03 220.42 66.42 229.51 66.49 231.9 81.17 221.51 97.93 210.36 112.4 202.98 130.2 196.41 152.83 190.62 178.21 186.59 178.42 185.43 172.77 185.61" style="fill: rgb(104, 225, 253);"/><polygon class="cls-91_colosseum-11 targetColor" points="66.03 236.3 66.09 238.15 77.29 231.79 98.62 222.81 133.31 209.47 154.5 205.57 173.58 201.74 188.54 199.89 188.76 197.57 175.61 199.14 150.24 203.64 127.29 208.97 108.94 217.17 91.74 223.72 76.34 230.21 66.03 236.3" style="fill: rgb(104, 225, 253);"/><polygon class="cls-91_colosseum-11 targetColor" points="126.98 199.06 131.15 198.23 132.03 206.75 127.55 207.58 126.98 199.06" style="fill: rgb(104, 225, 253);"/><polygon class="cls-91_colosseum-11 targetColor" points="147.79 192.86 151.07 192.06 151.4 202.44 148.41 203 147.79 192.86" style="fill: rgb(104, 225, 253);"/><polygon class="cls-91_colosseum-11 targetColor" points="158.53 190.45 160.92 190.37 161.84 200.5 158.26 201.07 158.53 190.45" style="fill: rgb(104, 225, 253);"/><polygon class="cls-91_colosseum-11 targetColor" points="170.17 188.69 173.76 188.11 174.08 198.49 171.08 198.59 170.17 188.69" style="fill: rgb(104, 225, 253);"/><polygon class="cls-91_colosseum-11 targetColor" points="137.69 195.94 138.77 201.68 144.15 201.05 143.06 195.09 137.69 195.94" style="fill: rgb(104, 225, 253);"/><polygon class="cls-91_colosseum-11 targetColor" points="106.22 206.87 106.68 211.93 102.22 213.46 101.79 209.32 106.22 206.87" style="fill: rgb(104, 225, 253);"/><polygon class="cls-50_colosseum-11" points="137.69 195.94 138.77 201.68 144.15 201.05 143.06 195.09 137.69 195.94"/><polygon class="cls-51_colosseum-11" points="106.22 206.87 106.68 211.93 102.22 213.46 101.79 209.32 106.22 206.87"/><polygon class="cls-49_colosseum-11" points="289.02 350.48 268.9 321.32 263.86 304.18 251.21 302.96 244.28 292.78 240.15 275.83 237.62 262.29 236.13 252.87 225.45 247.43 224.66 241.45 222.03 214.99 210.01 208.66 211.73 212.31 215.56 229.05 218.84 247.18 225.93 253.2 234.29 280.4 240.7 302.59 249.53 306.93 259.76 316.99 278.8 349.87 288.02 362.94 295.43 362.98 289.02 350.48"/><polygon class="cls-91_colosseum-11 targetColor" points="65.64 261.94 76.08 250.3 93.16 240.06 117.17 230.54 144.87 223.89 184.59 217.55 207.63 215.44 212.75 215.97 222.54 221.9 224.56 219.3 224.34 212.38 220.92 208.56 210.03 205.67 203.41 205.18 166.93 209.34 148.39 211.77 128.77 217.7 98.75 226.96 82.82 235.77 69.8 241.73 65.45 246.48 63.56 253.23 63.48 260.16 65.64 261.94" style="fill: rgb(104, 225, 253);"/><polygon class="cls-91_colosseum-11 targetColor" points="210.03 205.67 208.63 205.57 208.97 210.33 211.05 215.8 212.75 215.97 222.54 221.9 224.56 219.3 224.34 212.38 220.92 208.56 210.03 205.67" style="fill: rgb(104, 225, 253);"/><polygon class="cls-91_colosseum-11 targetColor" points="210.03 205.67 203.41 205.18 166.93 209.34 148.39 211.77 128.77 217.7 98.75 226.96 82.82 235.77 69.8 241.73 65.45 246.48 63.85 252.2 75.91 245.23 102.18 231.24 127.42 222.59 152.74 216.25 179.91 211.93 203.3 211.2 211.38 210.47 224.45 215.74 224.34 212.38 220.92 208.56 210.03 205.67" style="fill: rgb(104, 225, 253);"/><polygon class="cls-91_colosseum-11 targetColor" points="210.03 205.67 208.63 205.57 208.97 210.33 209.11 210.68 211.38 210.47 224.45 215.74 224.34 212.38 220.92 208.56 210.03 205.67" style="fill: rgb(104, 225, 253);"/><polygon class="cls-91_colosseum-11 targetColor" points="193.05 216.78 187.86 216.53 170.8 217.99 150.48 220.94 126.93 225.84 108.79 231.49 87.48 240.7 73.35 249.46 63.75 260.38 65.64 261.94 76.08 250.3 93.16 240.06 117.17 230.54 144.87 223.89 184.59 217.55 193.05 216.78" style="fill: rgb(104, 225, 253);"/><polygon class="cls-91_colosseum-11 targetColor" points="116.68 262.41 116.43 244.87 113.85 239.41 109.93 238.84 107.87 240.06 106.78 243.79 107.35 252.32 107.79 266.38 116.68 262.41" style="fill: rgb(104, 225, 253);"/><polygon class="cls-91_colosseum-11 targetColor" points="101.46 265.43 101.26 249.27 98.37 243.59 93.28 243.98 92.27 250.02 94.07 269.12 101.46 265.43" style="fill: rgb(104, 225, 253);"/><polygon class="cls-91_colosseum-11 targetColor" points="86.62 270.74 84.66 256.03 82.1 251.04 77.94 252.09 77.2 257.65 77.77 275.64 86.62 270.74" style="fill: rgb(104, 225, 253);"/><polygon class="cls-91_colosseum-11 targetColor" points="116.43 244.87 115.79 243.53 113.42 244.96 111.9 253.79 113.2 263.96 116.68 262.41 116.43 244.87" style="fill: rgb(104, 225, 253);"/><polygon class="cls-91_colosseum-11 targetColor" points="216.13 304.29 214.85 282.63 214.55 272.95 209.94 269.39 198.49 268.14 191.09 271.14 188 277.93 188.88 306.07 216.13 304.29" style="fill: rgb(104, 225, 253);"/><polygon class="cls-53_colosseum-11" points="216.13 304.29 214.85 282.63 214.55 272.95 209.94 269.39 198.49 268.14 191.09 271.14 188 277.93 188.88 306.07 216.13 304.29"/><polygon class="cls-91_colosseum-11 targetColor" points="177.45 305.05 176.15 283.15 175.81 272.32 170.04 270.19 163.8 272.23 160.72 279.26 161.58 306.24 177.45 305.05" style="fill: rgb(104, 225, 253);"/><polygon class="cls-91_colosseum-11 targetColor" points="153.2 307.2 152.26 286.91 151.3 275.4 147.9 272.27 143.44 273.57 140.9 278.96 140.95 290.03 141.22 308.04 153.2 307.2" style="fill: rgb(104, 225, 253);"/><polygon class="cls-91_colosseum-11 targetColor" points="135.82 307.98 135.54 289.52 135.5 278.89 133.58 275.04 128.79 275.19 124.93 276.69 123.85 280.66 123.49 288.05 123.56 299.82 123.27 309.76 135.82 307.98" style="fill: rgb(104, 225, 253);"/><polygon class="cls-91_colosseum-11 targetColor" points="202.16 289.27 201.57 280.28 204.01 271.89 211.06 270.26 209.94 269.39 198.49 268.14 191.09 271.14 188 277.93 188.88 306.07 202.91 305.15 202.16 289.27" style="fill: rgb(104, 225, 253);"/><polygon class="cls-91_colosseum-11 targetColor" points="170.04 270.19 163.8 272.23 160.72 279.26 161.58 306.24 167.84 305.77 166.92 285.52 167.98 280.87 170.91 278.7 176.05 279.66 175.81 272.32 170.04 270.19" style="fill: rgb(104, 225, 253);"/><polygon class="cls-91_colosseum-11 targetColor" points="147.9 272.27 143.44 273.57 140.9 278.96 140.95 290.03 141.22 308.04 146.53 307.67 145.65 296.13 145.28 284.37 147.25 280.37 151.78 281.1 151.3 275.4 147.9 272.27" style="fill: rgb(104, 225, 253);"/><polygon class="cls-91_colosseum-11 targetColor" points="118.76 309.44 117.54 289.85 116.1 282.05 111.24 280.59 108.3 282.52 107.57 287.86 107.13 311.88 118.76 309.44" style="fill: rgb(104, 225, 253);"/><polygon class="cls-91_colosseum-11 targetColor" points="102.03 311.82 101.87 297.5 102.5 288.71 99.37 284.65 95.18 285.01 94.12 289.67 94.34 296.82 95.47 313.41 102.03 311.82" style="fill: rgb(104, 225, 253);"/><polygon class="cls-91_colosseum-11 targetColor" points="88.9 314.31 88.64 296.53 88.14 290.55 85.38 288.33 82.42 289.81 79.84 293.58 79.29 304.68 80.31 318.27 88.9 314.31" style="fill: rgb(104, 225, 253);"/><polygon class="cls-47_colosseum-11" points="101.46 265.43 101.26 249.27 98.37 243.59 93.28 243.98 92.27 250.02 94.07 269.12 101.46 265.43"/><polygon class="cls-48_colosseum-11" points="86.62 270.74 84.66 256.03 82.1 251.04 77.94 252.09 77.2 257.65 77.77 275.64 86.62 270.74"/><polygon class="cls-45_colosseum-11" points="102.03 311.82 101.87 297.5 102.5 288.71 99.37 284.65 95.18 285.01 94.12 289.67 94.34 296.82 95.47 313.41 102.03 311.82"/><polygon class="cls-46_colosseum-11" points="88.9 314.31 88.64 296.53 88.14 290.55 85.38 288.33 82.42 289.81 79.84 293.58 79.29 304.68 80.31 318.27 88.9 314.31"/><polygon class="cls-91_colosseum-11 targetColor" points="128.79 275.19 124.93 276.69 123.85 280.66 123.49 288.05 123.56 299.82 123.27 309.76 128.61 309 127.32 285.85 129.56 280.93 135.51 280.74 135.5 278.89 133.58 275.04 128.79 275.19" style="fill: rgb(104, 225, 253);"/><polygon class="cls-44_colosseum-11" points="128.79 275.19 124.93 276.69 123.85 280.66 123.49 288.05 123.56 299.82 123.27 309.76 128.61 309 127.32 285.85 129.56 280.93 135.51 280.74 135.5 278.89 133.58 275.04 128.79 275.19"/><polygon class="cls-91_colosseum-11 targetColor" points="111.24 280.59 108.3 282.52 107.57 287.86 107.13 311.88 111.6 310.94 111.08 294.44 110.87 287.75 113.18 284.68 116.54 284.43 116.1 282.05 111.24 280.59" style="fill: rgb(104, 225, 253);"/><polygon class="cls-54_colosseum-11" points="111.24 280.59 108.3 282.52 107.57 287.86 107.13 311.88 111.6 310.94 111.08 294.44 110.87 287.75 113.18 284.68 116.54 284.43 116.1 282.05 111.24 280.59"/><polygon class="cls-91_colosseum-11 targetColor" points="252.21 325.11 244.99 324.85 239.62 325.5 234.61 328.54 233 334.61 232.43 345.2 233 363.39 258.18 362.92 257.03 344.91 256.96 332.89 252.21 325.11" style="fill: rgb(104, 225, 253);"/><polygon class="cls-91_colosseum-11 targetColor" points="217.29 363.68 217.87 349.79 216.82 335.43 212.64 326.68 206.25 323.76 197.88 324.99 193.57 331.12 193.93 342.39 194.07 364.13 210.21 363.8 217.29 363.68" style="fill: rgb(104, 225, 253);"/><polygon class="cls-91_colosseum-11 targetColor" points="180.21 364.41 179.64 346.08 178.87 331.32 175.44 327.27 166.42 326.41 163.48 328.58 160.7 335.82 160.58 350.83 160.25 364.81 180.21 364.41" style="fill: rgb(104, 225, 253);"/><polygon class="cls-91_colosseum-11 targetColor" points="150.52 365 155.07 364.91 155.05 346.85 153.72 333.27 150.88 328.51 147.87 328.6 144.97 331.93 142.44 337.09 143.81 351.83 143.7 365.24 150.52 365" style="fill: rgb(104, 225, 253);"/><polygon class="cls-91_colosseum-11 targetColor" points="136.28 365.49 137.49 341.86 136.56 331.27 133.77 328.82 127.51 330.17 124.3 332.82 124.36 344.36 124.48 365.9 136.28 365.49" style="fill: rgb(104, 225, 253);"/><polygon class="cls-55_colosseum-11" points="177.45 305.05 176.15 283.15 175.81 272.32 170.04 270.19 163.8 272.23 160.72 279.26 161.58 306.24 177.45 305.05"/><polygon class="cls-56_colosseum-11" points="153.2 307.2 152.26 286.91 151.3 275.4 147.9 272.27 143.44 273.57 140.9 278.96 140.95 290.03 141.22 308.04 153.2 307.2"/><polygon class="cls-66_colosseum-11" points="135.82 307.98 135.54 289.52 135.5 278.89 133.58 275.04 128.79 275.19 124.93 276.69 123.85 280.66 123.49 288.05 123.56 299.82 123.27 309.76 135.82 307.98"/><polygon class="cls-68_colosseum-11" points="118.76 309.44 117.54 289.85 116.1 282.05 111.24 280.59 108.3 282.52 107.57 287.86 107.13 311.88 118.76 309.44"/><polygon class="cls-57_colosseum-11" points="217.29 363.68 217.87 349.79 216.82 335.43 212.64 326.68 206.25 323.76 197.88 324.99 193.57 331.12 193.93 342.39 194.07 364.13 210.21 363.8 217.29 363.68"/><polygon class="cls-65_colosseum-11" points="180.21 364.41 179.64 346.08 178.87 331.32 175.44 327.27 166.42 326.41 163.48 328.58 160.7 335.82 160.58 350.83 160.25 364.81 180.21 364.41"/><polygon class="cls-63_colosseum-11" points="150.52 365 155.07 364.91 155.05 346.85 153.72 333.27 150.88 328.51 147.87 328.6 144.97 331.93 142.44 337.09 143.81 351.83 143.7 365.24 150.52 365"/><polygon class="cls-64_colosseum-11" points="136.28 365.49 137.49 341.86 136.56 331.27 133.77 328.82 127.51 330.17 124.3 332.82 124.36 344.36 124.48 365.9 136.28 365.49"/><polygon class="cls-91_colosseum-11 targetColor" points="118.03 366.13 119.6 345.65 118.39 335.77 114.42 333.81 109.06 335.14 108.05 341.18 108.57 366.46 118.03 366.13" style="fill: rgb(104, 225, 253);"/><polygon class="cls-91_colosseum-11 targetColor" points="102.86 366.65 102.23 346.9 101.36 338.39 97.68 335.73 93.58 339.09 94.38 345.3 95.06 366.92 102.86 366.65" style="fill: rgb(104, 225, 253);"/><polygon class="cls-67_colosseum-11" points="87.06 351.07 87.92 340.42 83.95 338.47 80.5 343.2 80.38 348.74 81.5 367.39 88.08 367.17 87.06 351.07"/><polygon class="cls-91_colosseum-11 targetColor" points="245.78 340.06 246.11 331.51 249 328.19 254.09 328.19 252.21 325.11 244.99 324.85 239.62 325.5 234.61 328.54 233 334.61 232.43 345.2 233 363.39 245.95 363.16 245.78 340.06" style="fill: rgb(104, 225, 253);"/><polygon class="cls-91_colosseum-11 targetColor" points="214.55 330.68 212.64 326.68 206.25 323.76 197.88 324.99 193.57 331.12 193.93 342.39 194.07 364.13 204.81 363.92 203.99 337.92 205.01 332.11 209.74 329.66 214.55 330.68" style="fill: rgb(104, 225, 253);"/><polygon class="cls-91_colosseum-11 targetColor" points="178.87 331.32 175.44 327.27 166.42 326.41 163.48 328.58 160.7 335.82 160.58 350.83 160.25 364.81 165.52 364.7 164.78 341 167.26 334.23 172.9 332.21 179.05 334.58 178.87 331.32" style="fill: rgb(104, 225, 253);"/><polygon class="cls-91_colosseum-11 targetColor" points="149.01 365.05 147.92 339.46 149.9 335.7 153.95 335.57 153.72 333.27 150.88 328.51 147.87 328.6 144.97 331.93 142.44 337.09 143.81 351.83 143.7 365.24 149.01 365.05" style="fill: rgb(104, 225, 253);"/><polygon class="cls-91_colosseum-11 targetColor" points="136.83 334.44 136.56 331.27 133.77 328.82 127.51 330.17 124.3 332.82 124.36 344.36 124.48 365.9 129.51 365.72 128.66 347.69 128.08 338.46 131.25 334.44 136.83 334.44" style="fill: rgb(104, 225, 253);"/><polygon class="cls-91_colosseum-11 targetColor" points="327.54 259.49 334.19 259.87 334.25 268.17 337.16 268.44 337.25 257.01 327.57 256.97 327.54 259.49" style="fill: rgb(104, 225, 253);"/><polygon class="cls-91_colosseum-11 targetColor" points="381.55 262.71 372.74 261.78 372.79 270.61 372.76 265.17 377.83 265.95 377.66 270.94 372.79 270.61 381.37 271.2 381.55 262.71" style="fill: rgb(104, 225, 253);"/><polygon class="cls-91_colosseum-11 targetColor" points="356.69 281.16 357.39 274.55 354.31 269.8 347.31 269.16 345.11 270.97 349.64 271.34 352.22 274.89 352.59 279.56 352.74 281.06 344.08 280.86 356.69 281.16" style="fill: rgb(104, 225, 253);"/><polygon class="cls-71_colosseum-11" points="327.54 259.49 334.19 259.87 334.25 268.17 337.16 268.44 337.25 257.01 327.57 256.97 327.54 259.49"/><polygon class="cls-69_colosseum-11" points="381.55 262.71 372.74 261.78 372.79 270.61 372.76 265.17 377.83 265.95 377.66 270.94 372.79 270.61 381.37 271.2 381.55 262.71"/><polygon class="cls-70_colosseum-11" points="356.69 281.16 357.39 274.55 354.31 269.8 347.31 269.16 345.11 270.97 349.64 271.34 352.22 274.89 352.59 279.56 352.74 281.06 344.08 280.86 356.69 281.16"/><polygon class="cls-91_colosseum-11 targetColor" points="189.24 222.49 184.87 226.55 183.72 237.67 184.73 250.79 202.74 250.46 191.02 250.68 190.2 233.53 192.16 229.09 197.46 225.69 202 227.12 201.98 226.71 198.55 222.66 189.24 222.49" style="fill: rgb(104, 225, 253);"/><polygon class="cls-91_colosseum-11 targetColor" points="166.28 246.07 165.46 239.17 167.7 234.02 172.15 232.26 174.92 234.55 174.86 232.64 171.38 226.97 164.44 225.82 160.36 229.64 159.8 240.28 160.24 254.34 166.52 253.76 166.28 246.07" style="fill: rgb(104, 225, 253);"/><polygon class="cls-91_colosseum-11 targetColor" points="146.24 229.15 141.77 230.22 140.06 233.04 139.04 238.85 139.34 248.31 140.53 257.5 146.1 256.33 144.8 240.74 145.24 235.65 149.4 234.13 150.93 234.6 151.32 238 150.5 230.86 146.24 229.15" style="fill: rgb(104, 225, 253);"/><polygon class="cls-91_colosseum-11 targetColor" points="131.61 259.36 131.35 242.55 132.19 240.45 134.16 240.73 134.72 244.75 133.56 236.48 131.68 234 125.68 233.97 121.86 236.62 122.64 261.3 135.16 258.59 131.61 259.36" style="fill: rgb(104, 225, 253);"/><polygon class="cls-72_colosseum-11" points="116.68 262.41 116.43 244.87 113.85 239.41 109.93 238.84 107.87 240.06 106.78 243.79 107.35 252.32 107.79 266.38 116.68 262.41"/><polygon class="cls-62_colosseum-11" points="202.16 289.27 201.57 280.28 204.01 271.89 211.06 270.26 209.94 269.39 198.49 268.14 191.09 271.14 188 277.93 188.88 306.07 202.91 305.15 202.16 289.27"/><polygon class="cls-60_colosseum-11" points="170.04 270.19 163.8 272.23 160.72 279.26 161.58 306.24 167.84 305.77 166.92 285.52 167.98 280.87 170.91 278.7 176.05 279.66 175.81 272.32 170.04 270.19"/><polygon class="cls-61_colosseum-11" points="147.9 272.27 143.44 273.57 140.9 278.96 140.95 290.03 141.22 308.04 146.53 307.67 145.65 296.13 145.28 284.37 147.25 280.37 151.78 281.1 151.3 275.4 147.9 272.27"/><line class="cls-1_colosseum-11" x1="111.08" y1="294.44" x2="110.87" y2="287.75"/><polygon class="cls-59_colosseum-11" points="118.03 366.13 119.6 345.65 118.39 335.77 114.42 333.81 109.06 335.14 108.05 341.18 108.57 366.46 118.03 366.13"/><polygon class="cls-2_colosseum-11" points="102.86 366.65 102.23 346.9 101.36 338.39 97.68 335.73 93.58 339.09 94.38 345.3 95.06 366.92 102.86 366.65"/><polygon class="cls-58_colosseum-11" points="214.55 330.68 212.64 326.68 206.25 323.76 197.88 324.99 193.57 331.12 193.93 342.39 194.07 364.13 204.81 363.92 203.99 337.92 205.01 332.11 209.74 329.66 214.55 330.68"/><polygon class="cls-80_colosseum-11" points="178.87 331.32 175.44 327.27 166.42 326.41 163.48 328.58 160.7 335.82 160.58 350.83 160.25 364.81 165.52 364.7 164.78 341 167.26 334.23 172.9 332.21 179.05 334.58 178.87 331.32"/><polygon class="cls-81_colosseum-11" points="149.01 365.05 147.92 339.46 149.9 335.7 153.95 335.57 153.72 333.27 150.88 328.51 147.87 328.6 144.97 331.93 142.44 337.09 143.81 351.83 143.7 365.24 149.01 365.05"/><polygon class="cls-75_colosseum-11" points="136.83 334.44 136.56 331.27 133.77 328.82 127.51 330.17 124.3 332.82 124.36 344.36 124.48 365.9 129.51 365.72 128.66 347.69 128.08 338.46 131.25 334.44 136.83 334.44"/><polygon class="cls-76_colosseum-11" points="189.24 222.49 184.87 226.55 183.72 237.67 184.73 250.79 202.74 250.46 191.02 250.68 190.2 233.53 192.16 229.09 197.46 225.69 202 227.12 201.98 226.71 198.55 222.66 189.24 222.49"/><polygon class="cls-73_colosseum-11" points="166.28 246.07 165.46 239.17 167.7 234.02 172.15 232.26 174.92 234.55 174.86 232.64 171.38 226.97 164.44 225.82 160.36 229.64 159.8 240.28 160.24 254.34 166.52 253.76 166.28 246.07"/><polygon class="cls-74_colosseum-11" points="146.24 229.15 141.77 230.22 140.06 233.04 139.04 238.85 139.34 248.31 140.53 257.5 146.1 256.33 144.8 240.74 145.24 235.65 149.4 234.13 150.93 234.6 151.32 238 150.5 230.86 146.24 229.15"/><polygon class="cls-78_colosseum-11" points="131.61 259.36 131.35 242.55 132.19 240.45 134.16 240.73 134.72 244.75 133.56 236.48 131.68 234 125.68 233.97 121.86 236.62 122.64 261.3 135.16 258.59 131.61 259.36"/><polygon class="cls-91_colosseum-11 targetColor" points="220.01 246.45 200.83 247.05 171.78 249.13 129.1 256.47 90.73 267.61 70.31 277.03 65.05 281.58 66.12 286.86 68.04 290.49 72.68 285.5 90.46 278.25 145.5 262.88 186.82 259.51 215.59 258.37 227.29 258.23 237.22 259.07 240.14 256.21 237.76 247.74 220.01 246.45" style="fill: rgb(104, 225, 253);"/><polygon class="cls-91_colosseum-11 targetColor" points="237.22 259.07 240.14 256.21 237.76 247.74 220.01 246.45 217.67 246.53 218.9 249.26 224.52 258.25 227.29 258.23 237.22 259.07" style="fill: rgb(104, 225, 253);"/><polygon class="cls-91_colosseum-11 targetColor" points="238.59 250.69 237.76 247.74 220.01 246.45 200.83 247.05 171.78 249.13 129.1 256.47 90.73 267.61 70.31 277.03 65.05 281.58 65.49 283.74 77.77 275.64 100.89 266.59 133.65 258.18 163.79 252.84 188.35 250.92 208.41 249.36 217.71 249.29 238.59 250.69" style="fill: rgb(104, 225, 253);"/><polygon class="cls-91_colosseum-11 targetColor" points="237.76 247.74 220.01 246.45 217.67 246.53 218.9 249.26 218.99 249.38 238.59 250.69 237.76 247.74" style="fill: rgb(104, 225, 253);"/><polygon class="cls-91_colosseum-11 targetColor" points="239.78 256.55 230.21 255.83 211.02 256.2 169.09 258.91 144.24 260.85 108.53 270.51 79.41 279.74 66.48 287.54 68.04 290.49 72.68 285.5 90.46 278.25 145.5 262.88 186.82 259.51 215.59 258.37 227.29 258.23 237.22 259.07 239.78 256.55" style="fill: rgb(104, 225, 253);"/><polygon class="cls-79_colosseum-11" points="239.78 256.55 230.21 255.83 211.02 256.2 169.09 258.91 144.24 260.85 108.53 270.51 79.41 279.74 66.48 287.54 68.04 290.49 72.68 285.5 90.46 278.25 145.5 262.88 186.82 259.51 215.59 258.37 227.29 258.23 237.22 259.07 239.78 256.55"/><polygon class="cls-91_colosseum-11 targetColor" points="239.78 256.55 230.21 255.83 223.09 255.96 224.52 258.25 227.29 258.23 237.22 259.07 239.78 256.55" style="fill: rgb(104, 225, 253);"/><polygon class="cls-91_colosseum-11 targetColor" points="68.35 319.34 94.52 311.82 140.25 305.99 194.51 303.59 214.59 302.95 241.6 303.03 249.76 304.62 261.22 315.8 236.31 315.89 174.54 317.61 126.28 319.59 99.12 324.37 81.26 329.32 71.14 331.95 68.35 319.34" style="fill: rgb(104, 225, 253);"/><polygon class="cls-91_colosseum-11 targetColor" points="249.76 304.62 241.6 303.03 214.59 302.95 194.51 303.59 140.25 305.99 94.52 311.82 68.35 319.34 69.6 324.99 92.01 317.67 118.56 312.67 150.89 310.27 187.47 309.12 226.75 307.65 254.22 308.97 249.76 304.62" style="fill: rgb(104, 225, 253);"/><path class="cls-91_colosseum-11 targetColor" d="M186.7,313.29l-28.18,1.12-33.82,2.91-30.77,4.67-23.34,7.55.54,2.39,10.12-2.59,17.85-4.94,27.17-4.78,48.26-1.99,61.77-1.73,24.91-.09-2.59-2.55c-6.91-.45-16.15-1.01-17.61-.97-2.4.04-54.3.99-54.3.99Z" style="fill: rgb(104, 225, 253);"/><path class="cls-77_colosseum-11" d="M186.7,313.29l-28.18,1.12-33.82,2.91-30.77,4.67-23.34,7.55.54,2.39,10.12-2.59,17.85-4.94,27.17-4.78,48.26-1.99,61.77-1.73,24.91-.09-2.59-2.55c-6.91-.45-16.15-1.01-17.61-.97-2.4.04-54.3.99-54.3.99Z"/><line class="cls-1_colosseum-11" x1="93.94" y1="322" x2="70.62" y2="329.55"/></g></svg>