<svg id="_0103_resting" xmlns="http://www.w3.org/2000/svg" viewBox="0 0 500 500" data-imageid="resting-70" imageName="Resting" class="illustrations_image" style="width: 151px;"><defs><style>.cls-1_resting-70{fill:#fff;}.cls-2_resting-70{fill:#f4a28c;}.cls-3_resting-70{fill:#a5a5a5;}.cls-4_resting-70{fill:#ce8172;}.cls-5_resting-70{opacity:.29;}.cls-5_resting-70,.cls-6_resting-70,.cls-7_resting-70,.cls-8_resting-70{fill:none;}.cls-9_resting-70{fill:#e6e6e6;}.cls-6_resting-70{opacity:.03;}.cls-7_resting-70{opacity:.08;}.cls-8_resting-70{opacity:.31;}.cls-10_resting-70{fill:#24285b;}.cls-11_resting-70{fill:#000001;}.cls-12_resting-70{fill:#ffd200;}.cls-13_resting-70{fill:#68e1fd;}</style></defs><g id="speech_resting-70"><ellipse class="cls-10_resting-70" cx="317.92" cy="170.56" rx="62.21" ry="51.77"/><polygon class="cls-10_resting-70" points="274.54 194.2 252.38 231.87 288.85 204.82 274.54 194.2"/><circle class="cls-1_resting-70" cx="293.41" cy="170.56" r="7.68"/><circle class="cls-1_resting-70" cx="318.06" cy="170.56" r="7.68"/><circle class="cls-1_resting-70" cx="342.42" cy="170.56" r="7.68"/></g><g id="person_resting_resting-70"><path class="cls-10_resting-70" d="m308.3,269.81s57.84-33.32,68.53,13.09c10.68,46.41-34.26,40.2-34.26,40.2l-34.26-53.29Z"/><g class="cls-7_resting-70"><path class="cls-11_resting-70" d="m308.3,269.81s57.84-33.32,68.53,13.09c10.68,46.41-34.26,40.2-34.26,40.2l-34.26-53.29Z"/></g><path class="cls-13_resting-70 targetColor" d="m102.78,266.4l13.19-11.27s21.91-23.66,73.65-10.97c51.74,12.69,40.6,41.12,97.12,30.88l3.98,38.34s-131.49,39-187.94-46.97Z" style="fill: rgb(104, 225, 253);"/><path class="cls-2_resting-70" d="m89.3,226.03s8.47,4.48,12.94,9.27c1.81,1.94,1.7,5.04-.27,6.82-2.45,2.21-6.39,4.5-11.23,2.65l-8.59-2.13s-5.33-1.52-5.67-8.17c-.34-6.65,7.79-11.43,12.81-8.44Z"/><polygon class="cls-2_resting-70" points="84.02 242.42 102.67 267.69 115.86 256.42 96.99 242.56 84.02 242.42"/><path class="cls-10_resting-70" d="m88.35,228.24c-.83,1.45-2.51,4.03-5.36,7.06,0,0,5.13-.26,7.37,4.75,2.24,5.01-2.08,8.01-2.08,8.01l-10.26-6.8c-3.05-1.89-4.85-5.29-4.63-8.87.09-1.46.25-3.04.54-4.54.73-3.75,5.52-6.83,5.24-10.8-.13-1.74,1.67-2.98,3.26-2.26,3.45,1.56,8.04,5.32,7.01,10.69-.19.98-.59,1.9-1.09,2.77Z"/><path class="cls-2_resting-70" d="m90.67,239.04s-3.14-1.94-4.4.54c-1.26,2.48,3.26,5.31,5.72,2.42l-1.31-2.96Z"/><path class="cls-2_resting-70" d="m94.49,229.13l4.55-.24c1.12-.06,1.93,1.07,1.5,2.11l-1.41,3.45-4.65-5.32Z"/><g class="cls-8_resting-70"><path class="cls-4_resting-70" d="m97.33,243.27s-2.28,2.34-5.85,2.9c0,0,4.13,4.08,12.31,1.85l-6.46-4.75Z"/></g><g class="cls-6_resting-70"><ellipse class="cls-11_resting-70" cx="250" cy="414.29" rx="234.16" ry="28.88"/></g><path class="cls-13_resting-70 targetColor" d="m358.98,365.72s2.11,5.59,7.2,5.95c5.09.35,6.5,5.3,1.94,6.67-4.55,1.36-16.43-4.33-16.43-4.33l.28-9.31,7.01,1.03Z" style="fill: rgb(104, 225, 253);"/><path class="cls-13_resting-70 targetColor" d="m381.01,335.47s2.11,5.59,7.2,5.95c5.09.35,6.5,5.3,1.94,6.67-4.55,1.36-16.43-4.33-16.43-4.33l.28-9.31,7.01,1.03Z" style="fill: rgb(104, 225, 253);"/><g class="cls-7_resting-70"><path class="cls-11_resting-70" d="m144.56,250.1s19.19-2.13,34.31,14.14c15.12,16.28,38.29,47.04,109.75,28.98l1.06,10.22-37.58,27.62-107.55-44.08v-36.89Z"/></g><rect class="cls-9_resting-70" x="42.2" y="107.01" width="18.04" height="302.45"/><path class="cls-2_resting-70" d="m104.79,271.58c-3.1-8.87.68-18.65,9.14-22.74,5.73-2.77,13.85-4.25,24.78-1.07,25.88,7.51,20.52,38.07,62.58,37.82,42.06-.25,56.81-15,56.81-15,0,0,6.4-5.57,15.58-1.67,9.18,3.9,6.96,9.18-3.9,8.63,0,0-24.21,37.57-71.8,38.13-41.51.49-83.55-16.52-93.2-44.09Z"/><rect class="cls-9_resting-70" x="433.93" y="107.01" width="18.04" height="302.45"/><path class="cls-12_resting-70" d="m60.25,209.46s45.34,108.11,209.51,95.92c164.17-12.19,164.17-99.73,164.17-99.73,0,0,20.79,112.53-94.12,148.14-105.61,32.73-250.26,20.29-279.56-144.33Z"/><g class="cls-7_resting-70"><path class="cls-11_resting-70" d="m303.89,303.18s22.12.82,24.78,15.95c2.65,15.12,4.73,36.59,4.73,36.59l13.94-4.43,15.02-26.59-10.66-32.11-12.16-7.43-35.66,18.02Z"/></g><rect class="cls-10_resting-70" x="42.16" y="200.36" width="18.09" height="10.59"/><rect class="cls-10_resting-70" x="433.93" y="196.1" width="18.04" height="10.59"/><path class="cls-9_resting-70" d="m141.54,411.4s15.15-21.78-7.45-27.79c-22.6-6.01,5.45-35.36-15.59-39.21-21.04-3.86-17.53,27.19-17.53,27.19,0,0-14.52-12.52-24.54-2-10.02,10.52,4.01,22.05,4.01,22.05,0,0-20.24,6.99-7.61,19.76h68.72Z"/><path class="cls-3_resting-70" d="m111.15,414.29s9.62-16.46,23.81-14.43c14.18,2.03,12.66,14.43,12.66,14.43h-36.47Z"/><path class="cls-10_resting-70" d="m286.74,275.04s51.74-21.27,70.05-4.12c18.31,17.15,6.37,94.36,6.37,94.36l-15.12,3.99s.11-37.07-7.83-58.62c-3.18-8.62-12.61-13.1-21.43-10.53-7.5,2.18-18.12,4.3-29.08,3.32l-2.95-28.4Z"/><path class="cls-2_resting-70" d="m220.03,256.61s1.03-6.71,12.57-1.55c11.54,5.16,10.75,18.69,0,16.7s-12.57-15.15-12.57-15.15Z"/><g class="cls-7_resting-70"><path class="cls-11_resting-70" d="m220.03,256.61s1.03-6.71,12.57-1.55c11.54,5.16,10.75,18.69,0,16.7s-12.57-15.15-12.57-15.15Z"/></g><g class="cls-5_resting-70"><path class="cls-1_resting-70" d="m136.7,328.28c22.66,14.43,62.68,33.47,115.77,33.1,4.52-.03,5.18-6.51.75-7.41l-37.82-7.66c-13.7-2.77-27.16-6.63-40.25-11.54l-35.13-13.17c-4.22-1.58-7.11,4.25-3.32,6.67Z"/></g></g><g id="panels_resting-70"><rect class="cls-9_resting-70" x="107.59" y="62.14" width="101.27" height="45.77"/><rect class="cls-9_resting-70" x="107.59" y="123.48" width="101.27" height="45.77"/></g></svg>