<svg id="_0319_rocket_boy" xmlns="http://www.w3.org/2000/svg" viewBox="0 0 500 500" data-imageid="rocket-boy-4" imageName="Rocket Boy" class="illustrations_image" style="width: 188px;"><defs><style>.cls-1_rocket-boy-4{fill:#fff;}.cls-2_rocket-boy-4{fill:#f4a28c;}.cls-3_rocket-boy-4{fill:#a5a5a5;}.cls-4_rocket-boy-4{fill:#ce8172;}.cls-5_rocket-boy-4{opacity:.44;}.cls-5_rocket-boy-4,.cls-6_rocket-boy-4,.cls-7_rocket-boy-4,.cls-8_rocket-boy-4{fill:none;}.cls-9_rocket-boy-4{fill:#e6e6e6;}.cls-6_rocket-boy-4{opacity:.03;}.cls-7_rocket-boy-4{opacity:.08;}.cls-8_rocket-boy-4{opacity:.31;}.cls-10_rocket-boy-4{fill:#24285b;}.cls-11_rocket-boy-4{fill:#000001;}.cls-12_rocket-boy-4{fill:#ffd200;}.cls-13_rocket-boy-4{fill:#68e1fd;}</style></defs><g id="bg_rocket-boy-4"><path class="cls-10_rocket-boy-4" d="m49.74,137.61s-66.69,161.76,87.05,194.35c153.74,32.59,282.29,34.22,316.69-48.07,34.4-82.29,51.3-168.59-19.31-218.68C363.56,15.13,127.59-25.36,49.74,137.61Z"/><circle class="cls-12_rocket-boy-4" cx="179.73" cy="107.76" r="6.09"/><circle class="cls-1_rocket-boy-4" cx="326.24" cy="47" r="4.42"/><circle class="cls-1_rocket-boy-4" cx="395.85" cy="250.44" r="2.82"/><circle class="cls-1_rocket-boy-4" cx="51.05" cy="200.56" r="2.82"/><circle class="cls-1_rocket-boy-4" cx="223.07" cy="48.99" r="2.82"/><circle class="cls-1_rocket-boy-4" cx="161.55" cy="285.61" r="2.82"/><circle class="cls-1_rocket-boy-4" cx="92.35" cy="282.54" r=".92"/><circle class="cls-1_rocket-boy-4" cx="133.27" cy="77.26" r=".92"/><circle class="cls-1_rocket-boy-4" cx="292.69" cy="89.47" r=".92"/><circle class="cls-1_rocket-boy-4" cx="185.25" cy="242.4" r=".92"/><circle class="cls-1_rocket-boy-4" cx="337.26" cy="162.46" r=".92"/><circle class="cls-1_rocket-boy-4" cx="114.95" cy="186.29" r=".92"/><circle class="cls-1_rocket-boy-4" cx="450.61" cy="185.66" r=".92"/><circle class="cls-1_rocket-boy-4" cx="430.48" cy="72.57" r=".92"/><circle class="cls-1_rocket-boy-4" cx="389.88" cy="310.62" r=".92"/><circle class="cls-1_rocket-boy-4" cx="314.85" cy="266.44" r=".92"/><circle class="cls-12_rocket-boy-4" cx="393.83" cy="113.86" r="43.92"/><path class="cls-12_rocket-boy-4" d="m353.04,97.56s-26.94.46-28.74,18.32c-1.8,17.86,82.74,31.82,113.44,28.22,30.7-3.6,33.26-19.79,0-33.77,0,0,2.66,16.99-20.2,15.63-26.89-1.59-75.86-3.77-64.51-28.4Z"/><g class="cls-5_rocket-boy-4"><path class="cls-1_rocket-boy-4" d="m353.04,97.56s-26.94.46-28.74,18.32c-1.8,17.86,82.74,31.82,113.44,28.22,30.7-3.6,33.26-19.79,0-33.77,0,0,2.66,16.99-20.2,15.63-26.89-1.59-75.86-3.77-64.51-28.4Z"/></g><g class="cls-7_rocket-boy-4"><ellipse class="cls-11_rocket-boy-4" cx="386.02" cy="82.79" rx="9.68" ry="7.33"/></g><g class="cls-7_rocket-boy-4"><ellipse class="cls-11_rocket-boy-4" cx="408.09" cy="84.8" rx="5.11" ry="6.76" transform="translate(99.37 364.83) rotate(-53.95)"/></g><g class="cls-7_rocket-boy-4"><ellipse class="cls-11_rocket-boy-4" cx="398.12" cy="96.32" rx="5.11" ry="3.86"/></g><circle class="cls-13_rocket-boy-4 targetColor" cx="451.26" cy="271.36" r="28.95" style="fill: rgb(104, 225, 253);"/><g class="cls-7_rocket-boy-4"><ellipse class="cls-11_rocket-boy-4" cx="463.62" cy="261.11" rx="5.96" ry="7.88" transform="translate(-20.33 482.27) rotate(-53.95)"/></g><g class="cls-7_rocket-boy-4"><ellipse class="cls-11_rocket-boy-4" cx="445.31" cy="256.6" rx="5.96" ry="4.51"/></g><circle class="cls-13_rocket-boy-4 targetColor" cx="79.74" cy="134.95" r="35.85" style="fill: rgb(104, 225, 253);"/><g class="cls-7_rocket-boy-4"><ellipse class="cls-11_rocket-boy-4" cx="81.98" cy="115.2" rx="9.76" ry="7.39" transform="translate(-14.88 12.2) rotate(-7.8)"/></g><g class="cls-7_rocket-boy-4"><ellipse class="cls-11_rocket-boy-4" cx="61.76" cy="126.88" rx="7.38" ry="5.58" transform="translate(-70.68 78.18) rotate(-43.86)"/></g></g><g id="rocket_rocket-boy-4"><g class="cls-6_rocket-boy-4"><path class="cls-11_rocket-boy-4" d="m139.57,371.41l-65.15,3.8,22.79,14.24-80.42,41.1,103.2-5.56-7.85,28.64,47.89-34.97s-18.26-32.65-20.46-47.26Z"/></g><path class="cls-10_rocket-boy-4" d="m258.55,267.33s23.39-6.64,34.7,3.32c11.32,9.96-4.07,31.81-4.07,31.81l-30.63-35.12Z"/><path class="cls-9_rocket-boy-4" d="m136.79,350.77s117.68-108.03,235.97-49.49c0,0-10.26,110.44-205.79,123.72,0,0-25.35-15.09-30.17-74.23Z"/><polygon class="cls-2_rocket-boy-4" points="235.52 129.93 235.79 159.9 252.21 158.57 245.41 137.3 235.52 129.93"/><g class="cls-8_rocket-boy-4"><path class="cls-4_rocket-boy-4" d="m247.1,141.89s-3.1-.1-5.78-2.26c0,0,1.14,5.37,7.94,9.7l-2.16-7.44Z"/></g><path class="cls-13_rocket-boy-4 targetColor" d="m270.08,171.77c1.39-7.88,10.79-11.4,16.89-6.22,5.8,4.93,12.3,12.46,17.06,23.68,10.86,25.57,15.16,35.76,26.93,31.23s35.08-36.66,35.08-36.66l9.05,6.79s-16.29,43.34-42.77,52.84c-24.9,8.94-74.98.78-62.24-71.66Z" style="fill: rgb(104, 225, 253);"/><g class="cls-7_rocket-boy-4"><path class="cls-11_rocket-boy-4" d="m270.08,171.77c1.39-7.88,10.79-11.4,16.89-6.22,5.8,4.93,12.3,12.46,17.06,23.68,10.86,25.57,15.16,35.76,26.93,31.23s35.08-36.66,35.08-36.66l9.05,6.79s-16.29,43.34-42.77,52.84c-24.9,8.94-74.98.78-62.24-71.66Z"/></g><path class="cls-2_rocket-boy-4" d="m251.77,126.01s1.78,8.97.92,15.16c-.35,2.51-2.69,4.29-5.18,3.9-3.09-.48-7.14-2.03-8.67-6.72l-3.57-7.64s-2.07-4.87,2.62-9.12c4.69-4.25,13.08-1.11,13.89,4.41Z"/><path class="cls-12_rocket-boy-4" d="m249.57,126.64c-1.57.26-4.47.57-8.4.28,0,0,3.26,3.64.91,8.32-2.35,4.67-7.14,3.28-7.14,3.28l-1.13-11.69c-.44-3.4.99-6.77,3.76-8.77,1.13-.82,2.39-1.65,3.67-2.33,3.19-1.72,8.34-.02,11.09-2.62,1.21-1.14,3.19-.56,3.61,1.05.91,3.49.89,9.15-3.67,11.63-.84.45-1.75.71-2.69.86Z"/><path class="cls-2_rocket-boy-4" d="m243.02,134.86s-.45-3.49-3.04-2.93c-2.59.56-1.96,5.61,1.64,5.69l1.39-2.75Z"/><path class="cls-2_rocket-boy-4" d="m252.6,131.72l2.9,3.22c.72.8.37,2.07-.65,2.38l-3.38,1.04,1.14-6.64Z"/><path class="cls-13_rocket-boy-4 targetColor" d="m229.65,154.42l19.21-1.56s39.76.03,47.17,27.05c7.42,27.02-24.37,94.3-24.37,94.3l-70.46,2.65s-5.75-36.03-4.2-68.34c1.55-32.32,2.82-48.32,32.65-54.09Z" style="fill: rgb(104, 225, 253);"/><g class="cls-7_rocket-boy-4"><path class="cls-11_rocket-boy-4" d="m252.21,184.74s-2.94,28.62-21.27,34.28c-18.33,5.66-19.04,42.88-3.64,56.86l-26.1.98s-6.22-36.02-3.97-72.95c2.25-36.94,54.97-19.16,54.97-19.16Z"/></g><path class="cls-13_rocket-boy-4 targetColor" d="m250.68,189.04c8.42-17.99-8.17-37.68-27.47-33-23.56,5.71-57.65,17.38-67.31,38.43-15.19,33.11-27.62,63.34-27.62,63.34l16.19,6.11s33.85-70.72,70.33-61.09c18.48,4.88,30.55-2.39,35.88-13.78Z" style="fill: rgb(104, 225, 253);"/><g class="cls-7_rocket-boy-4"><path class="cls-11_rocket-boy-4" d="m207.4,305.44s11.5,13.34,39.55,9.12l-25.51,24.99c-3.03,2.97-4.03,7.45-2.54,11.42l2.33,6.22c1.78,4.74,7.35,6.79,11.76,4.3,16.62-9.36,52.76-34.12,64.41-77.6,0,0-10.34.18-17.58.79-7.24.6-59.45,12.55-72.42,20.76Z"/></g><g class="cls-5_rocket-boy-4"><path class="cls-1_rocket-boy-4" d="m250.68,189.04c8.42-17.99-8.17-37.68-27.47-33-23.56,5.71-57.65,17.38-67.31,38.43-15.19,33.11-27.62,63.34-27.62,63.34l16.19,6.11s33.85-70.72,70.33-61.09c18.48,4.88,30.55-2.39,35.88-13.78Z"/></g><path class="cls-10_rocket-boy-4" d="m201.2,276.85s58.78-20.5,76.88-2.09c18.1,18.41-42.57,63.07-42.57,63.07l-7.82-9.35,23.77-30.17s-54.12,14.74-50.26-21.45Z"/><path class="cls-3_rocket-boy-4" d="m190.6,313.83l-43.1-11.37-72.87,28.39,62.16,19.92s40.78-27.25,53.81-36.93Z"/><path class="cls-3_rocket-boy-4" d="m235.2,415.12l-16.53,39.98-74.79,27.83,23.08-57.94s46.25-3.85,68.23-9.88Z"/><path class="cls-13_rocket-boy-4 targetColor" d="m229.8,330.99l-5.75.45c-2.04.16-3.42,2.16-2.84,4.13l3.78,12.69c.69,2.33,3.96,2.42,4.78.14l4.42-12.17-4.39-5.25Z" style="fill: rgb(104, 225, 253);"/><path class="cls-2_rocket-boy-4" d="m367.64,185s6.03-11.96,11.76-11.96-1.81,7.43-1.81,7.43c0,0,7.69,7.17-2.49,10.13l-7.46-5.59Z"/><path class="cls-2_rocket-boy-4" d="m132.62,259.44s-12.67,17.42,0,17.41,11.85-12.94,11.85-12.94l-11.85-4.47Z"/></g></svg>