<svg id="_0505_achievement" xmlns="http://www.w3.org/2000/svg" xmlns:xlink="http://www.w3.org/1999/xlink" viewBox="0 0 500 500" data-imageid="achievement-23" imageName="Achievement" class="illustrations_image" style="width: 188px;"><defs><style>.cls-1_achievement-23{fill:#020202;opacity:.1;}.cls-1_achievement-23,.cls-2_achievement-23,.cls-3_achievement-23,.cls-4_achievement-23,.cls-5_achievement-23,.cls-6_achievement-23,.cls-7_achievement-23,.cls-8_achievement-23,.cls-9_achievement-23,.cls-10_achievement-23,.cls-11_achievement-23,.cls-12_achievement-23,.cls-13_achievement-23,.cls-14_achievement-23,.cls-15_achievement-23,.cls-16_achievement-23,.cls-17_achievement-23,.cls-18_achievement-23,.cls-19_achievement-23,.cls-20_achievement-23,.cls-21_achievement-23,.cls-22_achievement-23,.cls-23_achievement-23{stroke-width:0px;}.cls-1_achievement-23,.cls-3_achievement-23,.cls-9_achievement-23,.cls-17_achievement-23{isolation:isolate;}.cls-2_achievement-23{fill:url(#linear-gradient);}.cls-3_achievement-23{opacity:.18;}.cls-3_achievement-23,.cls-23_achievement-23{fill:#68e1fd;}.cls-4_achievement-23{fill:url(#linear-gradient-11-achievement-23);}.cls-5_achievement-23{fill:url(#linear-gradient-12-achievement-23);}.cls-6_achievement-23{fill:url(#linear-gradient-13-achievement-23);}.cls-7_achievement-23{fill:url(#linear-gradient-10-achievement-23);}.cls-8_achievement-23{fill:url(#linear-gradient-14-achievement-23);}.cls-9_achievement-23{opacity:.28;}.cls-9_achievement-23,.cls-21_achievement-23{fill:#fff;}.cls-10_achievement-23{fill:url(#linear-gradient-4-achievement-23);}.cls-11_achievement-23{fill:url(#linear-gradient-2-achievement-23);}.cls-12_achievement-23{fill:url(#linear-gradient-3-achievement-23);}.cls-13_achievement-23{fill:url(#linear-gradient-8-achievement-23);}.cls-14_achievement-23{fill:url(#linear-gradient-9-achievement-23);}.cls-15_achievement-23{fill:url(#linear-gradient-7-achievement-23);}.cls-16_achievement-23{fill:url(#linear-gradient-6-achievement-23);}.cls-17_achievement-23{fill:url(#linear-gradient-5-achievement-23);opacity:.36;}.cls-18_achievement-23{fill:#231f20;}.cls-19_achievement-23{fill:#e0a194;}.cls-20_achievement-23{fill:#c14834;}.cls-22_achievement-23{fill:#ffaa71;}</style><linearGradient id="linear-gradient-achievement-23" x1="250.02" y1="211.61" x2="178.35" y2="151.02" gradientUnits="userSpaceOnUse"><stop offset="0" stop-color="#000"/><stop offset=".13" stop-color="#000" stop-opacity=".69"/><stop offset=".25" stop-color="#000" stop-opacity=".32"/><stop offset="1" stop-color="#000" stop-opacity="0"/></linearGradient><linearGradient id="linear-gradient-2-achievement-23" x1="225.68" y1="3218" x2="209.55" y2="3086.71" gradientTransform="translate(-40.38 3353.1) scale(1 -1)" xlink:href="#linear-gradient-achievement-23"/><linearGradient id="linear-gradient-3-achievement-23" x1="171.98" y1="207.57" x2="107.48" y2="206.92" xlink:href="#linear-gradient-achievement-23"/><linearGradient id="linear-gradient-4-achievement-23" x1="163.76" y1="218.14" x2="187.22" y2="258.86" xlink:href="#linear-gradient-achievement-23"/><linearGradient id="linear-gradient-5-achievement-23" x1="98.12" y1="3175.39" x2="334.88" y2="2701.85" gradientTransform="translate(-40.38 3353.1) scale(1 -1)" gradientUnits="userSpaceOnUse"><stop offset="0" stop-color="#231f20"/><stop offset=".08" stop-color="#231f20" stop-opacity=".69"/><stop offset=".21" stop-color="#231f20" stop-opacity=".32"/><stop offset="1" stop-color="#231f20" stop-opacity="0"/></linearGradient><linearGradient id="linear-gradient-6-achievement-23" x1="344.27" y1="3118.57" x2="352.71" y2="3219.82" xlink:href="#linear-gradient-5-achievement-23"/><linearGradient id="linear-gradient-7-achievement-23" x1="315.22" y1="3157.87" x2="345.26" y2="3252.69" xlink:href="#linear-gradient-5-achievement-23"/><linearGradient id="linear-gradient-8-achievement-23" x1="60.76" y1="3048.61" x2="-15.82" y2="3112.63" gradientTransform="translate(21.39 3234.81) rotate(5.04) scale(1 -1)" xlink:href="#linear-gradient-5-achievement-23"/><linearGradient id="linear-gradient-9-achievement-23" x1="735.61" y1="3116.41" x2="756" y2="3123.04" gradientTransform="translate(-58.47 3316.61) rotate(-9.52) scale(1 -1)" xlink:href="#linear-gradient-achievement-23"/><linearGradient id="linear-gradient-10-achievement-23" x1="727.76" y1="3109.23" x2="767.97" y2="3114.69" gradientTransform="translate(-58.47 3316.61) rotate(-9.52) scale(1 -1)" xlink:href="#linear-gradient-achievement-23"/><linearGradient id="linear-gradient-11-achievement-23" x1="717.68" y1="3088.73" x2="770.46" y2="3077.06" gradientTransform="translate(-58.47 3316.61) rotate(-9.52) scale(1 -1)" xlink:href="#linear-gradient-achievement-23"/><linearGradient id="linear-gradient-12-achievement-23" x1="754.69" y1="3126.34" x2="787.31" y2="3116.29" gradientTransform="translate(-58.47 3316.61) rotate(-9.52) scale(1 -1)" xlink:href="#linear-gradient-achievement-23"/><linearGradient id="linear-gradient-13-achievement-23" x1="226.33" y1="3092.77" x2="411.73" y2="3126.3" gradientTransform="translate(-40.38 3353.1) scale(1 -1)" xlink:href="#linear-gradient-achievement-23"/><linearGradient id="linear-gradient-14-achievement-23" x1="459.21" y1="3097.32" x2="235.84" y2="3128.58" gradientTransform="translate(-40.38 3353.1) scale(1 -1)" xlink:href="#linear-gradient-achievement-23"/></defs><g id="background_achievement-23"><path class="cls-3_achievement-23 targetColor" d="M80.68,62.16c-22.34,12.63-42.13,30.78-53.43,53.8-11.3,23.02-13.22,48.61-14.41,73.87-1.19,28.31-1.05,56.63,5.89,84.09,6.43,25.28,18.52,48.78,32.08,71.07,9.97,16.37,21.21,32.67,37.29,43.12,11.79,7.11,24.83,11.91,38.42,14.16,45.89,8.88,93.44,2.37,135.25-18.52,31.14-15.63,58.21-38.93,91.08-50,28.85-9.71,61.24-9.74,87.23-25.48,32.39-19.82,47.23-62.12,39.3-99.24-7.93-37.12-35.82-67.95-69.62-85.28-19.17-9.8-39.89-15.46-59.2-24.6-19.31-9.15-36.95-21.66-55.78-31.82-67.27-36.38-146.32-43.49-214.11-5.15Z" style="fill: rgb(104, 225, 253);"/></g><g id="rockets_achievement-23"><g id="lYf0vm_achievement-23"><path class="cls-21_achievement-23" d="M199.35,259.93c-11.7,8.45-24.11,15.85-37.09,22.14l-1.84.23h-.51c-1.89-.08-3.35-1.68-3.27-3.57,0-.19.03-.38.07-.56.12-1.03.3-2.05.54-3.06,1.64-7.7,3.29-15.39,4.95-23.08.19-.58-.04-1.22-.57-1.53l-29.64-23.02c-.39-.38-.98-.45-1.44-.17-1.76.91-3.57,1.73-5.38,2.55-6.37,3-12.51,5.83-18.8,8.66-1.62.82-3.59.17-4.41-1.45-.05-.11-.1-.22-.15-.33l-.37-.85v-.45c.28-2.27.68-4.53,1.19-6.77,3.17-11.75,7.05-23.3,11.64-34.57,2.14-6.07,6.34-11.19,11.86-14.5,4.19-2.37,8.81-3.88,13.59-4.45,3.7-.53,7.42-.85,11.16-.96h3.54c.5-.07.95-.33,1.25-.74,2.83-4.13,5.49-8.49,8.49-12.46,4.18-5.97,8.68-11.7,13.48-17.19,5-5.09,10.25-9.93,15.74-14.5,5.55-4.91,11.52-9.33,17.84-13.19,9.49-5.45,19.66-9.63,30.24-12.43,2.04-.62,4.11-1.16,6.17-1.73l4.25-.45h.76c2.02.24,3.72,1.63,4.36,3.57.01.12.01.25,0,.37.19.93.32,1.88.4,2.83.42,4.97.32,9.97-.28,14.92-.62,8.95-2.38,17.78-5.24,26.27-2.87,7.91-6.27,15.61-10.19,23.05-3.09,6.36-6.75,12.42-10.93,18.12-6.66,8.73-13.79,17.09-21.35,25.06-.48.43-.65,1.12-.42,1.73.51,2.21.99,4.42,1.39,6.63,1.01,4.58,1.39,9.28,1.13,13.96-.34,8.82-4.85,16.95-12.15,21.91Z"/></g><path class="cls-2_achievement-23" d="M149.94,239.26l-17.84-13.9s7.67-23.64,18.77-51.16h3.54c.5-.07.95-.33,1.25-.74,2.83-4.13,5.49-8.49,8.49-12.46,4.18-5.97,8.68-11.7,13.48-17.19,5-5.09,10.25-9.93,15.74-14.5,5.55-4.91,11.52-9.33,17.84-13.19,9.49-5.45,19.66-9.63,30.24-12.43,2.04-.62,4.11-1.16,6.17-1.73l4.25-.45h.76c2.02.24,3.72,1.63,4.36,3.57.01.12.01.25,0,.37-10.11,8.21-83.13,68.55-107.05,133.81Z"/><path class="cls-11_achievement-23" d="M170.41,186.57c2.25-1.19,4.28-2.77,5.97-4.67,3.48,4.62,4.7,10.5,7.05,15.77.44,1.3,1.3,2.41,2.43,3.17,1.02.43,2.13.6,3.23.51h6.54c2.32.01,4.62-.48,6.74-1.44,1.16-.57,2.29-1.7,1.95-2.83-.34-1.13-1.98-1.64-3.31-1.64-1.67.11-3.36-.05-4.98-.45-2.05-.89-3.68-2.53-4.56-4.59-.91-1.91-1.65-3.9-2.21-5.95-1.16-3.47-2.6-6.84-4.3-10.08-.96-2.02-2.28-3.85-3.88-5.41-1.62-1.56-3.81-2.38-6.06-2.27-4.02.42-6.63,4.5-10.36,6.03-1.78.44-3.52,1.04-5.18,1.81-1.06.77-1.96,1.73-2.66,2.83-2.19,3.08-3.8,6.53-4.73,10.19,6.04,1.79,12.51,1.44,18.32-.99Z"/><circle class="cls-23_achievement-23 targetColor" cx="206.9" cy="166.24" r="16.73" transform="translate(9.67 343.84) rotate(-80.78)" style="fill: rgb(104, 225, 253);"/><circle class="cls-18_achievement-23" cx="206.9" cy="166.24" r="11.13"/><path class="cls-23_achievement-23 targetColor" d="M157.55,175.18l-26.53,52.55-25.17,11.33s-4.9,3.26-4.42-3.43c.48-6.68,13.48-44.23,17.36-49.44,3.88-5.21,15.69-14.72,38.76-11.01Z" style="fill: rgb(104, 225, 253);"/><path class="cls-12_achievement-23" d="M157.55,175.18l-26.53,52.55-25.17,11.33s-4.9,3.26-4.42-3.43c.48-6.68,13.48-44.23,17.36-49.44,3.88-5.21,15.69-14.72,38.76-11.01Z"/><path class="cls-23_achievement-23 targetColor" d="M208.75,216.29l-46.55,35.73-6.8,31.54c2.1,2.78,5.87,3.68,9,2.15,6.37-2.12,39.3-24.07,43.4-29.02,4.11-4.95,10.28-19,.93-40.4Z" style="fill: rgb(104, 225, 253);"/><path class="cls-10_achievement-23" d="M208.75,216.29l-46.55,35.73-6.8,31.54c2.1,2.78,5.87,3.68,9,2.15,6.37-2.12,39.3-24.07,43.4-29.02,4.11-4.95,10.28-19,.93-40.4Z"/><path class="cls-23_achievement-23 targetColor" d="M234.6,105.9l22.42,17.33s1.16-17.95,0-21.72c-1.16-3.77-22.42,4.39-22.42,4.39Z" style="fill: rgb(104, 225, 253);"/><polygon class="cls-23_achievement-23 targetColor" points="132.13 225.38 127.68 233.28 157.55 256.22 164.43 250.33 132.13 225.38" style="fill: rgb(104, 225, 253);"/><path class="cls-17_achievement-23" d="M127.68,233.25s-86.24,91.85-29.67,134.04c56.57,42.19,121.95,14.38,121.95,14.38,0,0-93.43,20.64-107.05-31.77-7.96-30.66,44.65-93.69,44.65-93.69l-29.87-22.96Z"/></g><g id="character_2_achievement-23"><path class="cls-22_achievement-23" d="M311.32,164.91l3.77,1.59c1.37.38,2.56,1.25,3.31,2.46.39,1.28.32,2.65-.2,3.88-.51,1.67-1.1,3.34-1.76,4.98-.85,2.18-1.84,4.33-2.49,6.57-1.28,5.66-1.51,11.5-.68,17.24,0,1.87-2.38,2.83-4.22,3.09-3.47.73-7.07.54-10.45-.54-.31-.09-.6-.24-.85-.45-.31-.39-.45-.89-.4-1.39-.2-3.09-.2-6.29-.62-9.12-.17-1.55-.48-3.07-.93-4.56-.32-1.46-.57-2.93-.74-4.42-.25-1.19-.62-2.35-.82-3.54-.24-1.2-.16-2.44.25-3.6.51-1.25,1.22-2.41,1.84-3.6.67-1.29,1.25-2.63,1.76-3.99.27-1,.68-1.95,1.22-2.83,1.37-1.63,3.39-2.56,5.52-2.55,2.19-.22,4.4.04,6.48.76Z"/><path class="cls-22_achievement-23" d="M288.14,150.27c-1.07-1.35-1.94-2.84-2.58-4.45-.71-2.05-1.15-4.18-1.3-6.34-.12-.78-.06-1.57.17-2.32.37-1.02,1.27-1.78,1.56-2.83.04-.11.04-.23,0-.34,0,0-.14-.23-.37-.23l-1.19-.31c.2-.97.04-1.97-.45-2.83-.29-.64-.94-1.04-1.64-1.02-.74,0-1.1.93-1.73,1.36s-1.3.48-1.84.91c-.57.62-.89,1.42-.91,2.27-.04,2.04.27,4.07.91,6,.41,2.26.96,4.49,1.64,6.68,2.18,6.76,5.66,13.02,10.25,18.43,1.76,2.07,8.49,10.22,11.16,8.13,3.77-2.83,1.3-7.5-1.3-9.74-4.65-3.93-8.81-8.42-12.37-13.36Z"/><path class="cls-21_achievement-23" d="M303.96,163.55c-1.27,1.95-2.52,3.96-3.68,6-.45.61-.63,1.38-.51,2.12.21.48.6.86,1.08,1.08,2.01.9,4.34.71,6.17-.51,1.78-1.25,3.35-2.77,4.67-4.5.71-.96,1.59-1.77,2.6-2.41,1.05-.63,2.35-.63,3.4,0,.96.61,1.24,1.89.63,2.85-.05.07-.09.14-.15.2,0-.91-1.1-1.47-1.98-1.25-.85.35-1.56.98-2.01,1.78-.68.97-1.31,1.98-1.87,3.03-.45.77-.79,1.6-.99,2.46-.12,2.17.65,4.29,2.12,5.89.53.63.95,1.33,1.25,2.1.22,1.22.12,2.48-.28,3.65-1.03,4.99-1.29,10.11-.76,15.18.27.98.05,2.04-.59,2.83-.55.43-1.23.64-1.93.59-3.26,0-6.48-.74-9.77-.65-2.01.22-4.04.32-6.06.31-.48.06-.92-.28-.98-.77-.02-.13,0-.27.04-.4.91-5.62,1.05-11.33.42-16.99-.68-2.57-1.1-5.19-1.25-7.84-.03-.58.08-1.16.31-1.7.26-.52.6-.99.99-1.42,2.13-2.57,3.66-5.57,4.47-8.81"/><path class="cls-1_achievement-23" d="M312.2,189.74c.04.96-.37,1.88-1.1,2.49-.24.11-.46.23-.68.37-.42.4-.37,1.08-.45,1.64-.36,1.04-.92,2-1.64,2.83-.7.91-.7,2.18,0,3.09.51.51,1.36.59,1.78,1.19s0,2.52.88,3.11c.59.25,1.27.03,1.61-.51.3-.54.47-1.14.48-1.76.66-6.36,1.26-12.75,1.81-19.17.15-.68-.05-1.4-.54-1.9-.42-.59-.99-1.73-1.61-2.04-.71,1.05-.17,3.31-.17,4.53-.11,2.07-.2,4.11-.37,6.12Z"/><path class="cls-22_achievement-23" d="M296.69,152.5c-.37.48-.62,1.04-.71,1.64.07.42.22.83.45,1.19.41.89.65,1.85.71,2.83-.02.74.16,1.46.54,2.1.67.63,1.57.95,2.49.88h2.1c.25-.07.51-.07.76,0,.23.12.42.31.54.54.65,1.53,1.04,3.16,1.16,4.81.06.28.18.54.37.76.14.21.34.37.57.48,1.47.58,3.11.58,4.59,0,.38-.11.71-.35.93-.68.14-.41.14-.86,0-1.27-.16-1.14-.41-2.27-.74-3.37-.59-1.45-.9-3-.91-4.56,0-1.39.76-2.66.99-4.02.34-2.95-1.28-5.77-3.99-6.97-2.28-.9-4.84-.71-6.97.51-.76.4-1.39.59-1.76,1.42-.37.82-.45,2.55-1.13,3.71Z"/><path class="cls-20_achievement-23" d="M296.88,144.07c-.12-.52-.19-1.05-.2-1.59,0-1.81,1.05-3.88,2.83-3.94,1.27,0,2.41.96,3.71.96.54-.07,1.07-.19,1.59-.34,1.36-.31,2.77-.31,4.13,0,2.94.52,5.56,2.17,7.3,4.59,1.77,2.52,1.89,5.86.28,8.49-.93,1.42-2.38,2.43-3.37,3.82-.48.87-1,1.71-1.56,2.52-.51.59-1.7,1.56-2.55,1.13s-.91-1.81-1.5-2.41c.58-.46,1.14-.95,1.67-1.47.53-.54.7-1.33.45-2.04-.34-.68-1.5-.82-1.78,0,.18-1.93-.55-3.84-1.98-5.15-.2-.25-.45-.46-.74-.62-.31-.06-.63-.06-.93,0h-2.6c-1.5,0-2.24.42-3.31-.85-.74-.9-1.23-1.97-1.44-3.11Z"/><path class="cls-19_achievement-23" d="M305.38,161.42c.23-.02.47.05.65.2.15.19.23.43.23.68.11,1.25.11,2.51,0,3.77-.03.33-.12.66-.25.96-.17.3-.48.49-.82.51-.37,0-.68-.31-1.08-.4-.42-.09-.86.01-1.19.28-.32.28-.6.59-.85.93-.63.79-1.32,1.53-2.07,2.21.5-1.72,1.27-3.35,2.27-4.84.23-.43.58-.78,1.02-.99.34,0,.76,0,.99-.37s0-1.08-.25-1.56-.91-1.16-.51-1.5,1.53.08,1.87.11Z"/><path class="cls-22_achievement-23" d="M332.67,154.74c1.12-1.05,2.16-2.17,3.11-3.37,2.73-3.42,4.23-7.66,4.25-12.03-.1-.48-.1-.97,0-1.44.12-.47.51-.83.99-.91.21.03.42.03.62,0,.31,0,.45-.42.71-.65.43-.27.98-.27,1.42,0,.43.27.81.63,1.1,1.05.45.62.91,1.27,1.3,1.93.36.5.57,1.09.62,1.7-.12.99-.62,1.89-1.39,2.52-.88,0-1.56,2.35-1.78,2.83-.45,1.27-.96,2.55-1.53,3.77-3.38,7.36-8.37,13.86-14.61,19.03-2.1,1.73-10.02,8.49-12.4,6.09-3.26-3.45,0-7.62,2.83-9.4,5.36-3.07,10.32-6.79,14.75-11.1Z"/><path class="cls-21_achievement-23" d="M298.44,155.45c.52-.04,1.04-.04,1.56,0,.06-.03.14-.03.2,0h0c.28.8.28,1.67,0,2.46-.11.31-.29.58-.54.79-.27.18-.63.18-.91,0-.21-.18-.37-.41-.45-.68-.4-.8-.56-1.69-.48-2.58h0c.32-.07.65-.07.96,0"/><path class="cls-23_achievement-23 targetColor" d="M295.1,157.37h-.25c.06-.07.17-.08.24-.02,0,0,.01,0,.02.02Z" style="fill: rgb(104, 225, 253);"/><path class="cls-21_achievement-23" d="M342.27,150.44c-.09,1.53-.53,3.02-1.27,4.36-4.52,9.49-12.25,17.08-21.83,21.43-.55.18-1.05.49-1.44.91-.29.4-.49.85-.59,1.33-2.18,8.49-1.7,17.16-3.26,25.65-.05.76-.36,1.48-.88,2.04-.75.53-1.67.74-2.58.59h-1.84c-4.37-.24-8.73-.7-13.05-1.39-.76-.04-1.48-.36-2.01-.91-.37-.68-.47-1.46-.28-2.21.2-5.83-.03-11.67-.71-17.47-.24-2.83-.24-5.67,0-8.49.35-1.41.35-2.89,0-4.3-.16-.41-.39-.8-.68-1.13-1.24-1.18-2.54-2.29-3.91-3.31-1.88-2.13-3.22-4.69-3.91-7.45-1.3-3.91-2.66-7.79-3.91-11.69-.93-2.83.54-4.16,2.66-5.24.76-.4,1.61-.76,2.49-1.16.75,3.03,1.83,5.96,3.23,8.75,1.38,2.75,3.6,5,6.34,6.4-.09,0-.17.08-.17.17,0,.22.11.42.28.54,1.9,1.76,3.82,3.48,5.66,5.27.35.37.79.65,1.27.82.57,0,2.52-.51,2.43.54.01.06.01.11,0,.17,0,.37-.34.65-.4,1.02-.02.46.24.88.65,1.08.4.2.86.28,1.3.23.49-.03.98-.13,1.44-.31.76-.31,1.39-.85,2.12-1.22,1.12-.42,2.35-.49,3.51-.2,1.27.1,2.55.02,3.79-.23,3.61-.84,6.95-2.59,9.71-5.07,3.85-3.74,7.43-7.75,10.7-12,.37-.49.84-.89,1.39-1.16.94-.31,1.98-.05,2.66.68.76.79,1.15,1.88,1.05,2.97Z"/><path class="cls-16_achievement-23" d="M342.27,150.44c-.09,1.53-.53,3.02-1.27,4.36-4.52,9.49-12.25,17.08-21.83,21.43-.55.18-1.05.49-1.44.91-.29.4-.49.85-.59,1.33-2.18,8.49-1.7,17.16-3.26,25.65-.05.76-.36,1.48-.88,2.04-.75.53-1.67.74-2.58.59h-1.84c-4.37-.24-8.73-.7-13.05-1.39-.76-.04-1.48-.36-2.01-.91-.37-.68-.47-1.46-.28-2.21.2-5.83-.03-11.67-.71-17.47-.24-2.83-.24-5.67,0-8.49.35-1.41.35-2.89,0-4.3-.16-.41-.39-.8-.68-1.13-1.24-1.18-2.54-2.29-3.91-3.31-1.88-2.13-3.22-4.69-3.91-7.45-1.3-3.91-2.66-7.79-3.91-11.69-.93-2.83.54-4.16,2.66-5.24.76-.4,1.61-.76,2.49-1.16.75,3.03,1.83,5.96,3.23,8.75,1.38,2.75,3.6,5,6.34,6.4-.09,0-.17.08-.17.17,0,.22.11.42.28.54,1.9,1.76,3.82,3.48,5.66,5.27.35.37.79.65,1.27.82.57,0,2.52-.51,2.43.54.01.06.01.11,0,.17,0,.37-.34.65-.4,1.02-.02.46.24.88.65,1.08.4.2.86.28,1.3.23.49-.03.98-.13,1.44-.31.76-.31,1.39-.85,2.12-1.22,1.12-.42,2.35-.49,3.51-.2,1.27.1,2.55.02,3.79-.23,3.61-.84,6.95-2.59,9.71-5.07,3.85-3.74,7.43-7.75,10.7-12,.37-.49.84-.89,1.39-1.16.94-.31,1.98-.05,2.66.68.76.79,1.15,1.88,1.05,2.97Z"/><path class="cls-15_achievement-23" d="M292.58,171.87c-.23-.34-.42-.71-.68-1.02-1.24-1.18-2.54-2.29-3.91-3.31-1.88-2.13-3.22-4.69-3.91-7.45-1.3-3.91-2.66-7.79-3.91-11.69-.93-2.83.54-4.16,2.66-5.24.44.41.78.9,1.02,1.44.44,1.2.75,2.44.93,3.71.7,2.89,1.91,5.63,3.57,8.1,1.67,2.66,3.26,5.38,4.93,8.04.1.15.17.31.23.48.07.26.07.53,0,.79-.34,1.05-.54,2.13-.62,3.23-.14.68.23,2.55-.31,2.92Z"/><path class="cls-13_achievement-23" d="M342.27,150.44c-.09,1.53-.53,3.02-1.27,4.36-4.52,9.49-12.25,17.08-21.83,21.43-.55.18-1.05.49-1.44.91-.29.4-.49.85-.59,1.33-2.18,8.49-1.7,17.16-3.26,25.65-.05.76-.36,1.48-.88,2.04-.75.53-1.67.74-2.58.59h-1.84c-.53-.04-1.04-.22-1.47-.54-.41-.39-.67-.91-.74-1.47-.38-3.21-.53-6.45-.42-9.68.12-3.3-1.35-6.47-3.96-8.49-.65-.31-1.25-.72-1.78-1.22-.52-.54-.52-1.39,0-1.93.27-.18.58-.28.91-.28,1.84-.13,3.68-.38,5.49-.74,1.82-.34,3.45-1.35,4.56-2.83.93-1.42,1.13-3.23,2.15-4.59,1.39-1.4,3.15-2.39,5.07-2.83,6.67-2.6,12.57-6.85,17.16-12.34,2.04-2.46,3.6-6.91,6.12-8.75.18-.24.39-.45.62-.62Z"/></g><g id="character_1_achievement-23"><path class="cls-22_achievement-23" d="M176.44,164.31s5.66-.51,7.76,1.56c3.26,3.78,5.53,8.32,6.6,13.19.51,1.87,1.13,3.68,1.56,5.66.27,1.75.78,3.46,1.53,5.07.46.9,1.24,1.59,2.18,1.95.74.17,1.51.23,2.27.17.95,0,1.89.06,2.83.2.18.01.36.07.51.17.11.14.17.31.2.48.11.99-.31,1.97-1.1,2.58-2.4,1.15-5.11,1.46-7.7.88-3.11-1.05-4.11-6.82-5.24-9.51-1.64-3.94-3.4-7.79-5.27-11.61-.2-.51-.51-.96-.91-1.33-.47-.31-1-.51-1.56-.59l-6.82-1.47c.65-2.46,2.46-4.95,3.17-7.39Z"/><path class="cls-22_achievement-23" d="M160.58,125.44l1.98-4.05c1.84-4,4.01-7.85,6.48-11.5,5.12-7.05,7.79-15.57,12.2-23.1.29-.41.47-.89.51-1.39,0-1.1-1.3-1.73-2.41-2.01-1.45-.48-3-.59-4.5-.31-1.53.31-2.74,1.48-3.09,3-.02.86.05,1.73.2,2.58-.09,2.41-.92,4.73-2.38,6.65l-11.16,18.06c-1.54,2.02-2.51,4.42-2.83,6.94.13,2.72,2.27,4.91,4.98,5.12Z"/><path class="cls-14_achievement-23" d="M160.58,125.44c.9-1.38,1.24-3.05.93-4.67-.33-2.13-.33-4.3,0-6.43.67-2.05.79-4.24.34-6.34,0,0,0-.2-.17-.25-.14-.09-.31-.09-.45,0-.69.42-1.2,1.07-1.44,1.84-1.19,2.83-4.81,7.62-4.3,10.7.13,2.77,2.33,5,5.1,5.15Z"/><polygon class="cls-23_achievement-23 targetColor" points="151.33 127.28 157.16 119.89 164.09 126.23 157.55 132.12 151.33 127.28" style="fill: rgb(104, 225, 253);"/><polygon class="cls-7_achievement-23" points="151.33 127.28 157.16 119.89 164.09 126.23 157.55 132.12 151.33 127.28"/><path class="cls-22_achievement-23" d="M166.25,136.39l2.69.93c.93.31,2.83,1.56,3.71.71.88-.85,0-3.43,0-4.36-.45-3.35-1.25-6.65-2.41-9.82-.87-1.54-1.04-3.37-.48-5.04.5-.88,1.42-1.43,2.43-1.44,1,.02,1.92.53,2.46,1.36.38.91.66,1.86.82,2.83.3.63.42,1.34.34,2.04-.16.31-.29.63-.4.96-.02.37.05.74.2,1.08l3.54,9.32c.98,1.99,1.35,4.23,1.08,6.43-1.01,2.98-3.95,4.87-7.08,4.56-3.38-.33-6.63-1.46-9.48-3.28-.31-.17-.68-.48-.57-.82.09-.15.21-.27.37-.34.92-.53,1.68-1.28,2.24-2.18.62-.83.82-1.91.54-2.92Z"/><path class="cls-22_achievement-23" d="M158.26,121.25c-.07.39-.26.74-.54,1.02-.44.27-.93.44-1.44.48-.53.06-1.03.26-1.44.59-.13.24-.13.53,0,.76l.76,3.26c.08.24.08.5,0,.74-.15.28-.4.49-.71.59-1.13.54-2.58,1.02-3.57.25-.5-.45-.85-1.04-.99-1.7-1.46-3.61-2.34-7.44-2.6-11.33-.22-2.37.61-4.72,2.27-6.43,1.59-1.29,3.62-1.91,5.66-1.73.93.05,1.77.54,2.27,1.33.31.57,0,1.16.2,1.78.09.91.25,1.81.48,2.69.12.42.26.84.42,1.25.19.33.32.7.4,1.08,0,.7-.15,1.38-.45,2.01-.28.77-.48,1.57-.59,2.38.06.4.06.68-.11.96Z"/><path class="cls-18_achievement-23" d="M159.14,107.4c-.23,1.46-1.18,2.72-2.52,3.34-3.06,1.44-7.42,1.25-6.26,5.66,1.35,3.5,1,7.42-.96,10.62-.71,1.05-1.59,1.95-2.21,3.06-1.02,1.7-1.33,3.77-2.43,5.41-2.21,3.26-6.68,3.94-10.59,3.94-1.49-.03-2.98.25-4.36.82-3.2,1.59-4.64,6.29-8.18,6.46s-4.76-4.45-6.74-6.71c-2.77-2.79-3.55-6.99-1.95-10.59,3.65-7.47,15.57-7.02,20.07-14.16,2.77-4.13,2.77-9.8,7.59-12.46,5.37-2.5,11.62-2.2,16.73.79,1.36.75,2.09,2.29,1.81,3.82Z"/><path class="cls-23_achievement-23 targetColor" d="M164.38,160.52c.34.28.74.49,1.16.62,1.48.36,3.02.43,4.53.2,2.18-.11,4.36-.11,6.54,0,.53-.03,1.05.11,1.5.4.74.62.51,1.78.2,2.69-1.36,4.12-2.94,8.17-4.73,12.12-.62,1.73-1.7,3.25-3.11,4.42-1.12.7-2.37,1.15-3.68,1.33-2.63.54-5.28.91-7.96,1.1-2.6.38-5.26.03-7.67-1.02-2.58-1.55-4.48-4.02-5.32-6.91-1.08-2.78-1.35-5.82-.76-8.75.71-3.11,2.12-4.02,1.25-7.36-1.16-4.14-1.98-8.38-2.43-12.66-.37-3.88,0-7.8,1.08-11.55.43-1.74,1.16-3.38,2.15-4.87,1.02-1.46,2.51-2.52,4.22-3,1.73-.44,3.56.06,4.81,1.33,3.31,3.6,7.84,3.79,11.61,6.88.22.14.39.35.48.59.1.26.1.54,0,.79l-2.46,5.92c-.24.64-.56,1.24-.93,1.81-.34.48-.76.88-1.08,1.36-.86,1.45-1.29,3.1-1.25,4.78-.03,2.83-.71,7.76,1.87,9.77Z" style="fill: rgb(104, 225, 253);"/><path class="cls-4_achievement-23" d="M160.78,164.31c-.91.45-1.99.37-2.83-.2-1.98-1.47-.45-2.49,0-4.02.61-2.11.77-4.33.48-6.51-.31-4.22-.65-8.49-.96-12.68.17,1.05,5.15,2.52,7.11,3.85-.34.48-.76.88-1.08,1.36-2.21,3.23-1.05,9.68-.99,13.34.14,1.76-.08,3.96-1.73,4.87Z"/><path class="cls-23_achievement-23 targetColor" d="M183.74,109.84c.84,3.23.84,6.62,0,9.85-.15.15-.34.27-.54.34-.16.05-.33.05-.48,0-1.27-.25-8.49-4.98-16.99-2.01-1.61.6-3.41-.21-4.01-1.83-.6-1.61.21-3.41,1.83-4.01.37-.14.77-.21,1.16-.2,0,0,11.13-3.71,13.53-10.31.31-.99.93-1.36,1.64-1.25.45.09.86.28,1.22.57h0c1.42,2.76,2.31,5.75,2.63,8.83Z" style="fill: rgb(104, 225, 253);"/><path class="cls-5_achievement-23" d="M183.74,109.84c.84,3.23.84,6.62,0,9.85-.08.17-.24.3-.42.34h0c-1.13,0-2.83-4.25-3.62-9.48-.79-5.24-.74-9.34.2-10.11h.23c.31,0,.62.2.99.68h0c1.41,2.72,2.3,5.68,2.63,8.72Z"/><path class="cls-23_achievement-23 targetColor" d="M200.25,191.46c-.8.23-1.29,1.02-1.16,1.84,0,.45.54.91.34,1.33-.14.24-.38.39-.65.42-2.66.81-5.52.62-8.04-.54-.13.45,0,.94.34,1.27.39.72.97,1.32,1.67,1.73.47.18.97.28,1.47.28,3.95-.05,7.79-1.35,10.96-3.71.3-.19.57-.43.79-.71.19-.31.19-.71,0-1.02-.17-.42-.68-.57-1.13-.65-.79-.12-1.58-.19-2.38-.23-.73-.16-1.48-.17-2.21-.03Z" style="fill: rgb(104, 225, 253);"/></g><g id="trophy_achievement-23"><path class="cls-23_achievement-23 targetColor" d="M310.59,314.97l21.01,12.77h-53.34l21.01-13.59v-11.07l-3.51-4.16v-13.19c-34.37-11.89-33.55-85.62-33.55-85.62h85.45v.88c.51,8.1,3.37,70.16-28.82,83.69-1.27.55-2.57,1-3.91,1.36v11.33l-2.83,3.65-1.5,1.9v12.06Z" style="fill: rgb(104, 225, 253);"/><path class="cls-23_achievement-23 targetColor" d="M265.82,264c-2.09.07-4.13-.69-5.66-2.12-1.87-2.04-2.4-4.96-1.39-7.53l3.91,1.13c-.51,1.18-.31,2.55.51,3.54,1.22.95,2.84,1.22,4.3.71,1.07-.21,1.97-.93,2.41-1.93-.34-1.19-5.66-5.66-9.8-9.43-11.33-9.91-25.48-22.23-20.87-32.14,1.29-3.16,4.04-5.5,7.36-6.29,9.06-2.1,21.07,7.64,21.57,8.07l-2.58,3.14c-3.03-2.49-12.2-8.49-18.09-7.25-2.1.52-3.81,2.03-4.59,4.05-3.34,7.13,10.62,19.28,19.82,27.32,8.21,7.16,11.81,10.45,11.1,13.48-.74,2.46-2.76,4.33-5.27,4.9-.9.23-1.82.34-2.75.34Z" style="fill: rgb(104, 225, 253);"/><path class="cls-23_achievement-23 targetColor" d="M346.69,264c-.91,0-1.81-.12-2.69-.37-2.52-.55-4.55-2.43-5.29-4.9-.71-3.03,2.83-6.31,11.1-13.48,9.23-8.04,23.19-20.19,19.82-27.32-.74-1.87-2.35-3.26-4.3-3.74-6.43-1.42-16.99,5.66-20.41,8.49l-2.43-3.17c.59-.45,14.16-11.33,23.9-9.26,3.2.72,5.85,2.95,7.11,5.97,4.64,9.91-9.51,22.23-20.87,32.14-4.22,3.68-9.46,8.24-9.8,9.71.23.71,1.39,1.36,2.41,1.64,1.45.53,3.07.26,4.28-.71.76-1.01.9-2.36.37-3.51l3.94-1.13c1.02,2.57.47,5.5-1.42,7.53-1.54,1.43-3.59,2.18-5.69,2.1Z" style="fill: rgb(104, 225, 253);"/><path class="cls-9_achievement-23" d="M318.88,284.7c-1.27.55-2.57,1-3.91,1.36v.28h-19.22v-.62c-34.37-11.89-33.55-85.62-33.55-85.62h20.95s-9.29,48.84,21.94,78.43c6.65,6.34,9.06,4.76,13.79,6.17Z"/><path class="cls-23_achievement-23 targetColor" d="M330.32,286.31c-1.3.19-2.61.19-3.91,0h3.91Z" style="fill: rgb(104, 225, 253);"/><polygon class="cls-9_achievement-23" points="302.04 286.34 302.04 298.66 305.1 302.76 305.1 314.17 296.83 327.79 280.92 327.79 301.53 314.94 301.53 303.02 297.45 298.04 297.45 285.63 302.04 286.34"/><path class="cls-6_achievement-23" d="M295.75,286.37v-.62c-34.37-11.89-33.55-85.62-33.55-85.62h6.09s-3.74,64.92,29.16,85.51l1.13.74h-2.83Z"/><path class="cls-23_achievement-23 targetColor" d="M314.98,286.06v11.33l-2.83,3.65c-6-2.07-6.94-6.48,2.83-14.98Z" style="fill: rgb(104, 225, 253);"/><path class="cls-8_achievement-23" d="M318.88,284.7c-1.27.55-2.57,1-3.91,1.36,31.82-27.61,15.35-85.93,15.35-85.93l17.38.88c.42,8.1,3.26,70.16-28.82,83.69Z"/></g></svg>