<svg id="_0497_motivation_1" xmlns="http://www.w3.org/2000/svg" viewBox="0 0 500 500" data-imageid="motivation-1-36-ad41b" imageName="Motivation 1" class="illustrations_image" style="width: 151px;"><defs><style>.cls-1_motivation-1-36-ad41b,.cls-2_motivation-1-36-ad41b{fill:#fff;}.cls-3_motivation-1-36-ad41b{fill:#f4a28c;}.cls-4_motivation-1-36-ad41b{opacity:.03;}.cls-4_motivation-1-36-ad41b,.cls-5_motivation-1-36-ad41b,.cls-6_motivation-1-36-ad41b{fill:#000001;}.cls-7_motivation-1-36-ad41b{fill:#e6e6e6;opacity:.3;}.cls-8_motivation-1-36-ad41b{fill:none;}.cls-8_motivation-1-36-ad41b,.cls-5_motivation-1-36-ad41b{opacity:.08;}.cls-9_motivation-1-36-ad41b{fill:#ce8172;opacity:.31;}.cls-10_motivation-1-36-ad41b{opacity:.58;}.cls-10_motivation-1-36-ad41b,.cls-11_motivation-1-36-ad41b,.cls-12_motivation-1-36-ad41b{fill:#68e1fd;}.cls-2_motivation-1-36-ad41b{opacity:.46;}.cls-13_motivation-1-36-ad41b{fill:#24285b;}.cls-11_motivation-1-36-ad41b{opacity:.73;}.cls-14_motivation-1-36-ad41b{fill:#ffd200;}</style></defs><path id="bg_motivation-1-36-ad41b" class="cls-7_motivation-1-36-ad41b" d="m386.4,46.79c49.73,18.69,88.53,70.5,98.92,135.01,8.76,54.36-4.78,121.03-86.1,151.44-83,31.04-315.56,44.61-359.37-43.76C-3.95,201.12,4.44,88.2,92.89,48.79c62-27.63,196.39-38.5,293.51-2Z"/><g id="coins_motivation-1-36-ad41b"><ellipse class="cls-4_motivation-1-36-ad41b" cx="247.32" cy="442.33" rx="234.95" ry="34.17"/><path class="cls-14_motivation-1-36-ad41b" d="m306.28,389.3l-.03,20.41c-.02,9.25-25.8,16.7-57.59,16.65-31.79-.05-57.55-7.59-57.53-16.84l.03-20.41,115.12.19Z"/><path class="cls-14_motivation-1-36-ad41b" d="m306.24,413.9l-.03,20.41c-.02,9.25-25.8,16.7-57.59,16.65-31.79-.05-57.55-7.59-57.53-16.84l.03-20.41,115.12.19Z"/><path class="cls-5_motivation-1-36-ad41b" d="m306.24,413.9l-.03,20.41c-.02,9.25-25.8,16.7-57.59,16.65-31.79-.05-57.55-7.59-57.53-16.84l.03-20.41,115.12.19Z"/><ellipse class="cls-14_motivation-1-36-ad41b" cx="248.11" cy="413.12" rx="16.59" ry="57.03" transform="translate(-165.43 660.53) rotate(-89.9)"/><path class="cls-5_motivation-1-36-ad41b" d="m306.28,389.3l-.03,20.41c-.02,9.25-25.8,16.7-57.59,16.65-31.79-.05-57.55-7.59-57.53-16.84l.03-20.41,115.12.19Z"/><path class="cls-14_motivation-1-36-ad41b" d="m302.13,364.91l-.03,20.41c-.02,9.25-25.8,16.7-57.59,16.65-31.79-.05-57.55-7.59-57.53-16.84l.03-20.41,115.12.19Z"/><path class="cls-14_motivation-1-36-ad41b" d="m306.36,340.32l-.03,20.41c-.02,9.25-25.8,16.7-57.59,16.65-31.79-.05-57.55-7.59-57.53-16.84l.03-20.41,115.12.19Z"/><ellipse class="cls-14_motivation-1-36-ad41b" cx="248.15" cy="388.75" rx="16.59" ry="57.03" transform="translate(-141.02 636.25) rotate(-89.9)"/><path class="cls-5_motivation-1-36-ad41b" d="m302.13,364.91l-.03,20.41c-.02,9.25-25.8,16.7-57.59,16.65-31.79-.05-57.55-7.59-57.53-16.84l.03-20.41,115.12.19Z"/><ellipse class="cls-14_motivation-1-36-ad41b" cx="244.04" cy="364.58" rx="16.59" ry="57.03" transform="translate(-120.95 608.01) rotate(-89.9)"/><path class="cls-5_motivation-1-36-ad41b" d="m306.36,340.32l-.03,20.41c-.02,9.25-25.8,16.7-57.59,16.65-31.79-.05-57.55-7.59-57.53-16.84l.03-20.41,115.12.19Z"/><ellipse class="cls-14_motivation-1-36-ad41b" cx="248.78" cy="340.22" rx="16.59" ry="57.58" transform="translate(-91.86 588.43) rotate(-89.9)"/><path class="cls-14_motivation-1-36-ad41b" d="m440,385.16l-.04,22.84c-.02,10.35-28.88,18.69-64.46,18.63-35.58-.06-64.42-8.5-64.4-18.85l.04-22.84,128.86.22Z"/><path class="cls-14_motivation-1-36-ad41b" d="m439.95,412.68l-.04,22.84c-.02,10.35-28.88,18.69-64.46,18.63-35.58-.06-64.42-8.5-64.4-18.85l.04-22.84,128.86.22Z"/><path class="cls-5_motivation-1-36-ad41b" d="m439.95,412.68l-.04,22.84c-.02,10.35-28.88,18.69-64.46,18.63-35.58-.06-64.42-8.5-64.4-18.85l.04-22.84,128.86.22Z"/><ellipse class="cls-14_motivation-1-36-ad41b" cx="374.88" cy="411.82" rx="18.57" ry="63.84" transform="translate(-37.56 786.01) rotate(-89.9)"/><path class="cls-5_motivation-1-36-ad41b" d="m440,385.16l-.04,22.84c-.02,10.35-28.88,18.69-64.46,18.63-35.58-.06-64.42-8.5-64.4-18.85l.04-22.84,128.86.22Z"/><path class="cls-14_motivation-1-36-ad41b" d="m435.36,357.85l-.04,22.84c-.02,10.35-28.88,18.69-64.46,18.63-35.58-.06-64.42-8.5-64.4-18.85l.04-22.84,128.86.22Z"/><path class="cls-14_motivation-1-36-ad41b" d="m440.09,330.33l-.04,22.84c-.02,10.35-28.88,18.69-64.46,18.63-35.58-.06-64.42-8.5-64.4-18.85l.04-22.84,128.86.22Z"/><ellipse class="cls-14_motivation-1-36-ad41b" cx="374.93" cy="384.54" rx="18.57" ry="63.84" transform="translate(-10.24 758.82) rotate(-89.9)"/><path class="cls-5_motivation-1-36-ad41b" d="m435.36,357.85l-.04,22.84c-.02,10.35-28.88,18.69-64.46,18.63-35.58-.06-64.42-8.5-64.4-18.85l.04-22.84,128.86.22Z"/><ellipse class="cls-14_motivation-1-36-ad41b" cx="370.33" cy="357.49" rx="18.57" ry="63.84" transform="translate(12.22 727.22) rotate(-89.9)"/><path class="cls-5_motivation-1-36-ad41b" d="m440.09,330.33l-.04,22.84c-.02,10.35-28.88,18.69-64.46,18.63-35.58-.06-64.42-8.5-64.4-18.85l.04-22.84,128.86.22Z"/><ellipse class="cls-14_motivation-1-36-ad41b" cx="375.64" cy="330.22" rx="18.57" ry="64.45" transform="translate(44.78 705.3) rotate(-89.9)"/><path class="cls-14_motivation-1-36-ad41b" d="m180.78,383.45l-.04,22.84c-.02,10.35-28.88,18.69-64.46,18.63-35.58-.06-64.42-8.5-64.4-18.85l.04-22.84,128.86.22Z"/><path class="cls-14_motivation-1-36-ad41b" d="m180.73,410.98l-.04,22.84c-.02,10.35-28.88,18.69-64.46,18.63-35.58-.06-64.42-8.5-64.4-18.85l.04-22.84,128.86.22Z"/><path class="cls-5_motivation-1-36-ad41b" d="m180.73,410.98l-.04,22.84c-.02,10.35-28.88,18.69-64.46,18.63-35.58-.06-64.42-8.5-64.4-18.85l.04-22.84,128.86.22Z"/><ellipse class="cls-14_motivation-1-36-ad41b" cx="115.67" cy="410.11" rx="18.57" ry="63.84" transform="translate(-294.64 525.09) rotate(-89.9)"/><path class="cls-5_motivation-1-36-ad41b" d="m180.78,383.45l-.04,22.84c-.02,10.35-28.88,18.69-64.46,18.63-35.58-.06-64.42-8.5-64.4-18.85l.04-22.84,128.86.22Z"/><path class="cls-14_motivation-1-36-ad41b" d="m176.14,356.15l-.04,22.84c-.02,10.35-28.88,18.69-64.46,18.63-35.58-.06-64.42-8.5-64.4-18.85l.04-22.84,128.86.22Z"/><path class="cls-14_motivation-1-36-ad41b" d="m180.87,328.62l-.04,22.84c-.02,10.35-28.88,18.69-64.46,18.63-35.58-.06-64.42-8.5-64.4-18.85l.04-22.84,128.86.22Z"/><ellipse class="cls-14_motivation-1-36-ad41b" cx="115.71" cy="382.83" rx="18.57" ry="63.84" transform="translate(-267.32 497.9) rotate(-89.9)"/><path class="cls-5_motivation-1-36-ad41b" d="m176.14,356.15l-.04,22.84c-.02,10.35-28.88,18.69-64.46,18.63-35.58-.06-64.42-8.5-64.4-18.85l.04-22.84,128.86.22Z"/><ellipse class="cls-14_motivation-1-36-ad41b" cx="111.11" cy="355.78" rx="18.57" ry="63.84" transform="translate(-244.85 466.3) rotate(-89.9)"/><path class="cls-5_motivation-1-36-ad41b" d="m180.87,328.62l-.04,22.84c-.02,10.35-28.88,18.69-64.46,18.63-35.58-.06-64.42-8.5-64.4-18.85l.04-22.84,128.86.22Z"/><circle class="cls-5_motivation-1-36-ad41b" cx="178.33" cy="408.9" r="47.83"/><path class="cls-5_motivation-1-36-ad41b" d="m146.5,361.01s-50.07,15.29-42.03,91.11c0,0,32.64,1.1,48.14-2.88,13.85-3.56-6.11-88.23-6.11-88.23Z"/><ellipse class="cls-14_motivation-1-36-ad41b" cx="116.42" cy="328.52" rx="18.57" ry="64.45" transform="translate(-212.29 444.38) rotate(-89.9)"/><circle class="cls-14_motivation-1-36-ad41b" cx="178.33" cy="408.9" r="47.83"/><circle class="cls-5_motivation-1-36-ad41b" cx="178.33" cy="408.9" r="47.83"/><g class="cls-8_motivation-1-36-ad41b"><circle class="cls-6_motivation-1-36-ad41b" cx="180.66" cy="394.5" r="47.83"/></g><circle class="cls-14_motivation-1-36-ad41b" cx="180.66" cy="394.5" r="47.83"/><path class="cls-1_motivation-1-36-ad41b" d="m182.2,373.1c1.35,0,1.76.47,1.76,1.82v2.88c5.41.76,8.53,3.47,10.82,8.18.71,1.41.41,2.18-1.18,2.88l-2.88,1.29c-1.35.65-2,.35-2.76-1.06-1.59-3.06-3.53-4.53-7.53-4.53-5,0-7.29,1.47-7.29,4.82,0,2.18,2,3.53,4.06,3.94,1,.24,2.41.47,4.23.65,3.29.29,4.94.53,7.82,1.53,1.47.53,2.59,1.12,3.47,1.88,1.65,1.53,3.12,4.47,3.12,8.23,0,6.41-4.29,10.76-11.88,11.88v3.06c0,1.35-.41,1.82-1.76,1.82h-3.23c-1.35,0-1.82-.47-1.82-1.82v-3c-5.88-.76-9.82-3.76-11.76-9.06-.47-1.29,0-2.18,1.35-2.7l2.88-1.06c1.47-.53,2.12-.18,2.76,1.29,1.29,3.29,3.94,4.94,7.94,4.94,5.41,0,8.12-1.71,8.12-5.18,0-1.82-.82-2.94-2.53-3.65-1.71-.65-3.18-.88-5.82-1.12-3.24-.29-5.06-.65-7.88-1.71-1.41-.53-2.53-1.18-3.41-1.94-1.76-1.59-3.18-4.41-3.18-8,0-6.35,4-10.59,11.53-11.59v-2.88c0-1.35.47-1.82,1.82-1.82h3.23Z"/></g><g id="person_motivation-1-36-ad41b"><path class="cls-3_motivation-1-36-ad41b" d="m413.64,90.26s9.85-18.73,11.74-17.37c1.89,1.35,1.41,4.16,1.41,4.16,0,0,5.6-8.94,9.9-4.87,4.29,4.07-1.82,16.7-11.69,21.38l-11.35-3.29Z"/><path class="cls-12_motivation-1-36-ad41b targetColor" d="m276.71,146.52s90.65-8.59,135.89-61.71l18.14,8.33s-19.52,35.31-45.05,59.73c-46.46,44.44-99.21,49.7-99.21,49.7l-9.77-56.05Z" style="fill: rgb(104, 225, 253);"/><path class="cls-2_motivation-1-36-ad41b" d="m276.71,146.52s90.65-8.59,135.89-61.71l18.14,8.33s-19.52,35.31-45.05,59.73c-46.46,44.44-99.21,49.7-99.21,49.7l-9.77-56.05Z"/><path class="cls-3_motivation-1-36-ad41b" d="m58.12,85.99s-5.37-10.85-7.27-9.5c-1.89,1.35-1.41,4.16-1.41,4.16,0,0-5.6-8.94-9.9-4.87-4.29,4.07,1.82,16.7,11.69,21.38l6.88-11.17Z"/><path class="cls-3_motivation-1-36-ad41b" d="m277.74,97.02s2.88,10.37,2.41,17.71c-.19,2.98-2.8,5.27-5.78,5.04-3.69-.29-8.6-1.75-10.82-7.13l-4.88-8.65s-2.87-5.53,2.3-10.93c5.17-5.4,15.34-2.45,16.77,3.96Z"/><polygon class="cls-3_motivation-1-36-ad41b" points="260.7 106.13 252.24 140.38 271.45 143.69 269.93 118.1 260.7 106.13"/><path class="cls-3_motivation-1-36-ad41b" d="m279.22,103.65l3.71,3.53c.92.87.61,2.4-.57,2.86l-3.9,1.51.76-7.9Z"/><path class="cls-9_motivation-1-36-ad41b" d="m269.97,118.83s-6.54-3.02-8.34-5.7c0,0,.37,14.08,9.09,18.19l-.74-12.48Z"/><path class="cls-3_motivation-1-36-ad41b" d="m267.04,106.78s-.84-4.06-3.84-3.18-1.83,6.76,2.43,6.53l1.41-3.36Z"/><path class="cls-13_motivation-1-36-ad41b" d="m254.59,101.59l2.24,3.88s2.71,9.95,9.34,15.1c6.63,5.14,15.94,4.09,16.75-2.92.92-8.03-4.46-6.1-11.66-6.44s-6.1-9.98-6.1-9.98c3.17.04,5.35-1.65,6.8-3.57l4.22-2.15c4.07-2.07,5.37-7.29,2.7-11-1.5-2.09-3.56-3.9-6.33-4.38-7.45-1.3-25,9.93-17.97,21.46Z"/><path class="cls-3_motivation-1-36-ad41b" d="m260.84,102.58s-5.23-3.09-7.17,1.07c-1.94,4.16,3.9,7.42,7.86,4.89,0,0-1.54-2.67-.69-5.95Z"/><polygon class="cls-5_motivation-1-36-ad41b" points="270.71 421.86 276.71 343.38 301.73 347.19 309.18 377.29 303.64 421.86 270.71 421.86"/><path class="cls-12_motivation-1-36-ad41b targetColor" d="m273.85,411.55s2.67,7.43,9.39,8c6.71.57,8.47,7.13,2.43,8.84-6.04,1.71-21.61-6.05-21.61-6.05l.44-9.69,9.35-1.1Z" style="fill: rgb(104, 225, 253);"/><path class="cls-12_motivation-1-36-ad41b targetColor" d="m292.5,258.47c-14.1,26.74-9.9,75.82-9.9,75.82l-75.67-2.2c-1.91-3.46-3.72-6.96-5.44-10.49-25.06-51.06-31.29-108.2-27.57-140.13.98-8.46,2.68-15.16,4.9-19.52,11.18-21.87,75.06-21.97,75.06-21.97l19.21,3.31c77.32,31.63,33.48,88.44,19.41,115.18Z" style="fill: rgb(104, 225, 253);"/><path class="cls-13_motivation-1-36-ad41b" d="m206.93,332.11l37.01-5.58c22.89-3.45,42.88,15.62,40.52,38.65l-4.83,47.01h-18.16s1.57-44.01,1.57-44.01c.37-10.49-8.92-18.74-19.29-17.07-15.75,2.54-35.27,1.44-36.82-19Z"/><path class="cls-12_motivation-1-36-ad41b targetColor" d="m311.52,411.55s2.67,7.43,9.39,8c6.71.57,8.47,7.13,2.43,8.84-6.04,1.71-21.61-6.05-21.61-6.05l.44-9.69,9.35-1.1Z" style="fill: rgb(104, 225, 253);"/><path class="cls-5_motivation-1-36-ad41b" d="m268.5,330.03l-61.57,2.07-5.27-10.29-.17-.2c-25.06-51.06-31.29-108.2-27.57-140.13l39.49-11.66s20.97,18.38,16.77,38.68c-.7,3.29-1.39,7.24-2.11,11.6-5.55,34.07,4.48,68.84,27.2,94.84l13.23,15.1Z"/><path class="cls-13_motivation-1-36-ad41b" d="m244.6,332.11l37.01-5.58c22.89-3.45,42.88,15.62,40.52,38.65l-4.83,47.01h-18.16s1.57-44.01,1.57-44.01c.37-10.49-8.92-18.74-19.29-17.07-15.75,2.54-35.27,1.44-36.82-19Z"/><path class="cls-12_motivation-1-36-ad41b targetColor" d="m216.8,147.47s-77.52-14.39-157.39-64.1l-12.13,15.43s83.35,88.1,152.26,100.1c29.9,5.21,55.91-38.78,17.26-51.42Z" style="fill: rgb(104, 225, 253);"/><path class="cls-2_motivation-1-36-ad41b" d="m216.8,147.47s-77.52-14.39-157.39-64.1l-12.13,15.43s83.35,88.1,152.26,100.1c29.9,5.21,55.91-38.78,17.26-51.42Z"/></g><g id="laptop_motivation-1-36-ad41b"><polygon class="cls-13_motivation-1-36-ad41b" points="407.11 332.88 415.19 287.2 357.88 287.2 352.9 326.14 326.62 326.51 326.62 332.88 407.11 332.88"/><circle class="cls-1_motivation-1-36-ad41b" cx="384.28" cy="309.1" r="5.74"/></g><g id="plant_motivation-1-36-ad41b"><path class="cls-10_motivation-1-36-ad41b targetColor" d="m102.4,308.9s-13.85-3.78-16.86-16.67c0,0,21.46-4.34,22.07,17.81l-5.21-1.14Z" style="fill: rgb(104, 225, 253);"/><path class="cls-11_motivation-1-36-ad41b targetColor" d="m104.1,307.53s-9.68-15.3-1.16-29.6c0,0,16.32,10.36,9.07,29.63l-7.91-.03Z" style="fill: rgb(104, 225, 253);"/><path class="cls-12_motivation-1-36-ad41b targetColor" d="m106.59,307.54s5.11-16.15,20.57-19.21c0,0,2.9,10.49-10.01,19.26l-10.56-.04Z" style="fill: rgb(104, 225, 253);"/><polygon class="cls-13_motivation-1-36-ad41b" points="96.55 307.18 99.36 326.38 117.04 326.46 119.64 307.27 96.55 307.18"/></g></svg>