<?xml version='1.0' encoding='utf-8'?>
<svg xmlns="http://www.w3.org/2000/svg" version="1.1" id="Ebene_1" x="0px" y="0px" width="618.831px" height="302.598px" viewBox="0 0 618.831 302.598" enable-background="new 0 0 618.831 302.598"> <g> <path fill="#8A8E8B" d="M141.385,264.419c-94.49-27.491-122.375-56.5-122.375-56.5s38.294,39.846,104.25,58.701 c79.75,22.799,152.668,14.219,152.668,14.219S203.26,282.421,141.385,264.419z"/> <path fill="#8A8E8B" d="M96.26,238.919c75.25,35,161.5,26.887,161.5,26.887s-75.5-0.637-134-23.927 c-86.758-34.54-97.781-67.291-98.681-70.548C26.01,174.806,37.068,211.389,96.26,238.919z"/> <path fill="#8A8E8B" d="M107.76,223.169c73,38.75,160.25,28.75,160.25,28.75s-78.104-0.507-133.5-25.5 c-69.917-31.545-77.975-59.502-78.128-70.3C55.916,167.572,59.793,197.707,107.76,223.169z"/> <path fill="#8A8E8B" d="M99.677,126.63c0,0-44.189,30.322,9.083,73.539c62.25,50.5,176.5,41,176.5,41s-74.011-2.667-129.407-27.66 C66.152,173.038,99.677,126.63,99.677,126.63z"/> <path fill="#8A8E8B" d="M124.968,148.278c-0.576-13.352,11.706-25.745,21.193-33.28v-2.407 c-9.779,5.336-23.303,14.703-27.235,27.245c-5.592,17.837-6.991,36.589,21.667,56.333c61.457,42.341,172.667,38.333,172.667,38.333 s-40.53-5.016-94.667-18.386C168.85,203.831,126.47,183.076,124.968,148.278z"/> <path fill="#8A8E8B" d="M424.561,147.642c-1.65-8.654-20.301-28.806-20.301-28.806s19,9.667,26.167,21.333 c7.912,12.881,3.101,27.989-0.646,33.692c-4.241,6.456-11.733,14.508-23.854,19.641c-32.667,13.834-89.333,25.834-142.833,21.834 s-70-12.5-89-22.667s-36.167-34.334-24.167-53.167s46.333-33.167,46.333-33.167s-28.5,19.447-33,29.474s-6.667,36.193,25.5,51.86 s63.667,18,63.667,18s-58.167-14.833-71.167-39.5s13.833-39.167,25.167-45.5s42.333-13.5,42.333-13.5s-47.333,17-53,32 s-0.402,29.044,18.5,40.333c12,7.167,37.833,9.167,37.833,9.167s-50.167-14.333-41.833-41.667 c6.193-20.314,48.491-29.255,69.512-31.333c9.128-0.902,23.139,0.866,31.248,2.104v1.279c-10.28,0.427-30.87,1.611-46.26,4.617 c-14.389,2.81-39,11.833-38.333,29.167c0.667,17.333,39.667,23.5,39.667,23.5s-38.667-14.577-22.5-30.5 c4.989-4.913,36.167-30.167,96.167-8.167l5.727,2.233c0,0,20.673,8.756,23.8,15.161c4.257,8.719-16.847,19.094-16.847,19.094 c-7.414,3.803-14.553,6.517-19.68,7.845c-14.159,3.669-29.667,5.668-58.5,0.834s-48.833-17.667-48.833-17.667s0.667,11.667,45,21.5 s77.705-1.854,101.909-13.237c1.799-0.846,7.826-4.089,10.016-6.022c2.502-2.21,6.788-7.638,7.855-10.802 c0.729-2.165,1.264-6.853,0.852-9.1c-0.325-1.775-2.12-5.02-3.179-6.481c-3.679-5.08-17.953-17.526-17.953-17.526 s22.994,12.446,27.667,19.501c1.724,2.602,2.974,9.096,2.641,12.198c-1.642,15.302-13.308,26.469-29.808,32.969 c-17.11,6.74-54.798,11.333-72.732,11s-56.101-5.167-56.101-5.167s14.333,8.167,52,10.167s77.918-6.581,101.333-20.167 c5.157-2.992,12.255-7.397,16.155-10.141c0.108-0.076,0.421-0.321,0.421-0.321c3.467-2.652,7.502-6.11,8.956-8.915 C422.666,160.368,426.119,155.816,424.561,147.642z M339.535,143.927 M348.314,154.683c0.687-5.796-8.779-10.756-8.779-10.756 c-9.976-5.484-25.992-8.09-29.609-8.508c-10.833-1.25-25.151,0.423-38.683,4.313c-13.532,3.889-12.491,11.67-7.341,16.326 s12.984,6.136,12.984,6.136s-15.066-7.122-5.423-14.244c2.774-2.049,14.792-6.464,27.721-6.738s19.394,4.985,20.38,7.396 s0.767,6.354,0,8.601c0,0,3.946-4.122,3.863-6.872s-2-5.917-1.084-6.75c0.917-0.833,4.417-0.5,8.417,2 c2.502,1.563,4.382,3.974,4.966,5.789c0.286,0.891,0.267,2.812,0.157,3.74c-0.056,0.476-0.523,1.843-0.523,1.843 c-2.027,4.504-10.505,9.855-24.266,12.045c-14.667,2.334-33.083,1.833-47.833-5.667s-9.083-17.5-9.083-17.5s-4.75,1.75-6.333,7.667 s10,13.916,24.75,19.5s35.25,3.916,35.25,3.916c10.526-0.728,22.208-4.859,30.188-10.223 C338.031,166.696,347.505,161.514,348.314,154.683z M282.857,158.304c2.52,1.15,12.217,4.603,20.544,3.068s11.56-5.533,11.56-5.533 s1.298-5.337-6.035-7.337s-15.333-2-16,0s3.667,2.833,7,2.75s5.662-0.771,8,0c1.283,0.423,3.667,2.25,0.667,4.25 s-7.333,3.333-13.333,2s-8.035-3.561-9-4.981c-1.43-2.105,1.254-3.858,1.254-3.858s-6.574,1.088-7.451,3.858 S280.337,157.153,282.857,158.304z"/> <path fill="#8A8E8B" d="M456.876,174.329c-5.622,10.502-20.358,15.299-20.358,15.299s16.408-3.709,22.794-13.336 c3.705-5.586,7.948-14.539,6.632-25.978c-0.287-2.495-1.673-6.101-3.342-9.476c-9.967-20.157-32.725-33.328-46.631-39.757 c-3.312-1.531-13.577-5.347-13.577-5.347c-1.977-0.659-3.112-0.977-3.112-0.977s1.118,0.606,3.112,1.774l13.577,8.543 c5.395,3.607,11.762,8.108,18.601,13.433c10.692,8.326,19.854,17.579,23.682,28.765 C460.445,153.681,460.843,166.919,456.876,174.329z"/> <path fill="#8A8E8B" d="M434.262,87.714c-5.884-2.221-9.69-3.198-9.69-3.198s3.861,1.719,9.69,4.998l13.617,8.516 c9.854,6.833,20.929,16.118,29.157,27.53c3.292,4.565,5.892,8.916,7.916,13.047l1.552,3.387c1.593,3.731,2.711,7.269,3.443,10.608 l0.99,6.538c1.722,21.123-11.952,32.654-11.952,32.654s20.188-8.158,19.45-32.654l-0.652-6.538 c-0.519-3.106-1.351-6.433-2.561-9.992c-8.48-24.935-30.204-40.305-47.344-48.921L434.262,87.714z"/> <path fill="#8A8E8B" d="M438.01,76.536l9.869,2.89c11.426,4.327,41.897,17.241,60.804,38.14 c29.824,32.967,27.385,52.996,24.859,60.224c3.015-7.561,8.218-28.33-11.321-53.498c-24.29-31.288-61.524-42.483-74.342-45.534 L438.01,76.536z"/> <path fill="#8A8E8B" d="M447.879,62.27c15.298,3.899,44.488,13.06,66.703,30.375c46.445,36.199,47.948,63.412,47.969,66.402 c0.008-3.09-0.725-33.337-31.827-61.249c-28.987-26.015-65.333-34.229-82.845-36.769l-5.289-0.674 c-3.247-0.352-5.089-0.43-5.089-0.43s0.771,0.138,2.169,0.43L447.879,62.27z"/> <path fill="#8A8E8B" d="M448.432,47.354c19.978,4.175,49.047,12.573,74.158,26.729c65.834,37.112,81.326,68.11,81.326,68.11 s-21.272-42.577-67.289-68.162c-33.582-18.672-67.405-26.359-89.013-29.042c-3.039-0.377-9.129-1.06-12.177-1.359 c-6.878-0.676-10.866-0.589-10.866-0.589s3.754,0.393,10.03,1.569C438.065,45.26,444.981,46.633,448.432,47.354z"/> </g> </svg>