<svg id="_0473_ar_1" xmlns="http://www.w3.org/2000/svg" xmlns:xlink="http://www.w3.org/1999/xlink" viewBox="0 0 500 500" data-imageid="augmented-reality-1-18" imageName="Augmented Reality 1" class="illustrations_image" style="width: 188px;"><defs><style>.cls-1_augmented-reality-1-18{fill:url(#linear-gradient);}.cls-1_augmented-reality-1-18,.cls-2_augmented-reality-1-18,.cls-3_augmented-reality-1-18,.cls-4_augmented-reality-1-18,.cls-5_augmented-reality-1-18,.cls-6_augmented-reality-1-18,.cls-7_augmented-reality-1-18,.cls-8_augmented-reality-1-18,.cls-9_augmented-reality-1-18,.cls-10_augmented-reality-1-18,.cls-11_augmented-reality-1-18,.cls-12_augmented-reality-1-18,.cls-13_augmented-reality-1-18,.cls-14_augmented-reality-1-18,.cls-15_augmented-reality-1-18,.cls-16_augmented-reality-1-18{stroke-width:0px;}.cls-2_augmented-reality-1-18{opacity:.18;}.cls-2_augmented-reality-1-18,.cls-3_augmented-reality-1-18,.cls-4_augmented-reality-1-18,.cls-5_augmented-reality-1-18{isolation:isolate;}.cls-2_augmented-reality-1-18,.cls-3_augmented-reality-1-18,.cls-4_augmented-reality-1-18,.cls-5_augmented-reality-1-18,.cls-16_augmented-reality-1-18{fill:#68e1fd;}.cls-3_augmented-reality-1-18{opacity:.2;}.cls-4_augmented-reality-1-18{opacity:.47;}.cls-5_augmented-reality-1-18{opacity:.84;}.cls-6_augmented-reality-1-18{fill:url(#linear-gradient-4-augmented-reality-1-18);}.cls-7_augmented-reality-1-18{fill:url(#linear-gradient-2-augmented-reality-1-18);}.cls-8_augmented-reality-1-18{fill:url(#linear-gradient-3-augmented-reality-1-18);}.cls-9_augmented-reality-1-18{fill:url(#linear-gradient-5-augmented-reality-1-18);}.cls-10_augmented-reality-1-18{fill:url(#linear-gradient-6-augmented-reality-1-18);}.cls-11_augmented-reality-1-18{fill:#c14834;}.cls-12_augmented-reality-1-18{fill:#fff;}.cls-13_augmented-reality-1-18{fill:#eda48a;}.cls-14_augmented-reality-1-18{fill:#ffaa71;}.cls-15_augmented-reality-1-18{fill:#fbc6d7;}</style><linearGradient id="linear-gradient-augmented-reality-1-18" x1="45.52" y1="3934.99" x2="753.57" y2="4449.41" gradientTransform="translate(-49.58 4366.16) scale(1 -1)" gradientUnits="userSpaceOnUse"><stop offset="0" stop-color="#231f20"/><stop offset=".13" stop-color="#231f20" stop-opacity=".69"/><stop offset=".25" stop-color="#231f20" stop-opacity=".32"/><stop offset="1" stop-color="#231f20" stop-opacity="0"/></linearGradient><linearGradient id="linear-gradient-2-augmented-reality-1-18" x1="156.01" y1="4025.7" x2="510.74" y2="4271.6" gradientTransform="translate(-49.58 4366.16) scale(1 -1)" gradientUnits="userSpaceOnUse"><stop offset="0" stop-color="#000"/><stop offset=".13" stop-color="#000" stop-opacity=".69"/><stop offset="1" stop-color="#000" stop-opacity="0"/></linearGradient><linearGradient id="linear-gradient-3-augmented-reality-1-18" x1="253.52" y1="4035.65" x2="473.36" y2="3749.86" xlink:href="#linear-gradient-augmented-reality-1-18"/><linearGradient id="linear-gradient-4-augmented-reality-1-18" x1="206.14" y1="4088.87" x2="425.64" y2="3948.7" xlink:href="#linear-gradient-augmented-reality-1-18"/><linearGradient id="linear-gradient-5-augmented-reality-1-18" x1="371.44" y1="4128.09" x2="327.92" y2="4187.44" xlink:href="#linear-gradient-augmented-reality-1-18"/><linearGradient id="linear-gradient-6-augmented-reality-1-18" x1="324.96" y1="4170.3" x2="384.54" y2="4135.2" xlink:href="#linear-gradient-augmented-reality-1-18"/></defs><g id="background_augmented-reality-1-18"><path class="cls-2_augmented-reality-1-18 targetColor" d="M295.64,83.12c-14.86-7.04-31.54-9.39-47.99-10.04-38.28-1.39-80.31,8.37-103.3,39.02-7.95,10.66-13.05,23.06-18.86,34.97-12.52,25.53-28.62,49.15-47.8,70.14-12.75,13.95-26.77,26.77-38.23,41.83-26.42,35.04-36.11,83.04-21.88,124.53,14.22,41.49,53.39,74.25,97.14,77.5,26.25,1.94,52.08-6.06,78.13-9.74,57.77-8.18,116.15,4.84,174.36,8.92,21.67,1.52,44.42,1.67,63.83-8.18,34.57-17.4,47.85-60.4,48.69-99.1,2.02-92.02-46.85-171.75-121.12-222.22-21.72-14.74-39.03-36.24-62.98-47.62Z" style="fill: rgb(104, 225, 253);"/></g><g id="character_augmented-reality-1-18"><path class="cls-12_augmented-reality-1-18" d="M349.97,397.26l-28.93,1.59-127.91,7.04-77.21,4.25c-9.15.5-17.2-6-18.64-15.06l-34.95-227.04c-1.5-9.75,5.19-18.88,14.95-20.37.8-.12,1.6-.19,2.4-.2l10.04-.17,33.35,216.03c1.44,9.05,9.48,15.56,18.64,15.06l77.21-4.25,127.91-7.04,17.75-.97,1.94,9.77c1.95,9.67-4.32,19.1-13.99,21.04-.84.17-1.69.28-2.55.32Z"/><path class="cls-12_augmented-reality-1-18" d="M364.57,366.19l-17.75.97-127.91,7.04-77.21,4.25c-9.15.5-17.2-6-18.64-15.06l-33.26-216.1,215.83-3.63c8.64-.14,16.14,5.92,17.82,14.39l41.13,208.14Z"/><path class="cls-1_augmented-reality-1-18" d="M349.97,397.26l-28.93,1.59-127.91,7.04-77.21,4.25c-9.15.5-17.2-6-18.64-15.06l-34.95-227.04c-1.5-9.75,5.19-18.88,14.95-20.37.8-.12,1.6-.19,2.4-.2l10.04-.17,33.35,216.03c1.44,9.05,9.48,15.56,18.64,15.06l77.21-4.25,127.91-7.04,17.75-.97,1.94,9.77c1.95,9.67-4.32,19.1-13.99,21.04-.84.17-1.69.28-2.55.32Z"/><path class="cls-7_augmented-reality-1-18" d="M364.57,366.19l-17.75.97-127.91,7.04-77.21,4.25c-9.15.5-17.2-6-18.64-15.06l-33.26-216.1,215.83-3.63c8.64-.14,16.14,5.92,17.82,14.39l41.13,208.14Z"/><path class="cls-16_augmented-reality-1-18 targetColor" d="M321.04,398.85l-127.91,7.04c2.49-7.57,5.98-14.78,10.37-21.43,3.95-6.16,8.37-12.03,12.9-17.77,3.01-3.78,4.37-2.46,8.9-1.44,3.89.87,7.8,1.62,11.71,2.24,15.7,2.48,31.66,2.97,47.48,1.47,2.73-.41,5.49-.45,8.23-.12,2.08.42,4.08,1.15,5.94,2.18,11.03,5.72,19.15,15.82,22.37,27.82Z" style="fill: rgb(104, 225, 253);"/><path class="cls-8_augmented-reality-1-18" d="M321.04,398.85l-127.91,7.04c2.49-7.57,5.98-14.78,10.37-21.43,3.95-6.16,8.37-12.03,12.9-17.77,3.01-3.78,4.37-2.46,8.9-1.44,3.89.87,7.8,1.62,11.71,2.24,15.7,2.48,31.66,2.97,47.48,1.47,2.73-.41,5.49-.45,8.23-.12,2.08.42,4.08,1.15,5.94,2.18,11.03,5.72,19.15,15.82,22.37,27.82Z"/><path class="cls-12_augmented-reality-1-18" d="M86.3,318.84l-1.6-.48c22.22-73.71,52.61-117.71,90.33-130.78,34.37-11.91,62.62,6.82,65.73,9,5.33,3.73,9.03,9.31,12.59,14.71,4.2,6.36,8.17,12.36,14.57,15.58,3.93,1.92,8.47,2.53,12.77,1.72l.31,1.64c-4.66.88-9.57.22-13.83-1.86-6.81-3.42-11.09-9.89-15.23-16.15-3.48-5.27-7.08-10.72-12.16-14.26-3.04-2.13-30.64-20.43-64.22-8.79-37.18,12.89-67.22,56.52-89.28,129.68Z"/><path class="cls-12_augmented-reality-1-18" d="M80.31,279.63l-1.65-.29c.13-.78.52-3.15,32.24-29.81,15.92-13.37,32.45-26.7,34.39-27.98,13.35-9.2,28.4-13.51,42.37-12.13,13.15,1.27,25.24,7.44,36.92,13.4l1.85.95c12.03,6.12,24.89,12.09,38.27,12.09.13,0,.25,0,.38,0,4.06-.04,8.09-.62,11.99-1.74,1.22-.22,2.24-.88,2.88-1.84l1.39.93c-.9,1.33-2.32,2.25-3.89,2.53-3.96,1.14-8.14,1.75-12.35,1.79-.13,0-.26,0-.4,0-13.75,0-26.81-6.06-39.02-12.27l-1.86-.95c-11.55-5.89-23.49-11.98-36.33-13.22-13.59-1.34-28.24,2.87-41.27,11.85-4.36,2.87-64.73,52.44-65.92,56.68Z"/><path class="cls-12_augmented-reality-1-18" d="M104.16,336.36c-5.23,0-10.69-.46-16.39-1.38l.27-1.65c64.72,10.45,81.78-40.95,90.95-68.56,2.72-8.18,4.51-13.59,6.82-15.28,8.46-6.18,19.81-9.36,33.75-9.46,7.54-.05,15.13.75,22.46,1.53,4.13.44,8.39.89,12.6,1.18,5.32.55,10.65.3,15.88-.72,5.13-1.03,9.76-3.84,13.05-7.92l1.3,1.05c-3.53,4.38-8.51,7.41-14.02,8.51-5.39,1.06-10.89,1.31-16.34.75-4.21-.29-8.49-.75-12.63-1.19-7.29-.77-14.87-1.57-22.28-1.52-13.58.1-24.61,3.17-32.77,9.14-1.88,1.37-3.79,7.15-6.22,14.45-4.45,13.39-11.16,33.63-24.95,48.97-13.2,14.69-30.46,22.09-51.47,22.09Z"/><path class="cls-14_augmented-reality-1-18" d="M411.61,186.13c-1.2.48-2.32,1.11-3.35,1.89-.92.65-1.71,1.46-2.34,2.39-.99,1.96-1.56,4.1-1.67,6.29-.32,2.18-3.45,6.07-4.68,7.86-2.16,3.08-2.23,24.56-5.14,40.29h0s-.01.06,0,.08c-.25,1.39-.52,2.71-.82,3.98-.65,2.74-.28,5.67-1.97,7.93-1.78,2.19-3.93,4.05-6.34,5.5-9.61,6.47-20,11.69-30.94,15.51-2.49.94-5.07,1.59-7.71,1.92-.59,0-1.15.08-1.67.08l1.67-.25,2.58-.37c-.89-.46-1.75-.98-2.58-1.54-1.8-1.02-3.19-2.64-3.93-4.57-.33-1.25-.46-2.55-.37-3.85,0-4.3.28-8.97,3.1-12.2,1.25-1.28,2.69-2.37,4.27-3.23,5.13-3.26,10.51-6.11,16.1-8.52,1.81-.62,3.5-1.53,5.02-2.69,1.72-1.78,2.99-3.95,3.7-6.32l5.42-13.84c2.22-4.98,3.9-10.19,5.02-15.53-1.92-2.96-5.02-5.32-5.96-8.7-.67-2.33-.35-4.9-1.44-7.08-.69-1.02-1.29-2.11-1.77-3.25-.32-1.2.37-2.81,1.67-2.78.52.05,1,.27,1.39.62,1.36,1.09,2.43,2.51,3.11,4.12.1.25.25.55.54.57.18-.03.35-.11.47-.25,1-1.14,1.72-2.49,2.12-3.95,2.14-6.14,3.86-12.43,6.41-18.4.59-2,1.97-3.67,3.83-4.62.34-.13.72-.13,1.05,0,.74.33.69,1.37.49,2.14-.67,2.36-1.81,4.55-2.63,6.84-.96,2.26-1.19,4.77-.64,7.16.98-.16,1.86-.66,2.51-1.41,1.8-1.69,3.84-3.11,6.06-4.2,2.23-1.09,4.75-1.46,7.19-1.05.62.12,1.34.38,1.46,1s-.87,1.41-1.67,1.67c-1.88.37-3.7.96-5.44,1.77-1.75.86-3.01,2.47-3.43,4.37,1.81-1.35,3.8-2.43,5.91-3.23.99-.41,2.04-.66,3.11-.74,1.07-.06,2.13.27,2.98.92.2.18.4.45.3.69-.08.12-.19.22-.32.28-1.48.81-3.02,1.53-4.6,2.14-.81.26-1.58.65-2.28,1.15-.7.53-1.04,1.41-.87,2.28,1.88-.88,3.89-1.45,5.96-1.67.87-.11,1.74.16,2.39.74.13.16.23.34.28.54.13.74-.84,1.12-1.54,1.47Z"/><path class="cls-13_augmented-reality-1-18" d="M394.39,244.96c-.25,1.39-.52,2.71-.82,3.98-.65,2.74-.28,5.67-1.97,7.93-1.78,2.19-3.93,4.05-6.34,5.5-9.61,6.47-20,11.69-30.94,15.51-2.49.94-5.07,1.59-7.71,1.92v-12.5l8-15.89s1.67,18.14,3.11,18.79,32.58-15.93,33.01-16.15c1.37-2.97,2.6-6.01,3.66-9.1Z"/><path class="cls-12_augmented-reality-1-18" d="M354.6,251.42c-.99,7.61-1.67,14.67-2.69,22.3.18,3.91-2.42,7.4-6.21,8.37l-12.93,5.66c-1.13.41-2.17,1.04-3.06,1.84-.9,1.08-1.56,2.34-1.94,3.7-7.55,20.26-24.28,36.72-28.69,57.89-.97,4.7-1.31,9.5-2.07,14.25-.13,1.93-.87,3.77-2.11,5.25-.31.31-.67.58-1.05.8-1.22.65-2.55,1.09-3.92,1.31-12,2.61-24.14,5.24-36.42,4.92s-24.9-3.93-33.88-12.31c-.37-.28-.64-.68-.77-1.12-.05-.52.07-1.05.35-1.49,6.92-13.96,11.76-28.85,14.39-44.2.21-.74.16-1.53-.15-2.24-.09-.14-.19-.27-.3-.38-.3-.29-.65-.53-1.02-.72-2.18-1.25-1.97-3.85-3.83-5.54-2.62-2.38-5.01-5.01-7.13-7.85-.65-.7-1.02-1.61-1.05-2.56.16-.84.57-1.61,1.19-2.21,7.34-8.76,13.75-18.25,19.12-28.33,2.18-4.1,4.35-8.48,8.2-11.09,3.45-2,7.32-3.14,11.29-3.35,13.09-1.56,26.29-1.85,39.44-.87,3.73.39,7.48.56,11.23.52,4.77-.18,9.45-1.2,14.19-1.84,9.91-1.07,19.9-1.31,29.85-.7Z"/><path class="cls-6_augmented-reality-1-18" d="M293.84,371.5c-1.22.65-2.55,1.09-3.92,1.31-12,2.61-24.14,5.24-36.42,4.92-12.28-.32-24.9-3.93-33.88-12.31-.37-.28-.64-.68-.77-1.12-.05-.52.07-1.05.35-1.49,6.92-13.96,11.76-28.85,14.39-44.2.21-.74.16-1.53-.15-2.24-.09-.14-.19-.27-.3-.38,9.14-7.36,22.32-15.16,27.14-21.06-1.67,8.77-4.15,17.45-6.24,26.13-.6,2.48-1.19,5.17-.17,7.51,1.17,2.64,4.02,4.02,6.31,5.77,6.83,5.24,9.25,14.49,15.39,20.51,2.19,2.12,10.37,9.2,18.27,16.66Z"/><path class="cls-14_augmented-reality-1-18" d="M328.44,242.07c-1.06,1.24-2.45,2.16-4.02,2.64-.49.18-1,.35-1.51.52-2.01.49-3.85,1.53-5.32,2.99-1.87,2.33-3.04,5.14-3.35,8.11-.3,3.08.27,6.37-1.15,9.12-.32.63-.75,1.2-1.27,1.67h0l-.1.08c-.69.53-1.49.9-2.34,1.09-3.52.89-7.24.51-10.51-1.05-3.25-1.56-6.14-3.77-8.5-6.49-2.14-2.12-3.65-4.79-4.35-7.71,2.64-5.44,3.95-11.42,3.83-17.47-.27-4.25-2.33-8.15-3.35-12.3-2.55-11.85,3.5-23.87,14.52-28.89,2.71-1.26,5.73-1.68,8.68-1.22,3.71,1.05,6.96,3.33,9.22,6.46,3.81,4.82,6.53,10.42,7.96,16.4,1.06,4.12,1.84,8.31,2.33,12.53l.45,3.7c.45,3.33.79,7.08-1.24,9.82Z"/><path class="cls-11_augmented-reality-1-18" d="M291.14,216.7c.53,2.67,1.55,5.21,3.03,7.5-.92.38-1.98.21-2.74-.44-.75-.64-1.44-1.34-2.07-2.09-.42-.56-1.12-.83-1.81-.69-.7.28-.84,1.2-.77,1.96.41,2.38,1.1,4.71,2.06,6.93.97,2.24,1.05,4.77.2,7.06-2.71.12-4.73-2.39-6.27-4.63l-4.47-6.36c-1.22-1.54-2.09-3.34-2.54-5.25-.42-2.66.79-5.27,1.67-7.81,1.37-3.85,2.12-7.95,4.02-11.58,2.39-4.28,5.89-7.84,10.14-10.29,4.22-2.45,8.66-4.51,13.25-6.16,2.07-1.3,4.78-.98,6.47.79l5.02,3.81c2.44,1.86,5.02,3.97,5.72,6.96.37,1.67-.17,3.7-1.77,4.12-1.19.09-2.37-.23-3.35-.9-5.63-2.57-12.28-1.01-16.18,3.78-1.92,2.49-3.05,4.85-5.97,6.26-2.75,1.16-4.28,4.13-3.63,7.04Z"/><path class="cls-13_augmented-reality-1-18" d="M324.42,244.71c-2.48.94-5.25,1.56-6.83,3.51-1.87,2.33-3.04,5.14-3.35,8.11-.3,3.08.27,6.37-1.15,9.12-.32.63-.75,1.2-1.27,1.67h0c-2.94.43-5.68-1.61-6.11-4.55-.05-.35-.07-.7-.05-1.05.27-2.06,1.67-3.75,2.64-5.62,1.38-2.74,1.67-5.89.8-8.83-.62-2.11-4.2-5.02-3.11-6.96-.55.97,9.5,6.32,18.42,4.6Z"/><path class="cls-14_augmented-reality-1-18" d="M220.2,299.55c-1.27.42-1.67,1.32-2.96,2.91-6.2,8.2-10.93,17.43-13.95,27.26-.51,1.15-.51,2.46,0,3.61.67.83,1.6,1.42,2.64,1.67,10.21,3.75,18,11.96,27.12,17.87,6.08,3.8,12.59,6.86,19.39,9.12,7.4,2.59,15.06,4.63,22.3,7.53,2.71,1.07,5.02,2.16,7.81,3.01,3.14.72,5.94,2.49,7.95,5.02.81,1.44,1.69,2.83,2.66,4.17,1.31,1.27,2.87,2.24,4.58,2.86,6.31,2.59,12.37,5.76,18.1,9.47,1.13.82,2.34,1.53,3.61,2.09.84-.94,0-2.38-.7-3.35l-5.86-7.58c2.99-.32,5.87,1.15,8.37,2.69,2.44,1.79,5.26,3.01,8.23,3.56.28-2.53-2.51-3.88-4.05-5.3l-6.37-5.94c-.35-.27-.61-.63-.75-1.04,4.56-.07,9.09.68,13.38,2.23,1.16.61,2.5.78,3.78.5.18-.06.34-.17.45-.32.2-.33,0-.74-.25-1.04-1.05-1.1-2.35-1.91-3.8-2.38-3.76-1.51-7.62-2.77-11.54-3.76,2.16-.72,4.41-1.15,6.69-1.25,1.91-.1,4.3.7,6.12.18.9-.2,1.51-1.04,1.42-1.96-7.2-2.29-14.68-3.59-22.24-3.86l4.23-5.02c.42-.41.72-.91.89-1.47.28-1.42-1.36-2.63-2.79-2.49-1.42.3-2.73,1.02-3.73,2.07-2.66,2.28-5.67,4.58-9.15,4.65-3.06,0-5.84-1.67-8.37-3.25l-11.11-6.98c-5.67-3.58-11.36-7.14-16.73-11.08-8.58-6.21-16.73-13.38-26.52-17.35,2.29-4.4,4.21-8.99,5.74-13.72.31-.74.41-1.55.3-2.34-.35-1.04-1.08-1.91-2.04-2.44-4.16-3.03-8.73-5.45-13.59-7.18-2.43-1.03-5.04-1.59-7.68-1.67-.55.03-1.09.12-1.61.28Z"/><path class="cls-15_augmented-reality-1-18" d="M323.35,214.46l2.79.97c.49.11.93.41,1.2.84.14.49.07,1.01-.18,1.46-.71,1.52-1.73,2.88-2.98,4-.17.18-.38.31-.62.38-.6.17-1.15-.37-1.54-.85-.85-.99-1.65-2.03-2.39-3.11-.7-1.07-1.91-3.03-.97-4.3s3.51.2,4.68.62Z"/><path class="cls-13_augmented-reality-1-18" d="M328.44,242.07c-1.06,1.24-2.45,2.16-4.02,2.64-.49.18-1,.35-1.51.52-.26-.05-.51-.16-.74-.3.42-.47.82-.95,1.25-1.42.8-.87,1.51-1.83,2.12-2.84,1.67-3.11,1.34-6.91,1.81-10.44.13-.79.22-1.59.25-2.39-.02-.77-.13-1.54-.32-2.29-.27-1.32-.84-2.55-1.67-3.61-.74-.85-2.54-1.15-1.94-2.36.77-1.41,1.85-2.64,3.16-3.58,1.06,4.12,1.84,8.31,2.33,12.53l.45,3.7c.5,3.36.84,7.11-1.19,9.85Z"/><path class="cls-16_augmented-reality-1-18 targetColor" d="M319.58,200.94c-2.07.94-4.09,2.01-6.02,3.21-6.41,3.61-13.5,5.91-19.81,9.69-.84.43-1.6.99-2.24,1.67-.77,1.23-1.39,2.54-1.86,3.92-1.25,2.49-3.71,4.13-5.79,6.02-2.07,1.89-3.92,4.58-3.35,7.31.25.93.64,1.81,1.17,2.61.95,1.67,1.94,3.35,2.96,4.89.57,1.16,1.52,2.09,2.69,2.63,1.84.6,3.68-.75,5.29-1.86,2.2-1.49,4.62-2.62,7.18-3.35,1.79-.43,3.55-.99,5.25-1.67,2.89-1.34,10.96-13.92,15.54-17.08,2.78-1.91,11.03,0,11.91-1.22,1.15-1.67,5.82-10.14,4.75-11.85-1.34-2.14-8.83-3.75-10.88-5.3-2.04-1.56-4.9-.42-6.81.38Z" style="fill: rgb(104, 225, 253);"/><path class="cls-9_augmented-reality-1-18" d="M319.58,203.22c-1.85.02-3.68.3-5.45.82-2.65,1.05-5.22,2.26-7.71,3.65-2.73,1.22-5.47,2.39-8.15,3.7-1.54.77-3.08,1.57-4.55,2.46-.84.43-1.6.99-2.24,1.67-.77,1.23-1.39,2.54-1.86,3.92-1.25,2.49-3.71,4.13-5.79,6.02-2.07,1.89-3.92,4.58-3.35,7.31.25.93.64,1.81,1.17,2.61.95,1.67,1.94,3.35,2.96,4.89.57,1.16,1.52,2.09,2.69,2.63,1.84.6,3.68-.75,5.29-1.86,2.2-1.49,4.62-2.62,7.18-3.35,2.21-.65,4.48-.9,6.26-2.49,1.68-1.66,3.22-3.44,4.62-5.34,2.63-3.35,5.52-6.41,8.37-9.5.44-.52.95-.98,1.52-1.36.4-.23.83-.4,1.27-.5,2.94-.77,6.07.25,9.09-.15.56-.05,1.1-.24,1.56-.57.26-.24.47-.53.62-.85.74-1.51,4.57-9.39,4.13-10.99s-5.02,3.03-5.87,1.57c-.21-.41-.47-.8-.79-1.14-.26-.24-.55-.45-.87-.6-3.08-1.72-6.56-2.6-10.09-2.54Z"/><path class="cls-16_augmented-reality-1-18 targetColor" d="M305.58,208.47c-2.29,1.18-4.19,3-5.47,5.24-.82,2.2-.95,4.6-.37,6.88.3,2.03,1.04,3.98,2.18,5.69,1.14,1.75,3.04,2.86,5.12,3.01,2.24-.12,4.32-1.18,5.72-2.93,1.49-1.67,2.58-3.58,4-5.29,2.47-2.95,5.8-5.05,9.52-6.01,2.64-.67,5.54-.77,7.78-2.31,2.95-2.27,3.99-6.25,2.53-9.67-1.12-2.45-3.17-4.35-5.71-5.27-2.96-1.15-5.02.1-7.7,1.32-6.09,2.68-11.97,5.8-17.6,9.34Z" style="fill: rgb(104, 225, 253);"/><path class="cls-16_augmented-reality-1-18 targetColor" d="M324.42,186.8s-45.34,7.88-54.93,37.7c0,0-2.51,10.27,10.99,8.37l1.05-2.24s-8.37.89-8.37-2.49,3.7-24.49,51.31-37.23l-.07-4.1Z" style="fill: rgb(104, 225, 253);"/><path class="cls-10_augmented-reality-1-18" d="M324.42,186.8s-45.34,7.88-54.93,37.7c0,0-2.51,10.27,10.99,8.37l1.05-2.24s-8.37.89-8.37-2.49,3.7-24.49,51.31-37.23l-.07-4.1Z"/></g><g id="model_augmented-reality-1-18"><polygon class="cls-4_augmented-reality-1-18 targetColor" points="367.97 110.34 349.93 174.56 429.98 164.87 447.56 103.46 367.97 110.34" style="fill: rgb(104, 225, 253);"/><polygon class="cls-3_augmented-reality-1-18 targetColor" points="389.04 222.79 349.93 174.56 429.98 164.87 466.7 221.6 389.04 222.79" style="fill: rgb(104, 225, 253);"/><polygon class="cls-5_augmented-reality-1-18 targetColor" points="486.66 151.98 447.56 103.75 429.98 164.87 466.7 221.6 486.66 151.98" style="fill: rgb(104, 225, 253);"/><polygon class="cls-4_augmented-reality-1-18 targetColor" points="422.2 273.7 413.45 304.86 452.3 300.16 460.83 270.36 422.2 273.7" style="fill: rgb(104, 225, 253);"/><polygon class="cls-3_augmented-reality-1-18 targetColor" points="432.42 328.26 413.45 304.86 452.3 300.16 470.12 327.7 432.42 328.26" style="fill: rgb(104, 225, 253);"/><polygon class="cls-5_augmented-reality-1-18 targetColor" points="479.8 293.9 460.83 270.49 452.3 300.16 470.12 327.7 479.8 293.9" style="fill: rgb(104, 225, 253);"/></g></svg>