<?xml version='1.0' encoding='utf-8'?>
<svg xmlns:xlink="http://www.w3.org/1999/xlink" xmlns="http://www.w3.org/2000/svg" width="434.40942mm" height="434.46472mm" viewBox="0 0 434.40942 434.46472" version="1.1" id="svg8"> <defs id="defs2"> <linearGradient id="linearGradient9305"> <stop style="stop-color:#de0000;stop-opacity:1" offset="0" id="stop9301"/> <stop style="stop-color:#ffff24;stop-opacity:1" offset="1" id="stop9303"/> </linearGradient> <linearGradient xlink:href="#linearGradient9305" id="linearGradient12419" gradientUnits="userSpaceOnUse" gradientTransform="translate(127.31814,3086.1929)" x1="-469.75732" y1="-126.5603" x2="-314.11618" y2="-126.5603"/> <linearGradient xlink:href="#linearGradient9305" id="linearGradient12421" gradientUnits="userSpaceOnUse" gradientTransform="rotate(30,-5962.9651,1654.115)" x1="-469.75732" y1="-126.5603" x2="-314.11618" y2="-126.5603"/> <linearGradient xlink:href="#linearGradient9305" id="linearGradient12423" gradientUnits="userSpaceOnUse" gradientTransform="rotate(60,-2876.7722,1526.7969)" x1="-469.75732" y1="-126.5603" x2="-314.11618" y2="-126.5603"/> <linearGradient xlink:href="#linearGradient9305" id="linearGradient12425" gradientUnits="userSpaceOnUse" gradientTransform="rotate(90,-1747.1472,1480.1952)" x1="-469.75732" y1="-126.5603" x2="-314.11618" y2="-126.5603"/> <linearGradient xlink:href="#linearGradient9305" id="linearGradient12427" gradientUnits="userSpaceOnUse" gradientTransform="rotate(120,-1094.9579,1453.2897)" x1="-469.75732" y1="-126.5603" x2="-314.11618" y2="-126.5603"/> <linearGradient xlink:href="#linearGradient9305" id="linearGradient12429" gradientUnits="userSpaceOnUse" gradientTransform="rotate(150,-617.52224,1433.5935)" x1="-469.75732" y1="-126.5603" x2="-314.11618" y2="-126.5603"/> <linearGradient xlink:href="#linearGradient9305" id="linearGradient12431" gradientUnits="userSpaceOnUse" gradientTransform="rotate(180,-204.0508,1416.5361)" x1="-469.75732" y1="-126.5603" x2="-314.11618" y2="-126.5603"/> <linearGradient xlink:href="#linearGradient9305" id="linearGradient12433" gradientUnits="userSpaceOnUse" gradientTransform="rotate(-150,209.42064,1399.4787)" x1="-469.75732" y1="-126.5603" x2="-314.11618" y2="-126.5603"/> <linearGradient xlink:href="#linearGradient9305" id="linearGradient12435" gradientUnits="userSpaceOnUse" gradientTransform="rotate(-120,686.85634,1379.7825)" x1="-469.75732" y1="-126.5603" x2="-314.11618" y2="-126.5603"/> <linearGradient xlink:href="#linearGradient9305" id="linearGradient12437" gradientUnits="userSpaceOnUse" gradientTransform="rotate(-90,1339.0456,1352.8771)" x1="-469.75732" y1="-126.5603" x2="-314.11618" y2="-126.5603"/> <linearGradient xlink:href="#linearGradient9305" id="linearGradient12439" gradientUnits="userSpaceOnUse" gradientTransform="rotate(-60,2468.6706,1306.2754)" x1="-469.75732" y1="-126.5603" x2="-314.11618" y2="-126.5603"/> <linearGradient xlink:href="#linearGradient9305" id="linearGradient12441" gradientUnits="userSpaceOnUse" gradientTransform="rotate(-30,5554.8635,1178.9572)" x1="-469.75732" y1="-126.5603" x2="-314.11618" y2="-126.5603"/> <filter style="color-interpolation-filters:sRGB" id="filter1870" x="-0.0084144706" y="-0.0084155612" width="1.0168289" height="1.0168312"> <feGaussianBlur stdDeviation="1.4980359" id="feGaussianBlur1872"/> </filter> </defs> <metadata id="metadata5"> </metadata> <g id="layer1" transform="translate(-2739.5342,1299.8199)"> <g id="g835" transform="rotate(-90,-84.203646,153.99273)"> <g id="g1933" transform="translate(92.274326,1730.2356)"> <g id="g1902"> <g id="g1842" transform="translate(1200.5469,-1494.8958)" style="fill:#ffffff;fill-opacity:1;stroke:none;stroke-width:6.52992;stroke-dasharray:none;stroke-opacity:1;filter:url(#filter1870)"> <path style="opacity:1;fill:#ffffff;fill-opacity:1;stroke:none;stroke-width:6.52992;stroke-linecap:round;stroke-linejoin:round;stroke-miterlimit:4;stroke-dasharray:none;stroke-opacity:1" d="m -250.48438,2921.1074 -0.71093,0 c 0.14975,-0.01 0.2993,0.029 0.44922,0.025 0.0911,0 0.17033,-0.032 0.26171,-0.029 z m -0.26171,0.029 c -7.77576,-0.1506 -14.261,3.8862 -18.29688,9.6543 -3.22889,-3.6749 -7.49288,-6.4723 -12.93164,-7.4297 -2.09343,-0.4374 -4.21134,-0.6087 -6.28711,-0.5468 -12.76681,-0.1087 -23.30407,9.98 -25.42187,21.6933 -3.54729,-1.6412 -7.49676,-2.639 -11.89649,-2.4707 -21.48384,-0.094 -36.64792,25.764 -23.74609,43.8594 11.83017,18.313 42.06594,15.5647 49.5,-5.3008 1.17737,-2.9304 1.6627,-5.9463 1.83008,-8.9609 10.65994,4.3347 23.83892,2.0369 30.61523,-8.6973 0.52397,-0.7139 0.83188,-1.5235 1.26758,-2.2793 7.43034,7.378 19.55777,9.1195 28.54883,3.4531 0.91988,2.4765 2.16968,4.8553 4.16406,6.916 5.30593,6.0607 12.86659,7.5469 19.80859,6.002 0.25367,5.3833 2.57082,10.6552 7.67969,14.1973 13.61095,10.6015 34.26541,-2.0686 30.30469,-19.1094 -1.79107,-8.918 -9.93682,-15.769 -19.20313,-15.6934 -0.6106,-0.013 -1.18879,0.046 -1.77539,0.088 -0.009,-0.2473 0.0166,-0.482 -0.002,-0.7324 -0.53069,-11.6101 -10.82757,-20.4479 -21.92969,-20.3418 -3.28867,-0.065 -6.28103,0.6376 -8.89844,1.9258 -2.05794,-6.7506 -6.9652,-12.6079 -14.46875,-14.8477 -2.8448,-0.9845 -5.86146,-1.4514 -8.86132,-1.3789 z m 8.86132,1.3789 c 0.14062,0.049 0.29194,0.06 0.43165,0.1114 l -0.66993,-0.2188 c 0.0875,0.025 0.15147,0.082 0.23828,0.1074 z m 23.36719,12.9219 c 0.10436,0 0.19973,-0.017 0.30469,-0.014 l -0.53125,-0 c 0.0765,-0 0.15017,0.018 0.22656,0.018 z m 21.92969,20.3418 c 0.003,0.074 0.0286,0.1421 0.0312,0.2168 l -0.0312,-0.5117 c 0.009,0.1013 -0.007,0.1941 0,0.2949 z m 1.77734,0.6445 c 0.10815,0 0.20557,-0.02 0.31446,-0.016 l -0.58594,-0 c 0.0921,-0 0.17957,0.02 0.27148,0.019 z m 19.20313,15.6934 c 0.0183,0.091 0.0573,0.1742 0.0742,0.2656 l -0.125,-0.5742 c 0.0261,0.1047 0.0265,0.2042 0.0508,0.3086 z m -30.30469,19.1094 c -0.15321,-0.1194 -0.31738,-0.2009 -0.46875,-0.3262 l 0.85547,0.6308 c -0.14207,-0.093 -0.24857,-0.2089 -0.38672,-0.3046 z m -27.48828,-20.1993 c -0.0972,-0.111 -0.20905,-0.1926 -0.30469,-0.3066 l 0.61719,0.668 c -0.11629,-0.1146 -0.19982,-0.2449 -0.3125,-0.3614 z m -33.98047,-8.0898 c -0.0401,0.055 -0.0571,0.1195 -0.0977,0.1738 l 0.61719,-0.9355 c -0.15817,0.2732 -0.3534,0.4985 -0.51953,0.7617 z m -32.44531,17.6582 c -0.0252,0.063 -0.0251,0.1289 -0.0508,0.1914 l 0.20898,-0.5586 c -0.0439,0.1296 -0.11253,0.239 -0.1582,0.3672 z m -49.5,5.3008 c -0.0658,-0.1019 -0.14824,-0.184 -0.21289,-0.2871 l 0.39062,0.5742 c -0.0684,-0.093 -0.11089,-0.1934 -0.17773,-0.2871 z m 23.74609,-43.8594 c 0.1,4e-4 0.19468,-0.019 0.29492,-0.018 l -0.63281,0.012 c 0.11554,-0.01 0.22285,0.01 0.33789,0.01 z m 37.31836,-19.2226 c 0.14162,0 0.27782,-0.023 0.41992,-0.02 l -0.59961,0 c 0.0593,-0 0.12037,0.017 0.17969,0.016 z m 6.28711,0.5468 c 0.052,0.011 0.10426,0 0.15625,0.014 l -0.49609,-0.094 c 0.11802,0.019 0.22278,0.06 0.33984,0.08 z m 10.92188,30.1992 c 0.10003,0.2462 0.27697,0.4279 0.38476,0.668 0.11131,0.2017 0.13713,0.4192 0.25586,0.6192 z m -40.01954,6.6348 c 0.0329,0.063 0.0877,0.1056 0.1211,0.168 0.10579,0.1758 0.17391,0.3584 0.28515,0.5332 z m 78.10352,0.039 -0.99805,0.9648 c 0.17278,-0.1445 0.26488,-0.336 0.43164,-0.4844 0.17588,-0.1834 0.39537,-0.2892 0.56641,-0.4804 z" id="path1816"/> <path style="opacity:1;fill:#ffffff;fill-opacity:1;stroke:none;stroke-width:6.52992;stroke-linecap:round;stroke-linejoin:round;stroke-miterlimit:4;stroke-dasharray:none;stroke-opacity:1" d="m -306.78711,2848.2969 -0.55469,0.01 c 0.0732,-0 0.14748,0.013 0.22071,0.01 0.11278,-4e-4 0.22088,-0.021 0.33398,-0.02 z m -0.33398,0.02 c -19.07183,0.064 -33.58915,21.5535 -24.8711,39.1152 7.67506,17.8855 33.73334,22.572 46.48828,7.3555 0.99786,-1.0372 1.7148,-2.2313 2.50782,-3.3848 7.58856,10.0023 22.23457,13.2201 33.1582,6.3672 1.2805,5.256 4.3053,10.083 9.42187,13.334 4.29086,2.9199 9.12581,3.9671 13.86719,3.6699 -1.33176,7.3509 0.69935,15.2377 7.61328,20.2188 1.9943,1.6277 4.18919,2.6456 6.45313,3.375 -3.58543,7.877 -2.45649,17.8951 5.73828,23.6152 13.34559,10.606 33.65805,-1.6729 30.34375,-18.4648 -0.97639,-6.3616 -5.30474,-11.8727 -11.08984,-14.5879 1.88723,-3.2116 2.92437,-6.9936 2.60742,-11.2109 -0.45138,-10.3335 -8.71885,-19.6808 -19.4043,-20.6543 0.746,-3.1234 0.78281,-6.508 -0.12891,-10.0489 -2.58089,-11.1465 -13.12762,-19.2691 -24.56836,-18.9062 -3.14078,0.032 -5.95346,0.7373 -8.47265,1.8828 -1.33496,-6.1039 -4.88907,-11.6958 -10.89063,-15.1777 -4.54948,-2.8909 -9.93924,-4.379 -15.28711,-4.2813 -8.00211,-0.1841 -14.79208,3.7771 -19.30078,9.543 -3.07935,-4.6024 -7.45469,-8.3614 -13.33593,-10.1719 -3.51104,-1.2176 -7.2193,-1.7351 -10.84961,-1.5879 z m 10.84961,1.5879 c 0.065,0.023 0.13436,0.026 0.19921,0.049 l -0.50195,-0.1621 c 0.10585,0.031 0.19774,0.081 0.30274,0.1133 z m 32.63671,0.6289 c 0.0665,0 0.12478,-0.024 0.19141,-0.021 l -0.63476,0 c 0.14774,-0.01 0.2955,0.022 0.44335,0.019 z m 15.28711,4.2813 c 0.12075,0.077 0.25548,0.1283 0.375,0.207 l -0.5332,-0.3281 c 0.0602,0.034 0.0984,0.086 0.1582,0.1211 z m 19.36328,13.2949 c 0.0643,-7e-4 0.12098,-0.017 0.18555,-0.018 l -0.35547,0.01 c 0.0574,-0 0.11257,0.012 0.16992,0.01 z m 24.56836,18.9062 c 0.0147,0.063 0.0445,0.1202 0.0586,0.1836 l -0.0977,-0.3984 c 0.0195,0.073 0.0204,0.1421 0.0391,0.2148 z m 19.53321,30.7032 c 0.004,0.081 0.0287,0.1576 0.0312,0.2382 l -0.0352,-0.5703 c 0.0104,0.1137 -0.005,0.2189 0.004,0.3321 z m 8.48242,25.7988 c 0.0187,0.1217 0.0678,0.2351 0.084,0.3574 l -0.14843,-0.8301 c 0.0358,0.1603 0.033,0.3131 0.0645,0.4727 z m -30.34375,18.4648 c -0.16873,-0.1341 -0.34921,-0.2277 -0.51563,-0.3691 l 0.94727,0.709 c -0.15859,-0.1042 -0.27793,-0.2326 -0.43164,-0.3399 z m -12.19141,-26.9902 c -0.15577,-0.1272 -0.32506,-0.2186 -0.47851,-0.3516 l 0.86133,0.666 c -0.14103,-0.097 -0.24551,-0.2155 -0.38282,-0.3144 z m -21.48047,-23.8887 c -0.0795,-0.054 -0.16501,-0.087 -0.24414,-0.1426 l 0.44532,0.293 c -0.0734,-0.046 -0.12858,-0.1043 -0.20118,-0.1504 z m -45.08789,-16.3164 c -0.0476,0.05 -0.071,0.1129 -0.11914,0.1621 l 0.69532,-0.7949 c -0.17968,0.2296 -0.39076,0.4116 -0.57618,0.6328 z m -46.48828,-7.3555 c -0.0579,-0.135 -0.13754,-0.2541 -0.19336,-0.3906 l 0.36133,0.7813 c -0.0665,-0.1286 -0.10393,-0.2617 -0.16797,-0.3907 z m 45.53516,-2.1562 c 0.0754,0.204 0.21456,0.3617 0.29492,0.5625 0.0834,0.1712 0.0955,0.3532 0.18359,0.5234 z m 40.02734,10.1426 -1.08203,0.8496 c 0.19432,-0.1311 0.32257,-0.3192 0.51172,-0.4551 0.18066,-0.1545 0.39278,-0.2334 0.57031,-0.3945 z m 40.07227,1.457 c -0.0898,-9e-4 -0.17044,0.019 -0.25977,0.019 -0.0655,0 -0.12579,-0.016 -0.1914,-0.014 z m 10.77734,30.2383 c -0.11091,-0 -0.21018,0.024 -0.32031,0.025 -0.0875,0 -0.17015,-0.018 -0.25781,-0.014 z" id="path1818"/> <path style="opacity:1;fill:#ffffff;fill-opacity:1;stroke:none;stroke-width:6.52992;stroke-linecap:round;stroke-linejoin:round;stroke-miterlimit:4;stroke-dasharray:none;stroke-opacity:1" d="m -243.53711,2776.457 c 0.0582,-0 0.11371,0.019 0.17188,0.018 0.12599,0 0.24456,-0.019 0.37109,-0.016 z m 0.17188,0.018 c -20.09101,-0.3341 -33.20801,22.5259 -24.10743,39.916 6.372,14.523 24.36327,19.2857 37.72266,12.8457 0.52372,4.7907 2.32945,9.4533 5.70117,13.3614 5.16047,6.4092 12.67025,9.0146 20.1211,8.6738 -2.36522,8.5474 -0.45866,18.1285 7.60351,24.0234 1.12297,0.9352 2.36818,1.6015 3.60742,2.2774 -6.0791,7.5953 -7.24335,19.048 0.1211,27.1523 0.0558,0.07 0.11928,0.1298 0.17578,0.1992 -0.002,0 -0.005,0 -0.008,0 0.0763,0.082 0.12899,0.1729 0.20703,0.2539 l -0.21289,-0.25 c -9.21811,6.7196 -11.69149,21.6076 -1.95703,30.1368 12.26337,11.9959 33.44601,1.6396 32.15234,-15.2754 -0.12001,-3.8233 -1.45046,-7.4244 -3.63672,-10.4082 4.77378,-2.6932 8.51009,-7.197 9.72852,-13.2403 2.21461,-8.6889 -1.50801,-17.8044 -8.47461,-22.75 3.14044,-3.2153 5.3908,-7.3408 5.89453,-12.4355 1.77138,-12.726 -7.4651,-25.8683 -20.69727,-27.2754 0.74185,-2.4465 1.07372,-5.0998 0.91016,-7.9297 -0.55672,-14.2373 -13.1188,-25.9218 -27.31641,-25.5605 -3.01634,0 -5.78574,0.5963 -8.32422,1.5878 -0.99976,-9.291 -6.43113,-18.1178 -15.58984,-22.2089 -4.16924,-2.0655 -8.85455,-3.1892 -13.62109,-3.0977 z m 13.62109,3.0977 c 0.0941,0.047 0.20335,0.06 0.29687,0.1074 l -0.53125,-0.25 c 0.0864,0.037 0.14863,0.1043 0.23438,0.1426 z m 23.91406,20.6211 c 0.0738,-2e-4 0.1408,-0.016 0.21485,-0.016 l -0.37696,0 c 0.055,-0 0.10714,0.013 0.16211,0.012 z m 27.31641,25.5605 c 0.002,0.043 0.0161,0.083 0.0176,0.127 l -0.0137,-0.295 c 0.004,0.058 -0.007,0.1103 -0.004,0.168 z m 19.78711,35.2051 c -0.0107,0.077 0.004,0.1537 -0.008,0.2305 l 0.0762,-0.668 c -0.012,0.1515 -0.0535,0.2874 -0.0684,0.4375 z m 2.58008,35.1855 c -0.0236,0.093 -0.0161,0.1868 -0.041,0.2793 l 0.19727,-0.9023 c -0.0367,0.2171 -0.11324,0.4097 -0.15625,0.623 z m -6.0918,23.6485 c 0.004,0.1114 0.0377,0.2163 0.0391,0.3281 l -0.0527,-0.8906 c 0.0204,0.1923 -9.1e-4,0.3718 0.0137,0.5625 z m -32.15234,15.2754 c -0.12453,-0.1218 -0.26213,-0.2095 -0.38477,-0.336 l 0.76758,0.711 c -0.14208,-0.1177 -0.24561,-0.2548 -0.38281,-0.375 z m 1.95703,-30.1368 c 0.002,-0 0.004,-0 0.006,-0 -0.0614,-0.066 -0.10775,-0.1368 -0.16797,-0.2031 -0.13379,-0.1689 -0.28819,-0.3056 -0.41797,-0.4805 z m -3.89063,-29.6367 c -0.0779,-0.065 -0.17278,-0.092 -0.25,-0.1582 l 0.85156,0.6485 c -0.22177,-0.1506 -0.38832,-0.3344 -0.60156,-0.4903 z m -27.72461,-32.6972 c -0.0518,-0.064 -0.11465,-0.1107 -0.16601,-0.1758 l 0.35156,0.4219 c -0.0694,-0.078 -0.11737,-0.1671 -0.18555,-0.2461 z m -43.42383,-26.2071 c -0.0246,-0.056 -0.0675,-0.096 -0.0918,-0.1523 l 0.46875,0.9433 c -0.14684,-0.2587 -0.24022,-0.5297 -0.37696,-0.791 z m 45.50391,7.3828 -0.76563,0.7325 c 0.23175,-0.1985 0.41639,-0.4247 0.63868,-0.6289 0.0385,-0.041 0.0887,-0.063 0.12695,-0.1036 z m 39.61914,9.6387 c -0.0566,8e-4 -0.10763,0.014 -0.16406,0.016 -0.0364,0 -0.069,-0.01 -0.10547,-0.01 z m 6.20117,36.2481 c -0.14917,-0 -0.28737,0.024 -0.43554,0.023 -0.0746,0 -0.14002,-0.023 -0.21485,-0.019 z m -5.11914,31.8046 c -0.16213,-0 -0.31009,0.027 -0.4707,0.027 -0.098,0 -0.19081,-0.021 -0.28906,-0.016 z" id="path1820"/> <path style="opacity:1;fill:#ffffff;fill-opacity:1;stroke:none;stroke-width:6.52992;stroke-linecap:round;stroke-linejoin:round;stroke-miterlimit:4;stroke-dasharray:none;stroke-opacity:1" d="m -151.73242,2745.9902 -0.4375,0 c 0.0543,-0 0.10399,0.015 0.1582,0.014 0.0954,2e-4 0.18354,-0.019 0.2793,-0.018 z m -0.2793,0.018 c -22.18887,-0.043 -34.768,27.5145 -21.61719,44.7852 5.09028,7.3468 13.11186,10.9302 21.30274,11.25 -4.00676,9.6019 -2.83404,21.2542 6.09765,28.6425 1.45534,1.3481 3.06039,2.4608 4.75,3.3965 -6.81095,7.0294 -9.50504,17.8489 -3.94921,27.1426 0.20817,0.4137 0.53452,0.7207 0.76562,1.1152 -9.55027,3.5568 -15.2446,14.0408 -13.34766,23.9903 -16.97401,0.8959 -24.38531,23.9959 -10.41211,34.4316 13.35497,10.9777 33.30419,-1.6572 31.19532,-17.5937 8.27985,-0.2386 16.45159,-4.9483 19.48828,-13.5489 2.44914,-5.7533 1.86353,-11.7751 -0.63086,-16.8554 4.79433,-1.3084 9.1753,-4.1092 12.16992,-8.8203 7.642075,-10.767 4.70868,-25.8188 -4.98633,-33.0372 3.16707,-2.8786 5.57411,-6.6745 6.70899,-11.3847 4.08958,-14.4683 -5.70846,-30.837 -20.66016,-33.2676 0.81949,-1.8486 1.487,-3.8056 1.85547,-5.9492 3.44826,-17.344 -10.88166,-34.7779 -28.73047,-34.2969 z m 28.73047,34.2969 c -0.01,0.05 -0.002,0.099 -0.0117,0.1484 l 0.0723,-0.3906 c -0.0137,0.085 -0.0461,0.158 -0.0606,0.2422 z m 18.80469,39.2168 c -0.0171,0.061 -0.0117,0.1232 -0.0293,0.1836 l 0.15625,-0.6055 c -0.0327,0.1475 -0.0918,0.2761 -0.12695,0.4219 z m -1.72266,44.4219 c -0.0874,0.1231 -0.1188,0.2666 -0.20898,0.3886 l 0.48828,-0.7246 c -0.0795,0.1309 -0.19779,0.2077 -0.2793,0.336 z m -11.53906,25.6757 c -0.0302,0.071 -0.0295,0.1441 -0.0605,0.2149 l 0.40039,-1.086 c -0.0922,0.3055 -0.23512,0.5745 -0.33984,0.8711 z m -50.6836,31.1426 c -0.11272,-0.093 -0.23394,-0.152 -0.3457,-0.248 l 0.69336,0.5429 c -0.12827,-0.091 -0.2228,-0.2016 -0.34766,-0.2949 z m 22.99415,-59.5371 c -0.0247,-0.049 -0.0655,-0.084 -0.0899,-0.1328 l 0.61719,1.0703 c -0.20448,-0.3071 -0.3415,-0.6266 -0.52734,-0.9375 z m -0.80079,-30.5391 c -0.0684,-0.063 -0.15491,-0.096 -0.22265,-0.1601 l 0.68164,0.5879 c -0.17015,-0.1334 -0.29413,-0.2914 -0.45899,-0.4278 z m -27.40039,-39.8925 c -0.0625,-0.09 -0.13959,-0.1607 -0.20117,-0.252 l 0.40235,0.5528 c -0.076,-0.097 -0.12688,-0.2033 -0.20118,-0.3008 z m 43.88868,-4.9707 c -0.0807,9e-4 -0.15399,0.022 -0.23438,0.023 -0.0461,0 -0.0867,-0.014 -0.13281,-0.012 z m 5.07617,40.873 h 0.60937 c -0.0573,-0 -0.10879,0.021 -0.16601,0.02 -0.15164,0 -0.29049,-0.024 -0.44336,-0.02 z m -12.34961,34.2715 c -0.15995,-0.01 -0.29627,0.053 -0.45508,0.051 -0.19271,0.01 -0.36651,-0.052 -0.56055,-0.039 z m -19.94922,25.2793 0.72656,0 c -0.1221,-0 -0.23229,0.018 -0.35351,0.016 -0.12495,0 -0.24801,-0.022 -0.37305,-0.018 z m 1.77539,7.4101 c 0.14791,0.252 0.33243,0.4556 0.48828,0.6973 0.043,0.059 0.0539,0.127 0.0977,0.1856 z m 17.02539,5.5333 0.18164,0.5488 c -0.0281,-0.095 -0.0779,-0.1776 -0.10742,-0.2715 -0.0323,-0.093 -0.0403,-0.1841 -0.0742,-0.2773 z" id="path1822"/> <path style="opacity:1;fill:#ffffff;fill-opacity:1;stroke:none;stroke-width:6.52992;stroke-linecap:round;stroke-linejoin:round;stroke-miterlimit:4;stroke-dasharray:none;stroke-opacity:1" d="m -56.941406,2765.4648 -0.533203,0.01 c 0.09417,-0 0.181533,0.011 0.27539,0.01 0.08774,3e-4 0.169818,-0.017 0.257813,-0.016 z m -0.257813,0.016 c -21.91432,-0.072 -35.980565,26.9965 -22.417969,44.5683 2.05145,2.9825 4.733456,5.2397 7.644532,7.1133 -9.327696,7.3017 -13.8435,20.4657 -7.324219,31.7461 0.216274,0.4513 0.559074,0.8002 0.800781,1.2324 -10.235724,2.6665 -17.281407,12.6198 -17.011718,23.0918 -1.397933,-0.2423 -2.811763,-0.3828 -4.240235,-0.3379 -9.734733,-0.01 -16.689013,6.6158 -19.310543,14.6778 -2.62007,-1.256 -5.41362,-2.1307 -8.36914,-2.0996 -18.1312,-0.3663 -26.31873,24.3392 -11.41797,34.6953 10.31963,7.9829 24.19422,2.4687 29.13281,-7.6524 13.469756,8.025 30.959223,-2.4778 32.095702,-16.9648 7.519838,1.6596 15.808152,-0.3604 21.486329,-6.586 7.439636,-6.9224 8.805063,-17.7738 5.060547,-26.371 5.223596,-1.0393 10.139001,-3.6628 13.740234,-8.4532 9.641706,-11.502 7.185356,-28.4385 -3.017578,-37.0879 3.208806,-2.2722 5.958941,-5.314 7.90625,-9.2226 10.043758,-18.1531 -3.106885,-43.0467 -24.757813,-42.3496 z m 24.757813,42.3496 c -0.05698,0.103 -0.09192,0.2119 -0.150391,0.3144 l 0.300781,-0.5742 c -0.04473,0.092 -0.104794,0.1683 -0.15039,0.2598 z m -4.888672,46.3105 c -0.08629,0.103 -0.148095,0.2163 -0.236328,0.3184 l 0.517578,-0.6543 c -0.08786,0.1215 -0.191782,0.2169 -0.28125,0.3359 z m -18.800781,34.8242 c -0.180979,0.1684 -0.282577,0.3853 -0.470703,0.5489 l 1.005859,-1.0176 c -0.16011,0.1878 -0.370487,0.2882 -0.535156,0.4687 z m -82.714841,31.2032 c -0.12885,-0.1 -0.26688,-0.1637 -0.39453,-0.2676 l 0.78515,0.5762 c -0.14381,-0.095 -0.25089,-0.2115 -0.39062,-0.3086 z m 11.41797,-34.6953 c 0.10396,0 0.19811,-0.019 0.30273,-0.016 l -0.60352,-0 c 0.10117,-0 0.19975,0.019 0.30079,0.018 z m 27.679683,-12.5782 c 0.09681,1e-4 0.183894,-0.023 0.28125,-0.021 l -0.578123,0.01 c 0.09944,-0 0.19746,0.015 0.296873,0.012 z m 20.451172,-23.9863 c -0.02328,-0.049 -0.06296,-0.084 -0.08594,-0.1328 l 0.597656,1.082 c -0.198945,-0.3111 -0.329956,-0.6347 -0.511719,-0.9492 z m -0.320313,-38.8594 c -0.08795,-0.1278 -0.195282,-0.2353 -0.28125,-0.3652 l 0.490235,0.6758 c -0.07964,-0.1002 -0.131164,-0.2097 -0.208985,-0.3106 z m 23.126954,1.4942 c -0.05878,-4e-4 -0.111236,0.023 -0.169922,0.023 -0.138577,0.01 -0.264815,-0.017 -0.404297,-0.01 z m -16.070313,37.8496 0.728516,0.016 c -0.06432,-0 -0.121366,0.017 -0.185547,0.014 -0.181076,-9e-4 -0.36207,-0.032 -0.542969,-0.029 z m 6.675781,0.791 0.566407,0.1406 c -0.09554,-0.027 -0.195191,-0.033 -0.291016,-0.059 -0.09562,-0.022 -0.179,-0.061 -0.275391,-0.082 z m -28.529296,29.6699 c 0.05515,0.2092 0.183507,0.3648 0.24414,0.5703 0.0884,0.2321 0.09244,0.4723 0.189453,0.7032 z m 15.498046,6.8711 0.125,0.3359 c -0.02034,-0.058 -0.05339,-0.1083 -0.07422,-0.166 -0.02191,-0.057 -0.02832,-0.1128 -0.05078,-0.1699 z m -30.001954,11.7793 0.17383,0.5117 c -0.027,-0.088 -0.0733,-0.165 -0.10156,-0.2519 -0.0311,-0.087 -0.0398,-0.1723 -0.0723,-0.2598 z m -3.18164,12.4297 c 0.10688,0.085 0.22247,0.1361 0.33008,0.2187 0.10905,0.076 0.19142,0.1693 0.30273,0.2442 z" id="path1824"/> <path style="opacity:1;fill:#ffffff;fill-opacity:1;stroke:none;stroke-width:6.52992;stroke-linecap:round;stroke-linejoin:round;stroke-miterlimit:4;stroke-dasharray:none;stroke-opacity:1" d="m 14.457031,2829.6797 -0.425781,0.01 c 0.06201,-0 0.123529,0.01 0.185547,0.01 0.08129,-9e-4 0.158766,-0.017 0.240234,-0.018 z m -0.240234,0.018 c -19.0598256,0.2096 -33.183776,21.5417 -25.003906,39.0547 0.226873,0.5932 0.613281,1.0698 0.8789059,1.6367 -12.9390149,1.3033 -22.4836969,12.8859 -22.2656249,25.459 -2.199499,-0.6242 -4.460291,-0.9536 -6.707031,-0.918 -9.083118,0.015 -15.84225,5.3311 -19.449219,12.3652 -3.741708,-3.1299 -8.475281,-5.0731 -13.628906,-5 -5.527484,-0.072 -10.159094,2.1892 -13.765625,5.5391 -3.589384,-5.1583 -9.559046,-8.6018 -16.156251,-8.4356 -17.37551,-0.2291 -25.93908,22.6781 -12.36523,33.6621 7.11272,6.4955 16.935776,5.8807 23.867184,1.1153 1.012915,1.694 2.343306,3.2719 3.978515,4.6992 9.642313,9.2986 25.061081,6.2479 32.160157,-3.334 1.203919,1.0837 2.526416,2.0876 4.066406,2.9336 14.930559,9.0034 34.366384,-2.5529 35.941406,-18.1992 6.9047597,2.1239 14.64894483,1.4821 21.0410158,-3.1641 10.5932932,-6.5076 14.3988842,-20.167 10.4042972,-31.1289 5.907351,-0.4251 11.690646,-2.6682 16.27539,-7.3086 15.575015,-13.722 10.839795,-42.0558 -10.021484,-47.7968 -2.989846,-0.9025 -6.123234,-1.3022 -9.25,-1.1797 z m 9.25,1.1797 c 0.05558,0.017 0.114446,0.02 0.169922,0.037 l -0.34961,-0.1 c 0.06292,0.017 0.117056,0.045 0.179688,0.062 z m 10.021484,47.7968 c -0.126881,0.1118 -0.22784,0.2418 -0.357422,0.3516 l 0.765625,-0.7266 c -0.12975,0.1371 -0.276445,0.2417 -0.408203,0.375 z m -26.6796872,38.4375 c -0.3243642,0.1993 -0.6163915,0.4338 -0.953125,0.6192 l 1.0546874,-0.6739 c -0.032127,0.024 -0.069364,0.031 -0.1015624,0.055 z m -56.9824218,21.3633 c -0.105073,-0.063 -0.2157,-0.099 -0.320313,-0.1641 l 0.583985,0.336 c -0.09626,-0.051 -0.168713,-0.1197 -0.263672,-0.1719 z m -36.226563,0.4004 c -0.11358,-0.1095 -0.241597,-0.1878 -0.353515,-0.3008 l 0.658203,0.6035 c -0.113535,-0.095 -0.194117,-0.2062 -0.304688,-0.3027 z m -27.845699,-5.8145 c -0.14718,-0.1344 -0.30843,-0.2326 -0.45313,-0.373 l 0.86328,0.7441 c -0.15179,-0.1158 -0.26355,-0.2524 -0.41015,-0.3711 z m 12.36523,-33.6621 c 0.1515,0 0.29054,-0.027 0.44336,-0.021 l -0.75781,0 c 0.10691,-0 0.20783,0.022 0.31445,0.019 z m 29.921876,2.8965 c 0.09478,0 0.18212,-0.018 0.277343,-0.016 l -0.5,-0 c 0.07593,-0 0.146887,0.019 0.222657,0.018 z m 33.078125,-7.3652 c 0.03858,-1e-4 0.07267,-0.01 0.111328,-0.01 l -0.240235,0 c 0.04292,-10e-4 0.08597,0.01 0.128907,0.01 z m 28.09375,-26.1777 c -0.01974,-0.052 -0.05673,-0.091 -0.07617,-0.1426 l 0.447265,1.0136 c -0.147003,-0.2863 -0.236306,-0.5825 -0.371093,-0.871 z m 3.8671871,1.3281 c -0.055443,-0 -0.1048106,0.017 -0.1601562,0.016 -0.1434419,0 -0.2884676,-0.019 -0.4316407,-0.014 z m 13.3632813,3.3222 0.3339844,0.1836 c -0.054777,-0.031 -0.1149298,-0.051 -0.1699219,-0.082 -0.058234,-0.031 -0.1053995,-0.071 -0.1640625,-0.1016 z m -37.8007814,28.4844 c 0.04188,0.2189 0.159328,0.3972 0.207031,0.6133 0.07097,0.2294 0.06229,0.4626 0.140625,0.6914 z m 15.554688,8.0645 0.05664,0.1386 c -0.0091,-0.022 -0.02404,-0.042 -0.0332,-0.064 -0.01038,-0.025 -0.01296,-0.049 -0.02344,-0.074 z m -66.544922,6.666 0.06836,0.6387 c -0.0067,-0.091 -0.03885,-0.1764 -0.04687,-0.2676 -0.01529,-0.1263 -0.0037,-0.2441 -0.02148,-0.3711 z m 31.859375,5.5078 0.03711,0.4766 c -0.0037,-0.071 -0.02678,-0.1367 -0.03125,-0.2071 -0.0083,-0.092 0.0037,-0.177 -0.0059,-0.2695 z" id="path1826"/> <path style="opacity:1;fill:#ffffff;fill-opacity:1;stroke:none;stroke-width:6.52992;stroke-linecap:round;stroke-linejoin:round;stroke-miterlimit:4;stroke-dasharray:none;stroke-opacity:1" d="m 44.289062,2921.0977 c 0.08204,-0 0.164019,0.015 0.246094,0.014 0.09169,0 0.177556,-0.014 0.269532,-0.012 z m 0.246094,0.014 c -15.248408,-0.2877 -26.43404,12.4839 -27.486328,26.3653 -3.483132,-1.4463 -7.2336942,-2.2483 -11.0566405,-2.1016 -9.491001,0.168 -16.6760015,5.7574 -20.6582035,13.1836 -4.250453,-4.3556 -10.057581,-7.1648 -16.716796,-6.9375 -4.418928,0.044 -8.445319,1.4135 -11.88086,3.6367 -3.157521,-8.1549 -11.010589,-14.3435 -20.566406,-13.7109 -1.146882,0.014 -2.256136,0.1255 -3.333984,0.3222 -0.848666,-9.8822 -9.379494,-17.8269 -19.484376,-17.58 -16.912622,-0.2847 -25.443332,21.3194 -13.154296,32.7793 4.375715,4.7045 10.204455,6.3385 15.763672,5.6425 -0.05627,4.5943 1.275153,9.2032 4.689453,13.0762 6.240981,8.1284 17.070775,9.6882 25.517578,5.9922 0.912195,3.1119 2.614832,6.079 5.185547,8.707 10.03667,11.3814 28.679242,9.334 36.984375,-1.6425 1.419745,1.472 3.0223562,2.8305 4.9511715,3.9589 15.6071348,9.9073 37.2393005,-0.9904 39.8906255,-18.0664 11.14515,4.7328 25.394547,2.142 33.355468,-8.082 13.207057,-14.5872 5.738996,-39.5294 -13.378906,-44.3867 -2.807254,-0.8192 -5.721986,-1.2034 -8.621094,-1.1563 z m 8.621094,1.1563 c 0.07379,0.021 0.150978,0.027 0.224609,0.049 l -0.507812,-0.1387 c 0.09815,0.024 0.185654,0.065 0.283203,0.09 z m 13.378906,44.3867 c -0.132452,0.1463 -0.234468,0.307 -0.371094,0.4512 l 0.730469,-0.8692 c -0.111362,0.1495 -0.245367,0.2716 -0.359375,0.418 z m -73.2460935,26.1484 c -0.089705,-0.057 -0.186092,-0.09 -0.2753906,-0.1484 l 0.4921875,0.3008 c -0.079606,-0.045 -0.1380617,-0.1063 -0.2167969,-0.1524 z m -41.9355465,-2.3164 c -0.0991,-0.1124 -0.215107,-0.1975 -0.3125,-0.3125 l 0.591796,0.6367 c -0.10519,-0.1035 -0.176935,-0.2195 -0.279296,-0.3242 z m -30.703125,-14.6992 c -0.03734,-0.049 -0.08995,-0.074 -0.126953,-0.123 l 0.804687,0.9375 c -0.254426,-0.2601 -0.441848,-0.5469 -0.677734,-0.8145 z m -20.453125,-18.7187 c -0.150791,-0.1622 -0.319606,-0.2857 -0.466796,-0.4551 l 0.958983,0.959 c -0.18316,-0.1587 -0.31749,-0.341 -0.492187,-0.5039 z m 13.154296,-32.7793 c 0.172478,0 0.331658,-0.027 0.50586,-0.02 h -0.800781 c 0.100552,-0 0.194654,0.022 0.294921,0.02 z m 22.81836,17.2578 c 0.244126,-0 0.473688,-0.047 0.720703,-0.041 l -0.984375,0.027 c 0.09101,-0.01 0.172944,0.02 0.263672,0.014 z m 32.447266,10.0742 c 0.08704,-9e-4 0.168529,-0.02 0.255859,-0.019 l -0.416016,0.01 c 0.05529,-0 0.10498,0.014 0.160157,0.012 z m 37.3749995,-6.2461 c 0.058082,-0 0.1097179,-0.017 0.1679687,-0.018 l -0.3261718,0.01 c 0.053134,-0 0.1050823,0.01 0.1582031,0.01 z m -72.9980465,-2.0605 0.0039,0.8066 c 0.0037,-0.1026 -0.02351,-0.1985 -0.02148,-0.3008 -0.0037,-0.1723 0.02589,-0.3318 0.01758,-0.5058 z m 86.441406,17.5996 c 0.05184,0.1318 0.126056,0.2428 0.179687,0.373 0.07149,0.148 0.11492,0.302 0.189454,0.4492 z m 13.498047,5.2246 0.04297,0.209 c -0.0062,-0.032 -0.02099,-0.06 -0.02734,-0.092 -0.0085,-0.04 -0.0069,-0.078 -0.01563,-0.1172 z m -75.13086,1.2558 -0.167968,0.7481 c 0.02014,-0.076 0.01204,-0.1524 0.03125,-0.2285 0.03722,-0.1789 0.103862,-0.3379 0.136718,-0.5196 z m 34.7343754,9.25 -0.00781,0.2617 c 0.00185,-0.04 -0.00945,-0.079 -0.00781,-0.1191 0.00125,-0.049 0.014688,-0.093 0.015625,-0.1426 z" id="path1828"/> <path style="opacity:1;fill:#ffffff;fill-opacity:1;stroke:none;stroke-width:6.52992;stroke-linecap:round;stroke-linejoin:round;stroke-miterlimit:4;stroke-dasharray:none;stroke-opacity:1" d="m -85.529297,2953.4062 -0.597656,0 c 0.08852,-0 0.173348,0.017 0.261719,0.016 0.11531,0 0.21979,-0.021 0.335937,-0.018 z m -0.335937,0.018 c -17.705176,-0.2084 -25.491036,23.1001 -11.978516,34.0821 1.47793,1.3449 3.054385,2.3995 4.701172,3.1503 -3.718161,6.876 -3.921463,15.6484 1.232422,22.4961 3.692538,5.767 9.592811,8.5793 15.662109,8.9629 -1.37508,5.2887 -0.914699,11.0579 2.318359,16.3457 5.710069,10.9931 19.630099,14.9639 30.275391,10.6153 0.734786,3.3583 2.294233,6.6253 4.769531,9.6093 10.045706,13.3579 31.1505568,12.9665 41.1230472,1.043 0.9048252,1.2088 1.921903,2.3682 3.09375,3.4531 16.1608608,16.2019 46.9721448,5.6334 48.3496098,-17.6894 1.440104,-16.662 -13.268026,-31.2071 -29.681641,-30.3438 -9.447471,0.2333 -17.1097445,5.515 -21.7910156,12.7715 -4.6754258,-6.2158 -11.9433938,-10.4237 -20.3515624,-10.2558 -4.732347,0.01 -9.128889,1.4234 -12.927734,3.7734 -2.686525,-9.6594 -11.061456,-17.4464 -22.449219,-16.9609 -0.156633,-0 -0.29724,0.051 -0.453125,0.051 0.0029,-0.016 0.01083,-0.031 0.01367,-0.047 -0.169835,0.01 -0.328886,-0.01 -0.5,0.01 l 0.501953,-0.012 c 1.876359,-10.3543 -4.337903,-20.1383 -13.996094,-23.418 1.640305,-3.3506 2.276147,-7.2572 1.464844,-11.4433 -1.484215,-9.3488 -9.986746,-16.367 -19.376953,-16.1895 z m 19.376953,16.1895 c 0.01564,0.099 0.05624,0.188 0.07031,0.2871 l -0.117187,-0.6621 c 0.02727,0.1273 0.0223,0.2482 0.04687,0.375 z m 12.53125,34.8613 c -3.59e-4,0 -0.0016,0 -0.002,0.01 0.149264,-0.01 0.29119,0 0.439453,-0 0.05535,0 0.104718,-0.019 0.160156,-0.018 z m 35.814453,13.1895 c 0.06493,-10e-5 0.126353,-0.014 0.191406,-0.014 l -0.304687,0 c 0.0392,-9e-4 0.07413,0.012 0.113281,0.012 z M 24,3015.1484 c 0.08693,-0 0.166686,-0.024 0.253906,-0.025 l -0.423828,0.016 c 0.05764,-0 0.112319,0.013 0.169922,0.01 z m 29.681641,30.3438 c -0.0047,0.054 0.009,0.1057 0.0039,0.1601 l 0.0293,-0.414 c -0.0043,0.088 -0.02805,0.1666 -0.0332,0.2539 z m -48.3496098,17.6894 c -0.071729,-0.072 -0.1534624,-0.1243 -0.2246093,-0.1972 l 0.4335937,0.4199 c -0.077796,-0.07 -0.1323569,-0.1517 -0.2089844,-0.2227 z m -44.2167972,-4.4961 c -0.07943,-0.1056 -0.175874,-0.1895 -0.253906,-0.2968 l 0.470703,0.5957 c -0.08261,-0.097 -0.136179,-0.2017 -0.216797,-0.2989 z m -35.044922,-20.2246 c -0.158147,-0.3044 -0.35293,-0.5776 -0.498046,-0.8925 l 0.570312,1.0586 c -0.03358,-0.054 -0.03924,-0.1121 -0.07227,-0.1661 z m -17.980468,-25.3086 c -0.02007,-0.031 -0.05037,-0.049 -0.07031,-0.08 l 0.826172,1.1152 c -0.284957,-0.3323 -0.497724,-0.6922 -0.755859,-1.0352 z m -5.933594,-25.6464 c -0.128034,-0.1166 -0.268157,-0.1972 -0.394531,-0.3184 l 0.804687,0.6914 c -0.15144,-0.116 -0.263738,-0.254 -0.410156,-0.373 z m 22.304688,-7.7149 0.71289,0 c -0.165407,-0.01 -0.318374,0.021 -0.482422,0.018 -0.07978,0 -0.150447,-0.024 -0.230468,-0.021 z m 20.636718,28.3828 -0.302734,0.8262 c 0.06702,-0.1599 0.06998,-0.3204 0.132812,-0.4805 0.04265,-0.1266 0.129494,-0.2174 0.169922,-0.3457 z m 22.382813,30.3496 -0.251953,0.5235 c 0.03067,-0.059 0.03629,-0.1227 0.06641,-0.1817 0.05635,-0.1203 0.130923,-0.2196 0.185547,-0.3418 z m 39.613281,11.1231 -0.064453,0.2851 c 0.00917,-0.037 0.00469,-0.076 0.013672,-0.1132 0.013174,-0.06 0.03801,-0.1116 0.050781,-0.1719 z" id="path1830"/> <path style="opacity:1;fill:#ffffff;fill-opacity:1;stroke:none;stroke-width:6.52992;stroke-linecap:round;stroke-linejoin:round;stroke-miterlimit:4;stroke-dasharray:none;stroke-opacity:1" d="m -99.689453,2979.0664 c 0.08923,-0 0.174624,0.018 0.263672,0.018 0.09284,0 0.17615,-0.019 0.269531,-0.016 z m 0.263672,0.018 c -16.152539,-0.303 -24.030609,19.0541 -15.740239,30.7265 -11.79356,7.3229 -14.34244,26.6845 -1.58789,35.752 0.1778,0.1379 0.36519,0.2347 0.54493,0.3652 -6.52392,7.3882 -8.28215,18.9999 -2.63282,27.9649 3.67826,7.0265 10.56125,10.9782 17.78711,11.6465 -1.71467,5.1157 -1.84625,10.772 0.5918,16.332 4.872861,13.507 20.797323,20.2526 33.478515,15.7422 0.339955,3.3849 1.398471,6.7748 3.279297,10.0234 9.801468,19.1548 39.765073,20.742 49.958984,0.9375 10.0263811,-18.1546 -3.698411,-42.124 -24.773437,-41.6816 -4.523279,-0.073 -8.761281,1.1364 -12.585938,3.0918 -1.578682,-11.1742 -9.875923,-21.2965 -22.486328,-22.0039 -0.856992,-0.075 -1.710724,-0.1 -2.560547,-0.096 -0.157423,-0.01 -0.303964,0.046 -0.460937,0.043 0.0051,-0.02 0.01258,-0.039 0.01758,-0.059 -0.01488,3e-4 -0.03005,-0 -0.04492,-0 h 0.04492 c 2.553744,-10.085 -1.932636,-21.3695 -11.464844,-26.2539 4.428362,-5.1628 6.579867,-12.1917 4.035156,-19.586 -0.916624,-2.9313 -2.509333,-5.5768 -4.539062,-7.8359 6.662235,-4.6635 10.673076,-13.0856 7.390625,-21.9258 -2.527731,-7.6108 -9.980655,-13.2493 -18.251953,-13.1816 z m 18.251953,13.1816 c 0.03623,0.1091 0.09472,0.2085 0.128906,0.3184 l -0.226562,-0.6485 c 0.04336,0.1108 0.05658,0.2195 0.09766,0.3301 z m -2.851563,29.7617 c 0.02604,0.083 0.07072,0.1586 0.0957,0.2422 l -0.160156,-0.4883 c 0.02959,0.083 0.03602,0.1635 0.06445,0.2461 z m 7.429688,45.8399 c -1.53e-4,6e-4 1.52e-4,0 0,0 0.146766,-0 0.296224,0.016 0.443359,0.016 0.046,0 0.08873,-0.014 0.134766,-0.012 z m 3.003906,0.1133 c 0.0889,0.01 0.1767,0 0.265625,0.01 l -0.466797,-0.035 c 0.06947,0 0.13196,0.021 0.201172,0.025 z m 35.072266,18.9121 c 0.08907,0 0.174429,-0.014 0.263672,-0.012 h -0.558594 c 0.100598,-0 0.194654,0.014 0.294922,0.012 z m 24.773437,41.6816 c -0.04035,0.073 -0.06435,0.1498 -0.105468,0.2227 l 0.205078,-0.3867 c -0.02967,0.059 -0.0696,0.1057 -0.09961,0.164 z m -49.958984,-0.9375 c -0.06016,-0.1176 -0.140586,-0.217 -0.199219,-0.3359 l 0.375,0.6875 c -0.06917,-0.1154 -0.108733,-0.2358 -0.175781,-0.3516 z m -36.757812,-25.7656 c -0.10246,-0.284 -0.24343,-0.5441 -0.33594,-0.834 l 0.38477,1.0039 c -0.0252,-0.056 -0.0241,-0.1135 -0.0488,-0.1699 z m -18.37891,-27.9785 c -0.11531,-0.2203 -0.29548,-0.3753 -0.40429,-0.6016 l 0.69921,1.2168 c -0.13145,-0.1944 -0.17073,-0.4181 -0.29492,-0.6152 z m 2.08789,-28.3301 c -0.0992,-0.077 -0.20606,-0.1238 -0.30468,-0.2031 l 0.59765,0.4433 c -0.10756,-0.073 -0.1875,-0.1652 -0.29297,-0.2402 z m 11.92774,-38.6563 c -0.0718,-10e-5 -0.13556,0.017 -0.20703,0.018 -0.0679,0 -0.1332,-0.012 -0.20118,-0.01 z m -5.50195,7.5704 c 0.12488,0.09 0.25713,0.1423 0.38281,0.2285 0.11772,0.073 0.2078,0.1649 0.32812,0.2363 z m 9.99218,24.25 0.542971,0 c -0.101842,-0 -0.19553,0.015 -0.296871,0.014 -0.0829,0 -0.16312,-0.018 -0.2461,-0.016 z m 7.755862,1.0605 0.65039,0.1895 c -0.142618,-0.047 -0.299466,-0.061 -0.443359,-0.1055 -0.07458,-0.02 -0.13202,-0.065 -0.207031,-0.084 z m 12.472656,35.7305 -0.824219,1.1386 c 0.16781,-0.1989 0.246939,-0.4356 0.40625,-0.6386 0.123905,-0.1872 0.298698,-0.3072 0.417969,-0.5 z m 23.992188,33.957 -0.396485,0.5059 c 0.07066,-0.084 0.120165,-0.1786 0.189453,-0.2637 0.06525,-0.087 0.142599,-0.1539 0.207032,-0.2422 z" id="path1832"/> <path style="opacity:1;fill:#ffffff;fill-opacity:1;stroke:none;stroke-width:6.52992;stroke-linecap:round;stroke-linejoin:round;stroke-miterlimit:4;stroke-dasharray:none;stroke-opacity:1" d="m -124.16602,2994.4473 -0.72851,0.012 c 0.10788,-0.01 0.21073,0.02 0.31836,0.016 0.14045,1e-4 0.26851,-0.03 0.41015,-0.027 z m -0.41015,0.027 c -12.06669,-0.01 -19.54146,10.9746 -18.76758,21.3672 -0.177,0 -0.34554,-0.033 -0.52344,-0.025 -15.85436,0.1622 -24.6229,17.8194 -18.91211,30.5391 -17.24178,5.2706 -22.31884,31.2462 -6.60547,42.1054 -7.8345,7.7107 -10.48491,20.6064 -4.73828,30.8164 3.61292,7.7741 10.89439,12.5094 18.74414,13.6954 -3.02884,6.3336 -3.77577,13.7386 -0.90039,20.8613 6.121,19.0502 32.39598,26.4874 46.46094,11.0879 15.048062,-14.7889 7.6878,-42.9196 -13.54102,-47.0684 -1.61488,-0.3732 -3.25868,-0.5695 -4.9121,-0.668 4.74062,-11.573 0.55521,-25.9342 -11.19922,-31.8925 6.41801,-6.3039 9.53575,-15.7736 5.18554,-25.086 -0.52514,-1.2172 -1.34096,-2.2976 -2.0664,-3.4258 8.85747,-3.3368 15.67824,-11.985 13.87109,-22.5351 -0.0628,-0.4876 -0.20657,-0.9558 -0.30469,-1.4356 10.44697,-1.1082 19.79351,-10.5656 17.47657,-22.3535 -1.43652,-9.1744 -9.83715,-16.3209 -19.26758,-15.9824 z m 19.26758,15.9824 c 0.0178,0.1136 0.0644,0.2179 0.0801,0.3321 l -0.13671,-0.7598 c 0.0319,0.1451 0.0282,0.2833 0.0566,0.4277 z m -17.17188,23.7891 c 0.014,0.1088 0.0562,0.2111 0.0684,0.3203 l -0.11523,-0.7539 c 0.0284,0.1473 0.0218,0.287 0.0469,0.4336 z m -11.80469,25.9609 c 0.023,0.053 0.0673,0.097 0.0898,0.1504 l -0.20313,-0.4472 c 0.0479,0.099 0.067,0.1978 0.11328,0.2968 z m 10.92578,57.6465 c 0.0928,0.021 0.18862,0.026 0.28126,0.049 l -0.48633,-0.1035 c 0.0713,0.013 0.13405,0.041 0.20507,0.055 z m 13.54102,47.0684 c -0.0998,0.098 -0.17561,0.2098 -0.27734,0.3066 l 0.56836,-0.5898 c -0.092,0.1039 -0.19792,0.1812 -0.29102,0.2832 z m -46.46094,-11.0879 c -0.0942,-0.2931 -0.22801,-0.5628 -0.3125,-0.8613 l 0.36133,1.0488 c -0.0256,-0.062 -0.0238,-0.1255 -0.0488,-0.1875 z m -17.84375,-34.5567 c -0.0931,-0.2003 -0.24784,-0.3464 -0.33593,-0.5507 l 0.58203,1.1347 c -0.1114,-0.1858 -0.14038,-0.3961 -0.2461,-0.584 z m 30.25586,-103.4609 c 0.11006,-0 0.20958,-0.028 0.32031,-0.027 l -0.57421,0.014 c 0.0865,-0 0.16759,0.017 0.2539,0.014 z m 7.58399,13.1504 c 0.13575,0.111 0.2827,0.1828 0.41992,0.2891 0.12411,0.087 0.21836,0.1907 0.3457,0.2753 z m -20.04492,16.375 c -0.0353,-1e-4 -0.0663,0.01 -0.10157,0.01 -0.0358,4e-4 -0.0696,-0.01 -0.10547,-0.01 z m 0.25195,9.0156 c 0.10808,0.081 0.22507,0.1323 0.33398,0.211 0.0982,0.065 0.17158,0.1452 0.27149,0.2089 z m 3.01367,27.4297 c -0.10989,-0 -0.21097,0.018 -0.32031,0.018 -0.0595,0 -0.11629,-0.017 -0.17578,-0.016 z m 11.12109,2.2012 0.64649,0.2617 c -0.12331,-0.055 -0.26443,-0.071 -0.38867,-0.125 -0.0944,-0.036 -0.16264,-0.102 -0.25782,-0.1367 z m -26.12695,5.416 c 0.0602,0.038 0.12327,0.057 0.18359,0.094 0.0635,0.037 0.11165,0.085 0.17579,0.1211 z m 37.31055,27.6797 0.59179,0 c -0.0512,-0 -0.0973,0.015 -0.14843,0.014 -0.14804,0 -0.29534,-0.021 -0.44336,-0.018 z m -1.65039,7.0332 -0.76172,0.8789 c 0.14603,-0.1496 0.22389,-0.3377 0.36523,-0.4902 0.11961,-0.1491 0.27966,-0.2357 0.39649,-0.3887 z" id="path1834"/> <path style="opacity:1;fill:#ffffff;fill-opacity:1;stroke:none;stroke-width:6.52992;stroke-linecap:round;stroke-linejoin:round;stroke-miterlimit:4;stroke-dasharray:none;stroke-opacity:1" d="m -153.81641,2995.3633 c 0.11381,-0 0.22239,0.025 0.33594,0.023 0.18597,0.01 0.35907,-0.024 0.54688,-0.014 z m 0.33594,0.023 c -8.29874,-0.2316 -14.70812,4.8562 -17.66211,11.4785 -3.1813,-1.8559 -6.84197,-2.9408 -10.84765,-2.7441 -11.35853,0.01 -19.78605,9.4036 -20.88672,19.582 -1.96581,-0.4732 -4.00606,-0.7466 -6.16797,-0.6054 -16.77415,0.5001 -27.10318,19.4411 -21.07813,33.4179 -19.5261,4.5081 -26.46589,32.7614 -10.24023,45.6621 -11.65277,8.6938 -15.49378,26.9753 -6.27149,39.5899 10.7814,16.9558 37.11903,15.3354 46.65039,-1.8828 8.60073,-13.5913 2.93583,-29.7539 -8.86132,-37.7051 7.8337,-5.8527 12.64918,-15.5994 9.59375,-26.2012 -0.67911,-2.5294 -1.77218,-4.946 -3.15821,-7.1953 9.31164,-2.5516 17.1188,-10.0976 17.16211,-20.9238 0.0328,-0.658 -0.0617,-1.3126 -0.0879,-1.9707 9.8021,1.492 20.43621,-3.5898 23.63086,-13.875 12.08493,5.6649 28.2292,-3.3283 27.51563,-18.043 -0.13821,-10.2915 -9.18811,-18.7495 -19.29102,-18.584 z m 19.29102,18.584 c 0.001,0.091 0.0295,0.1761 0.0293,0.2676 l -0.0234,-0.6992 c 0.0105,0.1481 -0.013,0.2846 -0.006,0.4316 z m -51.0586,33.8887 c -0.005,0.095 0.0196,0.1887 0.0137,0.2832 l 0.0176,-0.7793 c 0.003,0.1709 -0.0306,0.3266 -0.0312,0.4961 z m -14.0039,28.1191 c 0.0125,0.047 0.0366,0.09 0.0488,0.1367 l -0.0762,-0.2754 c 0.0138,0.047 0.0139,0.092 0.0274,0.1387 z m -0.73243,63.9063 c -0.0744,0.1176 -0.12071,0.2402 -0.19726,0.3574 l 0.44531,-0.7539 c -0.0743,0.1402 -0.17156,0.2583 -0.24805,0.3965 z m -46.65039,1.8828 c -0.0977,-0.1537 -0.21739,-0.2808 -0.3125,-0.4375 l 0.5586,0.8203 c -0.0932,-0.1229 -0.15547,-0.2589 -0.2461,-0.3828 z m 37.58985,-118.6699 c 0.1321,-0 0.25382,-0.035 0.38672,-0.037 l -0.61133,0.027 c 0.0775,-0.01 0.14731,0.015 0.22461,0.01 z m 27.05469,-18.9766 c 0.21358,-2e-4 0.41533,-0.038 0.63085,-0.031 l -0.89257,0.014 c 0.0904,-0.01 0.17164,0.022 0.26172,0.018 z m 14.54296,23.7891 c 0.12806,0.1394 0.27379,0.2389 0.4043,0.373 0.14085,0.1289 0.24628,0.2741 0.39258,0.4004 z m 6.33008,1.9843 -0.22656,0.92 c 0.0257,-0.086 0.0185,-0.1721 0.043,-0.2579 0.0523,-0.2264 0.13844,-0.4312 0.18359,-0.6621 z m -37.17578,8.7383 c 0.0496,0.063 0.11788,0.094 0.16797,0.1563 0.17092,0.1893 0.2981,0.3943 0.47852,0.58 z m -26.86719,17.2324 c -0.0203,4e-4 -0.0383,0.01 -0.0586,0.01 -0.0226,6e-4 -0.0438,-0 -0.0664,-0 z m 1.3125,8.7676 c 0.0712,0.06 0.15096,0.1012 0.22266,0.1602 0.0644,0.05 0.11058,0.1089 0.17578,0.1582 z m -1.78906,32.5918 c -0.0793,8e-4 -0.15144,0.018 -0.23047,0.019 -0.092,0 -0.17931,-0.01 -0.27148,-0 z m -13.73437,5.8047 c 0.0739,0.056 0.15433,0.089 0.22851,0.1445 0.073,0.051 0.12731,0.114 0.20117,0.1641 z" id="path1836"/> <path style="opacity:1;fill:#ffffff;fill-opacity:1;stroke:none;stroke-width:6.52992;stroke-linecap:round;stroke-linejoin:round;stroke-miterlimit:4;stroke-dasharray:none;stroke-opacity:1" d="m -208.7168,2974.7734 -1.13086,0 c 0.21735,-0.013 0.41493,0.053 0.63086,0.047 0.17403,0.01 0.32468,-0.059 0.5,-0.049 z m -0.5,0.049 c -7.43341,-0.2436 -13.54638,3.6385 -17.2832,9.1738 -3.9383,-3.9088 -9.25562,-6.4482 -15.5625,-6.2383 l 0.46484,-0.01 -0.98828,-0.014 -0.44336,0.023 0.94922,-0 c -12.58782,-0.5531 -22.76097,9.7172 -24.18359,21.1192 -2.41446,-0.7508 -4.95596,-1.238 -7.72461,-1.1231 -17.94097,0.1122 -30.14185,19.839 -24.29492,35.4395 -22.91656,2.0095 -34.10446,33.0721 -16.81836,48.8925 16.16847,16.0834 46.1442,4.5765 47.36914,-18.205 0.43767,-5.3155 -0.84513,-10.5151 -3.22461,-15.1465 10.80262,-1.4256 20.72163,-8.8675 22.06055,-20.9746 0.22088,-1.4785 0.25473,-2.9741 0.21484,-4.4668 9.84153,2.4813 21.015,-0.9542 26.05859,-10.916 0.0517,-0.085 0.0649,-0.1802 0.11524,-0.2657 0.006,0.01 0.0133,0.01 0.0195,0.014 0.13653,-0.2786 0.30486,-0.524 0.43164,-0.8125 l -0.42578,0.8145 c 7.85443,6.4899 19.73989,5.945 27.37304,-0.4844 0.82215,1.1326 1.77854,2.2042 2.91993,3.1836 12.90658,12.4975 35.56969,0.3571 32.0664,-17.3828 -1.58089,-9.5161 -10.40893,-16.2052 -19.63281,-15.9825 -4.31085,-0.056 -8.05436,1.2891 -11.04297,3.5371 -3.78294,-6.1494 -10.56679,-10.3993 -18.41797,-10.1757 z m 29.46094,6.6386 c 0.13435,0 0.25713,-0.024 0.39258,-0.019 l -0.72852,0 c 0.11291,-0 0.22314,0.02 0.33594,0.017 z m 19.63281,15.9825 c 0.0148,0.089 0.0529,0.1683 0.0664,0.2578 l -0.10742,-0.5879 c 0.0242,0.1123 0.0189,0.2181 0.041,0.3301 z m -32.0664,17.3828 c -0.13576,-0.1315 -0.28638,-0.2244 -0.41993,-0.3614 l 0.84961,0.7715 c -0.15919,-0.1282 -0.27641,-0.2786 -0.42968,-0.4101 z m -30.29297,-2.6992 c -0.002,-0 -0.004,-7e-4 -0.006,-0 -0.0424,0.086 -0.0914,0.1664 -0.13477,0.252 -0.0194,0.032 -0.0234,0.068 -0.043,0.1 z m -26.41406,15.6328 c -0.0117,0.078 7.2e-4,0.1582 -0.0117,0.2363 l 0.0762,-0.6016 c -0.0121,0.1269 -0.0505,0.2394 -0.0644,0.3653 z m -18.83594,36.1211 c -0.005,0.06 0.009,0.1192 0.004,0.1796 l 0.0274,-0.4316 c -0.004,0.087 -0.0266,0.1655 -0.0312,0.252 z m -47.36914,18.205 c -0.0762,-0.076 -0.1627,-0.13 -0.23828,-0.207 l 0.45507,0.4356 c -0.0805,-0.072 -0.13748,-0.156 -0.21679,-0.2286 z m 41.11328,-84.332 c 0.1269,-8e-4 0.24558,-0.029 0.37305,-0.027 l -0.56836,0.012 c 0.0682,-0 0.1273,0.018 0.19531,0.016 z m 85.04101,5.0078 -0.29492,0.7774 c 0.0309,-0.072 0.0305,-0.1448 0.0606,-0.2168 0.0704,-0.1932 0.16916,-0.3635 0.23437,-0.5606 z m -38.03906,4.1797 c 0.18312,0.3123 0.40989,0.5702 0.60547,0.8672 0.0371,0.049 0.0463,0.1056 0.084,0.1543 z m -35.59961,6.752 c 0.0424,0.065 0.10739,0.1053 0.15039,0.1699 0.14293,0.191 0.24173,0.3931 0.39258,0.582 z m -34.20703,19.33 c -0.0693,0 -0.13207,0.021 -0.20117,0.023 -0.0442,0 -0.0847,-0.011 -0.12891,-0.01 z m 3.49414,8.127 c 0.0611,0.068 0.13364,0.1168 0.19531,0.1836 0.0603,0.061 0.1009,0.1305 0.16211,0.1914 z" id="path1838"/> <path style="opacity:1;fill:#ffffff;fill-opacity:1;stroke:none;stroke-width:6.52992;stroke-linecap:round;stroke-linejoin:round;stroke-miterlimit:4;stroke-dasharray:none;stroke-opacity:1" d="m -151.92383,2909.7148 c -1.6243,0.1176 -3.3599,0.6739 -5.15429,1.875 l -0.4629,0.3106 -0.42382,0.3613 c -4.26911,3.6371 -4.10984,9.7401 -4.11719,10.0117 l -0.0117,0.3731 0.004,0.068 c -0.64805,-0.3925 -1.23658,-0.8721 -1.9043,-1.1914 -2.9172,-1.3943 -11.08697,-3.0472 -14.90625,4.709 l -0.24609,0.4981 -0.18555,0.5254 c -1.87903,5.2831 1.30791,10.4927 1.43555,10.7285 l 0.18164,0.334 0.0137,0.021 c -0.53198,-0.012 -1.05564,-0.1169 -1.58008,-0.096 l -0.11719,0 -0.11718,0.01 c -2.10483,0.1367 -10.50011,1.5205 -10.97071,10.3261 l -0.0137,0.2559 v 0.2578 l 0.004,-0.3086 c -0.027,0.8356 0.0176,1.002 0.0176,1.002 l 0.0371,0.5683 0.10157,0.5606 c 1.00925,5.5128 6.3783,8.4389 6.61132,8.582 l 0.31836,0.1973 0.0625,0.031 c -0.66266,0.3642 -1.37185,0.6332 -1.98046,1.0508 -2.683,1.838 -8.185,8.0877 -3.37891,15.2676 l 0.30859,0.4609 0.36133,0.4219 c 3.63709,4.2717 9.74501,4.1138 10.01367,4.1211 l 0.3711,0.012 0.0703,-0 c -0.39183,0.6469 -0.87084,1.2338 -1.18945,1.9004 -1.39529,2.9177 -3.04831,11.0897 4.70703,14.9082 l 0.49804,0.2441 0.52539,0.1875 c 5.28219,1.8792 10.49236,-1.3074 10.73243,-1.4375 l 0.32812,-0.1797 0.0586,-0.037 c -0.0161,0.7579 -0.13755,1.5078 -0.0801,2.2461 0.25649,3.2992 2.67709,11.1307 11.51953,10.5547 l 0.55664,-0.037 0.54883,-0.1 c 5.5177,-1.011 8.43763,-6.3749 8.58398,-6.6133 l 0.19336,-0.3164 0.0312,-0.062 c 0.3646,0.6634 0.63451,1.3727 1.05274,1.9824 1.8284,2.6665 8.07683,8.1879 15.26562,3.375 l 0.46289,-0.3086 0.42188,-0.3593 c 4.2711,-3.6378 4.11181,-9.744 4.11914,-10.0137 l 0.0117,-0.3731 -0.004,-0.068 c 0.64796,0.3925 1.23652,0.8721 1.9043,1.1914 2.97668,1.4227 10.98771,3.2462 14.90429,-4.709 l 0.24414,-0.498 0.1875,-0.5235 c 1.88133,-5.2867 -1.30591,-10.4929 -1.43554,-10.7324 l -0.17969,-0.3301 -0.0371,-0.059 c 0.7565,0.016 1.50535,0.1375 2.24219,0.08 3.240582,-0.2513 11.125173,-2.9169 10.554684,-11.5312 l -0.03516,-0.5567 -0.101562,-0.5469 c -1.015221,-5.5131 -6.377556,-8.4295 -6.613282,-8.5742 l -0.316406,-0.1953 -0.05859,-0.029 c 0.66349,-0.3646 1.372653,-0.6344 1.982422,-1.0527 2.674618,-1.8343 8.180393,-8.0877 3.373047,-15.2676 l -0.308594,-0.4609 -0.361328,-0.4239 c -3.638071,-4.2684 -9.738761,-4.1097 -10.011721,-4.1172 l -0.37304,-0.012 -0.0703,0 c 0.39255,-0.648 0.87223,-1.2366 1.19141,-1.9043 1.39457,-2.9169 3.048556,-11.0874 -4.70703,-14.9062 l -0.49805,-0.2442 -0.52539,-0.1875 c -5.28593,-1.8805 -10.48958,1.3071 -10.73047,1.4375 l -0.33008,0.1778 -0.0566,0.037 c 0.0159,-0.7566 0.13558,-1.5055 0.0781,-2.2422 -0.25056,-3.2235 -2.89482,-11.1185 -11.51953,-10.5566 l -0.55469,0.037 -0.54688,0.1 c -5.52153,1.0101 -8.44214,6.3773 -8.58593,6.6113 l -0.19336,0.3164 -0.0332,0.066 c -0.36531,-0.6649 -0.63537,-1.3749 -1.05468,-1.9863 -1.37333,-2.0009 -5.23647,-5.6008 -10.10938,-5.2481 z" id="path1840"/> </g> <g id="g12499" transform="translate(1200.5469,-1494.8958)" style="stroke:none;stroke-width:6.52992;stroke-dasharray:none;stroke-opacity:1"> <path style="opacity:1;fill:url(#linearGradient12419);fill-opacity:1;stroke:none;stroke-width:6.52992;stroke-linecap:round;stroke-linejoin:round;stroke-miterlimit:4;stroke-dasharray:none;stroke-opacity:1" d="m -250.78928,2930.7026 c -9.59361,-0.3045 -16.26153,11.0042 -11.36914,19.2442 3.51277,8.6454 15.78857,10.8695 22.0332,3.8867 7.48544,-6.2597 4.82035,-19.4979 -4.63086,-22.1934 -1.92347,-0.7047 -3.98667,-1.024 -6.0332,-0.9375 z m -37.30469,1.6895 c -11.3863,-0.2983 -20.93291,13.2031 -14.47461,23.3477 5.22972,9.9825 21.42369,11.9436 27.39844,1.625 6.31043,-8.446 2.4389,-22.8179 -8.66992,-24.6055 -1.3951,-0.3005 -2.82818,-0.419 -4.25391,-0.3672 z m 69.54883,12.625 c -9.75836,-0.3382 -14.46779,12.9664 -7.80469,19.5332 6.52964,7.7834 21.10514,2.0325 20.19922,-8.2207 -0.22019,-6.335 -6.17832,-11.441 -12.39453,-11.3125 z m -106.89063,6.6016 c -13.89946,-0.2172 -24.50922,17.2317 -15.96875,28.8925 7.46839,11.917 28.03712,10.2183 32.64454,-3.3672 4.76269,-11.6123 -3.38292,-26.1948 -16.67579,-25.5253 z m 130.57422,14.3828 c -8.92665,-0.3406 -12.73915,12.6857 -5.39843,17.5019 6.44236,5.3314 17.35195,-1.0934 15.2871,-9.3711 -0.8518,-4.5958 -5.18831,-8.239 -9.88867,-8.1308 z" id="path12377"/> <path style="opacity:1;fill:url(#linearGradient12421);fill-opacity:1;stroke:none;stroke-width:6.52992;stroke-linecap:round;stroke-linejoin:round;stroke-miterlimit:4;stroke-dasharray:none;stroke-opacity:1" d="m -306.88303,2857.896 c -12.4507,-0.1242 -22.29504,14.1554 -16.41602,25.5117 4.86837,11.9053 22.68255,15.2185 30.81055,4.8301 8.58329,-8.7819 5.44892,-25.6364 -6.79492,-29.2383 -2.42877,-0.8621 -5.02691,-1.2269 -7.59961,-1.1035 z m 43.13867,2.2109 c -10.87258,-0.3412 -18.68659,12.2169 -13.70703,21.8418 3.56687,9.6576 16.79369,13.4169 24.57031,6.3594 8.59131,-5.7957 8.94882,-19.9699 -0.37109,-25.2695 -3.08266,-2.0295 -6.80562,-3.0599 -10.49219,-2.9317 z m 34.96484,17.584 c -12.72621,0.025 -16.61485,19.0603 -6.3789,25.4024 9.22403,6.4524 24.53789,-2.206 21.42968,-13.8086 -1.50096,-6.7393 -8.15087,-11.8639 -15.05078,-11.5938 z m 22.32032,28.7832 c -10.31188,-0.1085 -15.23453,15.046 -6.66993,20.9102 7.00961,6.0723 19.55391,0.411 18.68165,-9.1231 -0.19912,-6.2543 -5.58551,-12.0216 -12.01172,-11.7871 z m 10.79296,30.2383 c -8.80203,-0.078 -12.76133,12.7366 -5.37695,17.5859 6.372,5.4161 17.03584,-0.9781 15.20899,-9.1621 -0.63101,-4.7572 -4.9662,-8.6737 -9.83204,-8.4238 z" id="path12379"/> <path style="opacity:1;fill:url(#linearGradient12423);fill-opacity:1;stroke:none;stroke-width:6.52992;stroke-linecap:round;stroke-linejoin:round;stroke-miterlimit:4;stroke-dasharray:none;stroke-opacity:1" d="m -243.29319,2786.0542 c -13.03186,-0.4047 -21.76419,15.2696 -15.45312,26.3887 4.92756,11.4512 21.40756,13.7066 29.76757,4.7715 9.33204,-7.9916 6.22852,-24.1863 -4.82031,-28.9786 -2.92279,-1.4867 -6.21256,-2.2648 -9.49414,-2.1816 z m 37.60742,23.7227 c -13.02528,-0.096 -19.15701,17.4799 -10.99023,26.7011 8.53604,10.8272 29.51276,4.0203 28.58594,-10.2715 -0.30528,-9.0014 -8.60701,-16.7173 -17.59571,-16.4296 z m 23.46485,33.2343 c -11.89024,0.1591 -18.36396,17.8689 -8.10938,24.8321 7.49873,6.4209 21.2753,2.4069 22.10156,-8.0762 1.22245,-8.1653 -5.38281,-17.114 -13.99218,-16.7559 z m 5.80664,36.2442 c -9.4385,-0.2621 -15.62038,12.2757 -8.89063,19.2676 5.42173,7.3052 18.31224,4.4919 19.84766,-4.5997 1.89617,-7.0298 -3.37094,-14.9716 -10.95703,-14.6679 z m -5.09375,31.8066 c -8.47234,-0.2113 -12.91687,11.5716 -6.37695,16.9863 5.89297,6.0755 16.95861,0.437 16.08593,-7.8085 -0.0636,-5.0844 -4.59484,-9.4548 -9.70898,-9.1778 z" id="path12381"/> <path style="opacity:1;fill:url(#linearGradient12425);fill-opacity:1;stroke:none;stroke-width:6.52992;stroke-linecap:round;stroke-linejoin:round;stroke-miterlimit:4;stroke-dasharray:none;stroke-opacity:1" d="m -151.85374,2755.5894 c -14.33195,-0.1807 -22.63694,18.5833 -14.01757,29.582 8.32166,12.3374 30.72108,8.4917 33.17383,-6.6445 2.3399,-11.4303 -7.41236,-23.3253 -19.15626,-22.9375 z m 22.22852,39.832 c -13.4065,0.1596 -21.15652,19.5634 -10.2207,28.1367 7.94212,7.5312 23.571,4.982 26.12304,-6.5351 2.93703,-10.0918 -4.91848,-22.1546 -15.90234,-21.6016 z m 5.2793,40.8691 c -10.03225,-0.3036 -18.48366,11.6596 -12.56446,20.5508 4.20957,8.5264 17.58832,10.3401 22.78321,1.7832 6.21345,-8.4051 1.16679,-22.7109 -10.21875,-22.334 z m -13.05469,34.2676 c -9.05901,-0.3659 -14.89804,11.0169 -9.50781,18.2383 4.70848,8.0219 17.70184,5.8467 20.31836,-2.8223 3.20792,-7.3081 -2.84083,-15.9391 -10.81055,-15.416 z m -19.21484,25.2813 c -8.80394,-0.3478 -13.05004,12.3075 -5.89649,17.3925 6.95382,5.9757 18.42306,-2.2506 15.32813,-10.7617 -1.19543,-4.0263 -5.27198,-6.7814 -9.43164,-6.6308 z" id="path12383"/> <path style="opacity:1;fill:url(#linearGradient12427);fill-opacity:1;stroke:none;stroke-width:6.52992;stroke-linecap:round;stroke-linejoin:round;stroke-miterlimit:4;stroke-dasharray:none;stroke-opacity:1" d="m -57.06858,2775.064 c -14.08836,-0.1862 -23.74174,18.1023 -14.82422,29.3203 6.99405,10.5657 25.15894,10.9938 30.96094,-0.9961 6.75794,-11.8507 -1.8851,-28.9276 -16.13672,-28.3242 z m 0.51953,46.0781 c -11.34495,-0.07 -20.60977,13.4377 -14.14843,23.543 4.54081,9.6432 19.24079,12.6596 25.86914,3.4941 8.61968,-9.97 2.52742,-27.8027 -11.72071,-27.0371 z m -15.85156,37.8496 c -9.40581,-0.5573 -16.326,9.8599 -12.73047,18.4141 2.52509,9.5762 15.87442,12.3152 22.23047,4.8613 7.45575,-6.4811 5.13556,-20.5156 -5.00586,-22.6992 -1.45967,-0.4085 -2.97881,-0.6015 -4.49414,-0.5762 z m -27.20313,23.4805 c -10.41006,-0.1493 -15.13037,15.158 -6.50585,20.959 8.39747,6.7046 22.25477,-3.0348 18.25976,-13.1934 -1.68076,-4.7923 -6.72326,-7.997 -11.75391,-7.7656 z m -27.86523,12.5781 c -8.77769,-0.3154 -13.15796,12.5094 -5.71289,17.4043 6.90113,5.6157 18.4405,-2.0656 15.26562,-10.6074 -1.25171,-4.0541 -5.32528,-6.9113 -9.55273,-6.7969 z" id="path12385"/> <path style="opacity:1;fill:url(#linearGradient12429);fill-opacity:1;stroke:none;stroke-width:6.52992;stroke-linecap:round;stroke-linejoin:round;stroke-miterlimit:4;stroke-dasharray:none;stroke-opacity:1" d="m 14.47048,2839.2788 c -12.58512,0.019 -22.21121,14.5323 -16.3457,25.959 4.22888,11.2735 20.26944,15.4766 28.79883,6.4629 10.26543,-8.7001 7.42524,-27.9916 -6.11719,-31.6133 -2.04425,-0.6309 -4.19865,-0.9066 -6.33594,-0.8086 z m -21.65429,40.3965 c -10.30948,-0.2836 -18.05412,10.7393 -14.74414,20.4062 1.93756,10.1276 14.76886,15.3982 23.15429,9.2383 9.94498,-5.4739 11.40561,-21.8662 0.7793,-27.4043 -2.7734,-1.589 -5.9995,-2.3495 -9.18945,-2.2402 z M -38.801,2904.519 c -12.67237,-0.042 -17.94575,19.6228 -6.60352,25.6504 10.18804,6.3696 25.68902,-4.812 20.75782,-16.4824 -2.24251,-5.5471 -8.21047,-9.2979 -14.1543,-9.168 z m -62.98438,4.4512 c -8.44764,-0.3066 -13.06952,11.6094 -6.22851,16.8281 5.95342,5.7773 17.34569,0.597 16.16015,-7.8457 -0.36354,-4.9963 -4.88054,-9.1987 -9.93164,-8.9824 z m 29.84766,2.9043 c -9.78677,-0.2601 -15.75734,13.4479 -7.99805,19.9414 6.89344,6.957 20.94911,1.4811 19.89844,-8.707 -0.32249,-6.0792 -5.74891,-11.3908 -11.90039,-11.2344 z" id="path12387"/> <path style="opacity:1;fill:url(#linearGradient12431);fill-opacity:1;stroke:none;stroke-width:6.52992;stroke-linecap:round;stroke-linejoin:round;stroke-miterlimit:4;stroke-dasharray:none;stroke-opacity:1" d="m 44.52517,2930.6948 c -13.20677,-0.3845 -21.94542,15.2695 -16.15625,26.7051 4.89907,12.4573 23.17912,13.3673 30.82617,3.1016 8.74349,-9.2266 3.76255,-26.0083 -8.57812,-28.9922 -1.97054,-0.5923 -4.03509,-0.8653 -6.0918,-0.8145 z m -131.08008,3.166 c -8.28308,-0.3567 -12.70634,11.0507 -6.46875,16.4551 5.43165,6.2514 16.82389,1.7482 16.42774,-6.5429 0.19648,-5.4312 -4.52859,-10.132 -9.95899,-9.9122 z m 23.22266,17.2422 c -9.23513,-0.2151 -15.09159,12.0248 -8.47852,18.7832 5.42402,7.1962 18.49768,5.0231 20.16602,-4.2011 1.92275,-7.2613 -3.97108,-15.1957 -11.6875,-14.5821 z m 69.5957,3.8535 c -14.38315,0.1537 -20.73001,22.3981 -8,29.6602 10.9752,7.168 28.2051,-3.1067 25.29102,-16.4277 -1.53494,-7.8525 -9.39897,-13.5855 -17.29102,-13.2325 z m -37.4082,6.2442 c -10.83356,-0.019 -18.75449,14.6331 -10.48828,22.7676 7.27313,8.588 24.34445,4.5348 24.57226,-7.5059 0.35471,-7.6725 -6.06982,-15.5945 -14.08398,-15.2617 z" id="path12389"/> <path style="opacity:1;fill:url(#linearGradient12433);fill-opacity:1;stroke:none;stroke-width:6.52992;stroke-linecap:round;stroke-linejoin:round;stroke-miterlimit:4;stroke-dasharray:none;stroke-opacity:1" d="m -85.80686,2963.0015 c -8.71264,-0.2525 -12.51555,12.1019 -5.78711,17.2578 6.2885,6.031 17.45731,-0.6761 15.67188,-9.0098 -0.66981,-4.7144 -5.13744,-8.4063 -9.88477,-8.248 z m 10.57812,26.3847 c -9.26344,-0.3881 -14.54077,11.6692 -8.63867,18.5528 4.74392,7.4976 17.15955,5.7557 19.8086,-2.6504 3.23424,-7.7159 -2.88142,-16.1709 -11.16993,-15.9024 z m 21.5586,24.668 c -9.62889,-0.3123 -17.37137,10.9374 -12.03906,19.4961 4.34512,9.4303 19.87909,11.2268 24.42578,1.0547 4.6983,-9.005 -1.49787,-21.4491 -12.38672,-20.5508 z m 78.0664,10.668 c -14.96674,0.2216 -23.78094,21.2833 -12.41601,31.5605 10.33466,10.5991 31.39722,3.6576 32.14648,-11.5176 1.01047,-10.9004 -8.91815,-20.6826 -19.73047,-20.0429 z m -42.41406,2.5273 c -12.08518,-0.084 -21.81621,15.6048 -13.35547,25.4941 7.4033,10.1838 26.3291,7.878 29.07618,-5.0878 2.35886,-9.6688 -5.49706,-20.6597 -15.72071,-20.4063 z" id="path12391"/> <path style="opacity:1;fill:url(#linearGradient12435);fill-opacity:1;stroke:none;stroke-width:6.52992;stroke-linecap:round;stroke-linejoin:round;stroke-miterlimit:4;stroke-dasharray:none;stroke-opacity:1" d="m -99.46897,2988.6636 c -9.15176,-0.2988 -13.11652,13.3537 -5.25,18.0215 7.12506,5.1288 17.71339,-3.0645 14.50781,-11.25 -1.22823,-3.9478 -5.09233,-6.8676 -9.25781,-6.7715 z m -5.37695,27.8418 c -10.64156,-0.022 -14.70716,15.5539 -6.19727,21.373 8.23285,6.6215 21.44817,-2.9885 17.91406,-12.8633 -1.49734,-5.0143 -6.44615,-8.7231 -11.71679,-8.5097 z m 4.75976,31.8183 c -10.3256,-0.3162 -16.013,12.665 -10.50781,20.8067 4.14069,8.6112 17.25499,9.526 22.32227,1.3359 5.98325,-7.0952 2.47777,-19.0727 -6.65039,-21.3691 -1.66093,-0.5449 -3.41536,-0.8191 -5.16407,-0.7735 z m 23.65625,29.1407 c -10.38853,-0.4466 -19.71005,10.63 -15.22265,20.6542 3.5856,11.2381 20.4224,15.7824 27.78125,5.6973 7.58065,-9.0512 2.09157,-25.6766 -10.37891,-26.2715 -0.72406,-0.07 -1.45246,-0.096 -2.17969,-0.08 z m 37.92188,19.0117 c -12.91539,-0.3395 -23.77059,14.9241 -16.78711,26.5781 6.15821,12.4881 26.56587,13.9112 33.08203,1.0234 6.6605,-11.8031 -2.50678,-28.042 -16.29492,-27.6015 z" id="path12393"/> <path style="opacity:1;fill:url(#linearGradient12437);fill-opacity:1;stroke:none;stroke-width:6.52992;stroke-linecap:round;stroke-linejoin:round;stroke-miterlimit:4;stroke-dasharray:none;stroke-opacity:1" d="m -124.37717,3004.0444 c -8.73091,-0.1917 -13.31008,12.5184 -5.82813,17.4903 6.52778,5.3394 17.28578,-1.1661 15.46485,-9.4434 -0.63214,-4.618 -4.95441,-8.2998 -9.63672,-8.0469 z m -19.21875,21.3438 c -10.4591,-0.054 -15.78731,15.5014 -6.70899,21.2969 7.69062,5.7853 20.22882,-1.3351 18.35157,-11.0528 -0.63954,-5.7191 -5.77284,-10.5659 -11.64258,-10.2441 z m -12.76367,29.5527 c -13.12015,-0.044 -17.82428,19.9881 -6.625,26.3203 10.33359,6.4524 25.46064,-5.7852 19.94726,-17.166 -2.21123,-5.2313 -7.52592,-9.2601 -13.32226,-9.1543 z m 3.09961,36.4434 c -11.60648,-0.2387 -18.02032,14.1353 -12.38282,23.541 4.28215,9.9327 18.97145,12.0523 25.60352,3.3652 7.32685,-7.5061 4.9818,-21.5761 -5.18946,-25.2832 -2.51123,-1.1282 -5.27637,-1.709 -8.03124,-1.623 z m 22.73828,35.2968 c -11.87879,-0.4411 -21.43322,12.5328 -16.83399,23.6778 3.57777,12.6429 21.58901,18.1405 30.64063,7.916 9.85861,-9.3859 5.11168,-28.4737 -8.61524,-31.041 -1.69668,-0.4095 -3.44653,-0.5958 -5.1914,-0.5528 z" id="path12395"/> <path style="opacity:1;fill:url(#linearGradient12439);fill-opacity:1;stroke:none;stroke-width:6.52992;stroke-linecap:round;stroke-linejoin:round;stroke-miterlimit:4;stroke-dasharray:none;stroke-opacity:1" d="m -153.47483,3004.9565 c -8.30665,-0.4681 -13.31759,10.9209 -6.90234,16.459 5.72189,6.2292 17.21473,1.2103 16.61719,-7.1972 0.0104,-5.1553 -4.59954,-9.4441 -9.71485,-9.2618 z m -28.17773,8.7286 c -9.29264,-0.2835 -15.89503,12.0097 -9.10938,18.9941 5.61935,7.1097 18.44513,4.4617 20.22266,-4.627 2.11877,-7.0558 -3.62281,-14.8355 -11.11328,-14.3671 z m -26.88868,18.9746 c -11.72545,0.1443 -19.00394,17.1579 -9.11718,24.6347 8.07336,6.8082 23.05022,1.4915 22.84375,-9.7558 0.48163,-7.6412 -5.64702,-15.4941 -13.72657,-14.8789 z m -16.44726,32.8027 c -14.52901,0.2605 -20.39102,21.906 -8.5625,29.9316 10.95985,8.355 29.02497,-3.3883 25.0625,-16.8418 -1.90202,-7.2461 -8.81287,-13.3275 -16.5,-13.0898 z m -0.55078,41.3613 c -14.22528,0.1444 -21.37783,18.7428 -13.20117,29.5254 6.74768,11.1172 24.56768,9.8754 30.52148,-1.3574 8.23035,-12.5998 -2.81983,-29.0768 -17.32031,-28.168 z" id="path12397"/> <path style="opacity:1;fill:url(#linearGradient12441);fill-opacity:1;stroke:none;stroke-width:6.52992;stroke-linecap:round;stroke-linejoin:round;stroke-miterlimit:4;stroke-dasharray:none;stroke-opacity:1" d="m -209.27561,2984.3569 c -8.8934,-0.5186 -14.90514,10.6556 -9.42969,17.7286 4.69071,8.0004 17.76401,6.3661 20.64453,-2.3399 3.22704,-7.5036 -3.23682,-15.8653 -11.21484,-15.3887 z m -33.22656,2.9903 c -10.33897,-0.4543 -18.96004,12.4412 -12.03907,21.1074 5.37575,8.256 19.49806,8.5474 23.69532,-1.0039 5.02609,-8.1807 -0.85861,-20.4337 -10.89649,-20.0996 l -0.65234,-0.01 z m 62.81836,3.6875 c -8.44646,-0.2821 -12.53473,11.5035 -6.05274,16.7265 6.13343,6.2891 18.04539,0 16.1875,-8.6269 -0.72217,-4.7843 -5.36928,-8.3024 -10.13476,-8.0996 z m -94.02149,16.291 c -13.08107,-0.1213 -22.17079,17.7476 -12.46875,27.3906 8.30649,9.1998 26.55211,4.7393 27.78516,-8.2305 1.4705,-9.2355 -5.26595,-19.6611 -15.31641,-19.1601 z m -22.79687,35.2929 c -15.40527,0.4676 -23.54616,22.2084 -11.98633,32.5372 10.28932,10.4862 30.55227,2.7124 31.19726,-11.9493 0.95022,-10.6484 -8.24434,-21.2989 -19.21093,-20.5879 z" id="path12399"/> <path style="opacity:1;fill:#ffff24;fill-opacity:1;stroke:none;stroke-width:6.52992;stroke-linecap:round;stroke-linejoin:round;stroke-miterlimit:4;stroke-dasharray:none;stroke-opacity:1" d="m -180.90006,2949.0944 c 0.052,-0.973 1.2235,-1.2077 2.00713,-1.2586 3.15106,-0.1277 6.25719,0.5941 9.3533,1.076 3.13395,0.4912 6.2856,1.2158 9.45261,1.101 0.65078,-0.066 1.74236,-0.1588 1.77378,-1.0145 -0.124,-1.4111 -1.09099,-2.5641 -1.8339,-3.6995 -2.93159,-4.0791 -6.56126,-7.6526 -9.30518,-11.8841 -0.47324,-0.8743 -1.20232,-1.9058 -0.83389,-2.9417 0.40107,-0.8145 1.48461,-0.6072 2.15201,-0.2882 2.5716,1.2294 4.69215,3.1952 6.90178,4.9583 2.70416,2.1835 5.26357,4.5901 8.29197,6.3138 0.63801,0.2867 1.49268,0.8136 2.1543,0.3342 0.67572,-0.8941 0.50704,-2.1089 0.50541,-3.1543 -0.36096,-5.4016 -1.93082,-10.6798 -2.20559,-16.1036 0.0269,-0.9938 -0.0885,-2.2515 0.74828,-2.9644 0.75472,-0.5052 1.5896,0.2163 2.00827,0.8263 1.61207,2.3506 2.46573,5.1131 3.49779,7.7448 1.24851,3.2377 2.26174,6.6054 4.02416,9.6143 0.40551,0.5617 0.86808,1.4186 1.66701,1.3727 0.97091,-0.3521 1.42122,-1.4128 1.91828,-2.2386 2.48438,-4.9314 3.75032,-10.3808 6.26979,-15.2959 0.5205,-0.8472 1.04944,-1.9951 2.13123,-2.193 0.90563,-0.059 1.26749,0.9823 1.3248,1.7196 0.22111,2.8355 -0.41885,5.6488 -0.84001,8.4378 -0.53985,3.4359 -1.34714,6.8838 -1.32516,10.3534 0.073,0.6899 0.0388,1.7067 0.7868,2.0354 1.13616,0.1388 2.13338,-0.6505 3.05854,-1.1864 4.46449,-3.0112 8.23497,-6.9791 12.77024,-9.9148 0.87433,-0.4733 1.90586,-1.2024 2.94168,-0.8339 0.81458,0.4011 0.60734,1.4847 0.28826,2.1521 -1.22937,2.5716 -3.19524,4.6921 -4.95833,6.9017 -2.18296,2.7035 -4.59113,5.265 -6.31383,8.292 -0.28503,0.6364 -0.81592,1.4948 -0.3342,2.1541 0.92162,0.6884 2.16638,0.5066 3.24118,0.501 5.37088,-0.375 10.6221,-1.9267 16.01677,-2.201 0.99374,0.027 2.25155,-0.088 2.96435,0.7483 0.50518,0.7545 -0.21599,1.5895 -0.82607,2.0079 -2.35038,1.6126 -5.11326,2.4659 -7.745,3.498 -3.23781,1.2486 -6.60511,2.2622 -9.61429,4.0243 -0.56497,0.4092 -1.44896,0.8839 -1.36656,1.6962 0.42714,1.0305 1.57412,1.4916 2.47957,2.0173 4.87112,2.3931 10.21444,3.6676 15.04864,6.1416 0.84733,0.5201 1.99411,1.0492 2.19319,2.1303 0.06,0.906 -0.98196,1.2685 -1.71963,1.3257 -2.84156,0.2213 -5.66077,-0.421 -8.45573,-0.843 -3.4299,-0.5392 -6.87189,-1.3443 -10.3355,-1.3221 -0.68888,0.073 -1.70508,0.04 -2.03496,0.7858 -0.1405,1.1365 0.64994,2.1353 1.18601,3.0595 3.01663,4.4713 6.97828,8.2339 9.91475,12.7702 0.47329,0.8744 1.20248,1.9059 0.83388,2.9417 -0.40105,0.8146 -1.48458,0.6073 -2.15201,0.2883 -2.57157,-1.2295 -4.69215,-3.1952 -6.90178,-4.9584 -2.70524,-2.184 -5.26602,-4.5924 -8.29196,-6.3138 -0.6369,-0.2853 -1.49293,-0.8144 -2.15335,-0.3348 -0.69006,0.9204 -0.50652,2.1676 -0.50178,3.2418 0.37508,5.3709 1.92675,10.6221 2.20101,16.0168 -0.027,0.9937 0.0886,2.2515 -0.74829,2.9643 -0.7546,0.5052 -1.58966,-0.2161 -2.00808,-0.8263 -1.61229,-2.3504 -2.4659,-5.113 -3.49778,-7.7448 -1.24812,-3.2369 -2.26168,-6.6031 -4.02283,-9.6116 -0.40652,-0.5655 -0.86997,-1.4226 -1.67197,-1.3747 -0.99763,0.3715 -1.45179,1.4696 -1.96016,2.3244 -2.45177,4.9105 -3.72086,10.3226 -6.22447,15.2093 -0.52024,0.8474 -1.04937,1.995 -2.13105,2.1932 -0.90569,0.059 -1.26766,-0.9822 -1.32499,-1.7196 -0.22124,-2.8416 0.42103,-5.6608 0.84304,-8.4558 0.53922,-3.4294 1.34451,-6.8737 1.32213,-10.3355 -0.0736,-0.6879 -0.0384,-1.7066 -0.78584,-2.0349 -1.13614,-0.1407 -2.13419,0.6509 -3.05797,1.1848 -4.47193,3.0168 -8.23362,6.9783 -12.77177,9.9157 -0.87419,0.4737 -1.90583,1.2026 -2.94167,0.8341 -0.81464,-0.4011 -0.60723,-1.4848 -0.28807,-2.1522 1.22914,-2.5714 3.19493,-4.6917 4.95776,-6.9012 2.18619,-2.7075 4.59328,-5.267 6.3142,-8.2923 0.28492,-0.6328 0.79249,-1.4587 0.35708,-2.1286 -0.82372,-0.6838 -2.00462,-0.5291 -2.99477,-0.5398 -5.46624,0.3298 -10.80109,1.9386 -16.28605,2.2142 -0.99376,-0.027 -2.25153,0.089 -2.96436,-0.7482 -0.50505,-0.7545 0.21594,-1.5898 0.82627,-2.0079 2.3501,-1.6126 5.11274,-2.4659 7.74424,-3.4978 3.23801,-1.2486 6.60549,-2.2624 9.61486,-4.0246 0.56007,-0.4074 1.45467,-0.8861 1.36655,-1.6965 -0.44394,-1.0553 -1.62467,-1.52 -2.55656,-2.0563 -4.852,-2.3654 -10.16259,-3.6423 -14.97165,-6.1022 -0.84732,-0.5204 -1.99514,-1.0495 -2.19319,-2.1313 -0.002,-0.032 -0.004,-0.064 -0.003,-0.095 z" id="path12401"/> </g> </g> </g> </g> </g> </svg>