<svg id="_0022_graphic_chart" xmlns="http://www.w3.org/2000/svg" viewBox="0 0 500 500" data-imageid="chart-6-9" imageName="Chart 6" class="illustrations_image" style="width: 151px;"><defs><style>.cls-1_chart-6-9,.cls-2_chart-6-9,.cls-3_chart-6-9{fill:#fff;}.cls-4_chart-6-9{fill:#f4a28c;}.cls-5_chart-6-9{fill:#a5a5a5;}.cls-6_chart-6-9{opacity:.03;}.cls-6_chart-6-9,.cls-7_chart-6-9{fill:#000001;}.cls-2_chart-6-9{opacity:.3;}.cls-3_chart-6-9{opacity:.24;}.cls-8_chart-6-9{fill:#e6e6e6;}.cls-9_chart-6-9{fill:#ce8172;opacity:.31;}.cls-10_chart-6-9{fill:#24285b;}.cls-7_chart-6-9{opacity:.08;}.cls-11_chart-6-9{fill:#ffd200;}.cls-12_chart-6-9{fill:#68e1fd;}</style></defs><g id="panel2_chart-6-9"><rect class="cls-10_chart-6-9" x="52.7" y="45.03" width="147.16" height="75.05"/><rect class="cls-1_chart-6-9" x="82.83" y="63.15" width="61.59" height="13.74"/><rect class="cls-3_chart-6-9" x="82.83" y="85.78" width="61.59" height="13.74"/><polygon class="cls-12_chart-6-9 targetColor" points="158.07 90.94 170.47 66.04 183.28 90.94 158.07 90.94" style="fill: rgb(104, 225, 253);"/></g><g id="panel1_chart-6-9"><rect class="cls-10_chart-6-9" x="278.51" y="47.73" width="147.16" height="75.05"/><rect class="cls-1_chart-6-9" x="308.65" y="65.85" width="61.59" height="13.74"/><rect class="cls-3_chart-6-9" x="308.65" y="88.47" width="61.59" height="13.74"/><polygon class="cls-11_chart-6-9" points="409.1 72.8 396.69 97.7 383.88 72.8 409.1 72.8"/></g><g id="person_chart_chart-6-9"><ellipse class="cls-6_chart-6-9" cx="256.78" cy="425.72" rx="212.16" ry="34.27"/><rect class="cls-8_chart-6-9" x="79.67" y="334.28" width="84.33" height="91.44"/><rect class="cls-8_chart-6-9" x="214.19" y="284.03" width="84.33" height="141.69"/><rect class="cls-5_chart-6-9" x="344.81" y="377.36" width="84.33" height="48.36"/><path class="cls-12_chart-6-9 targetColor" d="m324.48,311.19s3.51,5.92,9.35,5.3c5.84-.62,8.42,4.71,3.54,7.17-4.89,2.46-19.49-1.62-19.49-1.62l-1.22-8.36,7.82-2.48Z" style="fill: rgb(104, 225, 253);"/><path class="cls-12_chart-6-9 targetColor" d="m293.94,147s34.74,20.08,38.01,61.11c3.27,41.03-11.18,51.18-46.3,40.91-35.12-10.27,8.29-102.02,8.29-102.02Z" style="fill: rgb(104, 225, 253);"/><path class="cls-2_chart-6-9" d="m293.94,147s34.74,20.08,38.01,61.11c3.27,41.03-11.18,51.18-46.3,40.91-35.12-10.27,8.29-102.02,8.29-102.02Z"/><path class="cls-12_chart-6-9 targetColor" d="m272.22,338.05s-1.7,6.67,2.87,10.36,2.64,9.28-2.56,7.57-12.65-14.91-12.65-14.91l5.04-6.78,7.29,3.77Z" style="fill: rgb(104, 225, 253);"/><path class="cls-4_chart-6-9" d="m244.09,95.78s4.85,10.27,5.67,17.99c.33,3.13-1.97,5.98-5.11,6.27-3.89.36-9.26-.28-12.53-5.47l-6.63-8.13s-3.97-5.24.43-11.78c4.41-6.54,15.51-5.29,18.15,1.11Z"/><polygon class="cls-4_chart-6-9" points="228 108.3 225.34 145.43 245.9 145.43 239.74 119.1 228 108.3"/><path class="cls-10_chart-6-9" d="m241.62,97.2c-1.82.79-5.24,2.04-10.1,2.88,0,0,5.05,3.41,3.6,9.75-1.44,6.34-7.67,6.12-7.67,6.12l-4.89-13.75c-1.55-3.96-.83-8.46,1.92-11.71,1.12-1.33,2.4-2.71,3.74-3.92,3.35-3.04,10.1-2.54,12.65-6.51,1.12-1.74,3.7-1.64,4.7.18,2.16,3.94,3.83,10.76-.95,15.12-.88.8-1.91,1.38-3,1.85Z"/><path class="cls-4_chart-6-9" d="m236.15,109.08s-1.6-4.07-4.56-2.62c-2.96,1.46-.69,7.35,3.7,6.36l.86-3.74Z"/><path class="cls-4_chart-6-9" d="m246.82,102.4l4.49,3.01c1.11.74,1.07,2.39-.08,3.07l-3.79,2.27-.62-8.35Z"/><path class="cls-9_chart-6-9" d="m239.92,119.85s-4.35-.74-6.7-3.21c0,0-1.33,8.04,8.46,10.75l-1.76-7.54Z"/><path class="cls-12_chart-6-9 targetColor" d="m225.48,141.31c19.19-2.57,40.95-2.95,59.23,1.35,10.7,2.52,18.47,11.77,18.85,22.76.83,24.35-.14,71.56-16.89,106.1l-63.45,8.27s-26.58-39.31-37.67-81.2c-7.23-27.3-2.57-51.59,39.95-57.28Z" style="fill: rgb(104, 225, 253);"/><path class="cls-7_chart-6-9" d="m231.73,172.87s-7.98,48.16,26.26,72.14l-34.78,34.78s-27.43-44.97-33.56-67.69c-5.79-21.43,28.03-43.08,42.09-39.22Z"/><path class="cls-10_chart-6-9" d="m223.21,279.78s43.61-55.83,67.59-36.18c23.98,19.65,38.03,67.6,38.03,67.6l-19.45,6.61s-11.97-33.07-36.77-41.75c0,0-36.79,42.58-49.4,3.72Z"/><path class="cls-10_chart-6-9" d="m291.77,289.22l-15.75,52.9-18.02-6.26,8.83-59.8s16.83-7.99,24.95,13.16Z"/><polygon class="cls-11_chart-6-9" points="250.53 238.75 247.28 190.81 313.35 179.87 315.13 237.81 231.46 261.16 228.96 248.06 250.53 238.75"/><path class="cls-12_chart-6-9 targetColor" d="m232.61,162.93c-2.24-15.1-19.96-22.38-32.67-13.93-23.3,15.48-63.96,47.77-64.82,84.91-1.2,52.12,58.75,40.14,99.76,17.97l-4.88-14.98s-53.55,14.38-57.75-5.39c-3.41-16.06,65.03-36.95,60.35-68.58Z" style="fill: rgb(104, 225, 253);"/><path class="cls-2_chart-6-9" d="m232.61,162.93c-2.24-15.1-19.96-22.38-32.67-13.93-23.3,15.48-63.96,47.77-64.82,84.91-1.2,52.12,58.75,40.14,99.76,17.97l-4.88-14.98s-53.55,14.38-57.75-5.39c-3.41-16.06,65.03-36.95,60.35-68.58Z"/><circle class="cls-1_chart-6-9" cx="284.71" cy="212.76" r="6.2"/><path class="cls-4_chart-6-9" d="m230.82,239.41s12.29-10.35,18.18,0l-15.05,9.61-3.13-9.61Z"/></g></svg>