<svg id="_0123_process_building" xmlns="http://www.w3.org/2000/svg" viewBox="0 0 500 500" data-imageid="construction-site-1-40-7f760" imageName="Construction Site 1" class="illustrations_image" style="width: 188px;"><defs><style>.cls-1_construction-site-1-40-7f760,.cls-2_construction-site-1-40-7f760{fill:#fff;}.cls-3_construction-site-1-40-7f760{fill:#f4a28c;}.cls-4_construction-site-1-40-7f760{fill:#a5a5a5;}.cls-5_construction-site-1-40-7f760{opacity:.15;}.cls-5_construction-site-1-40-7f760,.cls-6_construction-site-1-40-7f760{fill:#ffd200;}.cls-7_construction-site-1-40-7f760{opacity:.19;}.cls-7_construction-site-1-40-7f760,.cls-8_construction-site-1-40-7f760,.cls-9_construction-site-1-40-7f760{fill:#000001;}.cls-8_construction-site-1-40-7f760{opacity:.03;}.cls-10_construction-site-1-40-7f760,.cls-11_construction-site-1-40-7f760{fill:#e6e6e6;}.cls-11_construction-site-1-40-7f760{opacity:.3;}.cls-12_construction-site-1-40-7f760{fill:#ce8172;opacity:.31;}.cls-2_construction-site-1-40-7f760{opacity:.46;}.cls-13_construction-site-1-40-7f760{fill:#24285b;}.cls-9_construction-site-1-40-7f760{opacity:.08;}.cls-14_construction-site-1-40-7f760{fill:#68e1fd;}</style></defs><g id="bg_construction-site-1-40-7f760"><path class="cls-11_construction-site-1-40-7f760" d="m94.51,146.88c-32.58,27.98-51.89,79.32-48.82,132.94,1.57,27.42,10.32,51.11,27.89,68.3,66.15,64.73,341.16,65.71,374.07-2.35,32.92-68.06-24.6-193.1-130.69-167.5-66.83,16.13-138.32-103.64-222.45-31.39Z"/><ellipse class="cls-8_construction-site-1-40-7f760" cx="258.24" cy="440.85" rx="223.51" ry="14.63"/><path class="cls-10_construction-site-1-40-7f760" d="m468.61,237.08c0-5.77-4.68-10.45-10.45-10.45-.57,0-1.13.06-1.68.15-2.38-4.41-7.04-7.42-12.41-7.42-.17,0-.34.02-.52.03.32-1.3.52-2.65.52-4.05,0-9.23-7.48-16.72-16.72-16.72s-16.72,7.48-16.72,16.72c0,1.4.19,2.75.52,4.05-.17,0-.34-.03-.52-.03-7.78,0-14.08,6.31-14.08,14.08s6.31,14.08,14.08,14.08h48.88v-.1c5.12-.66,9.09-5.04,9.09-10.35Z"/><path class="cls-10_construction-site-1-40-7f760" d="m191.97,64.45c0-4.25-3.45-7.7-7.7-7.7-.42,0-.83.04-1.24.11-1.75-3.25-5.19-5.46-9.14-5.46-.13,0-.25.01-.38.02.24-.96.38-1.95.38-2.99,0-6.8-5.52-12.32-12.32-12.32s-12.32,5.52-12.32,12.32c0,1.03.14,2.03.38,2.99-.13,0-.25-.02-.38-.02-5.73,0-10.38,4.65-10.38,10.38s4.65,10.38,10.38,10.38h36.02v-.07c3.77-.49,6.7-3.71,6.7-7.63Z"/><path class="cls-10_construction-site-1-40-7f760" d="m91.92,315.9c0-5.9-4.78-10.68-10.68-10.68-.59,0-1.16.06-1.72.15-2.43-4.51-7.2-7.58-12.68-7.58-.18,0-.35.02-.53.03.33-1.33.53-2.71.53-4.14,0-9.44-7.65-17.09-17.09-17.09s-17.09,7.65-17.09,17.09c0,1.43.2,2.81.53,4.14-.18,0-.35-.03-.53-.03-7.95,0-14.4,6.45-14.4,14.4s6.45,14.4,14.4,14.4h49.97v-.1c5.24-.68,9.29-5.15,9.29-10.58Z"/><path class="cls-10_construction-site-1-40-7f760" d="m131.68,438.44s12.59-18.1-6.19-23.1c-18.78-4.99,4.53-29.38-12.96-32.59-17.48-3.21-14.57,22.6-14.57,22.6,0,0-12.07-10.41-20.39-1.66-8.32,8.74,3.33,18.33,3.33,18.33,0,0-16.82,5.81-6.33,16.42h57.1Z"/><path class="cls-4_construction-site-1-40-7f760" d="m106.43,440.85s8-13.68,19.78-11.99,10.52,11.99,10.52,11.99h-30.31Z"/></g><g id="sun_construction-site-1-40-7f760"><circle class="cls-6_construction-site-1-40-7f760" cx="396.56" cy="93.51" r="33.41"/><circle class="cls-5_construction-site-1-40-7f760" cx="396.56" cy="93.51" r="63.7"/></g><g id="house_construction-site-1-40-7f760"><rect class="cls-6_construction-site-1-40-7f760" x="285.27" y="316.91" width="154.57" height="121.99"/><rect class="cls-9_construction-site-1-40-7f760" x="285.27" y="316.91" width="154.57" height="121.99"/><rect class="cls-6_construction-site-1-40-7f760" x="204.74" y="316.91" width="113.86" height="121.99"/><rect class="cls-13_construction-site-1-40-7f760" x="261.67" y="373.15" width="36.86" height="65.75"/><rect class="cls-1_construction-site-1-40-7f760" x="342.36" y="351.99" width="78.43" height="42.32"/><rect class="cls-9_construction-site-1-40-7f760" x="342.36" y="351.99" width="78.43" height="42.32"/><rect class="cls-1_construction-site-1-40-7f760" x="226.04" y="374.6" width="17" height="38.3"/><circle class="cls-14_construction-site-1-40-7f760 targetColor" cx="289.12" cy="407.23" r="3.89" style="fill: rgb(104, 225, 253);"/><rect class="cls-6_construction-site-1-40-7f760" x="198.93" y="312.41" width="245.06" height="14.01"/><rect class="cls-2_construction-site-1-40-7f760" x="198.93" y="312.41" width="245.06" height="14.01"/><rect class="cls-9_construction-site-1-40-7f760" x="318.61" y="312.41" width="125.39" height="14.01"/><rect class="cls-6_construction-site-1-40-7f760" x="338.68" y="390.52" width="86.15" height="7.73"/><rect class="cls-2_construction-site-1-40-7f760" x="338.68" y="390.52" width="86.15" height="7.73"/><rect class="cls-9_construction-site-1-40-7f760" x="338.68" y="390.52" width="86.15" height="7.73"/></g><g id="person_construction-site-1-40-7f760"><path class="cls-3_construction-site-1-40-7f760" d="m220.97,216.59s.86,6.52-.05,10.92c-.37,1.78-2.14,2.95-3.92,2.56-2.21-.49-5.06-1.79-5.94-5.23l-2.22-5.65s-1.27-3.59,2.32-6.42c3.58-2.83,9.49-.18,9.81,3.82Z"/><polygon class="cls-3_construction-site-1-40-7f760" points="209.24 220.21 206.8 241.61 218.69 242.11 215.69 226.34 209.24 220.21"/><path class="cls-3_construction-site-1-40-7f760" d="m221.3,220.72l1.94,2.45c.48.6.17,1.5-.58,1.68l-2.49.58,1.13-4.71Z"/><path class="cls-12_construction-site-1-40-7f760" d="m216.49,229.76s-2.21-.35-3.95-2.12c0,0,.34,3.93,4.84,7.62l-.89-5.5Z"/><path class="cls-13_construction-site-1-40-7f760" d="m219.7,216.86c-.46.15-.95.28-1.49.39-.71.14-1.4.4-2.07.69l-.54.24c-.77.34-1.27,1.1-1.26,1.95.02,2.1-.65,5.95-5.73,6.38,0,0-5.16-7.72-1.04-13.66,2.28-3.29,6.53-5.44,10.4-5.54,5.53-.14,6.96,7.83,1.71,9.56Z"/><path class="cls-3_construction-site-1-40-7f760" d="m214.24,223.78c.36-.46.46-1.09.23-1.63-.37-.88-1.09-2.05-2.29-1.88-1.29.19-1.46,2.14-.61,3.44.61.93,1.98.95,2.67.07h0Z"/><path class="cls-14_construction-site-1-40-7f760 targetColor" d="m258.38,428.99s2.56,4.46,6.93,4.07,6.24,3.62,2.56,5.4c-3.68,1.78-14.55-1.44-14.55-1.44l-1.04-7.95,6.09-.08Z" style="fill: rgb(104, 225, 253);"/><path class="cls-14_construction-site-1-40-7f760 targetColor" d="m178.32,428.99s2.56,4.46,6.93,4.07,6.24,3.62,2.56,5.4-14.55-1.44-14.55-1.44l-1.04-7.95,6.09-.08Z" style="fill: rgb(104, 225, 253);"/><path class="cls-14_construction-site-1-40-7f760 targetColor" d="m221.64,239.82l11.89.5s39.82,5.01,53.53-10.56c13.71-15.57,9.6-42.89,9.6-42.89h10.28s22.21,67.56-42.39,86.08c-11.54,3.31-20.43,12.53-23.63,24.1l-5.29,19.14h-65.19l-1.31-30.97c-.42-9.88-5.43-19.05-13.65-24.55-15.57-10.41-37.74-33.31-21.29-73.79h11.65s-10.21,58.92,75.8,52.94Z" style="fill: rgb(104, 225, 253);"/><path class="cls-9_construction-site-1-40-7f760" d="m217.39,248.66s69.73,23.88,76.44-30.65c0,0-6.01,29.02-58.27,22.52l-13.92-.71-4.25,8.85Z"/><path class="cls-13_construction-site-1-40-7f760" d="m170.45,316.19h65.19l26.8,113.95h-12.07l-35.52-84.82c-.88-2.1-4.01-1.52-4.07.76l-.4,15.08c-1.16,19.5-7.57,38.32-18.56,54.46l-9.87,14.51h-12.74l8.97-17.2c10.67-20.88,8.7-44.17,1.69-66.56l-9.45-30.19Z"/><rect class="cls-6_construction-site-1-40-7f760" x="222.97" y="64.94" width="33.03" height="57.14"/><polygon class="cls-13_construction-site-1-40-7f760" points="78.32 179.69 140.83 96.7 211.45 179.69 78.32 179.69"/><polygon class="cls-13_construction-site-1-40-7f760" points="281.01 96.7 140.83 96.7 211.45 179.69 218.51 179.69 351.63 179.69 281.01 96.7"/><polygon class="cls-7_construction-site-1-40-7f760" points="281.01 96.7 140.83 96.7 211.45 179.69 218.51 179.69 351.63 179.69 281.01 96.7"/><path class="cls-9_construction-site-1-40-7f760" d="m138.63,187.03s-14.2,39.76,19.6,64.5c17.96,13.15,25.58,22.45,28.78,28.29,4.64,8.45,9.9,16.54,16.18,23.85l10.77,12.53h-43.51l-1.22-28.78s1.88-16.1-13.75-26.74c0,0-42.51-23.17-21.29-73.79l4.44.15Z"/><path class="cls-14_construction-site-1-40-7f760 targetColor" d="m200.49,239.93s13.27-13.01,26.95,0c0,0-10.44,20.38-26.95,0Z" style="fill: rgb(104, 225, 253);"/><path class="cls-2_construction-site-1-40-7f760" d="m227.44,239.93s-10.44,20.38-26.95,0c0,0,13.27-13.01,26.95,0"/><circle class="cls-1_construction-site-1-40-7f760" cx="140.83" cy="148.75" r="14.34"/><polygon class="cls-3_construction-site-1-40-7f760" points="135.96 186.93 133.9 179.69 143.86 179.69 143.86 186.93 135.96 186.93"/><polygon class="cls-3_construction-site-1-40-7f760" points="297.2 186.93 295.14 179.69 305.11 179.69 305.11 186.93 297.2 186.93"/></g></svg>