<svg id="_0008_navigation" xmlns="http://www.w3.org/2000/svg" xmlns:xlink="http://www.w3.org/1999/xlink" viewBox="0 0 500 500" data-imageid="navigation-8-ca385" imageName="Navigation" class="illustrations_image" style="width: 188px;"><defs><style>.cls-1_navigation-8-ca385{fill:url(#linear-gradient);}.cls-1_navigation-8-ca385,.cls-2_navigation-8-ca385,.cls-3_navigation-8-ca385,.cls-4_navigation-8-ca385,.cls-5_navigation-8-ca385,.cls-6_navigation-8-ca385,.cls-7_navigation-8-ca385,.cls-8_navigation-8-ca385,.cls-9_navigation-8-ca385,.cls-10_navigation-8-ca385,.cls-11_navigation-8-ca385,.cls-12_navigation-8-ca385,.cls-13_navigation-8-ca385,.cls-14_navigation-8-ca385,.cls-15_navigation-8-ca385,.cls-16_navigation-8-ca385,.cls-17_navigation-8-ca385,.cls-18_navigation-8-ca385{stroke-width:0px;}.cls-2_navigation-8-ca385,.cls-5_navigation-8-ca385{isolation:isolate;opacity:.18;}.cls-2_navigation-8-ca385,.cls-18_navigation-8-ca385{fill:#68e1fd;}.cls-3_navigation-8-ca385{fill:url(#linear-gradient-11-navigation-8-ca385);}.cls-4_navigation-8-ca385{fill:url(#linear-gradient-10-navigation-8-ca385);}.cls-5_navigation-8-ca385{fill:#1d2741;}.cls-6_navigation-8-ca385{fill:url(#linear-gradient-4-navigation-8-ca385);}.cls-7_navigation-8-ca385{fill:url(#linear-gradient-2-navigation-8-ca385);}.cls-8_navigation-8-ca385{fill:url(#linear-gradient-3-navigation-8-ca385);}.cls-9_navigation-8-ca385{fill:url(#linear-gradient-8-navigation-8-ca385);}.cls-10_navigation-8-ca385{fill:url(#linear-gradient-9-navigation-8-ca385);}.cls-11_navigation-8-ca385{fill:url(#linear-gradient-7-navigation-8-ca385);}.cls-12_navigation-8-ca385{fill:url(#linear-gradient-5-navigation-8-ca385);}.cls-13_navigation-8-ca385{fill:url(#linear-gradient-6-navigation-8-ca385);}.cls-14_navigation-8-ca385{fill:#231f20;}.cls-15_navigation-8-ca385{fill:#25233a;}.cls-16_navigation-8-ca385{fill:#fff;}.cls-17_navigation-8-ca385{fill:#ffb4a3;}</style><linearGradient id="linear-gradient-navigation-8-ca385" x1="-161.51" y1="1542.12" x2="-160.07" y2="1381.17" gradientTransform="translate(408.98 1871.41) scale(1 -1)" gradientUnits="userSpaceOnUse"><stop offset="0" stop-color="#000" stop-opacity="0"/><stop offset=".99" stop-color="#000"/></linearGradient><linearGradient id="linear-gradient-2-navigation-8-ca385" x1="-53.23" y1="1640.01" x2="7.25" y2="1616.63" xlink:href="#linear-gradient-navigation-8-ca385"/><linearGradient id="linear-gradient-3-navigation-8-ca385" x1="-22.49" y1="1562.08" x2="29.45" y2="1542.84" gradientTransform="translate(409 1880.3) scale(1 -1)" xlink:href="#linear-gradient-navigation-8-ca385"/><linearGradient id="linear-gradient-4-navigation-8-ca385" x1="-36.38" y1="1576.68" x2="-13.84" y2="1503.86" gradientTransform="translate(409 1880.3) scale(1 -1)" xlink:href="#linear-gradient-navigation-8-ca385"/><linearGradient id="linear-gradient-5-navigation-8-ca385" x1="-26.76" y1="1617.58" x2="35.07" y2="1616.23" xlink:href="#linear-gradient-navigation-8-ca385"/><linearGradient id="linear-gradient-6-navigation-8-ca385" x1="-6.84" y1="1578.19" x2="-15.88" y2="1579.91" xlink:href="#linear-gradient-navigation-8-ca385"/><linearGradient id="linear-gradient-7-navigation-8-ca385" x1="-21.18" y1="1578.28" x2="-15.3" y2="1579.51" gradientTransform="translate(408.98 1871.41) scale(1 -1)" gradientUnits="userSpaceOnUse"><stop offset=".19" stop-color="#000" stop-opacity="0"/><stop offset=".99" stop-color="#000"/></linearGradient><linearGradient id="linear-gradient-8-navigation-8-ca385" x1="-16.65" y1="1569.81" x2="19.34" y2="1537.39" xlink:href="#linear-gradient-navigation-8-ca385"/><linearGradient id="linear-gradient-9-navigation-8-ca385" x1="-22.74" y1="1661.8" x2="-34.68" y2="1591.4" xlink:href="#linear-gradient-navigation-8-ca385"/><linearGradient id="linear-gradient-10-navigation-8-ca385" x1="-30.99" y1="1663.19" x2="-42.93" y2="1592.8" xlink:href="#linear-gradient-navigation-8-ca385"/><linearGradient id="linear-gradient-11-navigation-8-ca385" x1="-91.55" y1="1642.17" x2="-75.02" y2="1638.06" xlink:href="#linear-gradient-navigation-8-ca385"/></defs><g id="backfround_navigation-8-ca385"><path class="cls-2_navigation-8-ca385 targetColor" d="M6.93,354.97S-54.64,147.54,189.15,70.68C399.73,4.31,542.76,227.31,488.41,354.97c-20.67,48.55-481.48,0-481.48,0Z" style="fill: rgb(104, 225, 253);"/></g><g id="location_pin_navigation-8-ca385"><path class="cls-18_navigation-8-ca385 targetColor" d="M102.1,186.91c-28.66.01-51.89,23.25-51.88,51.92,0,7.42,1.6,14.76,4.68,21.51l3.11,5.8,39.44,73.52,43.36-66.35,8.5-12.97c11.89-26.08.39-56.86-25.69-68.75-6.75-3.08-14.09-4.67-21.51-4.68h-.01ZM102.1,210.78c13.46,0,24.37,10.92,24.36,24.38,0,13.46-10.92,24.37-24.38,24.36-13.46,0-24.36-10.91-24.36-24.37s10.91-24.37,24.37-24.37h0Z" style="fill: rgb(104, 225, 253);"/><rect class="cls-18_navigation-8-ca385 targetColor" x="65.94" y="343.67" width="56.09" height="10.81" style="fill: rgb(104, 225, 253);"/></g><g id="road_navigation-8-ca385"><path class="cls-18_navigation-8-ca385 targetColor" d="M488.43,353.84c-7.15,11.29-16.89,20.72-28.41,27.49-50.52,29.36-134.88,10.49-202.02,13-44.83,1.69-107.38,40.45-199.7,8.06-16.49-5.78-49.63-39.75-51.35-48.55h481.48Z" style="fill: rgb(104, 225, 253);"/><path class="cls-1_navigation-8-ca385" d="M488.43,353.84c-7.15,11.29-16.89,20.72-28.41,27.49-50.52,29.36-134.88,10.49-202.02,13-44.83,1.69-107.38,40.45-199.7,8.06-16.49-5.78-49.63-39.75-51.35-48.55h481.48Z"/></g><g id="character_navigation-8-ca385"><path class="cls-15_navigation-8-ca385" d="M368.29,187.15c.03-1.98,1.43-3.99,3.39-4.28.19-.04.39-.02.57.04.14.07.27.17.37.3,1.1,1.28.66,3.25-.1,4.76-.7,1.27-1.31,2.58-1.82,3.94-1.56-.42-2.43-3.25-2.42-4.75Z"/><path class="cls-18_navigation-8-ca385 targetColor" d="M368.21,214.31l-12.36,27.14-22.3-4.73-3.72,6.55s24.33,9.66,27.03,8.99c2.71-.67,11.83-8.99,11.83-8.99l-.49-28.96Z" style="fill: rgb(104, 225, 253);"/><path class="cls-7_navigation-8-ca385" d="M368.21,214.31l-12.36,27.14-22.3-4.73-3.72,6.55s24.33,9.66,27.03,8.99c2.71-.67,11.83-8.99,11.83-8.99l-.49-28.96Z"/><path class="cls-5_navigation-8-ca385" d="M322.77,358.52l4.49,4.48c-1.68.21-3.18,1.14-4.12,2.55-.84,1.44-.67,3.51.65,4.54s3.3.71,4.99.35c25.7-5.53,52.32-3.59,78.6-3.95,5.32-.07,10.92-.32,15.44-3.11.98-.61,2-1.52,1.93-2.68-.1-1.51-1.94-2.25-3.45-2.24-4.06,0-8.88,2.5-11.69-.43-.96-1.01-1.41-2.49-2.57-3.24-1.91-1.21-4.35.16-6.32,1.28-9.56,5.41-21.3,4.43-32.22,3.3-2.63-.19-5.23-.62-7.77-1.29-2.8-.83-5.41-2.23-8.17-3.17-5.75-1.95-11.85-1.74-17.82-1.21-1.42.09-13.16,3.63-11.95,4.83Z"/><polygon class="cls-15_navigation-8-ca385" points="366.17 273.41 377.13 313.31 399.94 345 407.09 340.16 391.24 309.09 393.89 277.75 371.42 268.11 366.17 273.41"/><path class="cls-14_navigation-8-ca385" d="M347.24,341.14l8,4.85s8.19-27.82,13.86-36.19c13.19-19.46,24.01-32.36,24.01-32.36l-18.96-9.21-.24-.12-3.74,8.5-15.12,26.22-1.9,8.43-5.92,29.88Z"/><polygon class="cls-18_navigation-8-ca385 targetColor" points="411.49 310.66 413.48 327.42 380.84 331.33 374.01 330.49 376.91 300.32 378.61 298.39 411.49 310.66" style="fill: rgb(104, 225, 253);"/><polygon class="cls-8_navigation-8-ca385" points="411.49 310.66 413.48 327.42 380.84 331.33 374.01 330.49 376.91 300.32 378.61 298.39 411.49 310.66"/><polygon class="cls-6_navigation-8-ca385" points="380.53 330.67 378.66 304.42 377.03 301.17 374.94 329.8 380.53 330.67"/><path class="cls-18_navigation-8-ca385 targetColor" d="M399.91,289.73s2.77,1.61,2.91,6.29h-2.09s-.14-3.42-1.75-3.77l.93-2.52Z" style="fill: rgb(104, 225, 253);"/><path class="cls-18_navigation-8-ca385 targetColor" d="M365.7,277.53l5.46-9.42,6.27,10.89s10.43-.1,16.79-1.38l.83-.18c2.47-.57,4.12-1.35,3.94-2.43-.16-.98-.81-3.96-1.27-7.95-.54-4.31-.65-8.67-.32-13,.29-3.42,1.82-6.9,2.94-10.05.57-1.47.97-3,1.21-4.56.26-2.47.66-4.93,1.21-7.35.5-2.16.69-4.37.56-6.58-.13-4.95-1.06-10.32-1.61-11.42-.55-1.1-5.53-3.4-8.56-4.68-1.37-.61-2.33-.96-2.33-.96h-12.14l-10.47,5.86s-2.05,12.74-2.32,15.43c-.28,2.68,3.09,13.55,3.37,16.46.69,7.26-3.57,31.34-3.57,31.34Z" style="fill: rgb(104, 225, 253);"/><path class="cls-12_navigation-8-ca385" d="M386.62,250.25l6.49,27.19h1.92c2.47-.57,4.12-1.35,3.94-2.43-.32-1.88-2.43-11.34-1.6-20.95.46-5.22,3.68-10.49,4.19-14.62l-7.81-8.74-7.12,19.55Z"/><path class="cls-16_navigation-8-ca385" d="M390.82,208.45l-14.56,23.73s.61-17.6,1.54-20.63,13.03-3.09,13.03-3.09Z"/><path class="cls-17_navigation-8-ca385" d="M387.61,200.22s1.91,7.71,3.21,8.23c-1.53,2.17-3.86,3.65-6.47,4.12-1.49.29-7.49.84-6.58-1.05.51-.95.82-2,.9-3.07v-3.07s-4.85,1.54-5.37-.61-2.93-5.95-2.47-15.17c.46-9.22,14.61-6.79,16.56-5.3s3.38,10.36.21,15.92Z"/><path class="cls-18_navigation-8-ca385 targetColor" d="M394.21,277.62l-.46,1.38,6.58,2.56.95.37s11.53-23.24,12.14-26.17-4.19-29.13-11.72-41.66c-.68.37-1.34.77-1.98,1.21-2.64,1.82-7.11,5.56-8.19,10.92l8.78,17.77,3,6.07-5.62,16.96-3.5,10.58Z" style="fill: rgb(104, 225, 253);"/><path class="cls-17_navigation-8-ca385" d="M394.67,279.36s-4.82,4.46-5.18,5.46,0,3.56,0,3.56h.91l.21,2.79s.42,1.95,1.4,1.88c.9.02,1.8.16,2.66.42,0,0,3.41-.28,4.31-1.18.9-.9,1.4-5.16,1.33-6.35-.07-1.18,0-4.68,0-4.68l-5.64-1.9Z"/><path class="cls-18_navigation-8-ca385 targetColor" d="M389.49,288.35s-1.72-.14-2.65,3.77-.74,5.3-.74,5.3h2.51s.61-6.29,1.95-6.94l-.16-2.14h-.91Z" style="fill: rgb(104, 225, 253);"/><path class="cls-13_navigation-8-ca385" d="M399.91,289.73s2.77,1.61,2.91,6.29h-2.09s-.14-3.42-1.75-3.77l.93-2.52Z"/><path class="cls-11_navigation-8-ca385" d="M389.49,288.35s-1.72-.14-2.65,3.77-.74,5.3-.74,5.3h2.51s.61-6.29,1.95-6.94l-.16-2.14h-.91Z"/><path class="cls-18_navigation-8-ca385 targetColor" d="M376.91,300.32l1.48,10.84c.2,1.44,1.5,2.47,2.95,2.34l30.15-2.84c.86-.08,1.62-.55,2.07-1.29.33-.54.46-1.19.37-1.82l-1.43-9.9c-.2-1.4-1.44-2.41-2.86-2.32l-30.21,1.89c-.5.03-.98.19-1.38.48-.85.59-1.29,1.6-1.14,2.62Z" style="fill: rgb(104, 225, 253);"/><path class="cls-9_navigation-8-ca385" d="M376.91,300.32l1.48,10.84c.2,1.44,1.5,2.47,2.95,2.34l30.15-2.84c.86-.08,1.62-.55,2.07-1.29.33-.54.46-1.19.37-1.82l-1.43-9.9c-.2-1.4-1.44-2.41-2.86-2.32l-30.21,1.89c-.5.03-.98.19-1.38.48-.85.59-1.29,1.6-1.14,2.62Z"/><path class="cls-15_navigation-8-ca385" d="M352.17,349.95l1.93-4.67-6.14-3.72-2.6,6.07s-8.62.28-12.53,4.05l-1.67,3.21h20.93l.07-4.94Z"/><path class="cls-15_navigation-8-ca385" d="M409.24,344.94l-3.14-4.05-4.78,3.1,2.01,4.25-3.09,5.93s-2.29-.09-4.82,2.05c-2.53,2.14-1.68,2.7-1.68,2.7h12.55l7.19-10.67s-2.59-3.14-4.24-3.3Z"/><path class="cls-18_navigation-8-ca385 targetColor" d="M389.52,206.36s3.53,0,3.74,2.09l-1.12,7.74-4.25,1.75.84,4.33-13.68,11.86,15.78-25.68c-.54-.62-.99-1.33-1.31-2.09Z" style="fill: rgb(104, 225, 253);"/><path class="cls-18_navigation-8-ca385 targetColor" d="M376.48,209.08l2.2-1.89c.06.95-.04,1.91-.31,2.83-.43,1.15-2.48,18.67-2.13,22.16l-2.51-12.49,2.16-3.7-.84-2.65,1.43-4.25Z" style="fill: rgb(104, 225, 253);"/><path class="cls-10_navigation-8-ca385" d="M389.52,206.36s3.53,0,3.74,2.09l-1.12,7.74-4.25,1.75.84,4.33-13.68,11.86,15.78-25.68c-.54-.62-.99-1.33-1.31-2.09Z"/><path class="cls-4_navigation-8-ca385" d="M376.48,209.08l2.2-1.89c.06.95-.04,1.91-.31,2.83-.43,1.15-2.48,18.67-2.13,22.16l-2.51-12.49,2.16-3.7-.84-2.65,1.43-4.25Z"/><polygon class="cls-14_navigation-8-ca385" points="381.26 212.87 382.24 215.46 380.36 217.45 380.8 224.76 376.24 232.17 376.57 224.82 379.24 217.17 378.7 214.94 379.86 212.85 381.26 212.87"/><path class="cls-17_navigation-8-ca385" d="M326.68,228.3c-.46.86.38,1.79.95,2.57.55.74.89,1.61,1.01,2.52-2.03-.42-3.98-1.19-5.74-2.28-.87-.53-1.92-1.17-2.82-.7-.64.43-1.02,1.16-1,1.94-.04,2.04.75,4.02,2.2,5.46,1.44,1.42,3.11,2.58,4.94,3.43,1.42.73,3.22,1.38,4.51.43.53-.45.94-1.01,1.21-1.65.61-1.15,1.75-2.59,1.63-3.9-.21-1.22-.68-2.37-1.38-3.39-.96-1.54-3.46-4.44-5.51-4.44Z"/><path class="cls-18_navigation-8-ca385 targetColor" d="M314.93,224.22l8.5,13.99c.37.61,1.15.82,1.78.49l1.72-.9c.66-.35.91-1.17.56-1.83,0,0,0-.01-.01-.02l-7.54-13.51c-.27-.5-.83-.77-1.39-.67l-1.28-.26c-2.03.64-2.86,1.91-2.32,2.72Z" style="fill: rgb(104, 225, 253);"/><path class="cls-3_navigation-8-ca385" d="M314.93,224.22l8.5,13.99c.37.61,1.15.82,1.78.49l1.72-.9c.66-.35.91-1.17.56-1.83,0,0,0-.01-.01-.02l-7.54-13.51c-.27-.5-.83-.77-1.39-.67l-1.28-.26c-2.03.64-2.86,1.91-2.32,2.72Z"/><path class="cls-16_navigation-8-ca385" d="M316.58,223.46l8.54,13.96c.37.61,1.15.83,1.78.49l1.71-.9c.66-.35.91-1.16.56-1.82,0-.01-.01-.02-.02-.03l-7.56-13.49c-.28-.49-.83-.76-1.39-.67l-2.71.44c-.73.13-1.22.83-1.1,1.56.03.17.09.33.18.47Z"/><polygon class="cls-18_navigation-8-ca385 targetColor" points="317.92 223.46 321.96 222.26 328.74 234.41 325.27 235.71 317.92 223.46" style="fill: rgb(104, 225, 253);"/><path class="cls-14_navigation-8-ca385" d="M370.37,184.8c.08-1.31.62-2.56,1.52-3.52,2.59-2.94,6.97-3.47,10.87-3.15s7.85,1.27,11.69.53c.68-.13,1.58-.21,1.86.42.41.93-1.1,1.46-1.71,2.28l2.17.24c-.2.93-.75,1.75-1.53,2.29l.99.44-1.74,3.03.87.66c-2.07.61-3.26,2.73-4.06,4.73-.79,2-1.51,4.21-3.25,5.46-.18-1.08-.58-2.12-1.18-3.03,1.07-.44,1.59-1.66,1.15-2.73-.44-1.07-1.66-1.59-2.73-1.15-.54.22-.96.66-1.17,1.2-1.27-2.17-3.03-4.16-5.31-5.2-1.74-.78-3.7-.89-5.51-.31-1.95.66-3.03.39-2.94-2.2Z"/></g><g id="directions_navigation-8-ca385"><path class="cls-18_navigation-8-ca385 targetColor" d="M95.33,362.27c-1.29-1.22-2.49-2.54-3.59-3.93-.54-.68-.39-1.68.33-2.16l4.05-2.69c.62-.42,1.47-.31,1.95.28.8.99,1.66,1.93,2.59,2.8.57.54.59,1.45.06,2.04l-3.25,3.6c-.56.62-1.52.64-2.13.07Z" style="fill: rgb(104, 225, 253);"/><path class="cls-18_navigation-8-ca385 targetColor" d="M148.34,380.62c-2.59,0-5.16-.09-7.66-.27-.82-.06-1.43-.79-1.36-1.61l.42-4.84c.07-.8.77-1.39,1.57-1.34,3.76.26,7.53.31,11.29.16.81-.03,1.49.58,1.53,1.39l.25,4.85c.04.82-.59,1.52-1.41,1.56-1.56.06-3.12.09-4.63.09ZM169.49,378.86l-.9-6.26c-.12-.81.44-1.56,1.25-1.67,3.48-.5,7.3-1.07,11.63-1.72.81-.12,1.57.43,1.69,1.24l.72,4.8c.12.81-.44,1.56-1.25,1.68-5,.75-9.22,1.37-13.14,1.93h0ZM122.57,377.26c-4.04-1.13-7.98-2.61-11.77-4.41-.75-.36-1.05-1.27-.67-2.01l2.19-4.32c.36-.72,1.23-1,1.96-.66,3.32,1.58,6.77,2.88,10.3,3.88.78.22,1.24,1.01,1.04,1.79l-1.23,4.66c-.21.79-1.03,1.28-1.82,1.06ZM198.5,373.03l-.73-4.79c-.12-.81.43-1.56,1.24-1.68h0s11.67-1.76,11.67-1.76c.81-.12,1.56.43,1.68,1.24l.72,4.79c.12.81-.43,1.56-1.24,1.68l-11.66,1.76h0c-.81.12-1.56-.43-1.68-1.24ZM227.89,370.11l-.92-6.26c-.12-.81.45-1.56,1.25-1.68,4.16-.61,8.01-1.16,11.71-1.68.81-.11,1.55.45,1.67,1.26l.67,4.8c.11.81-.45,1.55-1.25,1.67-4.1.58-8.42,1.2-13.12,1.89h0ZM257.07,366.04l-.81-6.27c-.1-.81.47-1.55,1.28-1.66,4.12-.53,8.06-1.01,11.77-1.46.81-.1,1.54.49,1.64,1.3l.55,4.81c.09.81-.48,1.54-1.29,1.63-4.11.49-8.53,1.03-13.14,1.64h0ZM286.25,362.75l-.56-6.3c-.07-.81.54-1.53,1.35-1.6,4.3-.37,8.3-.65,11.94-.84.82-.04,1.51.59,1.54,1.41l.23,4.84c.04.81-.58,1.5-1.4,1.54-3.95.2-8.34.52-13.1.95h0Z" style="fill: rgb(104, 225, 253);"/><path class="cls-18_navigation-8-ca385 targetColor" d="M320.66,362.14c-1.35-.19-2.71-.33-4.08-.42-.81-.05-1.43-.73-1.39-1.54l.24-4.84c.04-.82.74-1.46,1.56-1.41,1.66.11,3.32.28,4.96.52.82.12,1.38.91,1.23,1.73l-.86,4.77c-.14.79-.88,1.31-1.67,1.2Z" style="fill: rgb(104, 225, 253);"/></g></svg>