<?xml version="1.0" encoding="UTF-8"?>
<svg width="18in" height="13in" clip-rule="evenodd" fill-rule="evenodd" image-rendering="optimizeQuality" shape-rendering="geometricPrecision" text-rendering="geometricPrecision" version="1.1" viewBox="0 0 18000 13000" xmlns="http://www.w3.org/2000/svg">
 <defs>
  <style type="text/css">.fil2 {fill:#06AF4E} .fil0 {fill:#312A24} .fil1 {fill:#F8E00E}</style>
 </defs>
 <path class="fil0" d="m5441 6217c597 483 1316 500 2157 52 41-250-5-408-136-474-138 157-415 258-829 303-435 40-810-66-1127-317-120 202-142 347-65 436z"/>
 <ellipse class="fil1" transform="matrix(1.6804 -.03788 .042412 1.8814 6554.2 4456.2)" rx="934" ry="835"/>
 <path class="fil2" d="m6196 8506c-677-551-1367-1070-2222-1367 792 454 1992 1309 2211 1543l11-176z"/>
 <path class="fil2" d="m6409 8341c-579-968-1121-1704-1650-2078 581 653 1262 1579 1593 2193l57-115z"/>
 <path class="fil2" d="m6365 8271c-637-833-1391-1661-2151-2047 679 543 1791 1645 2071 2209l80-162z"/>
 <path class="fil2" d="m6323 8247c-603-842-1643-1668-2556-2002 722 390 2034 1439 2498 2120l58-118z"/>
 <path class="fil2" d="m6144 8610c-436-373-1439-982-2080-1155 927 189 1736 666 2128 1058l-48 97z"/>
 <path class="fil2" d="m6191 8514c-565-473-1496-1063-2219-1295 936 234 1749 703 2277 1180l-58 115z"/>
 <path class="fil2" d="m6228 8441c-599-542-1685-1272-2313-1499 987 259 1776 810 2374 1376l-61 123z"/>
 <path class="fil2" d="m6250 8397c-1018-959-2031-1617-2601-1833 929 140 2262 1300 2653 1729l-52 104z"/>
 <path class="fil2" d="m6688 8367c374-790 773-1555 1417-2191-519 750-1235 2039-1331 2345l-86-154z"/>
 <path class="fil2" d="m6741 8489c535-993 1043-1753 1555-2150-551 678-1190 1634-1493 2262l-62-112z"/>
 <path class="fil2" d="m6658 8524c600-861 1315-1722 2057-2141-654 572-1715 1723-1969 2299l-88-158z"/>
 <path class="fil2" d="m6867 8316c565-869 1567-1740 2464-2116-704 422-1967 1530-2400 2231l-64-115z"/>
 <path class="fil2" d="m6855 8700c419-392 1394-1046 2026-1247-917 231-1703 743-2078 1153l52 94z"/>
 <path class="fil2" d="m6880 8587c543-497 1446-1129 2159-1394-925 276-1716 781-2222 1282l63 112z"/>
 <path class="fil2" d="m6971 8505c574-568 1626-1347 2244-1602-976 303-1738 890-2311 1482l67 120z"/>
 <path class="fil2" d="m6947 8462c974-1004 1956-1707 2516-1949-922 182-2201 1401-2572 1848l56 101z"/>
 <path class="fil0" d="m6981 8546c-332 285-658 283-978-7-4-115-13-759-27-1933 233 92 576 94 1028 5-21 1239-29 1884-23 1935z"/>
</svg>
